<?xml version="1.0" encoding="utf-8"?>
<!-- Generator: Adobe Illustrator 19.0.0, SVG Export Plug-In . SVG Version: 6.00 Build 0)  -->
<svg version="1.1" id="Layer_1" xmlns="http://www.w3.org/2000/svg" xmlns:xlink="http://www.w3.org/1999/xlink" x="0px" y="0px"
	 viewBox="0 0 800 800" style="enable-background:new 0 0 800 800;" xml:space="preserve">
<style type="text/css">
	.st0{fill:#FFFFFF;}
</style>
<path class="st0" d="M357.1,268.7c-155,0-268,4.6-357.1,22.3c77.7-14,210.6-19.3,335.6-18.6c272.6,1.5,416.2,47.7,416.2,93
	c0,38.8-46.6,69.6-463.1,91.7l98.1-0.2C690.3,443.9,800,412.2,800,363.8C800,315.2,629,268.7,357.1,268.7z"/>
<path class="st0" d="M67.9,346c0.7-2.4,1.8-7-2-7c-4.6,0-5.5,2.8-9.2,19.3c-3.9,16.9-4.2,19.3,0.2,19.3c2.8,0,4.6-2.6,6.3-9.9
	l1.1-4.4h17.3l-0.9,3.7c-3.1,13.4-10.9,21.2-26.5,21.2c-22.8,0-20.1-11.6-15.8-29.8c4.2-17.7,7-29.8,29.8-29.8
	c18.8,0,18.8,9.2,16.9,18.2l-1.3,3.9H66.6L67.9,346z"/>
<path class="st0" d="M124.8,365.3c-2.8,12.3-7.4,22.8-26.5,22.8s-18.6-10.7-15.5-23c2.8-12.3,7.4-22.8,26.3-22.8
	C128.1,342.3,127.6,353,124.8,365.3z M100.7,378c3.1,0,4.4-2.6,6.8-12.7c2.4-10.1,2.2-12.7-0.9-12.7s-4.4,2.6-6.8,12.7
	C97.6,375.4,97.6,378,100.7,378z"/>
<path class="st0" d="M152.4,358.3c0.9-3.3-0.2-4.4-2.4-4.4c-2.4,0-3.9,1.8-4.4,4.4l-6.8,28.9h-17.3l10.3-43.6h16.6l-1.1,5h0.2
	c3.5-4.4,8.3-6.1,14-6.1c6.1,0,10.9,3.1,9.2,10.9l-7.9,33.7h-17.3L152.4,358.3z"/>
<path class="st0" d="M183,373c-0.2,1.8-0.4,3.3-0.2,4.4c0.4,1.1,1.3,1.8,3.3,1.8c3.1,0,4.2-2.6,4.4-3.3c0.4-2.2,0-2.8-5.7-4.8
	c-10.3-3.5-14.7-5.9-12.7-13.8c2-8.8,9-14.7,22.1-14.7c19,0,16.9,9.4,16,13.6h-14.4c0.2-1.1,0.4-2.4,0-3.1c-0.4-0.9-1.3-1.3-3.1-1.3
	s-3.7,0.7-4.4,3.1c-0.4,2.2,1.5,2.8,11.2,6.1c4.4,1.5,9.9,3.7,7.7,12.9c-2.6,10.5-12.5,14.2-23.2,14.2c-12.5,0-18.6-3.1-16-15.1H183
	z"/>
<path class="st0" d="M231.6,381.9L231.6,381.9c-3.7,4.2-8.5,6.1-14.2,6.1c-6.1,0-10.9-3.1-9.2-10.9l7.9-33.7h17.3l-6.8,28.9
	c-0.9,3.3,0.2,4.2,2.4,4.2c2.4,0,3.9-1.8,4.4-4.2l6.8-28.9h17.3L247.2,387h-16.6L231.6,381.9z"/>
<path class="st0" d="M306.1,358.3c0.9-3.3-0.2-4.4-2.4-4.4c-2.4,0-3.9,1.8-4.4,4.4l-6.8,28.9h-17.3l6.8-28.9
	c0.9-3.3-0.2-4.4-2.4-4.4c-2.4,0-3.9,1.8-4.4,4.4l-6.8,28.9h-17.3l10.3-43.6h16.6l-1.1,5h0.2c3.5-4.4,8.3-6.1,14-6.1
	c4.6,0,8.5,1.8,10.1,6.1c3.5-4.4,8.3-6.1,14-6.1c6.1,0,10.9,3.1,9.2,10.9l-7.9,33.7h-17.3L306.1,358.3z"/>
<path class="st0" d="M338.9,373.4c-0.4,2.4-1.1,5.5,2.4,5.5c3.3,0,4.4-2.8,5.5-7.2h15.5c-1.3,5.9-4.2,10.1-8.1,12.7
	s-9.2,3.7-14.9,3.7c-19,0-18.6-10.7-15.5-23c2.8-12.3,7.4-22.8,26.3-22.8c19.5,0,17.1,11.2,14,24.7l-0.2,0.7h-23.6L338.9,373.4z
	 M350.3,357c1.1-4.2,0.2-5.5-2.6-5.5c-2.4,0-3.9,1.3-4.8,5.5l-0.7,2.6h7.4L350.3,357z"/>
<path class="st0" d="M372.2,343.4h16.6l-1.5,6.3h0.2c2.6-4.2,7.2-7.7,12-7.7c2,0,2.4,0.2,2.8,0.2l-3.3,14.2c-0.7,0-1.3-0.2-2-0.2
	c-0.9,0-1.5,0-3.3,0c-5.9,0-8.1,2.8-9.2,7.9l-5.3,22.6h-17.3L372.2,343.4z"/>
<path class="st0" d="M410.9,373c-0.2,1.8-0.4,3.3-0.2,4.4c0.4,1.1,1.3,1.8,3.3,1.8c3.1,0,4.2-2.6,4.4-3.3c0.4-2.2,0-2.8-5.7-4.8
	c-10.3-3.5-14.7-5.9-12.7-13.8c2-8.8,9-14.7,22.1-14.7c19,0,16.9,9.4,16,13.6h-14.4c0.2-1.1,0.4-2.4,0-3.1c-0.4-0.9-1.3-1.3-3.1-1.3
	s-3.7,0.7-4.4,3.1c-0.4,2.2,1.5,2.8,11.2,6.1c4.4,1.5,9.9,3.7,7.7,12.9c-2.6,10.7-12.5,14.7-23,14.7c-12.5,0-18.6-3.1-16-15.1h14.9
	V373z"/>
<path class="st0" d="M463.1,329.6h38.1l-3.1,13.1h-20.4l-2,8.8h19L492,364h-19.3l-2.4,10.1h21.2l-3.1,13.1h-39L463.1,329.6z"/>
<path class="st0" d="M522.2,358.3c0.9-3.3-0.2-4.4-2.4-4.4c-2.4,0-3.9,1.8-4.4,4.4l-6.8,28.9h-17.3l10.3-43.6h16.6l-1.1,5h0.2
	c3.5-4.4,8.3-6.1,14-6.1c6.1,0,10.9,3.1,9.2,10.9l-7.9,33.7h-17.3L522.2,358.3z"/>
<path class="st0" d="M554.8,373.4c-0.4,2.4-1.1,5.5,2.4,5.5c3.3,0,4.4-2.8,5.5-7.2h15.5c-1.3,5.9-4.2,10.1-8.1,12.7
	c-3.9,2.6-9.2,3.7-14.9,3.7c-19,0-18.6-10.7-15.5-23c2.8-12.3,7.4-22.8,26.3-22.8c19.5,0,17.1,11.2,14,24.7l-0.2,0.7h-23.6
	L554.8,373.4z M566.2,357c1.1-4.2,0.2-5.5-2.6-5.5c-2.4,0-3.9,1.3-4.8,5.5l-0.7,2.6h7.4L566.2,357z"/>
<path class="st0" d="M587.8,343.4h16.6l-1.5,6.3h0.2c2.6-4.2,7.2-7.7,12-7.7c1.8,0,2.4,0.2,2.8,0.2l-3.3,14.2c-0.7,0-1.3-0.2-2-0.2
	c-0.9,0-1.5,0-3.3,0c-5.9,0-8.1,2.8-9.2,7.9l-5.3,22.6h-17.3L587.8,343.4z"/>
<path class="st0" d="M644.3,343.4h16.4l-9.9,41.8c-3.1,12.7-12.5,16.6-25,16.6c-18,0-17.3-7.4-16.6-12.5h15.5c-0.2,1.1,0,2,0.2,2.4
	c0.4,0.7,1.3,0.9,2.6,0.9c2.8,0,4.4-1.1,5-3.9l2-8.5l0,0c-3.1,4.2-7.4,5.5-12.3,5.5c-11.4,0-11.2-10.9-8.8-21.2
	c2.2-9.9,6.1-22.1,20.1-22.1c5.5,0,8.1,2.2,9,6.6h0.2L644.3,343.4z M637.5,353.9c-3.3,0-4.6,3.1-6.6,11.4c-1.3,6.1-1.5,9.2,1.8,9.2
	c3.5,0,4.8-3.3,6.1-9.2C640.6,357,640.8,353.9,637.5,353.9z"/>
<path class="st0" d="M661.9,343.4h17.7l-1.8,26.5h0.2l10.1-26.5h17.3l-22.3,43.1c-5.5,10.3-8.5,14.7-21.5,14.7
	c-3.7,0-5.9-0.2-7.9-0.7l2.4-10.1c1.5,0.2,3.1,0.2,4.4,0.2c1.3,0,2.6-0.4,3.3-1.3c0.9-0.7,1.3-1.5,1.5-2.4L661.9,343.4z"/>
<path class="st0" d="M484.7,510c-3.1,10.9-9.9,21-23.2,21c-17.3,0-16-15.5-12.9-30c3.3-14.7,9.4-30,26.3-30c12.5,0,16.2,6.6,14,18
	H481c1.3-6.6,0.4-12-7.4-12c-10.3,0-14.2,10.9-17.1,24.3c-3.1,13.4-3.9,24.1,6.3,24.1c9.2,0,12.3-8.1,14-15.1h7.9V510z"/>
<path class="st0" d="M509,485.3c13.1,0,14,10.5,11.4,22.8s-8.3,22.8-21.5,22.8s-14-10.5-11.4-22.8C490.4,496,496.1,485.3,509,485.3z
	 M513,508c2.2-9.4,2.4-17.5-5.3-17.5c-7.2,0-10.5,8.1-12.7,17.5c-2.2,9.4-2.4,17.5,4.8,17.5C507.5,525.6,510.8,517.5,513,508z"/>
<path class="st0" d="M550.6,529.7h-6.8l1.1-5h-0.2c-2.8,3.9-8.1,6.1-12.5,6.1c-12,0-10.1-8.8-9-13.8l6.8-30.7h7.2l-6.8,30
	c-0.7,3.3-1.8,8.8,4.8,8.8c3.7,0,9.6-2.4,10.9-8.8l6.8-30h7.2L550.6,529.7z"/>
<path class="st0" d="M566.6,486.4h6.8l-1.1,5h0.2c2.8-3.9,8.1-6.1,12.5-6.1c12,0,10.1,8.8,9,13.8l-6.8,30.7H580l6.8-30
	c0.7-3.3,1.8-8.8-4.8-8.8c-3.7,0-9.6,2.4-10.9,8.8l-6.8,30H557L566.6,486.4z"/>
<path class="st0" d="M608.6,473.9h7.2l-2.8,12.7h7.9l-1.1,5.3h-7.9l-6.1,27.8c-0.9,3.5-0.2,4.8,3.5,4.8c1.5,0,2.4-0.2,3.3-0.2
	l-1.3,5.7c-0.9,0.2-2.8,0.4-5.9,0.4c-7.4,0-8.5-2.8-7.2-8.5l6.8-30h-6.6l1.1-5.3h6.6L608.6,473.9z"/>
<path class="st0" d="M652.9,485.3c13.1,0,14,10.5,11.4,22.8s-8.3,22.8-21.5,22.8s-14-10.5-11.4-22.8
	C634.3,496,640,485.3,652.9,485.3z M656.8,508c2.2-9.4,2.4-17.5-5.3-17.5c-7.2,0-10.5,8.1-12.7,17.5c-2.2,9.4-2.4,17.5,4.8,17.5
	C651.3,525.6,654.6,517.5,656.8,508z"/>
<path class="st0" d="M674.1,486.4h6.8l-1.1,5h0.2c2.8-3.9,8.1-6.1,12.5-6.1c12,0,10.1,8.8,9,13.8l-6.8,30.7h-7.4l6.8-30
	c0.7-3.3,1.8-8.8-4.8-8.8c-3.7,0-9.6,2.4-10.9,8.8l-6.8,30h-7.2L674.1,486.4z"/>
<path class="st0" d="M727.8,472.1h7.4l-9,40.7c-2,8.5,0,12.5,7.4,12.5c7.9,0,11.4-4.4,13.1-12.5l9-40.7h7.4l-9,40.7
	c-2.4,11.2-10.1,18.4-21.9,18.4c-12,0-16.4-6.3-13.6-18.4L727.8,472.1z"/>
<path class="st0" d="M783.6,499.1c1.3-5.5,0.4-8.5-4.8-8.5c-2.2,0-7.4,0.7-9,6.6c-1.1,5,4.2,6.1,9.4,7.9c5,1.8,10.3,3.7,8.3,12.3
	c-2,9.2-9.2,13.6-17.7,13.6c-15.5,0-13.1-10.9-12.3-15.3h7.2c-1.1,5.3-0.7,10.1,6.3,10.1c2.2,0,7.9-1.1,9.2-7.2
	c1.3-5.9-3.9-7-9.2-8.8c-5-1.8-10.5-3.3-8.5-12.3c1.8-8.1,9.2-12,17.3-12c13.4,0,11.8,8.8,10.7,13.8
	C790.6,499.1,783.6,499.1,783.6,499.1z"/>
</svg>
