<?xml version="1.0" encoding="utf-8"?>
<!-- Generator: Adobe Illustrator 19.0.0, SVG Export Plug-In . SVG Version: 6.00 Build 0)  -->
<svg version="1.1" id="Layer_1" xmlns="http://www.w3.org/2000/svg" xmlns:xlink="http://www.w3.org/1999/xlink" x="0px" y="0px"
	 viewBox="0 0 800 800" style="enable-background:new 0 0 800 800;" xml:space="preserve">
<style type="text/css">
	.st0{fill:#FFFFFF;}
</style>
<path class="st0" d="M395.437,317.196l1.225,45.627h-2.347c-0.75-1.973-1.327-3.471-1.735-4.491
	c-2.383-6.533-4.323-11.397-5.818-14.597c-2.654-5.716-6.499-10.955-11.534-15.719c-3.812-3.606-7.757-6.227-11.84-7.859
	c-4.082-1.633-8.676-2.45-13.78-2.45c-7.691,0-14.358,1.668-20.006,5.002c-4.968,2.927-9.595,7.129-13.882,12.606
	c-4.287,5.478-7.793,11.723-10.513,18.73c-3.879,9.868-5.818,21.096-5.818,33.684c0,10.684,1.327,20.312,3.981,28.887
	c2.654,8.574,6.533,15.754,11.636,21.538c9.391,10.752,21.843,16.127,37.358,16.127c7.757,0,14.732-1.342,20.925-4.032
	c6.192-2.688,10.988-6.481,14.392-11.381c3.946-5.647,6.803-13.269,8.574-22.864l2.347,0.408c-1.293,10.753-4.22,19.292-8.778,25.62
	c-4.356,6.057-10.36,10.684-18.016,13.882c-7.655,3.198-16.52,4.798-26.59,4.798c-9.391,0-18.373-1.397-26.947-4.186
	c-13.677-4.491-24.362-12.606-32.051-24.344c-7.691-11.738-11.534-25.738-11.534-42.003c0-12.452,2.246-23.936,6.737-34.449
	c4.491-10.513,10.751-18.967,18.782-25.365c6.192-4.899,13.592-8.794,22.201-11.688c8.607-2.892,17.232-4.338,25.875-4.338
	c8.233,0,16.944,1.566,26.131,4.695l8.37,2.756c1.633,0.612,3.062,0.918,4.287,0.918c1.7,0,3.096-0.714,4.185-2.143
	c0.475-0.679,1.054-1.802,1.735-3.368L395.437,317.196L395.437,317.196z"/>
<path class="st0" d="M578.483,320.258c-3.878,0.204-6.992,0.732-9.34,1.582c-2.347,0.852-4.508,2.263-6.481,4.236
	c-1.497,1.429-2.62,3.011-3.368,4.747c-0.75,1.735-1.26,3.93-1.531,6.583c-0.477,3.539-0.714,7.724-0.714,12.555v75.227
	c0,7.009,0.408,12.215,1.225,15.617c0.817,3.403,2.279,6.124,4.389,8.166c3.742,3.608,9.016,5.581,15.821,5.92v2.348h-65.225v-2.348
	c3.946-0.204,7.128-0.765,9.544-1.684c2.414-0.918,4.575-2.331,6.481-4.237c2.108-2.177,3.555-4.95,4.338-8.318
	c0.781-3.368,1.173-8.523,1.173-15.464v-91.253l-52.567,123.303h-2.143l-52.261-121.467v89.415c0,7.009,0.391,12.182,1.174,15.515
	c0.782,3.335,2.228,6.09,4.338,8.267c1.904,1.974,4.065,3.403,6.482,4.287c2.415,0.885,5.563,1.429,9.442,1.633v2.348h-47.055
	v-2.348c3.879-0.204,7.026-0.748,9.442-1.633c2.415-0.883,4.576-2.312,6.482-4.287c2.108-2.177,3.555-4.95,4.338-8.318
	c0.782-3.368,1.174-8.523,1.174-15.464v-75.228c0-3.129-0.102-6.089-0.306-8.88c-0.342-5.035-1.122-8.71-2.347-11.024
	c-1.702-3.198-4.032-5.563-6.992-7.094c-2.96-1.531-6.89-2.432-11.789-2.705v-2.348h44.299l44.197,109.115l45.831-109.115h41.952
	v2.35H578.483z"/>
<path class="st0" d="M650,317.911v2.348c-3.878,0.204-7.027,0.75-9.442,1.633c-2.416,0.885-4.578,2.314-6.482,4.287
	c-2.654,2.723-4.287,6.499-4.899,11.33c-0.408,3.608-0.612,7.757-0.612,12.452v75.228c0,5.649,0.271,10.105,0.817,13.372
	c0.544,3.266,1.429,5.888,2.654,7.86c1.768,2.723,4.047,4.746,6.839,6.072c2.789,1.327,6.497,2.128,11.126,2.398v2.348h-65.224
	v-2.348c3.946-0.204,7.128-0.765,9.543-1.684c2.416-0.918,4.543-2.331,6.38-4.237c2.177-2.177,3.639-4.932,4.389-8.267
	c0.748-3.333,1.122-8.506,1.122-15.515v-75.228c0-7.007-0.375-12.18-1.122-15.515c-0.75-3.333-2.213-6.089-4.389-8.267
	c-1.837-1.973-3.981-3.402-6.431-4.287c-2.45-0.883-5.614-1.429-9.492-1.633v-2.348L650,317.911L650,317.911z"/>
<path class="st0" d="M211.793,469.667c15.371-14.69,39.182-58.328-4.057-67.378c-78.922-16.521-45.665-63.942-29.928-80.591
	c0.396-0.412,1.048-0.239,0.601,0.372c-12.567,16.4-33.036,50.324,15.188,55.921c86.806,10.086,36.867,78.28,18.783,91.952
	C211.939,470.317,211.57,469.88,211.793,469.667L211.793,469.667z"/>
<path class="st0" d="M200.198,335.817c4.8,0,6.808,23.835,1.358,34.737c-0.888,1.777-1.358,2.348-1.358,2.348
	s-0.473-0.569-1.362-2.348C193.387,359.652,195.393,335.817,200.198,335.817L200.198,335.817z"/>
<path class="st0" d="M197.056,510.062c-7.187-4.244-49.267-33.543,16.241-94.017c81.254-75.022,7.087-121.636-16.084-126.87
	c-0.989-0.218-1.31,0.418-0.576,0.816c18.41,7.218,64.155,43.195-1.17,94.283c-96.613,75.543-11.098,120.751,1.088,126.592"/>
</svg>
