<svg xmlns="http://www.w3.org/2000/svg" width="800" height="800" viewBox="0 0 800 800"><style type="text/css">.st0{fill:#FFFFFF;} .st1{fill:#FFFFFF;stroke:#FFFFFF;stroke-width:5.065;}</style><path class="st0" d="M299.35 346.68s-81.922 1.408-105.724-5.647c0 0-5.604-5.653 38.518-4.951 44.091.707 86.106-1.418 112.703-9.185l-8.403-22.614-57.39 1.413s-3.518-2.828 9.787-4.951c13.305-2.119 43.392-5.642 56.006-12.015 0 0 6.299-3.514 9.8 13.443l1.407-5.672 31.493 5.672s7.013 3.535-5.584 4.235c-12.627.688-24.519 0-24.519 0l8.395 23.318s-77.71 14.84-116.197 10.586c0-.001 52.505 2.844 49.708 6.368M340.637 357.288s11.204 20.485 34.998 20.485c23.821 0 31.525-16.24 31.525-16.24s-18.195 8.474-32.901 8.474c-14.72-.001-33.622-12.719-33.622-12.719M455.473 331.858s79.826 4.224 93.114 7.053c0 0-28.711 3.535-31.508 4.953 0 0 36.396 5.658 86.111-4.249 0 0-25.924-6.361-83.314-8.481-57.404-2.118-60.912-1.409-64.403.724M498.827 296.347s4.911 6.041-1.068 9.322h8.693s6.555-13.181-5.414-14.826c0 0 3.252 1.077 2.699 3.835 0 0-4.335.556-4.91 1.669M506.452 288.085s15.263-11.545 15.263-18.711c0-7.139-13.61-21.415-21.773-24.179-8.186-2.747-17.994-1.646-26.696 3.302-8.723 4.957-70.271 48.929-91.502 76.962 0 0 82.779-67.083 90.956-70.361 0 0-2.168 4.4 1.636 3.278 3.81-1.081 33.242-10.98 39.221 1.122 0 0-9.819-1.122-10.896.538l.561 2.757s11.408-2.194 11.968 0c0 .001 4.906 8.248-8.738 25.292M499.402 260.6s-26.702 5.501-75.738 47.83c0-.001 61.552-44.543 75.738-47.83"/><path class="st0" d="M8.144 504.958c0-2.785-.73-3.503-3.341-3.953-3.863-.628-4.803-.359-4.803-1.527 0-.719.731-.987 1.88-.987 2.402 0 4.594.358 12.217.358 3.55 0 8.144-.358 10.442-.358 1.148 0 1.671.09 1.671.808 0 1.348-.836 1.078-5.43 1.706-1.357.18-2.402 1.348-2.402 3.414v44.551c0 2.875.418 2.964 4.907 3.952 2.402.538 3.237.359 3.237 1.437 0 .538-.312 1.078-1.983 1.078-1.775 0-4.491-.359-10.755-.359-8.666 0-10.442.359-12.321.359-1.044 0-1.462-.359-1.462-1.167 0-.809 1.045-1.167 2.82-1.348 4.49-.449 5.324-1.257 5.324-5.03v-42.934zM65.368 554.554c0 1.347-.696 1.721-1.566 1.721-1.045 0-1.48-.748-2.088-1.646l-23.062-35.694c-.87-1.346-1.131-1.87-1.392-1.87-.261 0-.261.224-.261 1.646v28.585c0 3.666.349 5.313 4.003 5.985 1.654.3 3.046.225 3.046 1.198 0 .373 0 .898-1.045.898-2.175 0-4.612-.3-7.222-.3-2.437 0-3.83.3-5.657.3-1.305 0-1.915-.15-1.915-1.048 0-.523.522-.898 2.35-1.048 3.22-.224 4.003-1.047 4.003-7.931v-32.326c0-2.395-.522-2.545-2.959-2.994-1.915-.374-2.524-.598-2.524-1.197 0-.523.435-.898 1.654-.898.871 0 1.566.224 5.222.224 2.959 0 3.828-.224 4.612-.224 1.131 0 1.566 1.197 3.307 3.966l17.317 27.686c.609.973 1.131 1.721 1.305 1.721.435 0 .435-.149.435-1.496v-23.272c0-5.013-1.044-6.136-3.741-6.51-1.567-.224-2.524 0-2.524-1.047 0-.899.87-1.048 1.827-1.048 1.131 0 2.35.3 5.83.3 3.046 0 3.656-.3 5.048-.3 1.044 0 1.392.374 1.392.898 0 .898-.784 1.048-2.35 1.197-2.35.225-3.046 1.497-3.046 3.292v41.232zM102.52 508.235c4.003 0 3.133-2.994 5.048-2.994.609 0 1.131.449 1.131 1.197 0 1.197-.261 2.545-1.219 13.319-.088.749-.261 1.198-.87 1.198-1.219 0-.783-.599-2.785-5.837-1.566-4.115-3.481-4.789-6.788-4.789-1.827 0-2.176.374-2.176 1.272v37.938c0 2.245.522 3.592 3.481 3.741 3.307.15 3.568.3 3.568 1.122 0 .674-.435.973-1.48.973-1.479 0-3.22-.3-8.789-.3-7.048 0-9.92.3-11.139.3-.783 0-1.305-.3-1.305-.973 0-.748.522-.898 2.697-1.122 4.003-.373 4.438-.898 4.438-4.339v-36.966c0-1.347-.609-1.646-2.35-1.646-3.307 0-5.221 1.346-8.093 5.687-2.524 4.04-2.524 4.864-3.307 4.864-.521 0-.783-.298-.783-.748 0-.747.347-2.319 2.088-11.598.523-2.769.523-3.292 1.654-3.292 1.654 0 .348 2.994 3.741 2.994h23.238zM116.699 512.799c0-1.871-.61-2.395-3.22-2.769-1.654-.224-2.437-.149-2.437-1.123 0-.823.696-.972 2.524-.972.784 0 2.785.3 13.837.3 9.137 0 13.227-.3 15.751-.3 1.566 0 2.001.3 2.001 1.421v9.503c0 .973-.348 1.348-.957 1.348-1.392 0-.87-.374-2.871-4.191-2.35-4.49-4.787-5.986-11.488-5.986-4.177 0-4.612.3-4.612 2.02v15.19c0 1.048.174 1.348 2.35 1.348 7.223 0 7.571-.076 9.137-2.844 1.392-2.47 1.306-3.442 2.437-3.442.784 0 1.045.374 1.045 1.346 0 1.571-.349 4.116-.349 6.435 0 2.845.349 4.789.349 6.286 0 1.348-.175 2.095-1.219 2.095-1.306 0-1.306-1.496-2.263-4.115-1.218-3.442-1.566-3.666-7.657-3.666-3.482 0-3.83.075-3.83 1.347v14.293c0 5.388 1.045 6.959 6.962 6.959 5.743 0 8.528-2.095 10.791-7.333 1.74-3.966 1.652-4.266 2.523-4.266.783 0 .956.225.956 1.722v10.625c0 1.048-.347 1.348-2.087 1.348-2.35 0-6.527-.3-15.403-.3-9.834 0-12.358.3-16.535.3-1.566 0-1.827-.374-1.827-.898 0-.824.261-1.048 1.48-1.198 3.741-.524 4.612-1.196 4.612-3.442v-37.041zM164.728 549.017c0 2.17.696 3.666 3.395 4.115 3.306.523 3.655.898 3.655 1.422 0 .523-.261.823-1.131.823-1.915 0-5.135-.3-9.312-.3-4.873 0-7.223.3-9.399.3-.87 0-1.305-.3-1.305-.973 0-.523.348-.972 1.827-1.122 2.785-.224 3.742-1.646 3.742-3.142v-36.666c0-2.469-.609-3.293-3.132-3.442-2.002-.149-2.437-.449-2.437-.973 0-.748.609-1.122 1.566-1.122 2.437 0 4.961.3 8.703.3 4.612 0 7.744-.3 12.793-.3 9.485 0 15.229 5.238 15.229 12.272 0 6.659-6.353 10.327-13.401 11.15v.149c2.611.374 3.655 1.422 4.96 3.666 7.137 12.347 8.007 16.687 10.53 18.108 1.74.973 3.132.3 3.132 1.422 0 .374-.26.674-1.044.674l-6.004-.3c-2.176 0-2.872.3-4.612.3-.61 0-1.045-.374-1.566-1.422l-10.704-20.054c-.523-.972-1.132-1.571-2.785-1.571-1.915 0-2.699.374-2.699 1.795v14.891zm0-20.579c0 1.497.261 1.797 2.785 1.797 7.833 0 12.01-2.769 12.01-10.177 0-5.387-4.177-10.027-9.399-10.027-4.351 0-5.482.973-5.396 3.966v14.441zM229.641 554.554c0 1.347-.696 1.721-1.566 1.721-1.045 0-1.48-.748-2.088-1.646l-23.061-35.694c-.87-1.346-1.131-1.87-1.392-1.87-.261 0-.261.224-.261 1.646v28.585c0 3.666.349 5.313 4.003 5.985 1.654.3 3.046.225 3.046 1.198 0 .373 0 .898-1.045.898-2.175 0-4.612-.3-7.222-.3-2.437 0-3.83.3-5.657.3-1.305 0-1.915-.15-1.915-1.048 0-.523.522-.898 2.35-1.048 3.22-.224 4.003-1.047 4.003-7.931v-32.326c0-2.395-.522-2.545-2.959-2.994-1.915-.374-2.524-.598-2.524-1.197 0-.523.435-.898 1.654-.898.871 0 1.566.224 5.222.224 2.959 0 3.828-.224 4.612-.224 1.131 0 1.566 1.197 3.307 3.966l17.317 27.686c.609.973 1.131 1.721 1.305 1.721.435 0 .435-.149.435-1.496v-23.272c0-5.013-1.044-6.136-3.741-6.51-1.567-.224-2.523 0-2.523-1.047 0-.899.87-1.048 1.827-1.048 1.131 0 2.35.3 5.83.3 3.046 0 3.656-.3 5.048-.3 1.044 0 1.392.374 1.392.898 0 .898-.784 1.048-2.35 1.197-2.35.225-3.046 1.497-3.046 3.292v41.232zM246.604 538.465c-1.305 0-1.305.449-2.524 4.789-1.74 6.286-2.175 7.259-2.175 7.783 0 .972.696 1.721 2.61 2.244 1.654.45 4.091.15 4.091 1.122 0 .449-.261.973-1.567.973-.783 0-4.177-.3-6.265-.3-4.177 0-5.657.3-6.527.3-.61 0-.871-.225-.871-.748 0-1.122 1.131-.674 2.959-1.347 2.001-.747 2.871-4.265 9.92-24.244 7.658-21.701 7.049-21.999 8.615-21.999 1.827 0 1.131.898 11.835 30.829 4.351 12.122 4.873 14.891 6.613 15.414 2.002.599 3.046.374 3.046 1.273 0 .523-.261.823-1.827.823-1.392 0-4.177-.3-7.397-.3-4.699 0-7.832.3-8.789.3-.957 0-1.131-.374-1.131-.898 0-.674.87-.599 3.828-1.198 1.131-.224 1.48-1.122 1.48-1.721 0-.674-.435-1.646-2.176-7.033-1.74-5.463-1.74-6.062-2.871-6.062h-10.877zm10.181-2.095c.61 0 .783 0 .783-.224 0-.524-.522-1.871-3.828-11.749-1.306-3.891-1.306-4.19-1.654-4.19-.435 0-.435.449-3.307 9.279-1.827 5.837-2.176 6.435-2.176 6.66 0 .149.175.224.957.224h9.225zM300.645 508.235c4.003 0 3.133-2.994 5.048-2.994.609 0 1.131.449 1.131 1.197 0 1.197-.261 2.545-1.219 13.319-.087.749-.261 1.198-.87 1.198-1.219 0-.784-.599-2.785-5.837-1.567-4.115-3.481-4.789-6.788-4.789-1.827 0-2.176.374-2.176 1.272v37.938c0 2.245.522 3.592 3.481 3.741 3.307.15 3.568.3 3.568 1.122 0 .674-.435.973-1.48.973-1.479 0-3.22-.3-8.789-.3-7.048 0-9.92.3-11.139.3-.783 0-1.305-.3-1.305-.973 0-.748.522-.898 2.697-1.122 4.003-.373 4.438-.898 4.438-4.339v-36.966c0-1.347-.609-1.646-2.35-1.646-3.306 0-5.221 1.346-8.093 5.687-2.524 4.04-2.524 4.864-3.307 4.864-.521 0-.783-.298-.783-.748 0-.747.348-2.319 2.088-11.598.521-2.769.521-3.292 1.654-3.292 1.652 0 .348 2.994 3.742 2.994h23.237zM315.867 513.323c0-2.319-.609-2.918-2.785-3.292-3.22-.524-4.003-.3-4.003-1.272 0-.599.61-.823 1.567-.823 2.001 0 3.828.3 10.182.3 2.959 0 6.788-.3 8.702-.3.957 0 1.392.075 1.392.674 0 1.122-.696.898-4.525 1.421-1.131.149-2.002 1.122-2.002 2.843v37.115c0 2.395.349 2.469 4.091 3.292 2.001.45 2.697.3 2.697 1.198 0 .449-.261.898-1.654.898-1.479 0-3.742-.3-8.963-.3-7.223 0-8.703.3-10.269.3-.87 0-1.219-.3-1.219-.973s.871-.972 2.35-1.122c3.742-.373 4.438-1.047 4.438-4.19v-35.769zM356.417 556.275c-13.401 0-21.756-12.721-21.756-24.619s8.354-24.618 21.756-24.618 21.756 12.72 21.756 24.618c0 11.898-8.355 24.619-21.756 24.619zm0-47.142c-8.616 0-12.356 13.319-12.356 22.523 0 9.204 3.74 22.524 12.356 22.524 8.614 0 12.357-13.32 12.357-22.524s-3.743-22.523-12.357-22.523zM418.195 554.554c0 1.347-.695 1.721-1.567 1.721-1.043 0-1.478-.748-2.088-1.646l-23.06-35.694c-.872-1.346-1.132-1.87-1.392-1.87-.262 0-.262.224-.262 1.646v28.585c0 3.666.348 5.313 4.002 5.985 1.655.3 3.047.225 3.047 1.198 0 .373 0 .898-1.045.898-2.175 0-4.612-.3-7.222-.3-2.437 0-3.83.3-5.657.3-1.305 0-1.915-.15-1.915-1.048 0-.523.522-.898 2.35-1.048 3.22-.224 4.002-1.047 4.002-7.931v-32.326c0-2.395-.52-2.545-2.957-2.994-1.915-.374-2.525-.598-2.525-1.197 0-.523.435-.898 1.655-.898.87 0 1.565.224 5.22.224 2.959 0 3.83-.224 4.612-.224 1.132 0 1.567 1.197 3.307 3.966l17.318 27.686c.61.973 1.132 1.721 1.305 1.721.435 0 .435-.149.435-1.496v-23.272c0-5.013-1.043-6.136-3.742-6.51-1.565-.224-2.523 0-2.523-1.047 0-.899.87-1.048 1.827-1.048 1.13 0 2.35.3 5.83.3 3.047 0 3.655-.3 5.047-.3 1.045 0 1.392.374 1.392.898 0 .898-.783 1.048-2.35 1.197-2.35.225-3.045 1.497-3.045 3.292v41.232zM435.159 538.465c-1.305 0-1.305.449-2.523 4.789-1.742 6.286-2.177 7.259-2.177 7.783 0 .972.697 1.721 2.612 2.244 1.653.45 4.09.15 4.09 1.122 0 .449-.262.973-1.567.973-.783 0-4.177-.3-6.264-.3-4.177 0-5.657.3-6.527.3-.61 0-.87-.225-.87-.748 0-1.122 1.13-.674 2.957-1.347 2.002-.747 2.872-4.265 9.921-24.244 7.657-21.701 7.049-21.999 8.614-21.999 1.827 0 1.132.898 11.836 30.829 4.35 12.122 4.872 14.891 6.614 15.414 2 .599 3.045.374 3.045 1.273 0 .523-.26.823-1.827.823-1.392 0-4.177-.3-7.397-.3-4.699 0-7.832.3-8.789.3-.957 0-1.132-.374-1.132-.898 0-.674.87-.599 3.829-1.198 1.132-.224 1.48-1.122 1.48-1.721 0-.674-.435-1.646-2.175-7.033-1.742-5.463-1.742-6.062-2.872-6.062h-10.878zm10.182-2.095c.61 0 .785 0 .785-.224 0-.524-.522-1.871-3.83-11.749-1.305-3.891-1.305-4.19-1.655-4.19-.435 0-.435.449-3.307 9.279-1.827 5.837-2.175 6.435-2.175 6.66 0 .149.175.224.957.224h9.225zM478.054 549.017c0 2.769 1.74 4.34 4.787 4.265 3.655-.075 6.699-1.945 8.702-5.761 2.35-4.49 2.002-5.463 3.132-5.463.697 0 .87.225.87 1.946v9.578c0 1.348-.347 1.796-1.652 1.796-2.612 0-6.527-.3-16.708-.3-5.917 0-10.094.3-12.009.3-1.045 0-1.392-.225-1.392-1.048 0-.598.347-.898 1.392-1.048 3.392-.524 4.35-.747 4.35-4.041v-36.666c0-1.496-.608-2.469-2.35-2.544-2.435-.075-3.22-.224-3.22-1.123 0-.748.61-.972 1.655-.972 1.652 0 3.392.3 8.614.3 5.917 0 7.919-.3 9.051-.3 1.217 0 1.652.224 1.652.898 0 .973-.695 1.048-3.045 1.197-2.785.149-3.83.973-3.83 2.843v36.143zM529.16 535.138c-1.567 0-1.567.538-3.028 5.749-2.087 7.544-2.61 8.712-2.61 9.341 0 1.167.834 2.065 3.132 2.694 1.983.538 4.906.18 4.906 1.348 0 .538-.314 1.167-1.879 1.167-.94 0-5.013-.359-7.518-.359-5.011 0-6.787.359-7.832.359-.729 0-1.043-.27-1.043-.898 0-1.348 1.356-.809 3.55-1.617 2.401-.899 3.446-5.12 11.902-29.102 9.188-26.048 8.459-26.408 10.337-26.408 2.192 0 1.358 1.079 14.201 37.007 5.22 14.55 5.847 17.874 7.934 18.503 2.403.719 3.655.449 3.655 1.527 0 .629-.313.988-2.192.988-1.672 0-5.011-.359-8.874-.359-5.64 0-9.399.359-10.546.359-1.149 0-1.358-.449-1.358-1.078 0-.808 1.045-.719 4.595-1.437 1.356-.27 1.774-1.348 1.774-2.066 0-.808-.522-1.976-2.61-8.443-2.087-6.557-2.087-7.275-3.446-7.275h-13.05zm12.216-2.516c.731 0 .94 0 .94-.269 0-.629-.627-2.245-4.595-14.103-1.565-4.67-1.565-5.03-1.983-5.03-.522 0-.522.54-3.968 11.139-2.192 7.006-2.61 7.724-2.61 7.994 0 .179.209.269 1.149.269h11.067zM570.089 513.323c0-2.319-.61-2.918-2.785-3.292-3.22-.524-4.002-.3-4.002-1.272 0-.599.608-.823 1.565-.823 2.002 0 3.829.3 10.181.3 2.96 0 6.789-.3 8.704-.3.957 0 1.392.075 1.392.674 0 1.122-.697.898-4.527 1.421-1.13.149-2 1.122-2 2.843v37.115c0 2.395.348 2.469 4.09 3.292 2.002.45 2.697.3 2.697 1.198 0 .449-.26.898-1.652.898-1.48 0-3.742-.3-8.964-.3-7.222 0-8.702.3-10.269.3-.87 0-1.217-.3-1.217-.973s.87-.972 2.35-1.122c3.742-.373 4.437-1.047 4.437-4.19v-35.769zM602.634 549.017c0 2.17.697 3.666 3.395 4.115 3.307.523 3.655.898 3.655 1.422 0 .523-.262.823-1.132.823-1.915 0-5.135-.3-9.312-.3-4.872 0-7.222.3-9.397.3-.87 0-1.305-.3-1.305-.973 0-.523.348-.972 1.827-1.122 2.785-.224 3.742-1.646 3.742-3.142v-36.666c0-2.469-.61-3.293-3.135-3.442-2-.149-2.435-.449-2.435-.973 0-.748.608-1.122 1.565-1.122 2.437 0 4.96.3 8.702.3 4.612 0 7.747-.3 12.794-.3 9.484 0 15.229 5.238 15.229 12.272 0 6.659-6.352 10.327-13.401 11.15v.149c2.61.374 3.655 1.422 4.96 3.666 7.137 12.347 8.007 16.687 10.529 18.108 1.742.973 3.134.3 3.134 1.422 0 .374-.262.674-1.045.674l-6.004-.3c-2.175 0-2.872.3-4.612.3-.61 0-1.045-.374-1.567-1.422l-10.704-20.054c-.523-.972-1.13-1.571-2.785-1.571-1.915 0-2.697.374-2.697 1.795v14.891zm0-20.579c0 1.497.262 1.797 2.785 1.797 7.832 0 12.009-2.769 12.009-10.177 0-5.387-4.177-10.027-9.397-10.027-4.352 0-5.484.973-5.397 3.966v14.441zM645.268 550.663c0 1.272.523 2.395 3.83 2.619 2.35.15 3.045.225 3.045 1.048 0 .748-.347 1.048-1.13 1.048-1.392 0-2.7-.3-9.051-.3-6.962 0-7.657.3-9.572.3-.957 0-1.392-.225-1.392-.973 0-.972.957-1.047 2.872-1.122 2-.075 2.87-1.047 2.87-2.619v-37.34c0-2.095-.435-3.143-2.262-3.292-2.697-.224-2.958-.449-2.958-1.047 0-.674.435-1.048 1.827-1.048s3.655.3 8.527.3c2.872 0 6.179-.3 10.357-.3 9.399 0 15.316 5.537 15.316 13.17 0 7.408-5.657 13.319-14.359 13.319-4.177 0-6.352-.598-7.659-.598-.173 0-.26.298-.26 1.197v15.638zm0-20.129c0 1.047 1.045 1.795 3.567 1.795 5.222 0 9.311-4.938 9.311-11.748 0-7.034-4.002-10.551-7.919-10.551-3.827 0-4.96 1.048-4.96 2.994v17.51zM692.775 556.275c-13.401 0-21.756-12.721-21.756-24.619s8.354-24.618 21.756-24.618c13.401 0 21.756 12.72 21.756 24.618 0 11.898-8.355 24.619-21.756 24.619zm0-47.142c-8.617 0-12.358 13.319-12.358 22.523 0 9.204 3.742 22.524 12.358 22.524 8.614 0 12.357-13.32 12.357-22.524-.001-9.204-3.743-22.523-12.357-22.523zM733.147 549.017c0 2.17.697 3.666 3.394 4.115 3.307.523 3.655.898 3.655 1.422 0 .523-.26.823-1.132.823-1.913 0-5.135-.3-9.311-.3-4.872 0-7.222.3-9.397.3-.87 0-1.307-.3-1.307-.973 0-.523.35-.972 1.83-1.122 2.785-.224 3.74-1.646 3.74-3.142v-36.666c0-2.469-.608-3.293-3.132-3.442-2-.149-2.437-.449-2.437-.973 0-.748.61-1.122 1.567-1.122 2.437 0 4.96.3 8.702.3 4.612 0 7.747-.3 12.794-.3 9.484 0 15.229 5.238 15.229 12.272 0 6.659-6.352 10.327-13.401 11.15v.149c2.61.374 3.655 1.422 4.96 3.666 7.137 12.347 8.007 16.687 10.531 18.108 1.74.973 3.132.3 3.132 1.422 0 .374-.262.674-1.045.674l-6.004-.3c-2.175 0-2.872.3-4.612.3-.61 0-1.045-.374-1.567-1.422l-10.704-20.054c-.523-.972-1.13-1.571-2.785-1.571-1.915 0-2.697.374-2.697 1.795v14.891zm0-20.579c0 1.497.262 1.797 2.785 1.797 7.832 0 12.009-2.769 12.009-10.177 0-5.387-4.177-10.027-9.399-10.027-4.35 0-5.482.973-5.395 3.966v14.441zM791.708 508.235c4.002 0 3.132-2.994 5.047-2.994.608 0 1.13.449 1.13 1.197 0 1.197-.26 2.545-1.218 13.319-.087.749-.26 1.198-.87 1.198-1.22 0-.783-.599-2.785-5.837-1.567-4.115-3.482-4.789-6.789-4.789-1.827 0-2.175.374-2.175 1.272v37.938c0 2.245.522 3.592 3.482 3.741 3.307.15 3.567.3 3.567 1.122 0 .674-.435.973-1.48.973-1.48 0-3.22-.3-8.789-.3-7.049 0-9.919.3-11.139.3-.783 0-1.305-.3-1.305-.973 0-.748.522-.898 2.697-1.122 4.002-.373 4.439-.898 4.439-4.339v-36.966c0-1.347-.61-1.646-2.35-1.646-3.307 0-5.222 1.346-8.094 5.687-2.522 4.04-2.522 4.864-3.307 4.864-.522 0-.783-.298-.783-.748 0-.747.348-2.319 2.088-11.598.522-2.769.522-3.292 1.655-3.292 1.652 0 .348 2.994 3.742 2.994h23.237zM155.206 468.471c3.758 0 7.622-1.886 9.815-9.341 2.401-8.083 2.61-8.264 3.655-8.264 1.775 0 1.983.18 1.983 10.06 0 4.671-.312 5.929-1.566 6.916-1.462 1.169-7.204 3.144-14.095 3.144-16.497 0-26.625-13.922-26.625-29.731 0-18.143 11.799-29.372 26.521-29.372 5.43 0 9.919.899 13.052 2.605 1.148.629 1.253.808 1.253 7.096 0 6.646-.209 7.006-1.984 7.006-.939 0-1.669-.899-3.758-5.929-3.028-7.275-5.534-8.263-9.084-8.263-9.397 0-14.722 7.904-14.722 26.497-.003 18.774 7.515 27.576 15.555 27.576zM183.692 452.936c-1.305 0-1.305.449-2.524 4.789-1.74 6.286-2.175 7.259-2.175 7.783 0 .973.696 1.721 2.61 2.244 1.654.45 4.091.15 4.091 1.122 0 .449-.261.973-1.566.973-.784 0-4.177-.3-6.267-.3-4.177 0-5.656.3-6.526.3-.61 0-.871-.225-.871-.748 0-1.123 1.132-.674 2.959-1.348 2.001-.747 2.871-4.264 9.92-24.244 7.658-21.701 7.048-22 8.615-22 1.827 0 1.131.898 11.835 30.829 4.351 12.122 4.873 14.891 6.613 15.414 2.002.599 3.046.374 3.046 1.273 0 .523-.261.823-1.827.823-1.392 0-4.177-.3-7.397-.3-4.699 0-7.832.3-8.789.3-.957 0-1.131-.374-1.131-.898 0-.674.87-.599 3.828-1.198 1.131-.224 1.48-1.122 1.48-1.721 0-.674-.435-1.646-2.176-7.033-1.74-5.463-1.74-6.062-2.872-6.062h-10.876zm10.183-2.095c.609 0 .783 0 .783-.224 0-.524-.522-1.871-3.829-11.749-1.306-3.892-1.306-4.19-1.654-4.19-.435 0-.435.449-3.307 9.279-1.828 5.837-2.176 6.435-2.176 6.66 0 .149.175.224.957.224h9.226zM226.588 465.134c0 1.272.522 2.394 3.83 2.618 2.349.15 3.045.225 3.045 1.048 0 .748-.348 1.048-1.131 1.048-1.392 0-2.697-.3-9.05-.3-6.962 0-7.658.3-9.572.3-.957 0-1.392-.225-1.392-.973 0-.972.956-1.047 2.871-1.122 2.001-.075 2.872-1.047 2.872-2.618v-37.34c0-2.095-.435-3.143-2.263-3.292-2.697-.224-2.959-.449-2.959-1.047 0-.674.435-1.048 1.827-1.048s3.656.3 8.529.3c2.871 0 6.178-.3 10.355-.3 9.399 0 15.316 5.537 15.316 13.17 0 7.407-5.657 13.319-14.359 13.319-4.177 0-6.353-.598-7.658-.598-.174 0-.261.298-.261 1.197v15.638zm0-20.129c0 1.047 1.045 1.795 3.568 1.795 5.221 0 9.31-4.938 9.31-11.748 0-7.034-4.002-10.551-7.918-10.551-3.83 0-4.961 1.048-4.961 2.994v17.51zM257.735 427.793c0-2.319-.609-2.918-2.785-3.292-3.22-.524-4.003-.3-4.003-1.272 0-.599.61-.823 1.567-.823 2.001 0 3.828.3 10.182.3 2.959 0 6.788-.3 8.702-.3.957 0 1.392.075 1.392.674 0 1.122-.696.898-4.525 1.421-1.131.149-2.002 1.122-2.002 2.843v37.115c0 2.394.348 2.469 4.091 3.292 2.001.45 2.697.3 2.697 1.198 0 .449-.261.898-1.654.898-1.479 0-3.742-.3-8.963-.3-7.223 0-8.703.3-10.269.3-.87 0-1.219-.3-1.219-.973s.871-.972 2.35-1.122c3.742-.373 4.438-1.047 4.438-4.19v-35.769zM305.332 422.706c4.003 0 3.133-2.994 5.048-2.994.609 0 1.131.449 1.131 1.197 0 1.197-.261 2.545-1.219 13.319-.087.748-.261 1.198-.87 1.198-1.219 0-.784-.599-2.785-5.837-1.566-4.115-3.481-4.789-6.788-4.789-1.827 0-2.176.374-2.176 1.272v37.938c0 2.245.522 3.592 3.481 3.741 3.307.15 3.568.3 3.568 1.122 0 .674-.435.973-1.48.973-1.479 0-3.22-.3-8.789-.3-7.048 0-9.92.3-11.139.3-.783 0-1.305-.3-1.305-.973 0-.748.522-.898 2.697-1.122 4.003-.373 4.438-.898 4.438-4.339v-36.966c0-1.347-.609-1.646-2.35-1.646-3.307 0-5.221 1.347-8.093 5.687-2.523 4.041-2.523 4.864-3.307 4.864-.521 0-.783-.298-.783-.748 0-.747.348-2.319 2.088-11.599.523-2.769.523-3.292 1.654-3.292 1.654 0 .348 2.994 3.741 2.994h23.238zM320.566 452.936c-1.305 0-1.305.449-2.524 4.789-1.74 6.286-2.175 7.259-2.175 7.783 0 .973.696 1.721 2.61 2.244 1.654.45 4.091.15 4.091 1.122 0 .449-.261.973-1.566.973-.784 0-4.177-.3-6.267-.3-4.177 0-5.656.3-6.526.3-.61 0-.871-.225-.871-.748 0-1.123 1.132-.674 2.959-1.348 2.001-.747 2.871-4.264 9.92-24.244 7.658-21.701 7.048-22 8.615-22 1.827 0 1.131.898 11.835 30.829 4.351 12.122 4.873 14.891 6.613 15.414 2.002.599 3.047.374 3.047 1.273 0 .523-.262.823-1.829.823-1.39 0-4.175-.3-7.396-.3-4.699 0-7.832.3-8.789.3-.957 0-1.131-.374-1.131-.898 0-.674.87-.599 3.828-1.198 1.131-.224 1.48-1.122 1.48-1.721 0-.674-.435-1.646-2.176-7.033-1.74-5.463-1.74-6.062-2.872-6.062h-10.876zm10.183-2.095c.609 0 .783 0 .783-.224 0-.524-.522-1.871-3.829-11.749-1.306-3.892-1.306-4.19-1.654-4.19-.435 0-.435.449-3.307 9.279-1.828 5.837-2.176 6.435-2.176 6.66 0 .149.175.224.957.224h9.226zM363.464 463.488c0 2.769 1.74 4.34 4.787 4.264 3.655-.075 6.7-1.945 8.702-5.761 2.35-4.489 2.002-5.463 3.132-5.463.697 0 .87.225.87 1.946v9.578c0 1.348-.348 1.796-1.652 1.796-2.61 0-6.527-.3-16.709-.3-5.917 0-10.094.3-12.009.3-1.045 0-1.392-.225-1.392-1.048 0-.598.348-.898 1.392-1.048 3.392-.524 4.35-.747 4.35-4.041v-36.666c0-1.496-.608-2.469-2.35-2.544-2.435-.075-3.22-.224-3.22-1.123 0-.748.61-.972 1.655-.972 1.653 0 3.395.3 8.614.3 5.919 0 7.919-.3 9.052-.3 1.217 0 1.652.224 1.652.898 0 .973-.695 1.048-3.045 1.197-2.785.149-3.83.973-3.83 2.843v36.144zM422.426 462.273c0 2.605.836 4.401 4.073 4.939 3.968.629 4.386 1.079 4.386 1.707 0 .629-.314.988-1.358.988-2.296 0-6.16-.359-11.173-.359-5.847 0-8.665.359-11.275.359-1.045 0-1.567-.359-1.567-1.167 0-.629.418-1.167 2.194-1.348 3.341-.27 4.488-1.976 4.488-3.773v-44.012c0-2.964-.731-3.952-3.759-4.132-2.401-.179-2.923-.538-2.923-1.167 0-.898.731-1.347 1.881-1.347 2.923 0 5.951.358 10.442.358 5.533 0 9.293-.358 15.348-.358 11.382 0 18.274 6.287 18.274 14.73 0 7.995-7.623 12.396-16.082 13.384v.179c3.132.45 4.386 1.707 5.953 4.401 8.561 14.821 9.606 20.03 12.634 21.737 2.088 1.168 3.759.359 3.759 1.707 0 .449-.313.808-1.254.808l-7.205-.359c-2.61 0-3.446.359-5.533.359-.731 0-1.254-.449-1.881-1.707l-12.843-24.072c-.627-1.167-1.356-1.886-3.341-1.886-2.297 0-3.237.449-3.237 2.156v17.875zm0-24.701c0 1.797.313 2.156 3.341 2.156 9.397 0 14.41-3.323 14.41-12.216 0-6.467-5.013-12.037-11.277-12.037-5.22 0-6.578 1.169-6.473 4.761v17.336zM461.998 427.27c0-1.871-.608-2.395-3.22-2.769-1.653-.224-2.435-.149-2.435-1.123 0-.823.695-.972 2.523-.972.783 0 2.785.3 13.836.3 9.139 0 13.229-.3 15.751-.3 1.567 0 2.002.3 2.002 1.421v9.503c0 .973-.348 1.348-.957 1.348-1.392 0-.87-.374-2.872-4.191-2.35-4.49-4.785-5.986-11.487-5.986-4.177 0-4.612.3-4.612 2.02v15.19c0 1.048.175 1.348 2.35 1.348 7.222 0 7.572-.076 9.137-2.843 1.392-2.47 1.305-3.443 2.437-3.443.783 0 1.045.374 1.045 1.347 0 1.571-.348 4.116-.348 6.435 0 2.844.348 4.789.348 6.286 0 1.348-.175 2.095-1.22 2.095-1.305 0-1.305-1.496-2.262-4.115-1.217-3.443-1.565-3.666-7.657-3.666-3.482 0-3.83.075-3.83 1.347v14.293c0 5.388 1.045 6.959 6.962 6.959 5.744 0 8.529-2.095 10.791-7.333 1.74-3.966 1.652-4.266 2.523-4.266.785 0 .957.225.957 1.722v10.625c0 1.048-.347 1.347-2.087 1.347-2.35 0-6.527-.3-15.404-.3-9.834 0-12.357.3-16.534.3-1.567 0-1.829-.374-1.829-.898 0-.824.262-1.048 1.48-1.198 3.742-.524 4.612-1.196 4.612-3.442v-37.041zM524.301 451.44c0-1.946-.52-2.395-4.002-2.694-.87-.075-1.48-.225-1.48-.973 0-.673.262-1.122 1.392-1.122.957 0 3.132.298 8.007.298 2.785 0 6.264-.298 7.049-.298.957 0 1.392.298 1.392.898 0 .748-.785 1.122-1.655 1.197-1.48.149-2.175.449-2.175 1.721v13.245c0 3.217-6.439 7.034-14.969 7.034-14.531 0-21.58-13.319-21.58-24.469 0-15.19 10.791-24.768 23.235-24.768 4.872 0 10.789 1.047 11.486 2.095.348.449.523 1.197.523 1.871v7.856c0 .898 0 1.797-1.22 1.797-1.13 0-2-2.919-3.828-5.912-1.392-2.171-3.482-5.912-7.224-5.912-11.139 0-13.576 10.327-13.576 22.673 0 16.088 6.614 22.673 13.141 22.673 3.395 0 5.482-1.348 5.482-4.191v-13.019zM545.18 427.793c0-2.319-.61-2.918-2.785-3.292-3.22-.524-4.002-.3-4.002-1.272 0-.599.608-.823 1.565-.823 2.002 0 3.83.3 10.181.3 2.96 0 6.789-.3 8.704-.3.957 0 1.392.075 1.392.674 0 1.122-.697.898-4.527 1.421-1.13.149-2 1.122-2 2.843v37.115c0 2.394.348 2.469 4.09 3.292 2.002.45 2.697.3 2.697 1.198 0 .449-.26.898-1.652.898-1.48 0-3.742-.3-8.964-.3-7.222 0-8.702.3-10.269.3-.87 0-1.217-.3-1.217-.973s.87-.972 2.35-1.122c3.742-.373 4.437-1.047 4.437-4.19v-35.769zM585.729 470.746c-13.401 0-21.755-12.721-21.755-24.619s8.354-24.618 21.755-24.618 21.756 12.72 21.756 24.618-8.355 24.619-21.756 24.619zm0-47.142c-8.616 0-12.356 13.319-12.356 22.523s3.74 22.524 12.356 22.524c8.615 0 12.357-13.32 12.357-22.524s-3.742-22.523-12.357-22.523zM647.507 469.025c0 1.347-.695 1.721-1.567 1.721-1.043 0-1.478-.748-2.087-1.646l-23.061-35.694c-.872-1.347-1.132-1.87-1.392-1.87-.262 0-.262.224-.262 1.646v28.585c0 3.666.348 5.313 4.002 5.985 1.655.3 3.047.225 3.047 1.198 0 .373 0 .898-1.045.898-2.175 0-4.612-.3-7.222-.3-2.437 0-3.83.3-5.657.3-1.305 0-1.915-.15-1.915-1.048 0-.524.522-.898 2.35-1.048 3.22-.224 4.002-1.047 4.002-7.931v-32.326c0-2.395-.52-2.545-2.957-2.994-1.915-.374-2.525-.598-2.525-1.197 0-.523.435-.898 1.655-.898.87 0 1.565.224 5.22.224 2.96 0 3.83-.224 4.612-.224 1.132 0 1.567 1.197 3.307 3.966l17.318 27.686c.61.973 1.132 1.721 1.305 1.721.435 0 .435-.149.435-1.496v-23.273c0-5.013-1.043-6.135-3.742-6.51-1.565-.224-2.523 0-2.523-1.047 0-.899.87-1.048 1.828-1.048 1.13 0 2.35.3 5.83.3 3.047 0 3.655-.3 5.047-.3 1.045 0 1.392.374 1.392.898 0 .898-.783 1.048-2.35 1.197-2.35.225-3.045 1.497-3.045 3.292v41.233z"/><path class="st1" d="M3.253 485.93h796.747"/></svg>