<svg xmlns="http://www.w3.org/2000/svg" width="1200" height="130.202" viewBox="200 335.798 1200 130.202" enable-background="new 200 335.798 1200 130.202"><style type="text/css">.st0{fill:#F0F0F0;}</style><path class="st0" d="M592.778 376.56l-.011-.322-.201-.055-.197.055-.016.319.213.059zM592.566 377.092l.035.01.21.061-.018-.356-.192.054-.035.008-.031-.008-.195-.054-.016.356.211-.061zM592.566 374.765l.035.01.092.027-.113-2.319h-.026l-.115 2.319.097-.027zM592.566 375.931l.035.007.151.044-.046-.926-.14-.039-.141.039-.043.928.153-.046zM592.566 377.782l.271-.072-.014-.292-.257-.068-.257.068-.017.292zM592.292 372.752l-.279 2.168.181-.051zM591.102 381.884h.745l.025-.548-.673-.184zM592.121 376.306l-.3.08-.003.023.295.084zM592.182 375.125l-.203.057-.122.947.274-.081zM593.12 374.92l-.283-2.155.105 2.104zM593.02 376.493l.295-.08-.003-.027h-.003l-.298-.08zM592.998 376.048l.281.077-.126-.943-.199-.057zM592.24 378.856l.326.092.327-.092-.013-.259-.314-.086-.315.086zM592.601 378.268l.266.073-.018-.385-.248.069-.035.007-.031-.007-.251-.069-.018.385.269-.073.031-.01zM591.228 380.906l.659.182.044-.9-.588-.161zM592.126 381.154l.44.12.442-.12-.046-.902-.361.099-.035.013-.031-.013-.363-.099zM592.182 380.002l.384.107.383-.107-.007-.223-.376-.102-.371.102zM592.207 379.525l.328-.094.031-.006.035.006.325.094-.02-.421-.305.084-.035.01-.031-.01-.31-.084zM593.071 377.487l.008.156.277-.078zM593.258 381.336l.029.548h.743l-.102-.732zM593.186 379.847l.006.093.166-.048zM593.641 378.902l-.493.138.026.552.578.156zM618.884 379.263h.484v-4.095l-.484.14zM621.776 379.263h.484v-4.096l-.484.141zM591.942 379.94l.005-.093-.17.045zM1071.534 465.557l1.561.026v-.629h-1.561zM593.126 378.666l.01.125.22-.058zM593.788 380.027l-.584.161.044.9.654-.182zM592.056 377.641l.006-.154-.285.078zM593.493 377.781l-.404.11.028.518.474.135zM591.786 376.654l-.09.68.381-.104.028-.487zM591.998 378.787l.008-.121-.229.067zM591.54 378.544l.476-.135.027-.518-.405-.11zM593.347 376.656l-.316.087.026.487.378.104zM592.601 381.518l-.035.01-.031-.01-.422-.116-.023.482h.953l-.023-.482zM591.381 379.748l.576-.156.032-.555-.496-.135zM1397.848 459.859v-2.176h-8.538v-7.543h-.835v-2.142h-2.475v-.728h-7.901v.728h-11.042v2.142h.203v7.543h-6.981v-4.16h-2.232v-.726h-5.887v.726h-.702v-.462h-.507v-1.81h-.875v-.615h-3.298v.615h-4.146v1.81h-.379v.462h-15.062v2.396h-.326v-.724h-2.206v.724h-6.348v3.515h-1.531v.665h-.897v1.983h-.643v-.516h-2.407v-2.73h-4.217v-.562h-1.259v-3.915h-.439v-1.857h-2.703v-.631h-7.498v.631h-3.767v1.857h-2.352v.374h-3.69v.478h-1.869v1.406h-.304v.046h-2.652v.63h-4.246v-.743h-5.016v.743h-6.099v3.607h-3.481v.682h-.929v-2.62h-1.298v-.878h-2.214v-4.644h-9.18v-.956h-3.191v.956h-.471v-3.165h-21.782v-.611h-.548v-2.391h-5.995v-.812h-4.769v.812h-1.265v2.391h-.734v.611h-1.015v-.96h-8.514v.96h-3.228v5.496h-10.096v-9.965h.294v-2.83h-15.968v-.961h-11.425v.961h-3.58v2.83h-1.208v9.965h-12.347v1.04h-3.112v7.133l-2.226-.006-.019-23.504h-10.602v-3.842h-10.427v3.842h-8.448v20.334h-4.262v-3.798h-.421v-1.079h-1.246v-.366h-.445v-15.091h-10.598v-3.842h-10.427v3.842h-8.45v19.082h-.968v.364h-3.296v-77.338h-6.961v2.359h-5.216v-1.294h-1.523v-.549h-6.873v.549h-1.805v1.294h-9.646v.996h-.976v35.559h-6.606v-47.929h-9.739v5.466h-4.382v-26.401h-.916v-.919h.916v-8.3h-1.116v-3.79h-1.164v-.667h-2.823v-2.113h-.379v2.779h-1.787v1.198h-2.134v-.356h-.201v-.898h-.419v1.244c-.44-.036-1.166.01-1.166.01v-.561h-1.387v-.61h-1.811v-3.811h-.267v3.811h-.988v.409h-2.364v-.378h-.455v.378h-1.992v1.279h-1.152v-2.089h-.246v2.089h-1.689v2.076h-5.669v8.3h.92v.919h-.92v37.608h-1.932v-.707h-4.479v.707h-2.138v1.417h-4.056v66.947h-2.569v-31.196h-2.811v-38.5h-2.038v-1.557h-8.55v-1.342h-1.519v-.549h-6.875v.549h-1.805v1.342h-.958v-.788h-2.523v-1.339h-.265v1.339h-.729v.788h-.511v-2.775h-7.165v71.024h-1.387v-3.636h-4.308v-13.149h-3.046v-2.005h-3.891v-1.481h-2.623v-4.358h-15.031v-6.363h-1.158v-.871h-2.728v-.957h-2.629v-.96h-2.314v-1.043h-2.943v-3.664h-.733v-.61h-11.983v.61h-2.942v3.664h-4.517v27.816h-4.094v1.801h-2.825v.813h-1.062v-5.399h-8.007v1.459h-4.813v-1.514h-.332v-4.838h.487l-.932-2.266h-.3v-.549h.246v-1.065h-.495v-2.302h.371v-.615h-.472c-.231-1.149-.743-2.241-1.659-3.243h-.4l-.371-3.173-.374 3.173h-.394c-.919 1.002-1.429 2.094-1.661 3.243h-.47v.615h.375v2.302h-.501v1.065h.251v.549h-.302l-.936 2.266h.489v4.838h-.331v.589h-7.203v-11.396h-1.353v-3.298h-1.028v-.598h-.643v-1.104h-2.244v.6h-6.883v-.757h-.761v1.261h-.493v.598h-1.104v3.297h-2.298v12.804h-3.511v-13.664h-1.332v-4.691h-.391v.445h-4.244v-.445h-.395v.445h-1.222v-.445h-.395v4.691h-2.142v-.003h-7.076v.712h-2.078v-.709h-3.855v-30.735h-1.286v-1.871h-.637v1.269h-1.699v-1.388h-.465v1.388h-1.463v-.859h-.541v-.769h-.731v.322h-.752v-.253h-1.769v.699h-1.012v.859h-1.555v.602h-1.671v-1.344h-.477v-20.344h-.419v20.345h-1.108v-.492h-2.026v-.446h-.399v-.445h-1.06v.445h-2.611v.446h-.922v-.393h-4.002v2.23h-1.18v30.514h-4.537v2.388h-3.745v-54.334h-.371v-1.207l-.627-1.24v-3.401l-.623-1.233v-3.411l-.629-1.241v-3.4l-.623-1.232v-2.212l-.667-2.519-.669 2.519v1.744h-7.41v-.177l-.671-1.319-.665 1.319v.177h-.68l-1.264-2.448v-2.339l-.665-1.315-.67 1.315v2.349l-1.262 2.437h-.68v-.177l-.665-1.319-.669 1.319v.177h-7.413v-1.744l-.667-2.519-.668 2.519v2.208l-.623 1.236v3.405l-.623 1.235v3.396l-.627 1.249v3.401l-.627 1.24v1.207h-.375v32.835h-3.853v-8.944h-4.421v-1.461h-1.897v-3.138h-2.273v-.838h-3.41v.838h-1.515v3.138h-1.347v-5.75h-.473v.971c-.738.688-1.817.549-2.338 1.228v1.612c.707-1.051 1.548-.681 2.338-1.277v3.215h-.325v1.461h-5.066v-15.119h-.501v1.233h-.501v-1.233h-.497v1.233h-.501v-1.233h-.497v1.233h-.503v-1.233h-.496v1.233h-.505v-1.233h-.497v1.233h-.497v-1.233h-.499v1.233h-.503v-1.233h-.497v1.233h-.502v-1.233h-.499v1.233h-.495v-1.233h-.351v-9.735h-.022v-1.339h-.501v1.339h-.495v-1.339h-.495v1.339h-.501v-1.339h-.497v1.339h-.497v-1.339h-.499v1.339h-.495v-1.339h-.501v1.339h-.497v-1.339h-.497v1.339h-.499v-1.339h-.499v1.339h-.497v-1.339h-.499v1.339h-.501v-1.339h-.497v1.339h-.499v-1.339h-.499v1.339h-.501v-1.339h-.501v1.339h-.499v-1.339h-.499v1.339h-.499v-1.339h-.499v1.339h-.499v-1.339h-.499v1.339h-.499v-1.339h-.503v11.074h-.343v1.233h-.503v-1.233h-.495v1.233h-.499v-1.233h-.503v1.233h-.497v-1.233h-.499v1.233h-.505v-1.233h-.497v1.233h-.497v-1.233h-.499v1.233h-.503v-1.233h-.497v1.233h-.501v-1.233h-.499v1.233h-.499v-1.233h-.497v22.858h-3.048v-24.045h-.789v-1.458h-1.989v1.458h-.411v-6.545h-1.288v-1.355h-1.579v1.355h-1.288v-.826h-1.405v-.529h-.309v-15.895h-.459v.628c-1.74.099-2.323 1.662-4.14 1.662v2.428c1.724.199 2.534-1.468 4.14-1.65v12.391h-1.569v.436h-.703v.529h-1.228v.826h-4.509v6.545h-1.928v43.145h-1.95v-26.497h-2.164v-10.183h-.328v10.183h-1.825v-.737h-1.449v-.37h-1.199v.37h-1.551v-1.859h-1.549v1.859h-.404v-13.453h-1.547v.757h-1.016v-.757h-1.012v-3.083h-.477v-2.598l-8.253-6.327v-.65h-.826v-5.702h-.325v.421l-.484.144v-.564h-.327v.421l-.889.264v1.18l.808-.235v.235l.08-.023v3.86h-1.756v-5.702h-.325v.421l-.485.144v-.564h-.327v.42l-.89.265v1.18l.81-.236v.236l.08-.023v3.86h-.932v.65l-8.251 6.327v2.598h-.479v3.083h-1.01v.757h-1.196v-.757h-1.549v24.211h-.775v-13.634h-1.237v-11.487h-1.883v-2.969h-1.749v-.659h-2.551v-4.561h-1.05v-.02h-1.084v-.442h-.445v-.476h-.09l-.107-.798-.015-.102-.133-1.021-.006-.064-.008-.043-.003-.038-.126-.979-.015-.107-.002-.041-.011-.079h-.003l-.115-.9-.016-.105-.015-.125-.011-.082-.107-.808-.013-.109-.025-.209-.012-.08-.148-1.128-.011-.081-.353-2.682c.146-.125.238-.312.238-.516 0-.268-.158-.506-.386-.619l-.182-1.408v-.008l-.125-2.459-.12 2.455-.187 1.419c-.225.116-.381.351-.381.619 0 .203.09.391.233.516l-.35 2.682-.01.081-.149 1.128-.01.08-.028.209-.011.105-.107.811-.01.082-.016.125-.017.105-.126.979-.005.041-.015.107-.125.979-.007.038-.008.046-.007.061-.131 1.021-.016.102-.104.798h-.184v.476h-.693v.442h-1.573v.02h-.563v4.561h-3.226v3.628h-1.898v10.212h-.589v-.488h-.489v.488h-.703v-.488h-.491v.488h-.701v-.488h-.485v.488h-.701v-.488h-.493v.488h-.699v-.488h-.489v1.762h-.699v18.436h-10.328v1.046h-2.184v.481h-.693v21.392h-1.152v4.773h-1.15v-2.673h-3.455v-4.869h-3.845v-10.141h-2.309v-1.693h-1.771v-.96l-3.653-3.889h-.848l-3.657 3.889v.96h-.974v-4.598h-.487v-1.363h-3.226v1.363h-.852v-4.039h-1.463v-.859l-5.479-4.391h-.85l-5.482 4.391v.859h-1.034v.546h-3.984v2.633h-3.18v32.857h-1.963v-4.16h-2.023v-2.015h-2.04v-1.078h-3.481v-5.697h-14.432v-1.173h-5.016v1.173h-4.246v-.995h-5.587v.995h-2.118v4.717h-3.014v.98h-6.665v-3.765h-8.007v1.459h-4.813v2.305h-3.312v-10.329h1.104v-2.934h-11.391v-.997h-7.498v.997h-4.172v2.934h1.03v10.329h-6.012v-3.095h-1.208v-2.83h-3.58v.705h-11.425v-.705h-14.579v2.83h-1.095v9.965h-4.773v-2.298h-4.094v1.801h-2.825v.497h-1.062v-5.083h-8.007v1.459h-4.813v3.624h-9.524v-5.496h-3.228v-.96h-8.514v.96h-1.015v-.611h-.734v-2.391h-1.265v-.812h-4.769v.812h-5.857v2.391h-.687v.611h-6.503v3.165h-.471v-.956h-3.191v.956h-9.18v4.644h-2.214v.878h-1.298v2.62h-.929v-.682h-3.481v-3.607h-3.321v-.743h-5.016v.743h-4.246v-.63h-3.903v-6.876h-.654v-2.142h-1.938v-.728h-6.19v.728h-8.65v2.142h.159v2.085h-2.342v.631h-1.394v1.857h-.359v2.97h-1.374v-4.16h-1.75v-.726h-4.613v.726h-.55v-.462h-.397v-1.81h-.685v-.615h-2.584v.615h-3.248v1.81h-.297v.462h-11.8v2.396h-.255v-.724h-1.729v.724h-4.974v3.515h-1.2v.665h-.703v1.154h-2.389v-2.417h-3.304v-.562h-2.718v.562h-2.3v-.477h-3.027v.477h-1.148v2.417h-.438v-4.636h-1.272v-1.406h-2.041v-.478h-4.062v.478h-1.464v1.406h-.238v4.636h-1.734v4.607h1200v-6.141h-2.152v.001zM593.312 376.386l.003.027-.296.08-.008-.187.297.08zM593.279 376.125l-.281-.077-.044-.923.198.058zM592.566 378.511l.314.085.013.259-.327.092-.327-.092.011-.259zM592.266 378.341l.018-.385.251.069.031.006.035-.006.248-.069.018.385-.266-.072-.035-.01-.031.01zM592.535 379.188l.031.01.035-.01.305-.084.02.42-.325-.094-.035-.006-.031.006-.328.094.018-.42.31.084zM592.566 379.677l.376.102.007.223-.383.107-.384-.107.013-.223zM592.535 380.351l.031.013.035-.013.361-.098.046.901-.442.12-.44-.12.046-.901zM593.12 374.92l-.178-.051-.105-2.104.283 2.155zM592.553 372.483h.026l.113 2.319-.092-.027-.035-.01-.031.01-.097.027zM592.425 375.056l.141-.039.14.039.046.926-.151-.044-.035-.006-.031.006-.153.046.043-.928zM592.369 376.238l.197-.056.2.056.011.322-.212.056-.214-.059zM592.34 376.807l.195.055.031.008.035-.008.192-.055.018.357-.21-.061-.035-.01-.031.01-.212.061zM592.566 377.35l.256.067.015.292-.271.072-.274-.072.016-.292.258-.067zM592.292 372.752l-.099 2.117-.181.051zM591.979 375.182l.204-.058-.051.923-.274.08.121-.945zM591.821 376.386l.301-.08-.008.187-.296-.084zM591.847 381.884h-.746l.097-.732.673.184zM591.887 381.088l-.658-.182.115-.878.588.161zM591.942 379.94l-.166-.048.171-.046zM591.957 379.592l-.576.156.112-.846.496.135zM591.998 378.787l-.222-.054.23-.067-.008.121zM592.016 378.409l-.477.135.099-.764.404.11zM592.056 377.641l-.279-.076.285-.079zM591.696 377.334l.09-.68.319.089-.028.488-.381.103zM592.09 381.884l.023-.483.422.116.031.01.035-.01.419-.116.023.483h-.953zM593.031 376.743l.316-.087.088.678-.378-.104-.026-.487zM593.071 377.487l.286.079-.277.077zM593.089 377.891l.404-.11.099.764-.475-.135-.028-.519zM593.126 378.666l.23.067-.22.058zM593.148 379.04l.493-.138.112.846-.578-.156zM593.186 379.847l.173.046-.166.048-.007-.094zM593.204 380.188l.585-.161.113.878-.654.182zM593.287 381.884l-.03-.549.67-.184.102.732h-.742zM619.368 379.263h-.485v-3.955l.485-.141zM622.26 379.263h-.484v-3.955l.484-.141z"/></svg>