<?xml version="1.0" encoding="utf-8"?>
<!-- Generator: Adobe Illustrator 19.0.0, SVG Export Plug-In . SVG Version: 6.00 Build 0)  -->
<svg version="1.1" id="Layer_1" xmlns="http://www.w3.org/2000/svg" xmlns:xlink="http://www.w3.org/1999/xlink" x="0px" y="0px"
	 width="800px" height="800px" viewBox="0 0 800 800" style="enable-background:new 0 0 800 800;" xml:space="preserve">
<style type="text/css">
	.st0{fill:#FFFFFF;}
</style>
<path class="st0" d="M199.599,350.423v-20.25h21.846v-20.79c0-11.34,3.052-19.934,9.165-25.785
	c6.109-5.847,15.023-8.775,26.742-8.775c2.009,0,4.308,0.181,6.905,0.54c2.593,0.363,4.896,0.903,6.905,1.62v19.98
	c-1.844-0.717-3.853-1.215-6.026-1.485c-2.178-0.27-4.187-0.405-6.026-0.405c-5.191,0-9.208,1.08-12.053,3.24
	c-2.849,2.16-4.269,6.303-4.269,12.42v19.44h25.11v20.25h-25.11v119.34h-21.344v-119.34H199.599z"/>
<path class="st0" d="M384.406,469.222c-3.684,2.338-8.789,3.511-15.317,3.511c-5.524,0-9.918-1.667-13.183-4.995
	c-3.264-3.328-4.896-8.775-4.896-16.335c-5.861,7.56-12.68,13.007-20.464,16.335s-16.196,4.995-25.236,4.995
	c-5.861,0-11.425-0.722-16.698-2.16c-5.273-1.438-9.836-3.687-13.685-6.75c-3.853-3.059-6.905-7.062-9.165-12.015
	c-2.26-4.949-3.39-10.936-3.39-17.955c0-7.919,1.255-14.398,3.767-19.44c2.511-5.037,5.814-9.134,9.918-12.285
	c4.1-3.147,8.789-5.535,14.062-7.155s10.672-2.97,16.196-4.05c5.858-1.257,11.425-2.202,16.698-2.835
	c5.273-0.629,9.918-1.527,13.936-2.7c4.018-1.168,7.196-2.877,9.542-5.13c2.342-2.249,3.515-5.535,3.515-9.855
	c0-5.037-0.879-9.087-2.636-12.15c-1.758-3.059-4.018-5.4-6.78-7.02c-2.762-1.62-5.862-2.7-9.291-3.24
	c-3.433-0.54-6.823-0.81-10.17-0.81c-9.04,0-16.572,1.848-22.599,5.535c-6.027,3.691-9.291,10.665-9.793,20.925h-21.344
	c0.333-8.64,2.009-15.93,5.022-21.87c3.013-5.94,7.031-10.753,12.053-14.445c5.022-3.687,10.754-6.345,17.201-7.965
	c6.442-1.62,13.347-2.43,20.716-2.43c5.857,0,11.676,0.452,17.451,1.35s11.005,2.738,15.694,5.522
	c4.685,2.784,8.451,6.691,11.299,11.72c2.845,5.029,4.269,11.584,4.269,19.664v71.668c0,5.391,0.29,9.34,0.878,11.854
	c0.585,2.516,2.55,3.772,5.901,3.772c1.84,0,4.018-0.358,6.529-1.08V469.222z M349.755,397.673
	c-2.68,2.151-6.195,3.717-10.546,4.704c-4.355,0.987-8.914,1.793-13.685,2.418c-4.771,0.628-9.585,1.346-14.438,2.15
	c-4.857,0.807-9.208,2.105-13.057,3.895c-3.853,1.789-6.992,4.342-9.416,7.657c-2.429,3.315-3.641,7.839-3.641,13.567
	c0,3.764,0.71,6.939,2.134,9.539c1.42,2.598,3.264,4.703,5.524,6.314c2.26,1.612,4.896,2.776,7.91,3.494
	c3.013,0.717,6.191,1.071,9.542,1.071c7.031,0,13.057-1.03,18.079-3.089s9.122-4.656,12.304-7.791
	c3.178-3.135,5.524-6.539,7.031-10.21c1.506-3.671,2.26-7.121,2.26-10.345V397.673z"/>
<path class="st0" d="M387.919,305.063v-28.08h21.343v28.08H387.919z M409.262,330.173v139.59h-21.343v-139.59H409.262z"/>
<path class="st0" d="M435.445,469.763l0.178-119.34h-22.097v-20.25h22.097v-61.866h21.344v61.866h25.863v20.25h-25.863
	l-0.717,119.34H435.445z"/>
<path class="st0" d="M508.196,276.983v73.71h0.502c1.672-4.32,4.018-7.965,7.031-10.935c3.013-2.97,6.402-5.4,10.169-7.29
	s7.698-3.282,11.802-4.185c4.101-0.898,8.074-1.35,11.928-1.35c8.537,0,15.65,1.262,21.343,3.78
	c5.689,2.522,10.296,6.033,13.811,10.53c3.516,4.501,5.983,9.855,7.408,16.065c1.42,6.21,2.134,13.095,2.134,20.655v91.8h-21.344
	v-94.5c0-8.64-2.346-15.479-7.03-20.52c-4.688-5.037-11.135-7.56-19.335-7.56c-6.528,0-12.178,1.08-16.949,3.24
	c-4.771,2.16-8.749,5.223-11.927,9.18c-3.183,3.961-5.567,8.598-7.156,13.905c-1.594,5.312-2.386,11.116-2.386,17.415v78.84h-21.344
	v-192.78H508.196z"/>
<path class="st0" d="M252.789,501.454c-0.449-1.239-1.064-2.38-1.848-3.42c-0.785-1.04-1.793-1.94-3.024-2.7
	c-1.232-0.76-2.675-1.351-4.326-1.771c-1.652-0.42-3.57-0.63-5.754-0.63c-3.192,0-5.951,0.461-8.274,1.38
	c-2.324,0.921-4.214,2.151-5.67,3.69c-1.457,1.54-2.535,3.291-3.234,5.25c-0.701,1.96-1.05,3.96-1.05,6s0.349,4.041,1.05,6
	c0.699,1.96,1.777,3.711,3.234,5.25c1.456,1.54,3.346,2.771,5.67,3.689c2.323,0.921,5.082,1.381,8.274,1.381
	c2.352,0,4.423-0.29,6.216-0.87c1.792-0.58,3.331-1.38,4.62-2.4c1.288-1.02,2.296-2.21,3.024-3.57
	c0.728-1.359,1.204-2.819,1.428-4.38h10.248c-0.225,2.561-0.995,4.9-2.31,7.021c-1.316,2.12-3.095,3.95-5.334,5.49
	c-2.24,1.54-4.872,2.729-7.896,3.569s-6.356,1.26-9.996,1.26c-4.481,0-8.499-0.59-12.054-1.77c-3.557-1.18-6.566-2.79-9.03-4.83
	c-2.465-2.04-4.355-4.419-5.67-7.14c-1.316-2.72-1.974-5.62-1.974-8.7c0-3.039,0.658-5.92,1.974-8.64
	c1.315-2.72,3.205-5.101,5.67-7.141c2.464-2.04,5.473-3.66,9.03-4.859c3.555-1.2,7.573-1.801,12.054-1.801
	c3.36,0,6.523,0.33,9.492,0.99c2.967,0.66,5.586,1.62,7.854,2.88s4.102,2.79,5.502,4.59c1.399,1.801,2.268,3.861,2.604,6.181
	H252.789z"/>
<path class="st0" d="M285.12,487.834h11.172l23.1,42.84h-11.256l-5.628-11.34h-23.94l-5.628,11.34h-10.836L285.12,487.834z
	 M281.424,513.633h18.312l-8.988-18.42h-0.252L281.424,513.633z"/>
<path class="st0" d="M310.109,487.834h48.552v6.479h-19.067v36.36h-10.5v-36.36h-18.984V487.834z"/>
<path class="st0" d="M362.843,487.834h10.5v17.04h27.3v-17.04h10.5v42.84h-10.5v-19.32h-27.3v19.32h-10.5V487.834z"/>
<path class="st0" d="M446.959,486.813c4.479,0,8.497,0.601,12.054,1.801c3.556,1.199,6.565,2.819,9.03,4.859
	c2.464,2.04,4.354,4.421,5.67,7.141c1.315,2.72,1.975,5.601,1.975,8.64c0,3.08-0.659,5.98-1.975,8.7
	c-1.316,2.721-3.206,5.1-5.67,7.14c-2.465,2.04-5.475,3.65-9.03,4.83c-3.557,1.18-7.574,1.77-12.054,1.77
	c-4.48,0-8.498-0.59-12.054-1.77c-3.557-1.18-6.566-2.79-9.03-4.83c-2.465-2.04-4.354-4.419-5.67-7.14
	c-1.316-2.72-1.974-5.62-1.974-8.7c0-3.039,0.657-5.92,1.974-8.64c1.315-2.72,3.205-5.101,5.67-7.141
	c2.464-2.04,5.474-3.66,9.03-4.859C438.461,487.414,442.479,486.813,446.959,486.813z M446.959,492.933
	c-3.192,0-5.951,0.461-8.273,1.38c-2.325,0.921-4.215,2.151-5.671,3.69c-1.456,1.54-2.534,3.291-3.233,5.25
	c-0.701,1.96-1.05,3.96-1.05,6s0.349,4.041,1.05,6c0.699,1.96,1.777,3.711,3.233,5.25c1.456,1.54,3.346,2.771,5.671,3.689
	c2.322,0.921,5.081,1.381,8.273,1.381s5.949-0.46,8.274-1.381c2.323-0.919,4.213-2.149,5.67-3.689
	c1.455-1.539,2.533-3.29,3.233-5.25c0.7-1.959,1.051-3.96,1.051-6s-0.351-4.04-1.051-6c-0.7-1.959-1.778-3.71-3.233-5.25
	c-1.457-1.539-3.347-2.77-5.67-3.69C452.908,493.394,450.152,492.933,446.959,492.933z"/>
<path class="st0" d="M482.903,487.834h10.5v36.359h30.492v6.48h-40.992V487.834z"/>
<path class="st0" d="M528.303,487.834h10.5v42.84h-10.5V487.834z"/>
<path class="st0" d="M589.817,501.454c-0.449-1.239-1.064-2.38-1.848-3.42c-0.785-1.04-1.793-1.94-3.024-2.7
	c-1.232-0.76-2.675-1.351-4.326-1.771c-1.652-0.42-3.57-0.63-5.754-0.63c-3.192,0-5.951,0.461-8.273,1.38
	c-2.325,0.921-4.215,2.151-5.671,3.69c-1.456,1.54-2.534,3.291-3.233,5.25c-0.701,1.96-1.05,3.96-1.05,6s0.349,4.041,1.05,6
	c0.699,1.96,1.777,3.711,3.233,5.25c1.456,1.54,3.346,2.771,5.671,3.689c2.322,0.921,5.081,1.381,8.273,1.381
	c2.353,0,4.423-0.29,6.216-0.87c1.792-0.58,3.331-1.38,4.62-2.4c1.288-1.02,2.296-2.21,3.024-3.57
	c0.727-1.359,1.203-2.819,1.428-4.38h10.248c-0.225,2.561-0.995,4.9-2.31,7.021c-1.317,2.12-3.096,3.95-5.335,5.49
	c-2.24,1.54-4.871,2.729-7.896,3.569s-6.356,1.26-9.996,1.26c-4.48,0-8.498-0.59-12.054-1.77c-3.557-1.18-6.566-2.79-9.03-4.83
	c-2.465-2.04-4.354-4.419-5.67-7.14c-1.316-2.72-1.974-5.62-1.974-8.7c0-3.039,0.657-5.92,1.974-8.64
	c1.315-2.72,3.205-5.101,5.67-7.141c2.464-2.04,5.474-3.66,9.03-4.859c3.556-1.2,7.573-1.801,12.054-1.801
	c3.36,0,6.523,0.33,9.492,0.99c2.968,0.66,5.586,1.62,7.854,2.88c2.269,1.26,4.102,2.79,5.502,4.59
	c1.399,1.801,2.269,3.861,2.604,6.181H589.817z"/>
</svg>
