<?xml version="1.0" encoding="utf-8"?>
<!-- Generator: Adobe Illustrator 19.0.0, SVG Export Plug-In . SVG Version: 6.00 Build 0)  -->
<svg version="1.1" id="Layer_1" xmlns="http://www.w3.org/2000/svg" xmlns:xlink="http://www.w3.org/1999/xlink" x="0px" y="0px"
	 viewBox="0 0 800 800" style="enable-background:new 0 0 800 800;" xml:space="preserve">
<style type="text/css">
	.st0{fill:#FFFFFF;}
</style>
<path class="st0" d="M234.258,514.985h4.832v-8.163h4.218v20.38h-4.218v-9.091h-4.832v9.091h-4.245v-20.38h4.245V514.985z"/>
<path class="st0" d="M253.123,527.543c-1.648,0-2.958-0.282-3.931-0.846c-0.975-0.564-1.675-1.331-2.102-2.3
	c-0.429-0.969-0.69-2.002-0.786-3.098c-0.095-1.097-0.143-2.532-0.143-4.307c0-1.793,0.047-3.237,0.143-4.334
	c0.095-1.097,0.357-2.121,0.786-3.071c0.427-0.95,1.119-1.706,2.081-2.266c0.962-0.559,2.278-0.839,3.952-0.839
	c1.673,0,2.995,0.28,3.965,0.839c0.97,0.56,1.663,1.315,2.081,2.266c0.419,0.95,0.676,1.974,0.772,3.071s0.144,2.541,0.144,4.334
	c0,1.775-0.049,3.21-0.144,4.307c-0.095,1.097-0.353,2.13-0.772,3.098c-0.417,0.969-1.119,1.735-2.102,2.3
	C256.083,527.261,254.769,527.543,253.123,527.543z M253.116,524.471c0.78,0,1.359-0.255,1.735-0.762
	c0.378-0.509,0.628-1.27,0.749-2.283c0.122-1.013,0.183-2.491,0.183-4.435c0-1.935-0.06-3.404-0.183-4.408
	c-0.121-1.004-0.37-1.76-0.749-2.268c-0.376-0.509-0.955-0.763-1.735-0.763c-0.781,0-1.362,0.253-1.743,0.757
	c-0.382,0.504-0.632,1.285-0.754,2.343c-0.122,1.059-0.186,2.504-0.186,4.34c0,1.844,0.062,3.3,0.186,4.367
	c0.123,1.068,0.373,1.852,0.754,2.357C251.754,524.22,252.335,524.471,253.116,524.471z"/>
<path class="st0" d="M266.839,527.201h-4.109v-20.38h6.798l3.154,13.869h0.054l3.358-13.869h6.566v20.38h-4.109v-15.739h-0.054
	l-3.89,15.739h-4.027l-3.686-15.739h-0.055L266.839,527.201L266.839,527.201z"/>
<path class="st0" d="M296.719,527.201h-11.234v-20.38h11.015v3.126h-6.798v5.037h6.265v3.126h-6.265v5.965h7.017V527.201z"/>
<path class="st0" d="M311.965,527.201h-7.466v-20.38h7.493c1.201,0,2.227,0.148,3.079,0.444c0.85,0.296,1.529,0.828,2.032,1.596
	c0.507,0.768,0.759,1.849,0.759,3.239c0,1.192-0.29,2.179-0.873,2.961c-0.583,0.782-1.438,1.286-2.566,1.515v0.053
	c1.402,0.192,2.381,0.719,2.943,1.586c0.557,0.865,0.838,2.062,0.838,3.592C318.203,525.404,316.124,527.201,311.965,527.201z
	 M308.716,509.948v5.201h2.825c0.573,0,1.084-0.206,1.537-0.621c0.449-0.415,0.675-1.072,0.675-1.972
	c0-0.501-0.102-0.947-0.308-1.338c-0.203-0.391-0.492-0.701-0.866-0.928c-0.375-0.227-0.792-0.341-1.256-0.341L308.716,509.948
	L308.716,509.948z M308.716,518.275v5.801h2.348c0.481,0,0.922-0.05,1.324-0.15c0.402-0.101,0.765-0.365,1.092-0.794
	c0.327-0.429,0.492-1.076,0.492-1.943c0-0.967-0.211-1.695-0.627-2.182c-0.417-0.488-1.138-0.732-2.157-0.732L308.716,518.275
	L308.716,518.275z"/>
<path class="st0" d="M330.324,506.822h4.216v14.456c0,1.101-0.222,2.125-0.667,3.071c-0.446,0.947-1.184,1.715-2.211,2.306
	c-1.03,0.592-2.348,0.887-3.958,0.887c-1.146,0-2.151-0.145-3.011-0.437c-0.86-0.291-1.576-0.708-2.149-1.249
	s-1.005-1.196-1.291-1.965c-0.286-0.769-0.429-1.64-0.429-2.614v-14.456h4.216v14.158c0,2.328,0.87,3.491,2.609,3.491
	c1.782,0,2.676-1.164,2.676-3.491L330.324,506.822L330.324,506.822z"/>
<path class="st0" d="M341.583,527.201h-4.216v-20.38h4.216V527.201z"/>
<path class="st0" d="M355.084,527.201h-10.538v-20.38h4.218v16.994h6.32L355.084,527.201L355.084,527.201z"/>
<path class="st0" d="M356.392,527.201v-20.38h7.044c1.365,0,2.484,0.221,3.352,0.662c0.868,0.442,1.535,1.083,1.993,1.924
	c0.459,0.841,0.78,1.875,0.962,3.098c0.183,1.223,0.273,2.682,0.273,4.375v1.256c0,1.11-0.06,2.152-0.184,3.126
	c-0.123,0.974-0.405,1.916-0.846,2.825c-0.441,0.909-1.131,1.656-2.067,2.238c-0.938,0.582-2.153,0.873-3.647,0.873h-6.88V527.201z
	 M360.612,509.948v14.128h2.04c0.846,0,1.487-0.232,1.927-0.696c0.441-0.464,0.741-1.193,0.9-2.184
	c0.156-0.991,0.238-2.394,0.238-4.204c0-1.62-0.049-2.896-0.144-3.829c-0.094-0.933-0.355-1.701-0.782-2.306
	c-0.427-0.605-1.094-0.907-2.003-0.907L360.612,509.948L360.612,509.948z"/>
<path class="st0" d="M384.006,527.201h-11.234v-20.38h11.015v3.126h-6.798v5.037h6.265v3.126h-6.265v5.965h7.016L384.006,527.201
	L384.006,527.201z"/>
<path class="st0" d="M390.272,518.752v8.45h-4.22v-20.38h7.796c0.963,0,1.802,0.203,2.511,0.607c0.71,0.405,1.256,1.009,1.638,1.814
	c0.382,0.805,0.573,1.776,0.573,2.912c0,2.91-1.248,4.571-3.74,4.98v0.054c0.946,0.109,1.792,0.417,2.539,0.922
	c0.745,0.505,1.119,1.541,1.119,3.107c0,0.956,0.035,2.096,0.109,3.421c0.072,1.325,0.195,2.179,0.367,2.561h-4.134
	c-0.3-0.656-0.452-1.59-0.452-2.803v-1.149v-0.888c0-0.83-0.06-1.488-0.184-1.975c-0.123-0.487-0.402-0.882-0.838-1.183
	c-0.437-0.301-1.102-0.451-1.993-0.451L390.272,518.752L390.272,518.752z M390.272,509.948v5.679h1.868
	c0.519,0,0.94-0.152,1.264-0.458c0.324-0.305,0.554-0.682,0.69-1.133s0.203-0.916,0.203-1.399c0-1.793-0.718-2.689-2.157-2.689
	H390.272z"/>
<path class="st0" d="M413.598,521.637c0,1.263-0.203,2.291-0.606,3.082c-0.403,0.792-0.949,1.395-1.638,1.808
	c-0.689,0.413-1.425,0.686-2.217,0.818c-0.792,0.131-1.657,0.198-2.594,0.198c-1.166,0-2.138-0.146-2.915-0.437
	c-0.778-0.291-1.392-0.702-1.843-1.23s-0.772-1.134-0.963-1.817c-0.191-0.683-0.284-1.444-0.284-2.282
	c0-0.374,0.008-0.665,0.027-0.875h4.216c0,0.781,0.049,1.419,0.144,1.914c0.097,0.495,0.318,0.895,0.663,1.2
	c0.347,0.305,0.885,0.456,1.617,0.456c0.694,0,1.221-0.207,1.581-0.621c0.361-0.414,0.543-0.98,0.543-1.698
	c0-0.792-0.302-1.427-0.905-1.91c-0.6-0.481-1.644-1.166-3.13-2.053c-1.486-0.886-2.603-1.767-3.348-2.639
	c-0.749-0.872-1.123-1.987-1.123-3.342c0-1.765,0.507-3.161,1.523-4.188c1.016-1.028,2.724-1.542,5.127-1.542
	c1.011,0,1.868,0.102,2.578,0.307c0.71,0.206,1.316,0.527,1.817,0.964c0.499,0.437,0.876,0.997,1.127,1.681
	c0.249,0.683,0.375,1.503,0.375,2.461c0,0.319-0.01,0.561-0.027,0.724h-4.095c0-0.599-0.051-1.122-0.152-1.567
	c-0.102-0.445-0.292-0.807-0.575-1.083c-0.283-0.277-0.692-0.416-1.233-0.416c-0.684,0-1.221,0.185-1.609,0.553
	c-0.388,0.367-0.581,0.907-0.581,1.615c0,0.837,0.277,1.469,0.83,1.896c0.556,0.427,1.592,1.068,3.106,1.922
	c1.516,0.855,2.654,1.725,3.419,2.612C413.215,519.039,413.598,520.201,413.598,521.637z"/>
<path class="st0" d="M424.229,527.201h-4.177l5.596-20.38h5.569l5.476,20.38h-4.45l-1.119-4.532h-5.749L424.229,527.201z
	 M430.235,519.544l-2.047-8.804h-0.054l-1.922,8.804H430.235z"/>
<path class="st0" d="M450.587,521.637c0,1.263-0.203,2.291-0.606,3.082c-0.406,0.792-0.952,1.395-1.638,1.808
	c-0.689,0.413-1.427,0.686-2.219,0.818c-0.792,0.131-1.657,0.198-2.594,0.198c-1.165,0-2.138-0.146-2.913-0.437
	c-0.781-0.291-1.392-0.702-1.845-1.23c-0.449-0.529-0.77-1.134-0.962-1.817c-0.191-0.683-0.287-1.444-0.287-2.282
	c0-0.374,0.008-0.665,0.027-0.875h4.217c0,0.781,0.049,1.419,0.143,1.914c0.097,0.495,0.319,0.895,0.665,1.2
	c0.347,0.305,0.885,0.456,1.617,0.456c0.694,0,1.221-0.207,1.579-0.621c0.362-0.414,0.543-0.98,0.543-1.698
	c0-0.792-0.3-1.427-0.903-1.91c-0.603-0.481-1.644-1.166-3.13-2.053c-1.486-0.886-2.603-1.767-3.35-2.639
	c-0.749-0.872-1.121-1.987-1.121-3.342c0-1.765,0.507-3.161,1.523-4.188c1.014-1.028,2.722-1.542,5.125-1.542
	c1.01,0,1.87,0.102,2.579,0.307c0.71,0.206,1.316,0.527,1.816,0.964c0.501,0.437,0.878,0.997,1.127,1.681
	c0.249,0.683,0.375,1.503,0.375,2.461c0,0.319-0.008,0.561-0.027,0.724h-4.095c0-0.599-0.051-1.122-0.152-1.567
	c-0.1-0.445-0.29-0.807-0.573-1.083c-0.284-0.277-0.694-0.416-1.233-0.416c-0.687,0-1.221,0.185-1.611,0.553
	c-0.386,0.367-0.581,0.907-0.581,1.615c0,0.837,0.277,1.469,0.833,1.896c0.556,0.427,1.589,1.068,3.106,1.922
	c1.513,0.855,2.654,1.725,3.419,2.612C450.205,519.039,450.587,520.201,450.587,521.637z"/>
<path class="st0" d="M465.518,521.637c0,1.263-0.203,2.291-0.606,3.082c-0.403,0.792-0.949,1.395-1.638,1.808
	c-0.689,0.413-1.425,0.686-2.217,0.818c-0.792,0.131-1.657,0.198-2.593,0.198c-1.166,0-2.138-0.146-2.915-0.437
	c-0.778-0.291-1.392-0.702-1.843-1.23c-0.451-0.529-0.772-1.134-0.963-1.817c-0.191-0.683-0.284-1.444-0.284-2.282
	c0-0.374,0.008-0.665,0.027-0.875h4.216c0,0.781,0.049,1.419,0.144,1.914c0.097,0.495,0.318,0.895,0.663,1.2
	c0.347,0.305,0.885,0.456,1.617,0.456c0.694,0,1.221-0.207,1.581-0.621c0.36-0.414,0.542-0.98,0.542-1.698
	c0-0.792-0.302-1.427-0.905-1.91c-0.6-0.481-1.644-1.166-3.13-2.053c-1.486-0.886-2.603-1.767-3.349-2.639
	c-0.749-0.872-1.123-1.987-1.123-3.342c0-1.765,0.507-3.161,1.523-4.188c1.016-1.028,2.724-1.542,5.127-1.542
	c1.011,0,1.868,0.102,2.578,0.307c0.71,0.206,1.316,0.527,1.817,0.964c0.499,0.437,0.875,0.997,1.127,1.681
	c0.249,0.683,0.375,1.503,0.375,2.461c0,0.319-0.01,0.561-0.027,0.724h-4.095c0-0.599-0.051-1.122-0.152-1.567
	c-0.102-0.445-0.292-0.807-0.575-1.083c-0.283-0.277-0.692-0.416-1.232-0.416c-0.684,0-1.221,0.185-1.608,0.553
	c-0.389,0.367-0.581,0.907-0.581,1.615c0,0.837,0.277,1.469,0.831,1.896c0.556,0.427,1.591,1.068,3.106,1.922
	c1.516,0.855,2.654,1.725,3.419,2.612C465.137,519.039,465.518,520.201,465.518,521.637z"/>
<path class="st0" d="M474.691,527.543c-1.646,0-2.957-0.282-3.931-0.846c-0.973-0.564-1.673-1.331-2.103-2.3
	c-0.427-0.969-0.689-2.002-0.784-3.098c-0.095-1.097-0.144-2.532-0.144-4.307c0-1.793,0.049-3.237,0.144-4.334
	c0.095-1.097,0.357-2.121,0.784-3.071c0.429-0.95,1.123-1.706,2.082-2.266c0.96-0.559,2.278-0.839,3.951-0.839
	c1.677,0,2.995,0.28,3.966,0.839c0.967,0.56,1.662,1.315,2.083,2.266c0.417,0.95,0.675,1.974,0.768,3.071
	c0.097,1.097,0.144,2.541,0.144,4.334c0,1.775-0.046,3.21-0.144,4.307c-0.094,1.097-0.351,2.13-0.768,3.098
	c-0.421,0.969-1.119,1.735-2.102,2.3C477.655,527.261,476.341,527.543,474.691,527.543z M474.686,524.471
	c0.782,0,1.359-0.255,1.738-0.762c0.375-0.509,0.624-1.27,0.749-2.283c0.121-1.013,0.184-2.491,0.184-4.435
	c0-1.935-0.062-3.404-0.184-4.408c-0.125-1.004-0.375-1.76-0.749-2.268c-0.378-0.509-0.956-0.763-1.738-0.763
	s-1.363,0.253-1.741,0.757c-0.382,0.504-0.636,1.285-0.757,2.343c-0.123,1.059-0.184,2.504-0.184,4.34c0,1.844,0.06,3.3,0.184,4.367
	c0.121,1.068,0.375,1.852,0.757,2.357C473.322,524.22,473.903,524.471,474.686,524.471z"/>
<path class="st0" d="M491.153,527.543c-1.649,0-2.96-0.282-3.931-0.846c-0.975-0.564-1.677-1.331-2.102-2.3
	c-0.429-0.969-0.69-2.002-0.788-3.098c-0.094-1.097-0.14-2.532-0.14-4.307c0-1.793,0.047-3.237,0.14-4.334
	c0.098-1.097,0.359-2.121,0.788-3.071c0.425-0.95,1.119-1.706,2.079-2.266c0.963-0.559,2.278-0.839,3.954-0.839
	c1.354,0,2.469,0.246,3.335,0.738c0.87,0.491,1.509,1.235,1.919,2.227c0.409,0.993,0.616,2.264,0.616,3.812h-4.138
	c0-1.354-0.129-2.309-0.39-2.868c-0.257-0.557-0.706-0.837-1.341-0.837c-0.784,0-1.365,0.253-1.747,0.757
	c-0.382,0.504-0.635,1.285-0.76,2.343c-0.121,1.059-0.184,2.504-0.184,4.34c0,1.844,0.062,3.3,0.184,4.367
	c0.125,1.067,0.378,1.852,0.76,2.357c0.382,0.504,0.963,0.756,1.747,0.756c0.581,0,1.011-0.215,1.287-0.648
	c0.281-0.431,0.449-0.921,0.515-1.471c0.062-0.549,0.105-1.22,0.121-2.01h4.165c0,1.33-0.133,2.461-0.39,3.395
	c-0.262,0.933-0.644,1.673-1.147,2.22c-0.507,0.546-1.135,0.947-1.892,1.202C493.061,527.415,492.172,527.543,491.153,527.543z"/>
<path class="st0" d="M503.532,527.201h-4.216v-20.38h4.216V527.201z"/>
<path class="st0" d="M509.101,527.201h-4.177l5.596-20.38h5.569l5.476,20.38h-4.45l-1.119-4.532h-5.749L509.101,527.201z
	 M515.107,519.544l-2.048-8.804h-0.054l-1.922,8.804H515.107z"/>
<path class="st0" d="M521.332,506.822h13.623v3.385h-4.696v16.994h-4.247v-16.994h-4.68L521.332,506.822L521.332,506.822z"/>
<path class="st0" d="M540.508,527.201h-4.216v-20.38h4.216V527.201z"/>
<path class="st0" d="M550.211,527.543c-1.646,0-2.956-0.282-3.931-0.846c-0.971-0.564-1.673-1.331-2.103-2.3
	c-0.425-0.969-0.69-2.002-0.784-3.098c-0.098-1.097-0.144-2.532-0.144-4.307c0-1.793,0.046-3.237,0.144-4.334
	c0.094-1.097,0.359-2.121,0.784-3.071c0.429-0.95,1.123-1.706,2.083-2.266c0.96-0.559,2.278-0.839,3.951-0.839
	c1.677,0,2.995,0.28,3.966,0.839c0.967,0.56,1.662,1.315,2.083,2.266c0.417,0.95,0.675,1.974,0.768,3.071
	c0.097,1.097,0.144,2.541,0.144,4.334c0,1.775-0.046,3.21-0.144,4.307c-0.094,1.097-0.351,2.13-0.768,3.098
	c-0.421,0.969-1.119,1.735-2.102,2.3C553.176,527.261,551.862,527.543,550.211,527.543z M550.203,524.471
	c0.784,0,1.362-0.255,1.74-0.762c0.374-0.509,0.624-1.27,0.749-2.283c0.121-1.013,0.183-2.491,0.183-4.435
	c0-1.935-0.062-3.404-0.183-4.408c-0.125-1.004-0.375-1.76-0.749-2.268c-0.378-0.509-0.956-0.763-1.74-0.763
	c-0.78,0-1.361,0.253-1.739,0.757c-0.382,0.504-0.635,1.285-0.757,2.343c-0.125,1.059-0.184,2.504-0.184,4.34
	c0,1.844,0.059,3.3,0.184,4.367c0.121,1.068,0.375,1.852,0.757,2.357C548.843,524.22,549.424,524.471,550.203,524.471z"/>
<path class="st0" d="M563.877,527.201h-3.947v-20.38h5.706l5.366,14.115h0.055v-14.115H575v20.38h-5.569l-5.499-14.906h-0.054
	V527.201z"/>
<path class="st0" d="M334.098,559.492c-1.648,0-2.958-0.282-3.931-0.846c-0.973-0.564-1.675-1.331-2.103-2.299
	c-0.427-0.969-0.689-2.002-0.786-3.098c-0.094-1.097-0.143-2.532-0.143-4.307c0-1.793,0.049-3.237,0.143-4.334
	c0.097-1.097,0.359-2.121,0.786-3.071c0.427-0.95,1.122-1.706,2.081-2.266c0.962-0.559,2.278-0.839,3.952-0.839
	c1.675,0,2.997,0.28,3.965,0.839c0.971,0.56,1.665,1.315,2.082,2.266c0.417,0.95,0.675,1.975,0.773,3.071
	c0.094,1.097,0.143,2.541,0.143,4.334c0,1.775-0.049,3.21-0.143,4.307c-0.098,1.097-0.355,2.13-0.773,3.098
	s-1.119,1.735-2.102,2.299C337.06,559.211,335.745,559.492,334.098,559.492z M334.091,556.421c0.78,0,1.357-0.255,1.735-0.762
	c0.376-0.509,0.626-1.27,0.749-2.283c0.121-1.013,0.184-2.491,0.184-4.435c0-1.935-0.062-3.404-0.184-4.408
	c-0.123-1.004-0.373-1.76-0.749-2.268c-0.378-0.509-0.956-0.763-1.735-0.763c-0.782,0-1.361,0.253-1.743,0.757
	s-0.633,1.285-0.757,2.343c-0.121,1.059-0.184,2.504-0.184,4.34c0,1.844,0.062,3.3,0.184,4.367c0.123,1.067,0.375,1.852,0.757,2.357
	C332.731,556.169,333.309,556.421,334.091,556.421z"/>
<path class="st0" d="M347.925,559.151h-4.219v-20.38h10.483v3.126h-6.263v5.228h5.979v3.126h-5.979L347.925,559.151L347.925,559.151
	z"/>
<path class="st0" d="M365.204,559.151h-4.109v-20.38h6.798l3.154,13.869h0.055l3.358-13.869h6.566v20.38h-4.109v-15.739h-0.055
	l-3.89,15.739h-4.027l-3.685-15.739h-0.054L365.204,559.151L365.204,559.151z"/>
<path class="st0" d="M388.068,559.151h-4.219v-20.38h4.219V559.151z"/>
<path class="st0" d="M397.771,559.492c-1.646,0-2.956-0.282-3.931-0.846c-0.975-0.564-1.673-1.331-2.103-2.299
	c-0.429-0.969-0.69-2.002-0.784-3.098c-0.098-1.097-0.144-2.532-0.144-4.307c0-1.793,0.046-3.237,0.144-4.334
	c0.094-1.097,0.355-2.121,0.784-3.071s1.122-1.706,2.082-2.266c0.96-0.559,2.278-0.839,3.951-0.839c1.357,0,2.469,0.246,3.338,0.739
	c0.868,0.491,1.508,1.235,1.917,2.227c0.409,0.993,0.614,2.264,0.614,3.812h-4.136c0-1.354-0.13-2.309-0.388-2.868
	c-0.262-0.557-0.71-0.837-1.346-0.837c-0.784,0-1.365,0.253-1.747,0.757s-0.635,1.285-0.757,2.343
	c-0.125,1.059-0.185,2.504-0.185,4.34c0,1.844,0.06,3.3,0.185,4.367c0.121,1.067,0.375,1.852,0.757,2.357
	c0.382,0.504,0.963,0.756,1.747,0.756c0.581,0,1.012-0.215,1.291-0.647c0.276-0.431,0.449-0.921,0.511-1.471
	c0.062-0.55,0.105-1.22,0.122-2.01h4.163c0,1.33-0.129,2.461-0.39,3.395c-0.257,0.933-0.64,1.673-1.146,2.22
	c-0.503,0.546-1.135,0.947-1.89,1.202C399.678,559.365,398.789,559.492,397.771,559.492z"/>
<path class="st0" d="M410.302,546.934h4.832v-8.163h4.216v20.38h-4.216v-9.091h-4.832v9.091h-4.247v-20.38h4.247V546.934z"/>
<path class="st0" d="M426.612,559.151h-4.216v-20.38h4.216V559.151z"/>
<path class="st0" d="M442.964,545.043h-4.19c0-0.753-0.06-1.381-0.186-1.88c-0.121-0.5-0.362-0.902-0.721-1.206
	c-0.361-0.305-0.895-0.456-1.605-0.456c-0.819,0-1.419,0.33-1.802,0.99c-0.382,0.66-0.616,1.483-0.703,2.471
	c-0.086,0.988-0.129,2.341-0.129,4.061c0,1.62,0.046,2.916,0.137,3.89c0.089,0.974,0.248,1.725,0.472,2.252
	c0.222,0.528,0.519,0.887,0.893,1.078c0.375,0.191,0.878,0.287,1.516,0.287c0.655,0,1.355-0.128,2.102-0.383v-4.545h-2.293v-3.126
	h6.511v10.335c-2.246,0.453-4.149,0.68-5.706,0.68c-1.755,0-3.163-0.198-4.217-0.594c-1.055-0.396-1.846-1.01-2.375-1.843
	c-0.529-0.833-0.879-1.897-1.051-3.195c-0.172-1.297-0.259-2.992-0.259-5.085c0-1.629,0.064-3.001,0.191-4.116
	s0.416-2.152,0.868-3.112c0.449-0.96,1.168-1.72,2.157-2.279c0.987-0.559,2.299-0.839,3.937-0.839c0.973,0,1.868,0.135,2.681,0.403
	c0.816,0.269,1.502,0.654,2.055,1.155c0.554,0.501,0.985,1.127,1.291,1.878c0.305,0.752,0.456,1.624,0.456,2.617
	c0,0.119-0.002,0.216-0.008,0.294C442.98,544.854,442.972,544.943,442.964,545.043z"/>
<path class="st0" d="M448.643,559.151h-4.177l5.596-20.38h5.569l5.471,20.38h-4.45l-1.119-4.532h-5.745L448.643,559.151z
	 M454.649,551.493l-2.047-8.804h-0.054l-1.927,8.804H454.649z"/>
<path class="st0" d="M466.44,559.151h-3.944v-20.38h5.706l5.365,14.115h0.055v-14.115h3.944v20.38h-5.569l-5.501-14.906h-0.054
	L466.44,559.151L466.44,559.151z"/>
<polygon class="st0" points="568.151,348.494 482.366,294.502 396.578,240.508 358.591,264.415 358.591,245.272 299.135,245.272 
	299.135,301.838 225,348.494 "/>
<path class="st0" d="M235.452,362.245h37.403v43.177h40.866v-43.177h37.571v123.389h-37.571v-49.911h-40.866v49.911h-37.403
	L235.452,362.245L235.452,362.245z"/>
<path class="st0" d="M354.793,362.245h70.015c11.671,0,20.625,2.944,26.873,8.838c6.252,5.893,9.376,13.188,9.376,21.883
	c0,7.295-2.235,13.553-6.689,18.77c-2.971,3.479-7.32,6.228-13.045,8.249c8.697,2.133,15.093,5.792,19.196,10.985
	c4.103,5.189,6.154,11.714,6.154,19.569c0,6.395-1.462,12.148-4.372,17.253c-2.921,5.109-6.915,9.152-11.975,12.121
	c-3.14,1.849-2.348,5.722-5.101,5.722h-90.43V362.245z M392.527,410.641h16.261c5.835,0,9.898-1.022,12.182-3.069
	c2.284-2.049,3.426-5.008,3.426-8.88c0-3.59-1.143-6.396-3.426-8.417c-2.284-2.022-6.258-3.03-11.934-3.03h-16.509V410.641z
	 M392.527,459.122h19.07c6.443,0,10.982-1.162,13.623-3.49c2.644-2.328,3.966-5.458,3.966-9.387c0-3.644-1.312-6.576-3.922-8.795
	c-2.619-2.216-7.201-3.327-13.745-3.327h-18.992V459.122z"/>
<path class="st0" d="M526.881,362.245h-40.798L440.59,485.634h38.189l5.901-20.368h42.459l6.061,20.368h39.172L526.881,362.245z
	 M516.106,421.625l5.835,17.903l-15.191-11.255l-15.264,11.255l6.041-17.969l-15.261-11.055h18.923l5.492-17.567l6.041,17.502
	l18.65,0.066L516.106,421.625z"/>
</svg>
