<svg xmlns="http://www.w3.org/2000/svg" width="800" height="800" viewBox="0 0 800 800"><style type="text/css">.st0{fill:#FFFFFF;}</style><circle class="st0" cx="150" cy="351.7" r="12.6"/><circle class="st0" cx="272" cy="351.7" r="12.6"/><path class="st0" d="M326 372.4c-1.4-5.5-8.9-6.3-15.5-4.6-5.2 1.4-23.6 6.3-39.6 5.2-11.5-.9-23-10.6-29.9-17.2 6.9-8 16.1-16.7 18.1-19.2 2.9-3.4 3.4-8.9.9-11.5-2.6-2.6-6.9-.9-11.5 2s-21.5 20.1-37.6 20.1-33.6-17.2-38.2-20.1c-4.6-2.9-10.9-2.6-13.5 0-2.6 2.6 0 6 2.9 9.5 2 2.6 11.5 11.5 18.7 19.8-7.2 6.6-18.1 15.8-29.6 16.7-16.1 1.1-34.5-3.7-39.6-5.2-6.6-1.7-14.1-.9-15.5 4.6-.9 3.4 2 7.2 5.7 9.8 3.7 2.6 23.8 6.3 29.6 14.9 5.7 8.6 6.6 75.3 11.8 77.3 3.7 1.7 10.3 1.7 14.1-.3 5.2-2.6 13.8-75.3 18.1-84.4 2.3-5.2 8.3-12.9 13.8-19.2 4.6 21.5 9.8 102.5 14.6 104.3 3.7 1.1 10.9 1.1 14.1 0 4.9-2 10.1-85 14.6-105.1 5.5 6.6 12.1 14.9 14.6 20.4 4 9.2 12.6 81.6 17.8 84.2 3.7 1.7 10.3 1.7 14.1.3 5.2-2.3 6-68.6 11.8-77.3 5.7-8.6 25.6-12.4 29.6-14.9 3.6-3 6.5-6.7 5.6-10.1zM198.5 325.8c0-6.9 5.7-12.6 12.6-12.6s12.6 5.7 12.6 12.6c0 6.9-5.7 12.6-12.6 12.6-7.1.1-12.6-5.4-12.6-12.6zM328.3 327c6 9.8-6.6 13.2-16.4 11.2-8-1.7-88.2-44.8-100.2-45.7-12.1-1.1-84.2 43.1-91.9 47.4-11.8 6.3-21.8 5.7-32.7 0-3.7-2-31-16.7-37.1-20.7 6-5.5 89.3-55.4 99.1-60.3 11.2-5.5 17.8-8.6 30.2-4 8.3 3.1 146.7 68 149 72.1zM81.6 389c3.2.6 17.8 6.9 23.6 9.8 14.1 7.2 14.6 14.4 16.4 26.1 1.7 12.4 3.2 35.6 3.4 44.5-5.7-2.6-28.7-21.8-34.5-26.4-4-3.7-8.9-6.6-8.9-12.1.3-2.2-.9-36.4 0-41.9zM739.4 424.1c5.7 0 10.6 4.6 10.6 10.3 0 6-4.9 10.6-10.6 10.6s-10.6-4.6-10.6-10.6c-.1-5.7 4.8-10.3 10.6-10.3zm0 19.2c4.9 0 8.6-3.7 8.6-8.9 0-4.9-3.7-8.9-8.6-8.9s-8.6 4-8.6 8.9c-.3 5.2 3.4 8.9 8.6 8.9zm-2.3-2.6h-1.7v-12.4h4.6c2.9 0 4.3 1.1 4.3 3.4s-1.4 3.2-3.2 3.4l3.4 5.5h-2l-3.4-5.5h-2.3v5.5l.3.1zm0-6.9h2.9c2 0 2.6-.6 2.6-2 0-1.1-.9-2-2.3-2h-3.2v4zM384.1 320.9c-.6 6-.6 13.2-.6 21v14.4c2.9 0 5.5.3 9.5.3s6.9 0 9.5-.3v-14.4c0-7.8 0-14.9-.6-21h23.8c-1.1 12.9-1.1 23.6-1.1 44.8 0 21.3 0 31.9 1.1 44.8h-23.8c.6-6 .6-13.2.6-21v-18.4c-2.9 0-5.5-.3-9.5-.3s-6.9 0-9.5.3v18.4c0 7.8 0 14.9.6 21h-23.8c1.1-12.9 1.1-23.6 1.1-44.8 0-21.3 0-31.9-1.1-44.8h23.8zM436.6 346.8c1.7-.3 8.6-.9 13.2-.9 26.1 0 33.9 10.1 33.9 27v15.8c0 6 0 12.9 3.2 22.1h-20.1c-1.4-2-2-3.4-2-4-3.4 2.6-8 4.9-14.1 4.9-12.1 0-20.1-8.3-20.1-19 0-11.5 9.2-19.2 21.3-23.3l10.3-3.4c0-4.3-3.2-8-8.9-8-4 0-10.3 2-16.7 6.6v-17.8zm27.3 31.3c-8 2-12.9 6.9-12.9 13.2 0 4.3 2.9 7.8 6.9 7.8 2.6 0 5.2-1.7 6-2.9v-18.1zM515 320.9v28.4c3.2-2 7.8-3.4 12.1-3.4 12.1 0 23.3 8.9 23.3 31.6 0 17.8-9.8 34.8-27.6 34.8-4.9 0-10.3-1.7-16.4-6.3l-7.2 6-6-3.7c1.1-8 1.1-16.7 1.1-25.6v-36.2c0-4.6 0-9.8-1.1-25.6h21.8zm0 72.1c0 3.7 1.4 6.6 5.5 6.6 5.2 0 8.9-5.2 8.9-20.4 0-10.6-2.9-19.8-9.2-19.8-3.4 0-5.2 2-5.2 5.2v28.4zM568.5 320.1c6.3 0 11.2 5.2 11.2 11.2 0 6.3-5.2 11.2-11.2 11.2-6.3 0-11.2-5.2-11.2-11.2-.3-6.3 4.8-11.2 11.2-11.2zm10.3 27.3c-.3 6.6-.3 16.1-.3 29.6 0 17.2 0 25.6 1.1 33.6h-22.6c1.1-8 1.1-16.7 1.1-25.6v-12.1c0-9.2 0-17.5-1.1-25.6l21.8.1zM613.6 328.1c-.3 4-.3 11.2-.3 19.2h9.5v12.1h-9.5v31.6c0 5.2 2 8 6.9 8h2.6v11.2c-4 1.4-8.3 2-12.6 2-5.7 0-10.1-2-13.5-6-2.6-3.2-3.7-8.3-3.7-14.9v-31.9h-7.2v-12.1h7.2c0-8 0-15.2-.3-19.2h20.9zM635.1 346.8c1.7-.3 8.6-.9 13.2-.9 26.1 0 33.9 10.1 33.9 27v15.8c0 6 0 12.9 3.2 22.1h-20.1c-1.4-2-2-3.4-2-4-3.4 2.6-8 4.9-14.1 4.9-12.1 0-20.1-8.3-20.1-19 0-11.5 9.2-19.2 21.3-23.3l10.3-3.4c0-4.3-3.2-8-8.9-8-4 0-10.3 2-16.7 6.6v-17.8zm27.3 31.3c-8 2-12.9 6.9-12.9 13.2 0 4.3 2.9 7.8 6.9 7.8 2.6 0 5.2-1.7 6-2.9v-18.1zM716.4 328.1c-.3 4-.3 11.2-.3 19.2h9.5v12.1h-9.5v31.6c0 5.2 2 8 6.9 8h2.6v11.2c-4 1.4-8.3 2-12.6 2-5.7 0-10.1-2-13.5-6-2.6-3.2-3.7-8.3-3.7-14.9v-31.9h-7.2v-12.1h7.2c0-8 0-15.2-.3-19.2h20.9zM380.9 432.7c-.3-.3-1.1-.6-2.6-.6-2.9 0-4.3 2.3-4.3 4.6 0 1.4.3 2.6.6 3.4h5.2v6.6h-5.2v13.8c0 4.9 0 9.5.6 13.8h-12.4c.6-4.3.6-8.9.6-13.8v-13.8h-3.7v-6.6h3.7v-2.6c0-4 .6-6.6 4-9.5 2.6-2.3 6-2.9 9.2-2.9 1.7 0 3.4.3 4.3.6v7zM412.2 457.1c0 11.5-7.8 18.1-16.1 18.1s-16.1-6.3-16.1-18.1c0-11.5 7.8-18.1 16.1-18.1 8.6 0 16.1 6.3 16.1 18.1zm-19.8 0c0 8.3 1.7 11.2 3.7 11.2s3.7-2.9 3.7-11.2-1.7-11.2-3.7-11.2c-1.7 0-3.7 2.9-3.7 11.2zM426.6 439.9c.3 1.1.9 3.4.9 4.6 2.3-3.2 5.2-5.5 8.6-5.5.9 0 1.1 0 1.4.3v9.2c-.9-.3-1.7-.3-2-.3-5.2 0-7.5 4.9-7.5 12.4 0 4.9 0 9.5.6 13.8h-12.6c.6-4.3.6-8.9.6-13.8v-6.9c0-4.9 0-9.5-1.1-13.8h11.1zM474 425.5c-.3 3.4-.3 7.2-.3 11.5v7.8h10.4v-7.8c0-4 0-8-.3-11.5h12.9c-.6 6.9-.6 12.6-.6 24.4 0 11.5 0 17.2.6 24.4h-12.9c.3-3.4.3-7.2.3-11.5v-10.1h-10.4v10.1c0 4 0 8 .3 11.5h-13c.6-6.9.6-12.6.6-24.4 0-11.5 0-17.2-.6-24.4h13zM521.6 474c-.6-1.1-.9-2.3-1.1-3.2-2.6 2.6-5.2 4-8.6 4-5.7 0-9.5-4.3-9.5-10.9v-10.3c0-4.9 0-9.5-.6-13.8h11.8v22.7c0 2.6 1.1 4.3 3.2 4.3 1.7 0 3.4-1.1 3.4-3.7v-9.5c0-4.9 0-9.5-.6-13.8h12.4c-.6 4.3-.6 8.9-.6 13.8v6.6c0 4.9 0 9.5.6 13.8h-10.4zM547.5 439.9c.6 1.1.9 2.3 1.1 3.2 2.6-2.3 5.5-4 8.9-4 3.7 0 6 2 7.8 4.3 2.6-2.3 5.2-4.3 9.5-4.3 6.6 0 9.2 4.6 9.2 11.5v9.8c0 4.9 0 9.5.6 13.8h-12.4c.6-4.3.6-8.9.6-13.8v-9.5c0-2.3-.6-4-2.9-4s-3.7 1.7-3.7 4v9.5c0 4.9 0 9.5.6 13.8h-12.4c.6-4.3.6-8.9.6-13.8v-9.5c0-2.3-.6-4-2.9-4-2 0-3.7 1.4-3.7 3.7v10.1c0 4.9 0 9.5.6 13.8h-12.4c.6-4.3.6-8.9.6-13.8v-6.9c0-4.9 0-9.5-.6-13.8h10.9zM591.2 439.6c.9 0 4.6-.6 7.2-.6 14.1 0 18.4 5.5 18.4 14.6v8.6c0 3.2 0 6.9 1.7 12.1h-10.9c-.9-1.1-1.1-1.7-1.1-2-1.7 1.4-4.3 2.6-7.8 2.6-6.6 0-10.9-4.6-10.9-10.3 0-6.3 4.9-10.6 11.5-12.6l5.7-1.7c0-2.3-1.7-4.3-4.9-4.3-2.3 0-5.5 1.1-9.2 3.4v-9.8h.3zm14.6 16.9c-4.3 1.1-6.9 3.7-6.9 7.2 0 2.3 1.4 4.3 3.7 4.3 1.4 0 2.9-.9 3.2-1.4v-10.1zM631.7 439.9c.6 1.1.9 2.3 1.1 3.2 2.6-2.6 5.2-4 8.6-4 5.7 0 9.5 4.3 9.5 10.9v10.6c0 4.9 0 9.5.6 13.8h-12.4c.6-4.3.6-8.9.6-13.8v-9.8c0-2-.9-3.7-2.9-3.7-1.7 0-3.7 1.1-3.7 3.2v10.1c0 4.9 0 9.5.6 13.8h-12.1c.6-4.3.6-8.9.6-13.8v-6.6c0-4.9 0-9.5-.6-13.8l10.1-.1zM661.5 424.9c3.4 0 6 2.9 6 6 0 3.4-2.6 6-6 6s-6-2.6-6-6c0-3.1 2.6-6 6-6zm5.8 15v16.1c0 9.2 0 13.8.6 18.4h-12.4c.6-4.3.6-8.9.6-13.8v-6.9c0-4.9 0-9.5-.6-13.8h11.8zM686.8 429.2c0 2-.3 6-.3 10.3h5.2v6.6h-5.2v17.2c0 2.9 1.1 4.3 3.7 4.3h1.4v6c-2.3.9-4.6 1.1-6.9 1.1-3.2 0-5.5-1.1-7.5-3.2-1.4-1.7-2-4.6-2-8v-17.2h-4v-6.6h4c0-4.3 0-8.3-.3-10.3h11.8l.1-.2zM706.6 439.9c.9 5.2 3.4 14.9 4.9 19.5 2-6.9 3.4-14.6 4-19.5h9.8c-2.3 9.2-7.5 28.1-11.8 37.3-2.3 4.6-5.7 10.1-14.9 10.1-.9 0-2.3 0-3.2-.3v-8.6c.6.3 2 1.1 3.7 1.1 3.4 0 6-2.9 6-5.5 0-1.4-.3-2-2.9-9.2-3.7-9.8-6.6-19.8-7.2-24.4h11.5l.1-.5zM383.5 519.4c0 11.8-6.6 14.6-10.6 14.6-6.6 0-10.6-5.2-10.6-14.4 0-10.1 5.2-14.6 10.9-14.6 6.3.1 10.3 5.5 10.3 14.4zm-14.1 0c0 4.9.9 8.9 3.4 8.9 2.3 0 3.2-4.6 3.2-8.9 0-3.7-.6-8.6-3.2-8.6-2.8 0-3.4 4.9-3.4 8.6zM388.9 533.5v-22.7h-3.7v-5.5h3.7v-1.1c0-3.2.6-6 2.9-8.3 1.7-1.7 4-2.6 6.6-2.6 2 0 3.4.3 4.6.6l-.9 5.7c-.6-.3-1.4-.3-2.3-.3-2.6 0-3.4 2.3-3.4 4.6v1.4h4.9v5.5h-4.9v22.7h-7.5zM437.8 520c-.3-3.7-.6-8.6-.3-12.9h-.3c-.6 4-1.7 8.9-2.6 11.8l-3.4 13.8h-5.5l-3.2-13.5c-.9-3.2-1.7-8-2.3-12.1h-.2c0 4.3-.3 9.2-.6 12.9l-.6 13.5h-6.6l2.9-38.8h8l3.2 14.1c1.1 4.9 2 9.2 2.9 13.5.6-4.3 1.4-8.6 2.6-13.5l3.2-14.1h8l2.3 38.8h-6.6l-.9-13.5zM457.3 498.2c0 2.3-1.7 4-4 4-2 0-3.7-1.7-3.7-4 0-2.6 1.7-4 3.7-4 2.6-.3 4 1.4 4 4zm-7.5 35.3v-28.1h7.5v28.1h-7.5zM478.3 533.2c-.9.3-2.6.9-4.9.9-7.2 0-11.8-4.9-11.8-14.1 0-8.6 5.2-14.6 12.9-14.6 1.7 0 3.4.3 4 .9l-.9 6c-.6-.3-1.4-.6-2.9-.6-3.7 0-5.7 3.4-5.7 8.3 0 5.2 2 8.3 5.7 8.3 1.1 0 2-.3 2.9-.6l.7 5.5zM481.1 493.9h7.5v14.6c.6-.9 1.4-1.7 2.3-2.3 1.1-.6 2.3-.9 3.7-.9 5.2 0 7.2 4.3 7.2 11.5v16.9h-7.5v-16.9c0-2.9-.6-5.2-2.9-5.2-1.1 0-2.3.9-2.9 2.6l-.3 2v17.5h-7.5v-39.9l.4.1zM515 498.2c0 2.3-1.7 4-4 4-2 0-3.7-1.7-3.7-4 0-2.6 1.7-4 3.7-4 2.3-.3 4 1.4 4 4zm-7.4 35.3v-28.1h7.5v28.1h-7.5zM541.2 505.6c0 2.6-.3 5.5-.3 8.9v16.1c0 6-1.1 9.5-3.4 11.5-2 2-4.9 3.2-9.2 3.2-2.6 0-4.9-.6-6.9-1.4l1.4-5.7c1.4.6 3.2 1.1 5.5 1.1 3.7 0 5.2-2.6 5.2-6.9v-1.7c-.9 1.7-2.9 2.9-5.2 2.9-6.3 0-8.9-6.9-8.9-13.5 0-9.5 4.3-14.6 9.5-14.6 2.3 0 4 1.1 5.2 3.2l.3-2.9 6.8-.2zm-7.8 10.1c0-.9 0-1.4-.3-2-.3-1.1-1.1-2.3-2.3-2.3-2.6 0-3.7 3.7-3.7 8.3 0 5.2 1.4 7.8 3.7 7.8.9 0 2-.6 2.6-2 .3-.6.3-1.4.3-2.3v-7.5h-.3zM558.7 533.5l-.3-2.9c-1.4 2.3-3.7 3.2-6.3 3.2-4.3 0-7.5-3.4-7.5-8.6 0-7.5 6.6-10.3 12.9-10.3v-.6c0-2.3-1.4-3.7-4-3.7-2.3 0-4 .6-5.7 1.7l-1.4-5.2c1.4-.9 4.9-2 8.6-2 8.6 0 10.1 6 10.1 11.8v10.3c0 2.3 0 4.6.6 6.3h-7zm-1.2-13.5c-2.6 0-6 .9-6 4.9 0 2.9 1.4 3.7 2.6 3.7s2.6-.9 3.2-2.3c0-.3.3-.9.3-1.4l-.1-4.9zM570.2 514c0-3.2-.3-5.7-.3-8.3h6.6l.3 3.2c1.4-2.3 4-3.7 6.9-3.7 5.5 0 7.5 4.3 7.5 10.6v18.1h-7.5v-17.5c0-2.3-.6-4.6-2.9-4.6-1.1 0-2.3.9-2.9 2.6-.3.6-.3 1.4-.3 2.6v17.2h-7.5l.1-20.2z"/></svg>