<?xml version="1.0" encoding="utf-8"?>
<!-- Generator: Adobe Illustrator 19.0.0, SVG Export Plug-In . SVG Version: 6.00 Build 0)  -->
<svg version="1.1" id="Layer_1" xmlns="http://www.w3.org/2000/svg" xmlns:xlink="http://www.w3.org/1999/xlink" x="0px" y="0px"
	 viewBox="0 0 800 800" style="enable-background:new 0 0 800 800;" xml:space="preserve">
<style type="text/css">
	.st0{fill:#FFFFFF;}
</style>
<polyline class="st0" points="406.516,404.293 406.516,399.263 405.941,392.143 403.861,385.623 400.898,379.683 396.739,374.353 
	391.405,370.204 385.475,366.944 378.955,364.864 371.545,364.285 371.545,372.583 376.285,374.353 378.955,378.204 
	379.844,382.063 379.844,383.844 380.435,395.402 371.545,395.402 371.545,404.293 406.516,404.293 "/>
<polyline class="st0" points="371.545,404.293 361.765,404.293 361.765,411.412 362.053,414.082 363.535,419.121 367.093,422.971 
	371.843,425.053 377.462,425.947 383.102,425.053 388.141,422.671 391.994,419.121 394.075,413.782 405.941,413.782 
	404.459,418.821 401.779,422.971 398.219,426.535 393.775,429.496 388.735,431.866 383.102,433.645 377.462,434.533 
	371.545,434.839 364.426,434.245 357.907,432.166 351.976,428.905 346.937,424.752 343.084,419.712 340.117,413.782 
	338.047,407.263 337.458,400.142 338.047,393.032 340.117,386.503 343.084,380.283 347.237,374.944 351.976,370.504 
	357.907,367.244 364.426,365.165 371.843,364.285 371.545,372.583 368.586,373.174 366.205,374.353 364.726,376.134 
	363.535,377.914 362.943,379.983 362.353,381.763 362.353,383.544 362.053,395.402 371.545,395.402 371.545,404.293 "/>
<rect x="641.304" y="343.225" class="st0" width="24.902" height="88.35"/>
<rect x="675.103" y="343.225" class="st0" width="24.897" height="88.35"/>
<polyline class="st0" points="219.174,434.839 213.834,434.533 208.201,433.358 201.974,431.575 196.045,428.317 191.005,423.861 
	186.565,417.642 183.895,409.633 182.703,399.853 183.895,390.663 186.565,382.953 191.005,376.723 196.045,371.987 
	201.974,368.425 208.201,366.055 213.834,364.565 219.174,364.285 219.174,372.874 216.504,373.465 214.423,374.653 
	212.653,377.023 211.465,380.283 210.574,384.144 209.983,388.883 209.683,393.923 209.683,405.482 210.283,410.821 
	210.861,415.261 211.765,419.121 213.244,422.082 214.723,424.461 216.793,425.647 219.174,426.235 219.174,434.839 "/>
<polyline class="st0" points="219.174,426.235 221.544,425.647 223.614,424.461 225.103,422.082 226.284,419.121 227.173,415.261 
	227.773,410.821 228.063,405.482 228.063,393.923 227.773,388.883 227.173,384.144 226.284,380.283 225.103,377.023 
	223.614,374.653 221.544,373.465 219.174,372.874 219.174,364.285 224.503,364.565 230.143,366.055 236.063,368.425 
	241.993,371.683 247.333,376.434 251.482,382.663 254.449,390.363 255.342,399.553 254.449,409.042 251.482,416.751 
	247.333,422.971 241.993,427.729 236.063,430.986 230.143,433.358 224.503,434.533 219.174,434.839 219.174,426.235 "/>
<polyline class="st0" points="100,343.225 127.267,343.225 127.267,379.683 148.315,379.683 148.315,343.225 175.885,343.225 
	175.885,431.575 148.315,431.575 148.315,392.733 127.267,392.733 127.267,431.866 100,431.866 100,343.225 "/>
<polyline class="st0" points="263.341,431.575 263.341,366.644 287.947,366.644 287.947,372.874 288.24,372.583 289.429,371.683 
	291.21,370.504 293.869,369.025 296.539,367.834 300.099,366.644 303.659,365.764 307.508,365.464 311.369,365.764 314.918,366.644 
	318.178,368.125 321.445,369.913 324.109,371.987 326.188,374.653 327.967,377.323 328.857,380.283 329.157,382.063 
	329.445,383.544 329.445,431.575 305.139,431.575 305.139,387.403 304.549,384.144 302.769,380.874 298.62,379.393 296.539,379.683 
	294.469,379.983 292.98,380.874 291.499,381.474 290.017,382.353 289.129,383.244 288.54,384.144 287.947,385.023 287.947,431.575 
	263.341,431.575 "/>
<polyline class="st0" points="400.298,442.243 400.598,444.618 400.898,446.985 402.079,449.365 403.555,451.735 405.338,453.805 
	407.716,455.285 410.978,456.477 414.538,456.775 417.798,456.477 421.056,455.887 424.317,454.694 426.978,453.215 
	429.657,451.432 431.714,449.365 433.497,446.985 434.977,444.618 437.057,439.585 440.917,429.796 445.957,417.342 
	451.576,403.412 456.913,389.773 461.655,377.914 464.916,369.614 466.116,366.644 485.074,431.866 505.533,431.866 
	515.912,392.733 528.369,431.866 547.631,431.866 564.529,366.644 553.25,366.644 544.071,400.742 532.509,366.644 512.653,366.644 
	502.273,401.923 492.193,366.644 456.616,366.644 443.876,398.072 432.017,366.644 403.555,366.644 404.738,369.314 
	407.716,376.134 411.859,385.923 416.895,397.483 421.638,409.042 425.797,419.412 428.755,427.426 429.937,431.575 
	429.357,435.427 428.457,438.696 426.978,441.355 425.197,443.425 423.717,445.205 422.238,446.395 420.757,447.285 
	420.157,447.585 420.757,446.395 421.338,444.915 421.638,443.425 421.938,441.655 421.638,439.585 421.056,437.505 
	420.157,435.726 418.975,433.945 417.198,432.766 415.417,431.866 413.338,431.278 411.276,430.986 409.195,431.278 
	407.116,431.866 405.338,432.766 403.555,434.245 402.079,435.726 401.198,437.796 400.598,439.866 400.298,442.243 "/>
<polyline class="st0" points="635.386,404.293 635.386,401.623 635.089,400.442 635.089,399.263 634.486,392.143 632.407,385.623 
	629.446,379.683 625.307,374.353 620.267,370.204 614.328,366.944 607.807,364.864 600.388,364.285 600.109,372.583 
	604.848,374.353 607.505,378.204 608.407,382.063 608.688,383.844 608.985,395.402 600.388,395.402 600.388,404.293 
	635.386,404.293 "/>
<polyline class="st0" points="600.388,404.293 590.609,404.293 590.609,414.082 592.086,419.121 595.645,422.971 600.388,425.053 
	606.027,425.947 611.665,425.053 616.705,422.671 620.567,419.121 622.627,413.782 634.786,413.782 633.307,418.821 
	630.624,422.971 627.085,426.535 622.627,429.496 617.589,431.866 611.967,433.645 606.327,434.533 600.388,434.839 
	592.988,434.245 586.466,432.166 580.529,428.905 575.49,424.752 571.351,419.712 568.389,413.782 566.307,407.263 565.71,400.142 
	566.307,393.032 568.389,386.503 571.351,380.283 575.49,374.944 580.529,370.504 586.466,367.244 592.988,365.165 600.388,364.285 
	600.388,372.583 597.126,373.174 595.069,374.353 593.288,376.134 592.391,377.914 591.505,379.983 591.209,381.763 
	591.209,383.544 590.609,395.402 600.388,395.402 600.388,404.293 "/>
</svg>
