<svg xmlns="http://www.w3.org/2000/svg" width="256" height="295" viewBox="-1311 753 256 295" enable-background="new -1311 753 256 295"><style type="text/css">.st0{fill:#444444;}</style><path class="st0" d="M-1133.8 802.1s-17.2-7.1-26.8-13.5c0 0-12.1-7.4-33.3-34.7 0 0 .5 31-32.4 46.7-51.5 21.9-83.9 64.7-83.9 119.8 0 70.4 57.1 127.5 127.5 127.5s127.5-57.1 127.5-127.5c.1-84.6-78.6-118.3-78.6-118.3zm10.9 221.6s-41.3 21.2-72.4-.5c-4.5-3.1-3.4-13 8.7-5.9 0 0 25.8 19 66.8-3.8 3.1-1.8 7 4.5-3.1 10.2zm-46.4-26.8s12.3-15.7 28.7-13.1c0 0 10.5-.8 16.6 11.4 0 0 3.5 9-4.7 6.7-4-1.1 1.1-8.3-13.9-10.1-11.1-1.3-15.9 7.8-23.9 11.5-1.6.7-5.8.3-2.8-6.4zm80.2.2s-6.4 2.2-13.3-5.1c0 0-19.9-22.6-29.7-26.3 0 0-5.6-2.2-13.1.5 0 0-4.9.5-24.9 13.8 0 0-33.7 21.1-50.7 18.5 0 0-37.9 1-33.4-39.4 0 0 7.9-45.5 61.2-35.4 0 0 11.6 2.5 33.4 19.2 0 0 14.3 11.1 22.2 10.9 0 0 6.1.6 18.9-7.5 0 0 26-20.1 35.1-19.5.2 0 18.3-2 18.3 27.2 0 .1.3 32.3-24 43.1z"/></svg>