<?xml version="1.0" encoding="utf-8"?>
<!-- Generator: Adobe Illustrator 19.0.0, SVG Export Plug-In . SVG Version: 6.00 Build 0)  -->
<svg version="1.1" id="Layer_1" xmlns="http://www.w3.org/2000/svg" xmlns:xlink="http://www.w3.org/1999/xlink" x="0px" y="0px"
	 width="17.3px" height="20px" viewBox="0 0 17.3 20" style="enable-background:new 0 0 17.3 20;" xml:space="preserve">
<style type="text/css">
	.st0{fill:#444444;}
</style>
<path class="st0" d="M12,3.3c0,0-1.2-0.5-1.8-0.9c0,0-0.8-0.5-2.3-2.4c0,0,0,2.1-2.2,3.2v0C2.2,4.7,0,7.6,0,11.3
	C0,16.1,3.9,20,8.7,20c4.8,0,8.7-3.9,8.7-8.7C17.3,5.6,12,3.3,12,3.3z M12.7,18.4c0,0-2.8,1.4-4.9,0c-0.3-0.2-0.2-0.9,0.6-0.4
	c0,0,1.8,1.3,4.5-0.3C13.2,17.5,13.4,18,12.7,18.4z M9.6,16.5c0,0,0.8-1.1,2-0.9c0,0,0.7-0.1,1.1,0.8c0,0,0.2,0.6-0.3,0.5
	c-0.3-0.1,0.1-0.6-0.9-0.7c-0.8-0.1-1.1,0.5-1.6,0.8C9.7,17,9.4,17,9.6,16.5z M15,16.5c0,0-0.4,0.1-0.9-0.3c0,0-1.4-1.5-2-1.8
	c0,0-0.4-0.2-0.9,0c0,0-0.3,0-1.7,0.9c0,0-2.3,1.4-3.5,1.3c0,0-2.6,0.1-2.3-2.7c0,0,0.5-3.1,4.2-2.4c0,0,0.8,0.2,2.3,1.3
	c0,0,1,0.8,1.5,0.7c0,0,0.4,0,1.3-0.5c0,0,1.8-1.4,2.4-1.3c0,0,1.2-0.1,1.2,1.9C16.7,13.6,16.7,15.8,15,16.5z"/>
</svg>
