<?xml version="1.0" encoding="utf-8"?>
<!-- Generator: Adobe Illustrator 19.0.0, SVG Export Plug-In . SVG Version: 6.00 Build 0)  -->
<svg version="1.1" id="Layer_1" xmlns="http://www.w3.org/2000/svg" xmlns:xlink="http://www.w3.org/1999/xlink" x="0px" y="0px"
	 width="20px" height="20px" viewBox="0 0 20 20" style="enable-background:new 0 0 20 20;" xml:space="preserve">
<style type="text/css">
	.st0{fill:#444444;}
</style>
<g>
	<path class="st0" d="M10,0.2c-5.5,0-10,4.5-10,10c0,4.4,2.9,8.2,6.8,9.5c0.5,0.1,0.7-0.2,0.7-0.5c0-0.2,0-1,0-1.9
		c-2.8,0.6-3.4-1.2-3.4-1.2C3.7,15.1,3,14.8,3,14.8c-0.9-0.6,0.1-0.6,0.1-0.6c1,0.1,1.5,1,1.5,1C5.5,16.7,7,16.3,7.5,16
		c0.1-0.6,0.3-1.1,0.6-1.3C6,14.4,3.6,13.6,3.6,9.7c0-1.1,0.4-2,1-2.7C4.5,6.8,4.2,5.8,4.7,4.4c0,0,0.8-0.3,2.8,1
		C8.3,5.2,9.2,5.1,10,5.1c0.8,0,1.7,0.1,2.5,0.3c1.9-1.3,2.7-1,2.7-1c0.5,1.4,0.2,2.4,0.1,2.6c0.6,0.7,1,1.6,1,2.7
		c0,3.8-2.3,4.7-4.6,4.9c0.4,0.3,0.7,0.9,0.7,1.9c0,1.3,0,2.4,0,2.7c0,0.3,0.2,0.6,0.7,0.5c4-1.3,6.8-5.1,6.8-9.5
		C20,4.7,15.5,0.2,10,0.2z M3.7,14.5c0,0-0.1,0.1-0.2,0c-0.1,0-0.1-0.1-0.1-0.2c0-0.1,0.1-0.1,0.2,0C3.7,14.4,3.8,14.4,3.7,14.5z
		 M4.2,14.9c0,0-0.1,0-0.2,0C4,14.8,4,14.7,4,14.7c0,0,0.1,0,0.2,0C4.3,14.8,4.3,14.9,4.2,14.9z M4.6,15.5c-0.1,0-0.2,0-0.2-0.1
		c-0.1-0.1-0.1-0.2,0-0.2c0.1,0,0.2,0,0.2,0.1C4.6,15.3,4.6,15.4,4.6,15.5z M5.1,16.1c-0.1,0.1-0.2,0-0.3,0
		c-0.1-0.1-0.1-0.2-0.1-0.3c0.1-0.1,0.2,0,0.3,0C5.2,16,5.2,16.1,5.1,16.1z M5.9,16.4c0,0.1-0.1,0.1-0.2,0.1c-0.1,0-0.2-0.1-0.2-0.2
		c0-0.1,0.1-0.1,0.3-0.1C5.8,16.2,5.9,16.3,5.9,16.4z M6.7,16.5c0,0.1-0.1,0.2-0.2,0.2c-0.1,0-0.2-0.1-0.2-0.1
		c0-0.1,0.1-0.2,0.2-0.2C6.6,16.3,6.7,16.4,6.7,16.5z M7.5,16.4c0,0.1-0.1,0.2-0.2,0.2c-0.1,0-0.2,0-0.2-0.1c0-0.1,0.1-0.2,0.2-0.2
		C7.4,16.3,7.5,16.3,7.5,16.4z"/>
</g>
</svg>
