<?xml version="1.0" encoding="utf-8"?>
<!-- Generator: Adobe Illustrator 19.0.0, SVG Export Plug-In . SVG Version: 6.00 Build 0)  -->
<svg version="1.1" id="Layer_1" xmlns="http://www.w3.org/2000/svg" xmlns:xlink="http://www.w3.org/1999/xlink" x="0px" y="0px"
	 width="130.2px" height="130px" viewBox="-801.2 836 130.2 130" style="enable-background:new -801.2 836 130.2 130;"
	 xml:space="preserve">
<style type="text/css">
	.st0{fill:#444444;}
</style>
<path class="st0" d="M-681.2,836h-110.4c-5.3,0-9.6,4.2-9.6,9.3v110.9c0,5.2,4.3,9.4,9.6,9.4h110.4c5.3,0,9.6-4.2,9.6-9.4V845.3
	C-671.6,840.2-676,836-681.2,836z M-762.8,946.4H-782v-61.8h19.2V946.4z M-772.4,876.1c-6.2,0-11.1-5-11.1-11.1
	c0-6.1,5-11.1,11.1-11.1c6.1,0,11.1,5,11.1,11.1C-761.3,871.1-766.3,876.1-772.4,876.1z M-690.8,946.4H-710v-30.1
	c0-7.2-0.1-16.4-10-16.4c-10,0-11.5,7.8-11.5,15.9v30.6h-19.2v-61.8h18.4v8.4h0.3c2.6-4.9,8.8-10,18.2-10
	c19.5,0,23.1,12.8,23.1,29.5V946.4z"/>
</svg>
