<?xml version="1.0" encoding="utf-8"?>
<!-- Generator: Adobe Illustrator 19.0.0, SVG Export Plug-In . SVG Version: 6.00 Build 0)  -->
<svg version="1.1" id="Layer_1" xmlns="http://www.w3.org/2000/svg" xmlns:xlink="http://www.w3.org/1999/xlink" x="0px" y="0px"
	 viewBox="0 0 800 800" style="enable-background:new 0 0 800 800;" xml:space="preserve">
<style type="text/css">
	.st0{fill:#FFFFFF;}
</style>
<path class="st0" d="M81.254,394.194c0,22.117,0,30.578-4.093,40.262c-2.869,6.828-8.875,13.242-19.93,20.886
	c-1.773,1.224-3.953,2.735-5.317,3.411c-0.274,0.14-0.549,0.274-0.956,0.274c-0.415,0-0.956-0.274-0.956-0.822
	c0-0.816,0.682-1.224,1.913-2.047c1.632-0.956,3.545-2.588,4.776-3.819c8.869-9.009,13.102-16.245,13.102-51.452v-39.446
	c0-21.289,0-25.113-0.274-29.481c-0.274-4.642-1.364-6.822-5.872-7.785c-1.09-0.268-3.411-0.408-4.635-0.408
	c-0.549,0-1.096-0.268-1.096-0.816c0-0.816,0.689-1.09,2.187-1.09c6.14,0,14.74,0.415,15.423,0.415s9.277-0.415,13.376-0.415
	c1.498,0,2.18,0.274,2.18,1.09c0,0.549-0.549,0.816-1.09,0.816c-0.956,0-1.773,0.14-3.411,0.408
	c-3.685,0.689-4.782,3.009-5.05,7.785c-0.274,4.367-0.274,8.193-0.274,29.481v32.753H81.254z"/>
<path class="st0" d="M146.463,325.272c1.632-4.495,2.18-5.324,3.003-5.324c0.816,0,1.364,0.689,3.003,4.916
	c2.047,5.19,23.475,61.551,31.796,82.297c4.916,12.152,8.875,14.332,11.744,15.155c2.047,0.676,4.093,0.823,5.457,0.823
	c0.816,0,1.364,0.128,1.364,0.816c0,0.816-1.23,1.09-2.729,1.09c-2.047,0-12.012,0-21.429-0.274
	c-2.595-0.134-4.099-0.134-4.099-0.956c0-0.549,0.415-0.823,0.956-0.956c0.823-0.274,1.639-1.498,0.823-3.685l-12.694-33.575
	c-0.274-0.542-0.549-0.816-1.23-0.816h-29.341c-0.682,0-1.096,0.408-1.364,1.09l-8.193,24.157c-1.224,3.411-1.907,6.688-1.907,9.143
	c0,2.735,2.863,3.965,5.183,3.965h1.364c0.956,0,1.371,0.262,1.371,0.816c0,0.816-0.822,1.09-2.053,1.09
	c-3.277,0-9.143-0.408-10.647-0.408c-1.498,0-9.003,0.408-15.423,0.408c-1.773,0-2.588-0.274-2.588-1.09
	c0-0.555,0.542-0.816,1.224-0.816c0.956,0,2.869-0.147,3.959-0.281c6.28-0.816,9.009-6.006,11.463-12.827L146.463,325.272z
	 M160.655,379.866c0.682,0,0.682-0.408,0.549-0.95l-12.968-36.851c-0.682-2.053-1.364-2.053-2.047,0l-12.012,36.851
	c-0.274,0.676,0,0.95,0.408,0.95H160.655z"/>
<path class="st0" d="M223.916,412.217c-13.242-11.878-16.513-27.435-16.513-40.402c0-9.143,3.137-25.107,15.283-37.259
	c8.193-8.186,20.612-14.606,41.626-14.606c5.463,0,13.108,0.408,19.79,1.645c5.19,0.95,9.557,1.773,13.925,2.047
	c1.498,0.134,1.773,0.682,1.773,1.498c0,1.096-0.408,2.729-0.682,7.644c-0.274,4.508-0.274,12.012-0.408,14.052
	c-0.134,2.053-0.408,2.875-1.23,2.875c-0.956,0-1.09-0.963-1.09-2.875c0-5.317-2.181-10.915-5.732-13.918
	c-4.776-4.093-15.289-7.778-27.294-7.778c-18.158,0-26.618,5.323-31.394,9.959c-9.965,9.557-12.286,21.703-12.286,35.627
	c0,26.07,20.064,49.947,49.271,49.947c10.239,0,18.292-1.224,23.749-6.822c2.869-2.997,4.642-9.009,5.05-11.463
	c0.274-1.498,0.549-2.047,1.364-2.047c0.682,0,0.956,0.956,0.956,2.047c0,0.956-1.639,12.827-3.003,17.469
	c-0.816,2.595-1.09,2.869-3.545,3.959c-5.464,2.187-15.837,3.143-24.572,3.143C248.482,426.957,234.697,421.907,223.916,412.217"/>
<path class="st0" d="M335.445,361.44c0-21.288,0-25.107-0.274-29.481c-0.274-4.642-1.364-6.815-5.866-7.778
	c-1.09-0.268-3.418-0.408-4.642-0.408c-0.549,0-1.09-0.268-1.09-0.816c0-0.823,0.682-1.096,2.181-1.096
	c6.146,0,14.199,0.415,15.015,0.415c1.23,0,9.143-0.415,13.236-0.415c1.505,0,2.187,0.274,2.187,1.096
	c0,0.549-0.549,0.816-1.09,0.816c-0.956,0-1.779,0.14-3.418,0.408c-3.678,0.682-4.769,3.003-5.05,7.778
	c-0.268,4.374-0.268,8.193-0.268,29.481v8.186h0.549c2.314-2.588,27.02-27.702,31.936-33.02c3.819-3.965,7.364-7.51,7.364-9.831
	c0-1.632-0.682-2.454-1.773-2.863c-0.682-0.274-1.23-0.549-1.23-1.09c0-0.689,0.689-0.962,1.639-0.962
	c2.729,0,6.962,0.415,10.239,0.415c0.682,0,9.691-0.415,13.102-0.415c1.498,0,2.047,0.274,2.047,0.962
	c0,0.682-0.274,0.95-1.364,0.95c-2.047,0-4.916,0.682-7.645,1.913c-5.591,2.461-8.594,5.866-14.74,11.737
	c-3.411,3.271-27.16,26.478-30.023,29.889c3.545,3.959,31.936,33.3,37.533,38.489c11.463,10.641,13.784,12.827,20.332,15.557
	c3.552,1.498,7.511,1.779,8.46,1.779c0.956,0,1.779,0.268,1.779,0.816c0,0.682-0.683,1.09-3.003,1.09h-6.962
	c-3.819,0-6.414,0-9.417-0.274c-7.236-0.676-10.647-3.686-16.513-8.326c-6.146-5.05-35.079-36.303-41.626-44.355h-0.682v13.376
	c0,13.102,0,23.883,0.682,29.621c0.408,3.953,1.224,6.956,5.317,7.498c1.913,0.274,4.099,0.555,5.33,0.555
	c0.816,0,1.09,0.408,1.09,0.816c0,0.682-0.682,1.09-2.187,1.09c-6.688,0-14.6-0.408-15.697-0.408c-1.09,0-9.003,0.408-13.102,0.408
	c-1.498,0-2.18-0.274-2.18-1.09c0-0.408,0.268-0.816,1.09-0.816c1.23,0,2.869-0.281,4.093-0.555
	c2.729-0.542,3.411-3.545,3.959-7.498c0.682-5.738,0.682-16.519,0.682-29.621L335.445,361.44L335.445,361.44z"/>
<path class="st0" d="M439.876,423.268c-1.913-0.956-2.047-1.505-2.047-5.183c0-6.822,0.542-12.28,0.682-14.472
	c0.14-1.498,0.415-2.181,1.09-2.181c0.823,0,0.956,0.408,0.956,1.498c0,1.23,0,3.137,0.408,5.05
	c2.053,10.105,11.062,13.925,20.205,13.925c13.102,0,19.516-9.417,19.516-18.152c0-9.417-3.959-14.881-15.697-24.572l-6.14-5.05
	c-14.466-11.865-17.75-20.332-17.75-29.615c0-14.606,10.928-24.566,28.257-24.566c5.323,0,9.283,0.542,12.694,1.364
	c2.594,0.549,3.686,0.689,4.775,0.689c1.09,0,1.364,0.268,1.364,0.95s-0.549,5.19-0.549,14.472c0,2.174-0.268,3.137-0.95,3.137
	c-0.816,0-0.956-0.689-1.096-1.779c-0.134-1.639-0.95-5.324-1.766-6.822c-0.823-1.505-4.508-7.23-17.068-7.23
	c-9.411,0-16.787,5.866-16.787,15.83c0,7.778,3.826,12.414,16.653,22.927l3.826,3.003c16.105,12.687,19.924,21.154,19.924,32.076
	c0,5.591-2.187,15.964-11.603,22.653c-5.872,4.093-13.236,5.738-20.606,5.738C451.753,426.96,445.473,425.997,439.876,423.268"/>
<path class="st0" d="M659.236,406.478c0.274,11.196,1.638,14.747,5.323,15.83c2.588,0.682,5.591,0.822,6.822,0.822
	c0.682,0,1.09,0.268,1.09,0.823c0,0.816-0.816,1.09-2.454,1.09c-7.778,0-13.236-0.408-14.466-0.408s-6.962,0.408-13.102,0.408
	c-1.364,0-2.187-0.14-2.187-1.09c0-0.555,0.415-0.823,1.096-0.823c1.09,0,3.545-0.14,5.591-0.822
	c3.417-0.95,4.099-4.91,4.099-17.322l0.134-78.21c0-5.324,0.408-6.828,1.505-6.828c1.084,0,3.411,3.003,4.769,4.374
	c2.053,2.32,22.385,24.291,43.405,46.81c13.51,14.466,28.391,31.119,32.752,35.621l-1.498-69.329
	c-0.134-8.875-1.09-11.878-5.323-12.968c-2.454-0.542-5.597-0.682-6.688-0.682c-0.95,0-1.09-0.415-1.09-0.956
	c0-0.816,1.09-0.956,2.729-0.956c6.14,0,12.688,0.415,14.192,0.415s6.006-0.415,11.603-0.415c1.505,0,2.461,0.14,2.461,0.956
	c0,0.542-0.549,0.956-1.505,0.956c-0.683,0-1.639,0-3.277,0.408c-4.501,0.956-5.05,3.959-5.05,12.146l-0.268,79.983
	c0,9.002-0.274,9.691-1.23,9.691c-1.09,0-2.735-1.505-9.965-8.734c-1.505-1.364-21.155-21.429-35.62-36.991
	c-15.83-17.055-31.253-34.256-35.627-39.172L659.236,406.478z"/>
<path class="st0" d="M100.496,477.353c0.057,2.295,0.351,3.016,1.148,3.239c0.549,0.14,1.199,0.172,1.46,0.172
	c0.147,0,0.236,0.051,0.236,0.165c0,0.165-0.178,0.223-0.529,0.223c-1.67,0-2.844-0.083-3.105-0.083
	c-0.268,0-1.498,0.083-2.818,0.083c-0.293,0-0.472-0.025-0.472-0.223c0-0.115,0.089-0.165,0.236-0.165
	c0.236,0,0.765-0.032,1.205-0.172c0.733-0.198,0.88-1.007,0.88-3.545l0.032-16.003c0-1.09,0.089-1.397,0.318-1.397
	c0.236,0,0.733,0.612,1.026,0.892c0.44,0.472,4.807,4.973,9.327,9.583c2.901,2.958,6.095,6.363,7.032,7.287l-0.318-14.185
	c-0.032-1.817-0.236-2.429-1.148-2.658c-0.522-0.108-1.199-0.14-1.434-0.14c-0.204,0-0.236-0.076-0.236-0.192
	c0-0.172,0.236-0.198,0.586-0.198c1.319,0,2.729,0.083,3.054,0.083c0.318,0,1.288-0.083,2.487-0.083
	c0.326,0,0.529,0.025,0.529,0.198c0,0.115-0.115,0.192-0.318,0.192c-0.147,0-0.357,0-0.708,0.089
	c-0.963,0.198-1.084,0.809-1.084,2.48l-0.058,16.366c0,1.843-0.057,1.983-0.262,1.983c-0.236,0-0.586-0.306-2.142-1.785
	c-0.326-0.281-4.546-4.386-7.657-7.568c-3.398-3.488-6.714-7.013-7.651-8.014L100.496,477.353z"/>
<path class="st0" d="M131.754,460.739c0.351-0.925,0.472-1.09,0.644-1.09c0.178,0,0.293,0.14,0.644,1.007
	c0.44,1.059,5.043,12.592,6.835,16.838c1.052,2.48,1.907,2.933,2.518,3.098c0.44,0.14,0.88,0.172,1.173,0.172
	c0.179,0,0.293,0.019,0.293,0.165c0,0.159-0.262,0.223-0.586,0.223c-0.44,0-2.582,0-4.603-0.064c-0.555-0.019-0.88-0.019-0.88-0.192
	c0-0.115,0.089-0.165,0.204-0.192c0.179-0.064,0.357-0.312,0.179-0.752l-2.729-6.873c-0.058-0.115-0.115-0.165-0.262-0.165h-6.305
	c-0.147,0-0.236,0.076-0.293,0.217l-1.76,4.947c-0.262,0.695-0.408,1.364-0.408,1.874c0,0.555,0.612,0.809,1.116,0.809h0.293
	c0.204,0,0.293,0.051,0.293,0.165c0,0.159-0.179,0.223-0.44,0.223c-0.708,0-1.97-0.083-2.289-0.083
	c-0.326,0-1.938,0.083-3.315,0.083c-0.382,0-0.555-0.064-0.555-0.223c0-0.115,0.115-0.165,0.262-0.165
	c0.204,0,0.619-0.031,0.854-0.058c1.345-0.172,1.932-1.23,2.461-2.627L131.754,460.739z M134.801,471.909
	c0.147,0,0.147-0.089,0.121-0.198l-2.792-7.536c-0.14-0.421-0.287-0.421-0.44,0l-2.576,7.536c-0.057,0.14,0,0.198,0.089,0.198
	H134.801z"/>
<path class="st0" d="M152.313,473.052c0,2.685,0,4.89,0.147,6.057c0.089,0.809,0.262,1.428,1.141,1.537
	c0.415,0.058,1.059,0.121,1.32,0.121c0.178,0,0.236,0.083,0.236,0.159c0,0.14-0.147,0.229-0.472,0.229
	c-1.606,0-3.455-0.089-3.602-0.089c-0.147,0-1.996,0.089-2.875,0.089c-0.319,0-0.472-0.064-0.472-0.229
	c0-0.076,0.064-0.159,0.236-0.159c0.268,0,0.619-0.064,0.88-0.121c0.586-0.108,0.733-0.727,0.848-1.537
	c0.153-1.166,0.153-3.372,0.153-6.057v-11.814l-4.342,0.058c-1.817,0.025-2.525,0.223-2.99,0.892
	c-0.326,0.478-0.408,0.669-0.497,0.867c-0.089,0.229-0.179,0.281-0.293,0.281c-0.089,0-0.147-0.083-0.147-0.249
	c0-0.287,0.586-2.684,0.644-2.908c0.057-0.172,0.172-0.536,0.293-0.536c0.204,0,0.497,0.281,1.288,0.344
	c0.854,0.076,1.964,0.134,2.32,0.134h10.992c0.937,0,1.613-0.083,2.078-0.134c0.446-0.089,0.708-0.147,0.823-0.147
	c0.147,0,0.147,0.165,0.147,0.338c0,0.836-0.083,2.767-0.083,3.073c0,0.249-0.089,0.357-0.204,0.357
	c-0.153,0-0.21-0.083-0.236-0.472l-0.032-0.306c-0.115-0.842-0.79-1.486-3.608-1.537l-3.692-0.058v11.815H152.313z"/>
<path class="st0" d="M168.848,473.052c0,2.685,0,4.89,0.147,6.057c0.089,0.809,0.262,1.428,1.141,1.537
	c0.415,0.058,1.059,0.121,1.319,0.121c0.178,0,0.236,0.083,0.236,0.159c0,0.14-0.147,0.229-0.472,0.229
	c-1.607,0-3.455-0.089-3.602-0.089c-0.147,0-1.996,0.089-2.875,0.089c-0.318,0-0.465-0.064-0.465-0.229
	c0-0.076,0.058-0.159,0.236-0.159c0.262,0,0.612-0.064,0.873-0.121c0.586-0.108,0.733-0.727,0.848-1.537
	c0.153-1.166,0.153-3.372,0.153-6.057v-4.916c0-4.348,0-5.139-0.064-6.031c-0.058-0.95-0.351-1.422-0.995-1.562
	c-0.326-0.083-0.702-0.115-0.906-0.115c-0.122,0-0.236-0.051-0.236-0.165c0-0.165,0.147-0.223,0.465-0.223
	c0.969,0,2.818,0.083,2.964,0.083c0.147,0,1.996-0.083,2.875-0.083c0.318,0,0.465,0.058,0.465,0.223
	c0,0.115-0.115,0.165-0.236,0.165c-0.204,0-0.376,0.031-0.733,0.083c-0.79,0.147-1.026,0.619-1.084,1.594
	c-0.057,0.892-0.057,1.684-0.057,6.031L168.848,473.052L168.848,473.052z"/>
<path class="st0" d="M186.508,459.645c6.592,0,11.521,3.966,11.521,10.482c0,6.248-4.635,11.419-11.7,11.419
	c-8.033,0-11.38-5.955-11.38-10.979C174.948,466.04,178.41,459.645,186.508,459.645 M187.119,480.481
	c2.639,0,8.091-1.453,8.091-9.576c0-6.701-4.278-10.303-8.914-10.303c-4.896,0-8.563,3.067-8.563,9.188
	C177.734,476.292,181.84,480.481,187.119,480.481"/>
<path class="st0" d="M205.509,477.353c0.057,2.295,0.351,3.016,1.141,3.239c0.561,0.14,1.205,0.172,1.466,0.172
	c0.147,0,0.236,0.051,0.236,0.165c0,0.165-0.178,0.223-0.529,0.223c-1.67,0-2.844-0.083-3.105-0.083
	c-0.268,0-1.498,0.083-2.818,0.083c-0.293,0-0.465-0.025-0.465-0.223c0-0.115,0.083-0.165,0.229-0.165
	c0.236,0,0.765-0.032,1.205-0.172c0.733-0.198,0.88-1.007,0.88-3.545l0.031-16.003c0-1.09,0.083-1.397,0.318-1.397
	s0.733,0.612,1.026,0.892c0.44,0.472,4.807,4.973,9.327,9.583c2.901,2.958,6.095,6.363,7.032,7.287l-0.318-14.185
	c-0.031-1.817-0.236-2.429-1.148-2.658c-0.522-0.108-1.199-0.14-1.434-0.14c-0.204,0-0.236-0.076-0.236-0.192
	c0-0.172,0.236-0.198,0.586-0.198c1.319,0,2.729,0.083,3.054,0.083c0.319,0,1.288-0.083,2.487-0.083
	c0.326,0,0.529,0.025,0.529,0.198c0,0.115-0.115,0.192-0.318,0.192c-0.147,0-0.357,0-0.708,0.089
	c-0.963,0.198-1.084,0.809-1.084,2.48l-0.058,16.366c0,1.843-0.064,1.983-0.268,1.983c-0.229,0-0.58-0.306-2.136-1.785
	c-0.325-0.281-4.546-4.386-7.657-7.568c-3.398-3.488-6.714-7.013-7.651-8.014L205.509,477.353z"/>
<path class="st0" d="M236.443,460.739c0.351-0.925,0.472-1.09,0.644-1.09c0.178,0,0.293,0.14,0.644,1.007
	c0.44,1.059,5.043,12.592,6.835,16.838c1.052,2.48,1.907,2.933,2.518,3.098c0.44,0.14,0.88,0.172,1.173,0.172
	c0.178,0,0.293,0.019,0.293,0.165c0,0.159-0.262,0.223-0.586,0.223c-0.44,0-2.582,0-4.603-0.064c-0.555-0.019-0.88-0.019-0.88-0.192
	c0-0.115,0.089-0.165,0.204-0.192c0.178-0.064,0.357-0.312,0.178-0.752l-2.729-6.873c-0.058-0.115-0.115-0.165-0.262-0.165h-6.305
	c-0.147,0-0.236,0.076-0.293,0.217l-1.76,4.947c-0.262,0.695-0.408,1.364-0.408,1.874c0,0.555,0.612,0.809,1.11,0.809h0.299
	c0.204,0,0.293,0.051,0.293,0.165c0,0.159-0.178,0.223-0.44,0.223c-0.708,0-1.97-0.083-2.289-0.083
	c-0.326,0-1.938,0.083-3.315,0.083c-0.382,0-0.555-0.064-0.555-0.223c0-0.115,0.115-0.165,0.262-0.165
	c0.204,0,0.619-0.031,0.854-0.058c1.345-0.172,1.932-1.23,2.461-2.627L236.443,460.739z M239.491,471.909
	c0.147,0,0.147-0.089,0.121-0.198l-2.786-7.536c-0.147-0.421-0.293-0.421-0.446,0l-2.576,7.536c-0.057,0.14,0,0.198,0.089,0.198
	H239.491z"/>
<path class="st0" d="M255.089,473.108c0,4.106,0.121,5.891,0.644,6.395c0.472,0.452,1.237,0.638,3.519,0.638
	c1.556,0,2.844-0.019,3.551-0.836c0.376-0.446,0.676-1.141,0.759-1.67c0.031-0.223,0.089-0.363,0.262-0.363
	c0.153,0,0.178,0.108,0.178,0.415c0,0.312-0.204,1.983-0.44,2.792c-0.204,0.644-0.293,0.759-1.843,0.759
	c-4.227,0-6.159-0.165-7.861-0.165c-0.121,0-0.619,0.019-1.205,0.019c-0.586,0.031-1.23,0.064-1.67,0.064
	c-0.318,0-0.472-0.064-0.472-0.223c0-0.083,0.064-0.165,0.242-0.165c0.262,0,0.612-0.058,0.873-0.121
	c0.586-0.109,0.733-0.72,0.848-1.53c0.153-1.173,0.153-3.379,0.153-6.063v-4.916c0-4.348,0-5.139-0.064-6.031
	c-0.058-0.943-0.287-1.389-1.256-1.594c-0.236-0.051-0.733-0.083-1.001-0.083c-0.115,0-0.229-0.051-0.229-0.165
	c0-0.165,0.147-0.223,0.465-0.223c1.319,0,3.168,0.083,3.315,0.083s2.289-0.083,3.168-0.083c0.318,0,0.465,0.058,0.465,0.223
	c0,0.115-0.115,0.165-0.236,0.165c-0.204,0-0.613,0.032-0.97,0.083c-0.848,0.147-1.077,0.619-1.141,1.594
	c-0.057,0.892-0.057,1.684-0.057,6.031L255.089,473.108L255.089,473.108z"/>
<path class="st0" d="M287.725,473.108c0,4.106,0.115,5.891,0.644,6.395c0.472,0.452,1.23,0.638,3.519,0.638
	c1.556,0,2.844-0.019,3.545-0.836c0.382-0.446,0.676-1.141,0.765-1.67c0.032-0.223,0.089-0.363,0.262-0.363
	c0.147,0,0.179,0.108,0.179,0.415c0,0.312-0.204,1.983-0.44,2.792c-0.204,0.644-0.293,0.759-1.849,0.759
	c-4.221,0-6.152-0.165-7.855-0.165c-0.121,0-0.619,0.019-1.205,0.019c-0.586,0.031-1.23,0.064-1.67,0.064
	c-0.319,0-0.466-0.064-0.466-0.223c0-0.083,0.058-0.165,0.236-0.165c0.262,0,0.612-0.058,0.873-0.121
	c0.586-0.109,0.733-0.72,0.854-1.53c0.14-1.173,0.14-3.379,0.14-6.063v-4.916c0-4.348,0-5.139-0.058-6.031
	c-0.058-0.943-0.293-1.389-1.256-1.594c-0.236-0.051-0.733-0.083-1.001-0.083c-0.115,0-0.229-0.051-0.229-0.165
	c0-0.165,0.14-0.223,0.465-0.223c1.32,0,3.168,0.083,3.315,0.083c0.147,0,2.289-0.083,3.162-0.083c0.326,0,0.472,0.058,0.472,0.223
	c0,0.115-0.115,0.165-0.236,0.165c-0.204,0-0.612,0.032-0.969,0.083c-0.848,0.147-1.084,0.619-1.141,1.594
	c-0.057,0.892-0.057,1.684-0.057,6.031L287.725,473.108L287.725,473.108z"/>
<path class="st0" d="M304.82,473.052c0,2.685,0,4.89,0.147,6.057c0.089,0.809,0.262,1.428,1.141,1.537
	c0.415,0.058,1.059,0.121,1.319,0.121c0.178,0,0.236,0.083,0.236,0.159c0,0.14-0.147,0.229-0.472,0.229
	c-1.607,0-3.455-0.089-3.602-0.089c-0.147,0-1.996,0.089-2.875,0.089c-0.319,0-0.472-0.064-0.472-0.229
	c0-0.076,0.064-0.159,0.236-0.159c0.268,0,0.619-0.064,0.88-0.121c0.586-0.108,0.733-0.727,0.848-1.537
	c0.147-1.166,0.147-3.372,0.147-6.057v-4.916c0-4.348,0-5.139-0.058-6.031c-0.058-0.95-0.351-1.422-0.995-1.562
	c-0.326-0.083-0.702-0.115-0.906-0.115c-0.122,0-0.242-0.051-0.242-0.165c0-0.165,0.153-0.223,0.472-0.223
	c0.969,0,2.818,0.083,2.965,0.083c0.147,0,1.996-0.083,2.869-0.083c0.326,0,0.472,0.058,0.472,0.223
	c0,0.115-0.115,0.165-0.236,0.165c-0.204,0-0.376,0.031-0.733,0.083c-0.79,0.147-1.026,0.619-1.084,1.594
	c-0.057,0.892-0.057,1.684-0.057,6.031L304.82,473.052L304.82,473.052z"/>
<path class="st0" d="M314.994,468.136c0-4.355,0-5.139-0.058-6.031c-0.064-0.95-0.293-1.396-1.263-1.594
	c-0.236-0.051-0.733-0.083-0.995-0.083c-0.121,0-0.236-0.051-0.236-0.165c0-0.165,0.147-0.223,0.466-0.223
	c1.319,0,3.168,0.083,3.315,0.083c0.586,0,6.542,0,7.211-0.025c0.561-0.032,1.026-0.032,1.294-0.108
	c0.172-0.064,0.293-0.179,0.408-0.179c0.121,0,0.179,0.115,0.179,0.255c0,0.198-0.147,0.536-0.236,1.313
	c-0.032,0.281-0.089,1.511-0.147,1.843c-0.032,0.14-0.089,0.306-0.236,0.306s-0.204-0.134-0.204-0.332
	c0-0.223-0.089-0.702-0.262-1.065c-0.178-0.357-0.854-0.861-1.996-0.892l-4.514-0.083c-0.179,0-0.268,0.083-0.268,0.312v7.702
	c0,0.165,0.032,0.255,0.204,0.255l3.755-0.032c0.497,0,0.912,0,1.32-0.025c0.702-0.058,1.084-0.14,1.352-0.504
	c0.115-0.14,0.204-0.281,0.319-0.281c0.121,0,0.147,0.083,0.147,0.229c0,0.159-0.147,0.638-0.229,1.556
	c-0.064,0.561-0.122,1.684-0.122,1.874c0,0.248,0,0.529-0.204,0.529c-0.147,0-0.204-0.108-0.204-0.248
	c-0.031-0.281-0.058-0.669-0.178-1.007c-0.147-0.388-0.619-0.886-1.523-1.001c-0.733-0.083-3.927-0.083-4.431-0.083
	c-0.147,0-0.204,0.051-0.204,0.242v2.378c0,2.684,0,4.883,0.147,6.057c0.089,0.809,0.268,1.422,1.147,1.536
	c0.408,0.058,1.052,0.115,1.319,0.115c0.172,0,0.229,0.083,0.229,0.165c0,0.14-0.147,0.229-0.466,0.229
	c-1.613,0-3.462-0.089-3.608-0.089c-0.147,0-1.996,0.089-2.875,0.089c-0.319,0-0.466-0.064-0.466-0.229
	c0-0.083,0.058-0.165,0.236-0.165c0.262,0,0.612-0.058,0.88-0.115c0.586-0.115,0.733-0.727,0.848-1.536
	c0.147-1.173,0.147-3.373,0.147-6.057v-4.915H314.994z"/>
<path class="st0" d="M332.089,468.136c0-4.355,0-5.139-0.058-6.031c-0.058-0.95-0.293-1.396-1.263-1.594
	c-0.236-0.051-0.733-0.083-0.995-0.083c-0.121,0-0.236-0.051-0.236-0.165c0-0.165,0.147-0.223,0.466-0.223
	c1.319,0,3.168,0.083,3.315,0.083c0.204,0,6.037,0,6.714-0.025c0.561-0.032,1.026-0.089,1.263-0.14
	c0.147-0.031,0.262-0.147,0.408-0.147c0.089,0,0.121,0.115,0.121,0.255c0,0.198-0.147,0.536-0.236,1.313
	c-0.031,0.281-0.089,1.511-0.147,1.843c-0.025,0.14-0.089,0.306-0.204,0.306c-0.179,0-0.236-0.134-0.236-0.363
	c0-0.192-0.025-0.669-0.172-1.001c-0.21-0.446-0.504-0.784-2.085-0.95c-0.497-0.058-3.692-0.089-4.017-0.089
	c-0.121,0-0.179,0.089-0.179,0.287v7.708c0,0.192,0.032,0.274,0.179,0.274c0.382,0,3.991,0,4.66-0.058
	c0.702-0.051,1.116-0.108,1.377-0.389c0.21-0.223,0.326-0.363,0.44-0.363c0.089,0,0.147,0.058,0.147,0.229
	c0,0.159-0.147,0.638-0.236,1.556c-0.057,0.561-0.115,1.594-0.115,1.791c0,0.223,0,0.529-0.204,0.529
	c-0.147,0-0.204-0.115-0.204-0.249c0-0.281,0-0.561-0.122-0.925c-0.115-0.388-0.382-0.867-1.523-0.976
	c-0.79-0.089-3.692-0.14-4.189-0.14c-0.153,0-0.211,0.083-0.211,0.198v2.454c0,0.95-0.025,4.189,0,4.776
	c0.089,1.926,0.529,2.289,3.405,2.289c0.765,0,2.053,0,2.811-0.306c0.765-0.306,1.116-0.861,1.319-2.008
	c0.058-0.312,0.121-0.421,0.268-0.421c0.172,0,0.172,0.217,0.172,0.421c0,0.223-0.236,2.117-0.382,2.703
	c-0.204,0.733-0.44,0.733-1.581,0.733c-4.425,0-6.388-0.172-7.242-0.172c-0.058,0-0.555,0.025-1.173,0.025
	c-0.586,0.032-1.263,0.064-1.696,0.064c-0.326,0-0.472-0.064-0.472-0.229c0-0.083,0.058-0.165,0.236-0.165
	c0.262,0,0.612-0.058,0.88-0.115c0.586-0.115,0.733-0.727,0.848-1.536c0.147-1.173,0.147-3.373,0.147-6.057v-4.916H332.089z"/>
<path class="st0" d="M367.568,473.052c0,2.685,0,4.89,0.147,6.057c0.089,0.809,0.262,1.428,1.141,1.537
	c0.415,0.058,1.059,0.121,1.32,0.121c0.178,0,0.236,0.083,0.236,0.159c0,0.14-0.147,0.229-0.472,0.229
	c-1.613,0-3.455-0.089-3.602-0.089c-0.153,0-1.996,0.089-2.875,0.089c-0.319,0-0.472-0.064-0.472-0.229
	c0-0.076,0.064-0.159,0.236-0.159c0.262,0,0.619-0.064,0.88-0.121c0.586-0.108,0.733-0.727,0.848-1.537
	c0.153-1.166,0.153-3.372,0.153-6.057v-4.916c0-4.348,0-5.139-0.064-6.031c-0.058-0.95-0.351-1.422-0.995-1.562
	c-0.326-0.083-0.708-0.115-0.906-0.115c-0.122,0-0.242-0.051-0.242-0.165c0-0.165,0.153-0.223,0.472-0.223
	c0.969,0,2.811,0.083,2.964,0.083c0.147,0,1.989-0.083,2.869-0.083c0.326,0,0.472,0.058,0.472,0.223
	c0,0.115-0.115,0.165-0.236,0.165c-0.204,0-0.382,0.031-0.733,0.083c-0.79,0.147-1.026,0.619-1.084,1.594
	c-0.057,0.892-0.057,1.684-0.057,6.031L367.568,473.052L367.568,473.052z"/>
<path class="st0" d="M378.533,477.353c0.057,2.295,0.351,3.016,1.141,3.239c0.561,0.14,1.205,0.172,1.466,0.172
	c0.153,0,0.236,0.051,0.236,0.165c0,0.165-0.172,0.223-0.529,0.223c-1.67,0-2.844-0.083-3.104-0.083
	c-0.262,0-1.498,0.083-2.818,0.083c-0.293,0-0.465-0.025-0.465-0.223c0-0.115,0.089-0.165,0.236-0.165
	c0.229,0,0.759-0.032,1.199-0.172c0.733-0.198,0.88-1.007,0.88-3.545l0.032-16.003c0-1.09,0.089-1.397,0.319-1.397
	c0.236,0,0.733,0.612,1.026,0.892c0.44,0.472,4.807,4.973,9.327,9.583c2.901,2.958,6.095,6.363,7.038,7.287l-0.326-14.185
	c-0.032-1.817-0.236-2.429-1.141-2.658c-0.535-0.108-1.205-0.14-1.441-0.14c-0.204,0-0.236-0.076-0.236-0.192
	c0-0.172,0.236-0.198,0.586-0.198c1.319,0,2.729,0.083,3.048,0.083c0.326,0,1.294-0.083,2.493-0.083
	c0.326,0,0.529,0.025,0.529,0.198c0,0.115-0.115,0.192-0.326,0.192c-0.14,0-0.344,0-0.695,0.089c-0.976,0.198-1.09,0.809-1.09,2.48
	l-0.058,16.366c0,1.843-0.057,1.983-0.262,1.983c-0.236,0-0.593-0.306-2.142-1.785c-0.326-0.281-4.546-4.386-7.651-7.568
	c-3.405-3.488-6.714-7.013-7.657-8.014L378.533,477.353z"/>
<path class="st0" d="M403.369,480.787c-0.408-0.198-0.44-0.306-0.44-1.059c0-1.396,0.115-2.512,0.147-2.958
	c0.032-0.306,0.089-0.446,0.236-0.446c0.179,0,0.204,0.076,0.204,0.306c0,0.248,0,0.644,0.089,1.032
	c0.44,2.066,2.378,2.844,4.342,2.844c2.811,0,4.189-1.919,4.189-3.717c0-1.926-0.848-3.042-3.373-5.024l-1.313-1.026
	c-3.111-2.429-3.819-4.163-3.819-6.063c0-2.99,2.353-5.03,6.076-5.03c1.141,0,1.989,0.115,2.722,0.281
	c0.561,0.115,0.797,0.14,1.026,0.14c0.236,0,0.293,0.051,0.293,0.198c0,0.14-0.115,1.059-0.115,2.958
	c0,0.446-0.064,0.644-0.204,0.644c-0.179,0-0.204-0.14-0.236-0.363c-0.032-0.338-0.204-1.09-0.382-1.397
	c-0.179-0.306-0.969-1.486-3.666-1.486c-2.027,0-3.608,1.205-3.608,3.245c0,1.594,0.823,2.544,3.583,4.693l0.816,0.612
	c3.462,2.595,4.284,4.329,4.284,6.567c0,1.141-0.472,3.265-2.493,4.635c-1.263,0.836-2.844,1.173-4.431,1.173
	C405.919,481.545,404.574,481.348,403.369,480.787"/>
<path class="st0" d="M420.403,468.136c0-4.355,0-5.139-0.058-6.031c-0.064-0.95-0.3-1.396-1.263-1.594
	c-0.236-0.051-0.733-0.083-0.995-0.083c-0.121,0-0.236-0.051-0.236-0.165c0-0.165,0.147-0.223,0.466-0.223
	c1.319,0,3.111,0.083,3.373,0.083c0.268,0,2.021-0.083,2.901-0.083c0.326,0,0.472,0.058,0.472,0.223
	c0,0.115-0.115,0.165-0.236,0.165c-0.204,0-0.376,0.031-0.727,0.083c-0.797,0.115-1.026,0.613-1.09,1.594
	c-0.058,0.892-0.058,1.676-0.058,6.031v3.915c0,4.016,0.943,5.75,2.2,6.898c1.441,1.282,2.761,1.53,4.425,1.53
	c1.791,0,3.552-0.809,4.609-2.008c1.345-1.594,1.702-3.965,1.702-6.841v-3.494c0-4.355,0-5.139-0.064-6.031
	c-0.058-0.95-0.293-1.396-1.263-1.594c-0.236-0.051-0.727-0.083-0.995-0.083c-0.121,0-0.236-0.051-0.236-0.165
	c0-0.165,0.147-0.223,0.472-0.223c1.32,0,2.933,0.083,3.105,0.083c0.204,0,1.581-0.083,2.461-0.083c0.326,0,0.472,0.058,0.472,0.223
	c0,0.115-0.115,0.165-0.236,0.165c-0.204,0-0.376,0-0.733,0.083c-0.784,0.14-1.026,0.613-1.084,1.594
	c-0.058,0.892-0.058,1.676-0.058,6.031v2.99c0,3.016-0.351,6.363-2.697,8.346c-2.111,1.785-4.31,2.072-6.038,2.072
	c-0.995,0-3.965-0.115-6.044-1.983c-1.434-1.313-2.551-3.271-2.551-7.345v-4.081H420.403z"/>
<path class="st0" d="M446.589,468.139c0-4.355,0-5.139-0.058-6.031c-0.057-0.95-0.293-1.396-1.263-1.594
	c-0.236-0.058-0.733-0.083-0.995-0.083c-0.115,0-0.236-0.058-0.236-0.165c0-0.172,0.147-0.223,0.466-0.223
	c1.326,0,3.175,0.076,3.315,0.076c0.326,0,2.557-0.076,3.462-0.076c1.843,0,3.812,0.165,5.368,1.23
	c0.733,0.497,2.021,1.868,2.021,3.793c0,2.072-0.912,4.132-3.545,6.452c2.404,2.933,4.392,5.413,6.095,7.147
	c1.581,1.594,2.844,1.9,3.577,2.015c0.561,0.083,0.963,0.083,1.148,0.083c0.14,0,0.262,0.083,0.262,0.165
	c0,0.165-0.172,0.223-0.702,0.223h-2.085c-1.645,0-2.372-0.14-3.137-0.529c-1.263-0.644-2.289-2.015-3.959-4.105
	c-1.23-1.536-2.608-3.411-3.201-4.138c-0.115-0.108-0.204-0.165-0.376-0.165l-3.608-0.051c-0.147,0-0.204,0.083-0.204,0.217v0.676
	c0,2.677,0,4.883,0.147,6.057c0.089,0.809,0.262,1.422,1.141,1.537c0.415,0.058,1.059,0.115,1.327,0.115
	c0.172,0,0.229,0.083,0.229,0.165c0,0.14-0.147,0.223-0.472,0.223c-1.607,0-3.455-0.083-3.602-0.083
	c-0.025,0-1.874,0.083-2.754,0.083c-0.326,0-0.479-0.058-0.479-0.223c0-0.083,0.064-0.165,0.242-0.165
	c0.268,0,0.612-0.058,0.88-0.115c0.586-0.115,0.727-0.727,0.848-1.537c0.147-1.173,0.147-3.379,0.147-6.057L446.589,468.139
	L446.589,468.139z M448.934,470.568c0,0.14,0.057,0.249,0.204,0.332c0.44,0.255,1.791,0.452,3.086,0.452
	c0.695,0,1.517-0.089,2.187-0.535c1.033-0.669,1.798-2.174,1.798-4.297c0-3.488-1.938-5.591-5.075-5.591
	c-0.88,0-1.67,0.089-1.964,0.178c-0.153,0.051-0.236,0.165-0.236,0.326L448.934,470.568L448.934,470.568z"/>
<path class="st0" d="M477.261,460.739c0.351-0.925,0.466-1.09,0.644-1.09c0.172,0,0.293,0.14,0.644,1.007
	c0.44,1.059,5.043,12.592,6.835,16.838c1.052,2.48,1.907,2.933,2.518,3.098c0.44,0.14,0.88,0.172,1.173,0.172
	c0.178,0,0.299,0.019,0.299,0.165c0,0.159-0.268,0.223-0.593,0.223c-0.44,0-2.582,0-4.603-0.064c-0.555-0.019-0.88-0.019-0.88-0.192
	c0-0.115,0.089-0.165,0.204-0.192c0.178-0.064,0.351-0.312,0.178-0.752l-2.722-6.873c-0.064-0.115-0.122-0.165-0.268-0.165h-6.305
	c-0.147,0-0.236,0.076-0.293,0.217l-1.76,4.947c-0.262,0.695-0.415,1.364-0.415,1.874c0,0.555,0.619,0.809,1.122,0.809h0.287
	c0.204,0,0.299,0.051,0.299,0.165c0,0.159-0.178,0.223-0.446,0.223c-0.702,0-1.957-0.083-2.283-0.083s-1.938,0.083-3.315,0.083
	c-0.382,0-0.555-0.064-0.555-0.223c0-0.115,0.115-0.165,0.262-0.165c0.204,0,0.612-0.031,0.848-0.058
	c1.352-0.172,1.938-1.23,2.467-2.627L477.261,460.739z M480.308,471.909c0.146,0,0.146-0.089,0.115-0.198l-2.786-7.536
	c-0.14-0.421-0.287-0.421-0.44,0l-2.576,7.536c-0.057,0.14,0,0.198,0.089,0.198H480.308z"/>
<path class="st0" d="M495.467,477.353c0.057,2.295,0.357,3.016,1.141,3.239c0.555,0.14,1.205,0.172,1.467,0.172
	c0.146,0,0.236,0.051,0.236,0.165c0,0.165-0.172,0.223-0.529,0.223c-1.67,0-2.844-0.083-3.111-0.083
	c-0.255,0-1.492,0.083-2.811,0.083c-0.293,0-0.465-0.025-0.465-0.223c0-0.115,0.089-0.165,0.229-0.165
	c0.236,0,0.766-0.032,1.199-0.172c0.739-0.198,0.886-1.007,0.886-3.545l0.032-16.003c0-1.09,0.083-1.397,0.319-1.397
	c0.236,0,0.733,0.612,1.033,0.892c0.433,0.472,4.801,4.973,9.321,9.583c2.901,2.958,6.101,6.363,7.032,7.287l-0.319-14.186
	c-0.025-1.817-0.236-2.429-1.141-2.658c-0.529-0.108-1.205-0.14-1.441-0.14c-0.204,0-0.236-0.076-0.236-0.192
	c0-0.172,0.236-0.198,0.593-0.198c1.313,0,2.722,0.083,3.042,0.083c0.332,0,1.294-0.083,2.493-0.083
	c0.326,0,0.529,0.025,0.529,0.198c0,0.115-0.115,0.192-0.319,0.192c-0.147,0-0.351,0-0.708,0.089
	c-0.962,0.198-1.084,0.809-1.084,2.48l-0.058,16.366c0,1.843-0.058,1.983-0.262,1.983c-0.236,0-0.593-0.306-2.142-1.785
	c-0.326-0.281-4.546-4.386-7.651-7.568c-3.405-3.488-6.714-7.013-7.651-8.014L495.467,477.353z"/>
<path class="st0" d="M522.384,478.526c-2.844-2.429-3.552-5.61-3.552-8.27c0-1.874,0.675-5.139,3.283-7.619
	c1.76-1.676,4.425-2.99,8.945-2.99c1.173,0,2.818,0.083,4.253,0.338c1.116,0.192,2.053,0.363,2.99,0.415
	c0.318,0.025,0.382,0.14,0.382,0.312c0,0.217-0.089,0.555-0.146,1.562c-0.058,0.918-0.058,2.454-0.089,2.875
	c-0.031,0.421-0.083,0.586-0.262,0.586c-0.204,0-0.236-0.198-0.236-0.586c0-1.09-0.472-2.238-1.23-2.844
	c-1.026-0.842-3.29-1.594-5.866-1.594c-3.902,0-5.719,1.084-6.739,2.034c-2.142,1.957-2.646,4.444-2.646,7.287
	c0,5.337,4.31,10.226,10.584,10.226c2.206,0,3.934-0.249,5.106-1.403c0.612-0.612,0.995-1.836,1.084-2.34
	c0.058-0.306,0.122-0.421,0.293-0.421c0.146,0,0.204,0.198,0.204,0.421c0,0.192-0.351,2.621-0.644,3.57
	c-0.178,0.535-0.236,0.586-0.766,0.809c-1.173,0.446-3.398,0.644-5.279,0.644C527.663,481.541,524.699,480.509,522.384,478.526"/>
<path class="st0" d="M545.518,468.136c0-4.355,0-5.139-0.058-6.031c-0.058-0.95-0.293-1.396-1.263-1.594
	c-0.236-0.051-0.733-0.083-0.995-0.083c-0.122,0-0.236-0.051-0.236-0.165c0-0.165,0.147-0.223,0.472-0.223
	c1.319,0,3.168,0.083,3.309,0.083c0.204,0,6.038,0,6.713-0.025c0.561-0.032,1.033-0.089,1.263-0.14
	c0.147-0.031,0.268-0.147,0.415-0.147c0.083,0,0.115,0.115,0.115,0.255c0,0.198-0.146,0.536-0.236,1.313
	c-0.025,0.281-0.083,1.511-0.147,1.843c-0.031,0.14-0.083,0.306-0.204,0.306c-0.172,0-0.236-0.134-0.236-0.363
	c0-0.192-0.031-0.669-0.172-1.001c-0.204-0.446-0.503-0.784-2.085-0.95c-0.497-0.058-3.698-0.089-4.017-0.089
	c-0.121,0-0.172,0.089-0.172,0.287v7.708c0,0.192,0.025,0.274,0.172,0.274c0.382,0,3.985,0,4.661-0.058
	c0.708-0.051,1.116-0.108,1.377-0.389c0.204-0.223,0.326-0.363,0.44-0.363c0.089,0,0.153,0.058,0.153,0.229
	c0,0.159-0.153,0.638-0.236,1.556c-0.058,0.561-0.121,1.594-0.121,1.791c0,0.223,0,0.529-0.204,0.529
	c-0.147,0-0.204-0.115-0.204-0.249c0-0.281,0-0.561-0.115-0.925c-0.121-0.388-0.382-0.867-1.53-0.976
	c-0.79-0.089-3.698-0.14-4.189-0.14c-0.153,0-0.204,0.083-0.204,0.198v2.454c0,0.95-0.031,4.189,0,4.776
	c0.083,1.926,0.529,2.289,3.398,2.289c0.759,0,2.053,0,2.811-0.306c0.765-0.306,1.116-0.861,1.32-2.008
	c0.058-0.312,0.121-0.421,0.268-0.421c0.172,0,0.172,0.217,0.172,0.421c0,0.223-0.236,2.117-0.382,2.703
	c-0.204,0.733-0.434,0.733-1.581,0.733c-4.425,0-6.388-0.172-7.242-0.172c-0.058,0-0.561,0.025-1.173,0.025
	c-0.586,0.032-1.256,0.064-1.696,0.064c-0.326,0-0.472-0.064-0.472-0.229c0-0.083,0.058-0.165,0.236-0.165
	c0.262,0,0.612-0.058,0.88-0.115c0.58-0.115,0.733-0.727,0.848-1.536c0.147-1.173,0.147-3.373,0.147-6.057V468.136z"/>
<path class="st0" d="M578.739,478.526c-2.844-2.429-3.546-5.61-3.546-8.27c0-1.874,0.669-5.139,3.284-7.619
	c1.754-1.676,4.418-2.99,8.939-2.99c1.18,0,2.818,0.083,4.253,0.338c1.116,0.192,2.053,0.363,2.997,0.415
	c0.319,0.025,0.376,0.14,0.376,0.312c0,0.217-0.089,0.555-0.146,1.562c-0.058,0.918-0.058,2.454-0.089,2.875
	c-0.025,0.421-0.089,0.586-0.262,0.586c-0.204,0-0.235-0.198-0.235-0.586c0-1.09-0.472-2.238-1.23-2.844
	c-1.026-0.842-3.284-1.594-5.866-1.594c-3.896,0-5.719,1.084-6.745,2.034c-2.136,1.957-2.64,4.444-2.64,7.287
	c0,5.337,4.316,10.226,10.584,10.226c2.206,0,3.934-0.249,5.106-1.403c0.619-0.612,0.995-1.836,1.084-2.34
	c0.064-0.306,0.115-0.421,0.293-0.421c0.146,0,0.204,0.198,0.204,0.421c0,0.192-0.351,2.621-0.638,3.57
	c-0.185,0.535-0.235,0.586-0.772,0.809c-1.173,0.446-3.398,0.644-5.279,0.644C584.018,481.541,581.06,480.509,578.739,478.526"/>
<path class="st0" d="M609.475,459.645c6.599,0,11.527,3.966,11.527,10.482c0,6.248-4.635,11.419-11.706,11.419
	c-8.027,0-11.374-5.955-11.374-10.979C597.922,466.04,601.384,459.645,609.475,459.645 M610.093,480.481
	c2.639,0,8.09-1.453,8.09-9.576c0-6.701-4.278-10.303-8.92-10.303c-4.89,0-8.557,3.067-8.557,9.188
	C600.709,476.292,604.814,480.481,610.093,480.481"/>
<path class="st0" d="M648.542,477.547c0.115,1.007,0.318,2.569,1.581,2.958c0.854,0.255,1.613,0.255,1.907,0.255
	c0.146,0,0.235,0.025,0.235,0.134c0,0.172-0.262,0.262-0.619,0.262c-0.644,0-3.812-0.089-4.896-0.172
	c-0.669-0.058-0.823-0.14-0.823-0.281c0-0.115,0.058-0.165,0.21-0.198c0.147-0.025,0.172-0.497,0.115-1.001l-1.409-14.409h-0.083
	l-7.185,14.517c-0.619,1.23-0.702,1.479-0.969,1.479c-0.204,0-0.351-0.274-0.906-1.282c-0.765-1.364-3.29-6.197-3.436-6.478
	c-0.262-0.504-3.552-7.205-3.87-7.957h-0.115l-1.18,12.955c-0.019,0.446-0.019,0.95-0.019,1.422c0,0.421,0.318,0.784,0.759,0.867
	c0.497,0.115,0.937,0.14,1.109,0.14c0.121,0,0.236,0.058,0.236,0.134c0,0.198-0.172,0.262-0.522,0.262
	c-1.084,0-2.493-0.089-2.729-0.089c-0.268,0-1.67,0.089-2.461,0.089c-0.293,0-0.497-0.064-0.497-0.262
	c0-0.076,0.14-0.134,0.293-0.134c0.236,0,0.44,0,0.88-0.083c0.962-0.172,1.052-1.263,1.166-2.32l2.111-18.203
	c0.064-0.312,0.153-0.51,0.326-0.51c0.172,0,0.293,0.115,0.44,0.421l8.97,17.572l8.62-17.539c0.122-0.255,0.236-0.452,0.44-0.452
	c0.21,0,0.293,0.229,0.351,0.759L648.542,477.547z"/>
<path class="st0" d="M656.424,468.136c0-4.355,0-5.139-0.058-6.031c-0.058-0.95-0.293-1.396-1.263-1.594
	c-0.236-0.051-0.727-0.083-0.995-0.083c-0.122,0-0.236-0.051-0.236-0.165c0-0.165,0.147-0.223,0.472-0.223
	c1.32,0,3.073,0.083,3.309,0.083c0.644,0,2.346-0.083,3.698-0.083c3.666,0,4.986,1.173,5.451,1.587
	c0.65,0.593,1.467,1.843,1.467,3.328c0,3.965-3.048,6.643-7.211,6.643c-0.147,0-0.472,0-0.619-0.031
	c-0.14,0-0.319-0.051-0.319-0.192c0-0.223,0.178-0.249,0.791-0.249c2.844,0,5.069-1.989,5.069-4.553
	c0-0.925-0.083-2.792-1.639-4.297c-1.549-1.511-3.347-1.403-4.016-1.403c-0.504,0-0.995,0.058-1.263,0.172
	c-0.172,0.058-0.235,0.248-0.235,0.529v11.476c0,2.684,0,4.883,0.147,6.057c0.089,0.809,0.268,1.422,1.147,1.536
	c0.408,0.058,1.058,0.115,1.32,0.115c0.178,0,0.229,0.083,0.229,0.165c0,0.14-0.147,0.229-0.466,0.229
	c-1.613,0-3.462-0.089-3.608-0.089c-0.083,0-1.932,0.089-2.811,0.089c-0.326,0-0.472-0.064-0.472-0.229
	c0-0.083,0.064-0.165,0.236-0.165c0.262,0,0.619-0.058,0.88-0.115c0.58-0.115,0.733-0.727,0.848-1.536
	c0.147-1.173,0.147-3.373,0.147-6.057L656.424,468.136L656.424,468.136z"/>
<path class="st0" d="M677.683,460.739c0.357-0.925,0.472-1.09,0.644-1.09c0.179,0,0.293,0.14,0.65,1.007
	c0.44,1.059,5.036,12.592,6.835,16.838c1.052,2.48,1.9,2.933,2.518,3.098c0.44,0.14,0.88,0.172,1.173,0.172
	c0.172,0,0.293,0.019,0.293,0.165c0,0.159-0.268,0.223-0.586,0.223c-0.44,0-2.582,0-4.603-0.064c-0.561-0.019-0.88-0.019-0.88-0.192
	c0-0.115,0.083-0.165,0.204-0.192c0.178-0.064,0.351-0.312,0.178-0.752l-2.729-6.873c-0.058-0.115-0.115-0.165-0.268-0.165h-6.299
	c-0.147,0-0.236,0.076-0.299,0.217l-1.754,4.947c-0.268,0.695-0.415,1.364-0.415,1.874c0,0.555,0.619,0.809,1.116,0.809h0.293
	c0.204,0,0.293,0.051,0.293,0.165c0,0.159-0.172,0.223-0.44,0.223c-0.708,0-1.964-0.083-2.283-0.083
	c-0.326,0-1.938,0.083-3.315,0.083c-0.382,0-0.555-0.064-0.555-0.223c0-0.115,0.109-0.165,0.255-0.165
	c0.211,0,0.619-0.031,0.848-0.058c1.358-0.172,1.944-1.23,2.474-2.627L677.683,460.739z M680.738,471.909
	c0.146,0,0.146-0.089,0.115-0.198l-2.786-7.536c-0.147-0.421-0.293-0.421-0.44,0l-2.576,7.536c-0.064,0.14,0,0.198,0.083,0.198
	H680.738z"/>
<path class="st0" d="M696.131,477.353c0.057,2.295,0.351,3.016,1.147,3.239c0.555,0.14,1.199,0.172,1.46,0.172
	c0.146,0,0.236,0.051,0.236,0.165c0,0.165-0.172,0.223-0.529,0.223c-1.67,0-2.844-0.083-3.105-0.083
	c-0.268,0-1.498,0.083-2.811,0.083c-0.3,0-0.479-0.025-0.479-0.223c0-0.115,0.095-0.165,0.235-0.165
	c0.242,0,0.766-0.032,1.205-0.172c0.733-0.198,0.88-1.007,0.88-3.545l0.031-16.003c0-1.09,0.083-1.397,0.319-1.397
	c0.236,0,0.739,0.612,1.026,0.892c0.44,0.472,4.813,4.973,9.327,9.583c2.901,2.958,6.095,6.363,7.039,7.287l-0.326-14.185
	c-0.025-1.817-0.236-2.429-1.148-2.658c-0.522-0.108-1.199-0.14-1.434-0.14c-0.204,0-0.236-0.076-0.236-0.192
	c0-0.172,0.236-0.198,0.586-0.198c1.32,0,2.729,0.083,3.054,0.083c0.318,0,1.288-0.083,2.493-0.083c0.318,0,0.522,0.025,0.522,0.198
	c0,0.115-0.115,0.192-0.318,0.192c-0.153,0-0.357,0-0.708,0.089c-0.962,0.198-1.084,0.809-1.084,2.48l-0.058,16.366
	c0,1.843-0.058,1.983-0.262,1.983c-0.242,0-0.586-0.306-2.142-1.785c-0.326-0.281-4.546-4.386-7.657-7.568
	c-3.398-3.488-6.714-7.013-7.651-8.014L696.131,477.353z"/>
<path class="st0" d="M727.71,473.921c0-1.511-0.293-2.13-0.669-2.933c-0.21-0.446-4.138-6.592-5.164-8.046
	c-0.733-1.032-1.467-1.728-1.996-2.066c-0.44-0.281-0.995-0.452-1.263-0.452c-0.14,0-0.287-0.051-0.287-0.192
	c0-0.115,0.115-0.192,0.376-0.192c0.561,0,2.761,0.076,2.908,0.076c0.204,0,1.32-0.076,2.461-0.076c0.326,0,0.376,0.076,0.376,0.192
	s-0.172,0.14-0.44,0.249c-0.236,0.115-0.376,0.281-0.376,0.51c0,0.332,0.14,0.663,0.376,1.084c0.472,0.809,4.871,8.014,5.4,8.823
	c0.555-1.166,4.284-7.287,4.865-8.212c0.382-0.58,0.497-1.059,0.497-1.416c0-0.396-0.115-0.708-0.466-0.791
	c-0.262-0.076-0.44-0.134-0.44-0.274c0-0.115,0.178-0.165,0.465-0.165c0.772,0,1.703,0.076,1.938,0.076
	c0.172,0,2.289-0.076,2.844-0.076c0.211,0,0.382,0.051,0.382,0.165c0,0.14-0.153,0.217-0.382,0.217
	c-0.318,0-0.879,0.115-1.345,0.396c-0.593,0.338-0.912,0.669-1.556,1.422c-0.969,1.122-5.075,7.682-5.604,8.881
	c-0.44,1.007-0.44,1.874-0.44,2.799v2.397c0,0.452,0,1.62,0.089,2.792c0.064,0.809,0.326,1.422,1.199,1.536
	c0.415,0.058,1.059,0.115,1.326,0.115c0.172,0,0.235,0.083,0.235,0.165c0,0.14-0.153,0.223-0.472,0.223
	c-1.613,0-3.462-0.083-3.609-0.083c-0.147,0-1.996,0.083-2.875,0.083c-0.318,0-0.459-0.058-0.459-0.223
	c0-0.083,0.051-0.165,0.223-0.165c0.268,0,0.625-0.058,0.88-0.115c0.593-0.115,0.854-0.727,0.912-1.536
	c0.089-1.173,0.089-2.34,0.089-2.792L727.71,473.921L727.71,473.921z"/>
<path class="st0" d="M569.262,318.455c-25.324,0-46.658,16.379-53.256,38.745c2.117-4.769,4.693-8.116,7.715-10.794
	c1.81,1.428,5.764,3.838,6.344,4.782l-3.864-6.777c0.906-0.669,1.843-1.294,2.825-1.913c2.429,1.422,6.044,3.277,6.548,4.087
	l-3.405-5.955c1.077-0.613,2.2-1.23,3.341-1.855c2.18,1.632,4.693,3.462,5.113,4.138l-3.009-5.267
	c1.173-0.497,2.347-0.931,3.5-1.319c2.072,1.55,4.316,3.195,4.705,3.845l-2.576-4.52c1.059-0.293,2.123-0.568,3.156-0.791
	c2.097,1.575,4.393,3.265,4.788,3.909l-2.027-4.419c0.772-0.121,1.543-0.223,2.308-0.299c2.213,1.67,4.846,3.589,5.279,4.284
	l-2.57-4.501c1.039-0.051,2.066-0.07,3.067-0.051c2.117,1.453,4.954,3.284,5.591,3.915c0.778,0.772-1.205-1.785-2.805-3.812
	c0.58,0.045,1.154,0.095,1.728,0.153c1.97,1.052,4.935,2.467,5.783,2.978c0.925,0.58-1.065-1.148-2.729-2.563
	c0.638,0.102,1.269,0.21,1.881,0.338c1.684,0.982,3.602,2.04,4.284,2.461l-1.339-1.779c7.236,1.907,11.718,4.712,11.718,4.712
	c4.01,0.427,8.033,2.161,8.033,2.161s4.323-0.326,8.371-1.014c2.461-0.344,2.238-0.421,2.13-0.095
	c-0.561,1.715-0.695,3.232-3.449,3.232c0,0,3.812,0.772,6.382-0.625c2.066-1.135,0.396,3.832-1.065,4.992
	c-0.962,0.772-1.651,1.664-3.398,1.587c-1.747-0.102,1.562,17.233,1.486,18.259c-0.064,1.001-2.825,3.507-3.482,5.878
	c-0.669,2.359-5.317,19.669-5.317,19.669s0.899,1.383,0.937,2.569c0.039,1.179-1.913,1.932-2.499,3.284
	c-0.574,1.345-2.047,3.991-5.471,2.799c-3.424-1.193-3.532,1.307-5.05,0.835c-1.536-0.504-0.956-0.37-2.799-2.085
	c-1.83-1.74-3.787-3.628-3.647-4.935c0.122-1.307,1.46-2.652,2.334-3.915c0.848-1.313-4.412-6.152-4.947-15.493
	c-0.128-1.907-2.32-1.441-2.32-1.441s-3.762,21.231,10.405,48.659c26.452-4.029,46.67-26.083,46.67-52.695
	C624.66,342.345,599.865,318.455,569.262,318.455"/>
<path class="st0" d="M583.458,433.134c-29.66,6.375-54.257-8.46-63.769-25.611c-11.935-21.512-6.898-38.056-6.898-38.056
	s-3.481,35.57,31.769,45.847c18.483,4.756,26.07,2.397,29.806,1.46C577.134,422.971,578.046,425.388,583.458,433.134"/>
</svg>
