<?xml version="1.0" encoding="utf-8"?>
<!-- Generator: Adobe Illustrator 19.0.0, SVG Export Plug-In . SVG Version: 6.00 Build 0)  -->
<svg version="1.1" id="Layer_1" xmlns="http://www.w3.org/2000/svg" xmlns:xlink="http://www.w3.org/1999/xlink" x="0px" y="0px"
	 viewBox="0 0 800 800" style="enable-background:new 0 0 800 800;" xml:space="preserve">
<style type="text/css">
	.st0{fill:#FFFFFF;}
</style>
<path class="st0" d="M221.898,427.819V415.81l3.163-0.293c9.491-0.878,10.721-1.318,10.721-3.808c0-2.197-4.921-7.762-4.921-7.762
	l-18.102-24.897l-14.412,10.397v13.767c0,9.666,1.231,10.984,11.951,12.302l2.285,0.293v12.009h-60.457V415.81l3.515-0.293
	c9.842-0.878,11.951-2.929,11.951-12.302v-50.527c0-9.373-2.109-11.423-11.951-12.302l-3.515-0.293v-12.009h60.457v12.009
	l-2.285,0.293c-10.72,1.318-11.951,2.636-11.951,12.302v19.772l29.525-23.432c5.097-3.954,5.8-4.687,5.8-6.005
	c0-2.782-7.03-2.929-8.788-2.929h-2.988v-12.009h59.402v12.009c-14.938,1.758-23.902,5.272-39.367,17.282l-7.205,5.565
	l25.659,33.538c12.127,15.817,14.938,17.722,28.119,19.332v12.009L221.898,427.819L221.898,427.819z"/>
<path class="st0" d="M351.945,429.723c-34.095,0-62.742-19.332-62.742-50.82c0-30.462,27.417-52.723,65.027-52.723
	c36.203,0,63.972,19.917,63.972,50.967C418.202,407.022,389.554,429.723,351.945,429.723z M354.405,341.118
	c-18.628,0-31.458,15.085-31.458,37.2c0,14.353,6.152,36.467,30.405,36.467c18.628,0,31.107-15.085,31.107-37.346
	C384.458,354.592,373.211,341.118,354.405,341.118z"/>
<path class="st0" d="M522.763,427.819h-95.606V415.81l3.515-0.293c9.842-0.878,11.951-2.929,11.951-12.302v-50.527
	c0-9.373-2.109-11.423-11.951-12.302l-3.515-0.293v-12.009h61.687v12.009l-3.515,0.293c-9.842,0.878-11.951,2.929-11.951,12.302
	v48.623c0,11.569,0,13.328,10.721,13.328c17.398,0,32.864-9.373,44.815-27.094l12.127,5.418L522.763,427.819z"/>
<path class="st0" d="M637.172,362.647c-5.8-8.055-15.993-21.237-30.757-21.237c-3.162,0-3.515,0.293-3.515,5.126v56.678
	c0,6.59,0.176,11.862,11.951,12.303l5.273,0.293v12.009h-65.202v-12.009l5.273-0.293c11.951-0.439,11.951-6.004,11.951-12.303
	v-56.238c0-5.126-0.352-5.566-2.988-5.566c-11.775,0-24.078,8.788-30.228,21.237l-13.181-4.247l13.181-30.317h96.837L650,358.4
	L637.172,362.647z"/>
<path class="st0" d="M164.237,469.962c-8.288,0-14.237-5.334-14.237-12.76c0-5.335,3.371-12.725,13.562-12.725
	c2.34,0,4.719,0.468,6.622,1.298l0.318-0.829h2.736l3.331,8.507l-3.053,1.046c-1.784-2.812-2.34-3.569-3.292-4.506
	c-1.824-1.694-3.688-2.559-5.631-2.559c-4.283,0-6.98,3.748-6.98,9.732c0,7.426,4.561,9.481,7.614,9.481
	c5.235,0,8.129-4.687,8.764-5.695l3.331,1.37C175.42,466.935,170.225,469.962,164.237,469.962z"/>
<path class="st0" d="M193.303,469.962c-7.693,0-14.158-4.758-14.158-12.508c0-7.498,6.187-12.977,14.673-12.977
	c8.169,0,14.435,4.902,14.435,12.544C208.253,464.375,201.79,469.962,193.303,469.962z M193.858,448.155
	c-4.203,0-7.098,3.712-7.098,9.155c0,3.533,1.388,8.976,6.861,8.976c4.203,0,7.019-3.713,7.019-9.192
	C200.639,451.471,198.102,448.155,193.858,448.155z"/>
<path class="st0" d="M232.204,469.494v-2.956l0.793-0.072c2.221-0.217,2.697-0.722,2.697-3.028v-12.508l-6.94,18.564h-4.283
	l-6.821-18.816v12.76c0,2.307,0.476,2.812,2.697,3.028l0.793,0.072v2.956h-10.866v-2.956l0.793-0.072
	c2.221-0.217,2.697-0.722,2.697-3.028v-12.436c0-2.307-0.476-2.812-2.697-3.028l-0.793-0.072v-2.956h12.333l5.473,15.356
	l5.631-15.356h12.413v2.956l-0.793,0.072c-2.221,0.216-2.697,0.721-2.697,3.028v12.436c0,2.307,0.476,2.812,2.697,3.028l0.793,0.072
	v2.956L232.204,469.494L232.204,469.494z"/>
<path class="st0" d="M269.478,469.494v-2.956l0.793-0.072c2.221-0.217,2.697-0.722,2.697-3.028v-12.508l-6.94,18.564h-4.283
	l-6.821-18.816v12.76c0,2.307,0.476,2.812,2.697,3.028l0.793,0.072v2.956h-10.866v-2.956l0.793-0.072
	c2.221-0.217,2.697-0.722,2.697-3.028v-12.436c0-2.307-0.476-2.812-2.697-3.028l-0.793-0.072v-2.956h12.333l5.473,15.356
	l5.631-15.356h12.412v2.956l-0.793,0.072c-2.221,0.216-2.697,0.721-2.697,3.028v12.436c0,2.307,0.477,2.812,2.697,3.028l0.793,0.072
	v2.956L269.478,469.494L269.478,469.494z"/>
<path class="st0" d="M311.947,447.974c-2.221,0.216-2.697,0.721-2.697,3.027v9.445c0,4.758-1.071,9.516-10.509,9.516
	c-10.628,0-10.628-6.308-10.628-8.759v-10.202c0-2.307-0.476-2.812-2.697-3.027l-0.793-0.072v-2.956h13.919v2.956l-0.793,0.072
	c-2.221,0.216-2.697,0.721-2.697,3.027v9.516c0,3.209,0.952,5.66,4.997,5.66c5.195,0,5.313-3.533,5.313-5.551v-9.625
	c0-2.307-0.476-2.812-2.697-3.027l-0.793-0.072v-2.956h10.866v2.956L311.947,447.974z"/>
<path class="st0" d="M341.291,447.974c-2.22,0.216-2.697,0.721-2.697,3.027v18.492h-4.917l-12.333-18.96v12.904
	c0,2.307,0.476,2.812,2.697,3.028l0.793,0.072v2.956h-10.667v-2.956l0.793-0.072c2.221-0.217,2.697-0.722,2.697-3.028v-12.436
	c0-2.307-0.476-2.812-2.697-3.027l-0.793-0.072v-2.956h11.699l9.042,14.167v-8.112c0-2.307-0.477-2.812-2.697-3.027l-0.793-0.072
	v-2.956h10.667v2.956L341.291,447.974z"/>
<path class="st0" d="M343.509,469.494v-2.956l0.952-0.072c2.617-0.217,2.697-1.262,2.697-3.028v-12.436
	c0-1.946-0.158-2.848-2.697-3.027l-0.952-0.072v-2.956h14.237v2.956l-0.953,0.072c-2.617,0.216-2.697,1.262-2.697,3.027v12.436
	c0,1.947,0.158,2.848,2.697,3.028l0.953,0.072v2.956H343.509z"/>
<path class="st0" d="M374.202,469.962c-8.288,0-14.237-5.334-14.237-12.76c0-5.335,3.371-12.725,13.562-12.725
	c2.34,0,4.719,0.468,6.622,1.298l0.318-0.829h2.736l3.331,8.507l-3.054,1.046c-1.784-2.812-2.34-3.569-3.292-4.506
	c-1.824-1.694-3.688-2.559-5.631-2.559c-4.283,0-6.98,3.748-6.98,9.732c0,7.426,4.561,9.481,7.614,9.481
	c5.236,0,8.13-4.687,8.765-5.695l3.331,1.37C385.385,466.935,380.19,469.962,374.202,469.962z"/>
<path class="st0" d="M403.903,469.494v-2.956l0.991-0.072c1.705-0.109,2.3-0.433,2.3-1.154c-0.04-0.396-0.158-0.828-0.397-1.478
	l-1.189-3.064h-8.526l-1.269,3.1c-0.198,0.468-0.357,0.793-0.357,1.082c0,1.045,1.071,1.297,2.934,1.514l0.635,0.072v2.956h-12.253
	v-2.956l0.633-0.072c2.221-0.253,3.093-1.046,4.64-4.398l7.852-17.122h6.147l7.773,17.591c1.507,2.883,1.824,3.569,3.927,3.93
	l0.633,0.072v2.956L403.903,469.494L403.903,469.494z M401.364,450.678l-3.014,7.029h5.948L401.364,450.678z"/>
<path class="st0" d="M440.662,453.453c-1.309-1.983-3.609-5.227-6.941-5.227c-0.714,0-0.793,0.072-0.793,1.262v13.95
	c0,1.622,0.04,2.92,2.698,3.028l1.189,0.072v2.956h-14.712v-2.956l1.189-0.072c2.697-0.109,2.697-1.478,2.697-3.028v-13.842
	c0-1.262-0.079-1.37-0.674-1.37c-2.657,0-5.433,2.163-6.821,5.227l-2.973-1.046l2.973-7.462h21.851l3.213,7.462L440.662,453.453z"/>
<path class="st0" d="M444.23,469.494v-2.956l0.952-0.072c2.617-0.217,2.697-1.262,2.697-3.028v-12.436
	c0-1.946-0.158-2.848-2.697-3.027l-0.952-0.072v-2.956h14.237v2.956l-0.952,0.072c-2.617,0.216-2.698,1.262-2.698,3.027v12.436
	c0,1.947,0.159,2.848,2.698,3.028l0.952,0.072v2.956H444.23z"/>
<path class="st0" d="M474.842,469.962c-7.693,0-14.157-4.758-14.157-12.508c0-7.498,6.186-12.977,14.672-12.977
	c8.169,0,14.435,4.902,14.435,12.544C489.793,464.375,483.328,469.962,474.842,469.962z M475.397,448.155
	c-4.203,0-7.098,3.712-7.098,9.155c0,3.533,1.387,8.976,6.86,8.976c4.203,0,7.019-3.713,7.019-9.192
	C482.178,451.471,479.641,448.155,475.397,448.155z"/>
<path class="st0" d="M518.938,447.974c-2.221,0.216-2.697,0.721-2.697,3.027v18.492h-4.917l-12.333-18.96v12.904
	c0,2.307,0.477,2.812,2.697,3.028l0.793,0.072v2.956h-10.668v-2.956l0.793-0.072c2.221-0.217,2.697-0.722,2.697-3.028v-12.436
	c0-2.307-0.475-2.812-2.697-3.027l-0.793-0.072v-2.956h11.699l9.041,14.167v-8.112c0-2.307-0.475-2.812-2.697-3.027l-0.793-0.072
	v-2.956h10.668v2.956L518.938,447.974z"/>
<path class="st0" d="M534.482,469.962c-2.697,0-5.433-0.721-7.099-1.838l-0.554,1.766h-2.34l-3.292-9.192l2.973-0.901
	c2.578,4.289,5.909,6.669,10.391,6.669c2.934,0,4.997-1.334,4.997-3.208c0-1.334-0.833-1.875-3.807-2.56l-3.925-0.901
	c-3.807-0.865-9.875-1.587-9.875-7.462c0-4.578,4.282-7.858,10.231-7.858c2.3,0,4.759,0.649,6.344,1.622l0.477-1.153h2.38
	l2.617,7.318l-2.855,0.973c-2.856-3.568-4.838-5.263-8.686-5.263c-2.538,0-4.362,1.045-4.362,2.523c0,1.983,4.203,2.739,5.433,2.92
	l3.608,0.685c2.498,0.432,8.566,1.442,8.566,7.209C545.704,466.286,540.945,469.962,534.482,469.962z"/>
<path class="st0" d="M552.246,473.82l-1.903-1.838c1.11-0.902,1.664-1.551,2.141-2.38c-1.903-0.36-2.855-1.333-2.855-2.92
	c0-1.802,1.506-3.208,3.45-3.208c2.181,0,3.648,1.55,3.648,3.821C556.727,469.711,555.338,471.765,552.246,473.82z"/>
<path class="st0" d="M574.292,469.494v-2.956l0.952-0.072c2.617-0.217,2.697-1.262,2.697-3.028v-12.436
	c0-1.946-0.158-2.848-2.697-3.027l-0.952-0.072v-2.956h14.237v2.956l-0.952,0.072c-2.617,0.216-2.698,1.262-2.698,3.027v12.436
	c0,1.947,0.159,2.848,2.698,3.028l0.952,0.072v2.956H574.292z"/>
<path class="st0" d="M617.277,447.974c-2.221,0.216-2.697,0.721-2.697,3.027v18.492h-4.918l-12.333-18.96v12.904
	c0,2.307,0.477,2.812,2.698,3.028l0.793,0.072v2.956h-10.668v-2.956l0.793-0.072c2.22-0.217,2.697-0.722,2.697-3.028v-12.436
	c0-2.307-0.477-2.812-2.697-3.027l-0.793-0.072v-2.956h11.699l9.041,14.167v-8.112c0-2.307-0.475-2.812-2.697-3.027l-0.793-0.072
	v-2.956h10.668v2.956L617.277,447.974z"/>
<path class="st0" d="M633.932,469.962c-8.288,0-14.236-5.334-14.236-12.76c0-5.335,3.371-12.725,13.562-12.725
	c2.339,0,4.718,0.468,6.622,1.298l0.318-0.829h2.736l3.331,8.507l-3.054,1.046c-1.784-2.812-2.339-3.569-3.291-4.506
	c-1.825-1.694-3.688-2.559-5.632-2.559c-4.282,0-6.979,3.748-6.979,9.732c0,7.426,4.56,9.481,7.614,9.481
	c5.234,0,8.129-4.687,8.763-5.695l3.331,1.37C645.115,466.935,639.921,469.962,633.932,469.962z"/>
</svg>
