<?xml version="1.0" encoding="utf-8"?>
<!-- Generator: Adobe Illustrator 19.0.0, SVG Export Plug-In . SVG Version: 6.00 Build 0)  -->
<svg version="1.1" id="Layer_1" xmlns="http://www.w3.org/2000/svg" xmlns:xlink="http://www.w3.org/1999/xlink" x="0px" y="0px"
	 width="3195px" height="1578.7px" viewBox="158 111.3 3195 1578.7" style="enable-background:new 158 111.3 3195 1578.7;"
	 xml:space="preserve">
<style type="text/css">
	.st0{opacity:0.1;fill:#FFFFFF;}
	.st1{fill:#FFFFFF;}
</style>
<path id="XMLID_316_" class="st0" d="M-424.8,1647.7l2061.9,187.7L-424.8,1545V1647.7L-424.8,1647.7z M-424.8,1388.1l2064,433.6
	l-2064-539.4V1388.1z M-424.8,1119.2l2067.2,689l-2067.2-800.3V1119.2z M-424.8,835.1l2071.5,960.2L-424.8,715.4V835.1L-424.8,835.1
	z M-424.8,528.2L1652,1782.9L-424.8,396.6V528.2L-424.8,528.2z M-424.8,111.5V189l2083.2,1582.2L-339.4,111.5L-424.8,111.5
	L-424.8,111.5z M-96.5,111.5l1762.2,1648.7L46.1,111.5L-96.5,111.5L-96.5,111.5z M237.9,111.5l1435.9,1638.7L352,111.5L237.9,111.5
	L237.9,111.5z M510,111.5l1172.7,1629.7L604.9,111.5L510,111.5L510,111.5z M739.8,111.5l952.5,1621.8l-871-1621.8L739.8,111.5
	L739.8,111.5z M940,111.5l762.6,1615l-690.4-1615L940,111.5L940,111.5z M1119.2,111.5L1713.3,1721L1184.7,111.5L1119.2,111.5
	L1119.2,111.5z M1283.6,111.5l440.9,1605.2l-380-1605.2L1283.6,111.5L1283.6,111.5z M1437.7,111.5l298.1,1602.3L1495.5,111.5
	L1437.7,111.5L1437.7,111.5z M1585.4,111.5l162,1600.7l-106-1600.7L1585.4,111.5L1585.4,111.5z M1729.6,111.5l29.5,1600.5l26-1600.5
	L1729.6,111.5L1729.6,111.5z M1873.3,111.5l-102.5,1601.7l158.6-1601.6h-56.1V111.5z M2019.2,111.5l-236.9,1604.1L2077,111.5
	L2019.2,111.5L2019.2,111.5z M2170.3,111.5l-376.8,1607.9l437.7-1607.9L2170.3,111.5L2170.3,111.5z M2330.1,111.5l-525.7,1613.1
	l591.2-1613.1L2330.1,111.5L2330.1,111.5z M2502.6,111.5L1814.8,1731l760-1619.5L2502.6,111.5L2502.6,111.5z M2693.4,111.5
	l-868.7,1627l950.3-1627L2693.4,111.5L2693.4,111.5z M2909.7,111.5L1833.8,1747.2L3004.5,111.5L2909.7,111.5L2909.7,111.5z
	 M3162.4,111.5L1842.2,1756.9L3276.3,111.5L3162.4,111.5L3162.4,111.5z M3467.7,111.5l-1618,1656l1760.4-1656L3467.7,111.5
	L3467.7,111.5z M3852.4,111.5L1856.4,1779L3933.2,192.5v-81L3852.4,111.5L3852.4,111.5z M3933.2,531.8V400.2l-2071.1,1391
	L3933.2,531.8z M3933.2,838.6V719L1866.7,1804L3933.2,838.6L3933.2,838.6z M3933.2,1122.7v-111.3l-2062.9,805.9L3933.2,1122.7
	L3933.2,1122.7z M3933.2,1391.4v-105.8l-2060.5,545.3L3933.2,1391.4z M3933.2,1650.8v-102.6l-2059.1,296.6L3933.2,1650.8z"/>
<path id="XMLID_41_" class="st1" d="M2427.6,1690.1l-1382,0.1h-892v-32.3h4.6v-12.4h0.6v-3.8h3.9v-1.3h10.9v1.3h5.4v3.8h3.4v12.4
	h1.2v-6.5h3.1v-1.3h8.1v1.3h6.1v-1.5h7.3v1.5h8.8v6.5h6.4v-3.1h1.9v-1.8h3.2v-9.4h13.3v-1.9h4.6v1.9h0.7v-6.4h31.5v-1.2h0.8v-4.8
	h8.7v-1.6h6.9v1.6h1.8v4.8h1.1v1.2h1.5v-1.9h12.2v1.9h4.7v11.1h3.7v-7.9h1v-5h3.7v-1.7h6.3v-5.6h-0.4v-5.7h23.1v-1.9h16.5v1.9h5.2
	v5.7h1.7v18.4h10.4v1.7h11.3v-2h13.4v2h8.9v9.6h9.3v1.8h2.5v-7h3.5v-2.3h5.9v-12.4h24.5v-2.6h8.5v2.6h1.3v-8.5H494v-1.6h1.8v-6.4
	h15.6v-2.2h12.7v2.2h3.4v6.4h2v1.6h2.7v-2.6h22.7v2.6h8.6v14.7h25.4v-9.7h12.8v-3.9h21.4v13.6h2.8v-1.3h7.5v-4.8h10.9v6.1H657v-26.6
	h2.9v-7.6h38.9v1.9h30.5v-1.9h9.6v7.6h3.2v8.3h16.1v-27.6h-2.6v-7.8h11.1v-2.7h20v2.7h30.4v7.8h-2.9v27.6h8.8v-6.2h12.8v-3.9h21.4
	v10.1H875v-2.6h8v-12.6h5.7v-2.7h14.9v2.7h11.3v-3.1h73.4v3.1h38.5v15.2h9.3v2.9h5.4v5.4h2.3v-13.8h30.6v-26h1.7v-1.5h26.7v-90.5
	h31.4v-7.6h8.9v-3.3h10.9v-0.8h2v-3.2h0.6v3.2h4.5v0.8h5.7v-3h1.7v-0.8h7.1v0.8h13.1v3h11.5v3.3h8.9v7.6h31.4v42.3h4.2v1.6h1.6v-1.6
	h12.7v1.6h1.6v-1.6h4.8v-14.7h3.4v-1.5h1.5v1.5h31.6v-1.5h1.5v1.5h21v14.7h6v1.6h1.6v-1.6h12.7v41.4h27.5v-34.6h12.2v1.8h1.5v-1.8
	h12.2v1.8h1.5v-1.8h12.2v1.8h1.5v-1.8h12.2v1.8h1.5v-1.8h7.1v59.8h14.1l2.2-119.2h-0.6c-0.7,0-1.2-0.5-1.2-1.1v-0.2h-1v-15.9h1v-0.2
	c0-0.6,0.5-1.1,1.2-1.1h22.5c0.7,0,1.2,0.5,1.2,1.1v0.2h1v15.9h-1v0.2c0,0.6-0.5,1.1-1.2,1.1h-0.6l2.4,130h8.3v-0.7h-1v-3.3h1v-2.7
	h-1v-3.3h1v-2.7h-1v-3.3h1v-2.7h-1v-3.4h1v-2.7h-1v-3.4h1v-2.7h-1v-3.4h1v-2.7h-1v-3.3h1v-2.7h-1v-3.3h1v-2.7h-1v-3.3h1v-2.7h-1
	v-3.3h1v-1.4h25.5v-5.7h5.9v2.3h1v-2.9h5.9v6.3h11.2v-86.8h3.1v-8.3c0-0.4,0.3-0.7,0.7-0.7h0.5v-6.5h1.2v-9.2h1v-11.2h0.9v-2.4h2
	v2.4h2.1v-12.7h1v-12h0.7v-2.3h2v2.3h1.8v-2.1h5.7v-3.5h1v-1.7l3.3-6.5h3.8v-4.5h-0.5v-1.4h0.5v-0.6h1.2v0.6h3.3v-0.6h1.2v0.6h3.8
	v-28.3h-4.7v-1.4h0.6v-2.2h-0.6v-0.7h0.6v-1.5h1.2v1.5h2.9v-6.7h-0.8c-0.4,0-0.8-0.3-0.8-0.8v-1.2c0-0.4,0.3-0.8,0.8-0.8h0.8v-2.8
	h-0.8c-0.4,0-0.8-0.3-0.8-0.8v-1.2c0-0.4,0.3-0.8,0.8-0.8h0.8v-2.8h-0.8c-0.4,0-0.8-0.3-0.8-0.8v-1.2c0-0.4,0.3-0.8,0.8-0.8h0.8
	v-2.8h-0.8c-0.4,0-0.8-0.3-0.8-0.8v-1.2c0-0.4,0.3-0.8,0.8-0.8h0.8v-4.4h1.4v30.5h1.4v-2.4h0.7v2.4h0.8v-1.5h1.2v1.5h0.6v0.7h-0.6
	v2.2h0.6v1.4h-2.6v28.3h1.7v-0.6h1.2v0.6h3.3v-0.6h1.2v0.6h0.5v1.4h-0.5v4.5h3.8l3.3,6.5v1.7h1v3.5h5.7v2.1h1.8v-2.3h2v2.3h0.7v12h1
	v12.7h2.1v-2.4h2v2.4h0.9v11.2h1v9.2h1.2v6.5h0.5c0.4,0,0.7,0.3,0.7,0.7v8.3h3.1v184.5h6.4v8.7h9v-54.6h-0.6v-0.5h-0.7l1.3-0.6v-0.1
	h0.1l0.7-0.3v-2.5h-0.7v-0.7h2.4v-0.3l0.8-0.6h0.1v-1c-0.1,0.1-0.2,0.2-0.3,0.2c-0.3,0-0.7-0.7-0.7-1.1c0-0.3,0.3-0.6,0.6-0.6
	c0.1-0.1,0.2-0.1,0.4-0.1v-0.4l0.2-1h0.2l0.2,1v0.4l0.4,0.1c0.3,0,0.6,0.3,0.6,0.6s-0.3,1.1-0.7,1.1c-0.1,0-0.2-0.1-0.3-0.2v0.9h0.1
	l0.8,0.6v0.3h2.2l12.3-6.1v-10.3h-3v-3.3h8.4v-19.9h0.4v19.9h25.4v-10.9h-1.9v-3.3h13.1v-10.7h-1.9v-3.3h1.9v-1.5h39.8v1.5h3.4v3.3
	h-1.9v48.1h7.3v-4.4l-3.2-4.2v-0.6h-0.4v-0.4h2.2l1.1-1.4h0.4v-6.7h-0.3v-1h-0.2v-0.3h0.5v-0.8l-3-4.8v-0.2h-0.3v-0.3h3.3v-3.7h-0.4
	v-0.5h0.8l0.8-0.8h0.3v-0.4l0.8-0.5h0.1v-1c-0.1,0.1-0.2,0.2-0.3,0.2c-0.3,0-0.7-0.7-0.7-1s0.3-0.6,0.6-0.6c0.1-0.1,0.2-0.1,0.4-0.1
	v-0.4l0.2-1h0.2l0.2,1v0.4c0.2,0,0.3,0.1,0.4,0.1c0.3,0,0.6,0.3,0.6,0.6s-0.3,1-0.7,1c-0.1,0-0.2,0-0.3-0.1v0.9h0.1l0.8,0.5v0.4
	h24.9v-0.4l0.8-0.5h0.1v-1c-0.1,0.1-0.2,0.2-0.3,0.2c-0.3,0-0.7-0.7-0.7-1s0.3-0.6,0.6-0.6c0.1-0.1,0.2-0.1,0.4-0.1v-0.4l0.2-1h0.2
	l0.2,1v0.4c0.2,0,0.3,0.1,0.4,0.1c0.3,0,0.6,0.3,0.6,0.6s-0.3,1-0.7,1c-0.1,0-0.2,0-0.3-0.1v0.9h0.1l0.2,0.1h0.8l1.1-0.8h0.3V1560
	l-0.6-0.5v-1h-0.5v-0.9l-0.9-0.7v-0.4h-0.4v-0.5h2.9v-1.7l-0.4-0.3v-0.1h-0.2v-0.3h0.7v-0.2h0.4v-0.5c-0.2-0.1-0.3-0.2-0.4-0.4h-0.2
	c-0.1,0-0.1-0.1-0.1-0.2v-0.2c0-0.1,0.1-0.1,0.1-0.1h0.1c0-0.2,0.2-0.4,0.3-0.5v-0.1c0-0.1,0.1-0.2,0.2-0.2h0.1v-0.8h0.2v0.8h0.1
	c0.1,0,0.2,0.1,0.2,0.2v0.1c0.2,0.1,0.3,0.3,0.3,0.5h0.1c0.1,0,0.1,0.1,0.1,0.1v0.2c0,0.1-0.1,0.2-0.1,0.2h-0.2
	c-0.1,0.2-0.2,0.3-0.4,0.4v0.5h0.4v0.2h1.7c0.4-0.3,0.8-0.6,1.2-0.8v-0.8l3-1.5v-4c-1.1-0.4-1.8-1.1-1.8-1.8c0-0.6,0.6-1.2,1.5-1.6
	c0-0.9,0.4-1.6,1.1-2.1l-0.1-2.7c0-7.8,1.8-14.9,4.7-20.1c2.3-4,6.3-8.3,10.1-12.7v-0.6c0-0.3,0.3-0.6,0.7-0.6v-1.2h-0.4v-0.2h-0.3
	v-0.6h0.3v-0.2h0.4v-8.9h-0.2c-0.1,0-0.1-0.1-0.1-0.1v-0.4c0-0.1,0.1-0.1,0.1-0.1h0.2v-1.9h-0.6l-1.5-2.3v-0.8h-0.3v-0.8h0.5
	l1.5-1.4h0.1v-0.6c-0.1-0.1-0.2-0.3-0.2-0.4c0-0.2,0.1-0.4,0.3-0.5v-0.2l0.2-0.6c0,0,0-0.1,0.1-0.1h0.1c0,0,0.1,0,0.1,0.1l0.2,0.6
	v0.2c0.2,0.1,0.3,0.3,0.3,0.5s-0.1,0.3-0.2,0.4v0.6h0.6v-2.4c-1-0.3-1.6-0.8-1.6-1.3c0-0.6,0.8-1.1,2.1-1.5v-1.7
	c0.1-2.2,1.6-2.6,2.6-6.2c-0.5,0-0.9-0.4-1-0.8c-0.2-0.1-0.4-0.3-0.4-0.6v-0.2c-0.3-0.2-0.4-0.3-0.4-0.5c0-0.3,0.3-0.6,0.8-0.7
	l1.1-3.8c-0.2-0.1-0.3-0.3-0.3-0.4c0-0.2,0.1-0.3,0.3-0.4l0.4-5.1c-0.2-0.1-0.4-0.3-0.4-0.6s0.2-0.5,0.4-0.6v-0.2l0.2-2.9h0.1
	l0.2,2.9v0.2c0.2,0.1,0.4,0.3,0.4,0.6s-0.1,0.5-0.4,0.6l0.4,5.2c0.2,0.1,0.3,0.3,0.3,0.4c0,0.2-0.1,0.3-0.4,0.5l1.1,3.7
	c0.5,0.2,0.8,0.5,0.8,0.8c0,0.2-0.2,0.4-0.4,0.5v0.2c0,0.3-0.2,0.5-0.4,0.6c-0.1,0.5-0.5,0.8-1,0.8c1,3.6,2.5,4,2.6,6.2v1.7
	c1.3,0.3,2.1,0.9,2.1,1.5c0,0.5-0.6,1-1.6,1.3v2.4h0.6v-0.6c-0.1-0.1-0.2-0.3-0.2-0.4c0-0.2,0.1-0.4,0.3-0.5v-0.2l0.2-0.6
	c0,0,0-0.1,0.1-0.1h0.1c0,0,0.1,0,0.1,0.1l0.2,0.6v0.2c0.2,0.1,0.3,0.3,0.3,0.5s-0.1,0.3-0.2,0.4v0.6h0.1l1.5,1.4h0.5v0.8h-0.3v0.8
	l-1.5,2.3h-0.5v1.9h0.2c0.1,0,0.1,0.1,0.1,0.1v0.4c0,0.1-0.1,0.1-0.1,0.1h-0.2v8.9h0.4v0.2h0.3v0.6h-0.3v0.2h-0.4v1.2
	c0.4,0,0.7,0.3,0.7,0.6v0.6c3.7,4.4,7.8,8.7,10,12.8c2.9,5.2,4.7,12.3,4.7,20.1c0,0.9,0,1.8-0.1,2.7c0.6,0.5,1,1.2,1.1,2.1
	c0.9,0.4,1.5,1,1.5,1.6c0,0.7-0.7,1.3-1.8,1.8v4l3,1.5v0.8l1.2,0.8h1.7v-0.2h0.4v-0.5c-0.2-0.1-0.3-0.2-0.4-0.4h-0.2
	c-0.1,0-0.1-0.1-0.1-0.2v-0.2c0-0.1,0.1-0.1,0.1-0.1h0.1c0-0.2,0.2-0.4,0.3-0.5v-0.1c0-0.1,0.1-0.2,0.2-0.2h0.1v-0.8h0.2v0.8h0.1
	c0.1,0,0.2,0.1,0.2,0.2v0.1c0.2,0.1,0.3,0.3,0.3,0.5h0.2c0.1,0,0.1,0.1,0.1,0.1v0.2c0,0.1-0.1,0.2-0.1,0.2h-0.2
	c-0.1,0.2-0.2,0.3-0.4,0.4v0.5h0.4v0.2h0.7v0.3h-0.2v0.1l-0.4,0.2v1.7h2.9v0.5h-0.4v0.4l-0.9,0.7v0.9h-0.5v1l-0.6,0.5v20.9h0.3
	l1.1,0.8h0.8l0.2-0.1h0.1v-0.9c-0.1,0.1-0.2,0.1-0.3,0.1c-0.3,0-0.7-0.7-0.7-1s0.3-0.6,0.6-0.6c0.1-0.1,0.2-0.1,0.4-0.1v-0.4l0.2-1
	h0.2l0.2,1v0.4c0.2,0,0.3,0.1,0.4,0.1c0.3,0,0.6,0.3,0.6,0.6s-0.3,1-0.7,1c-0.1,0-0.2-0.1-0.3-0.2v1h0.1l0.8,0.5v0.4h24.9v-0.4
	l0.8-0.5h0.1v-0.9c-0.1,0.1-0.2,0.1-0.3,0.1c-0.3,0-0.7-0.7-0.7-1s0.3-0.6,0.6-0.6c0.1-0.1,0.2-0.1,0.4-0.1v-0.4l0.2-1h0.2l0.2,1
	v0.4c0.2,0,0.3,0.1,0.4,0.1c0.3,0,0.6,0.3,0.6,0.6s-0.3,1-0.7,1c-0.1,0-0.2-0.1-0.3-0.2v1h0.1l0.8,0.5v0.4h0.3l0.8,0.8h0.8v0.5h-0.4
	v3.7h3.3v0.3h-0.3v0.2l-3,4.8v0.8h0.5v0.3h-0.2v1h-0.3v6.7h0.4l1.1,1.4h2.2v0.4h-0.4v0.6l-3.2,4.2v4.4h7.9v-79.1h1.5v-1.3h21.4v1.3
	h3.4v-1.1h17.9v-20.2h0.7v-1.1h14.7v-34.1c-2.2,1.5-2.9,8.6-7.1,7.2l0.8-3.4c3.7,0,2.9-8.3,6.3-8.8v-0.8h0.6v39.9h8.4v1.1h0.6v79.2
	l0.2-0.4l48.9-0.1v5.1h2.9v-8h1.1l0.9-14l0.9,14h2.5l0.9-14l0.9,14h5.5v8h1.6v2h8.3v26.2h5.1v-41.7h7v-6c0-0.5,0.4-0.8,0.8-0.8h0.2
	v-0.8h10.9v-1.6h4.6v1.6h1.3v0.8h0.5c0.4,0,0.8,0.4,0.8,0.8v6h6.7v50.8h2.8v-3.8h20.7v-26.8h1.5v-15.3h2.1v-24.2h0.9v-0.9h4.2v-4
	h1.3v-0.7h63.4l0.3-12.6h-3.2v-0.3h-0.3v-4.3h0.5v0.5h0.5v-0.5h0.5v0.5h0.5v-0.5h0.6v0.5h0.9l0.7-30.1h-3v-0.3h-0.3v-3.5h0.5v0.4
	h0.5v-0.4h0.5v0.4h0.5v-0.4h0.6v0.4h0.7l1.5-58.6h-3.4v-0.3h-0.3v-0.8h0.5v-1.6h-0.2v-0.8h0.2v-1h0.5v1h0.5v-1h0.6v1h0.5v-1h0.5v1
	h0.6l0.1-5.5h7.4l0.1,5.5h0.6v-1h0.6v1h0.5v-1h0.5v1h0.5v-1h0.5v1h0.2v0.8h-0.2v1.6h0.5v0.8h-0.3v0.3h-3.4l1.5,58.6h0.7v-0.4h0.5
	v0.4h0.5v-0.4h0.6v0.4h0.5v-0.4h0.5v3.5h-0.3v0.3h-3l0.7,30.1h0.9v-0.5h0.5v0.5h0.5v-0.5h0.5v0.5h0.5v-0.5h0.5v4.3h-0.3v0.3h-3.2
	l0.3,12.6h76.4v0.7h1.3v4h4.2v0.9h0.9v24.2h2.1v15.3h1.5v35.1h2.1v20.7h7v-40.2h2.6v-1.3h8.6v-1.6h1.9v1.6h11.3v-1.6h1.9v1.6h11.3
	v-1.6h1.9v1.6h11.3v-1.6h1.9v1.6h11.3v-1.6h1.9v1.6h6.4v-7.3h4.3v-0.8h2.4v0.8h2.7v-1.6h19.6v-1.3h1.9v-1.8h0.3v1.8h1.5v1.3h2.5v1.6
	h7.7v23.7h11.7v-2.7h0.7v-4.7h1v-1.3h1.4v1.3h5.9v-1.3h1.4v1.3h3.5v-0.6h1.4v0.6h3.3v4.7h5.4v2.7h3.6v9.3h32.3v-26.6h4.5v-7.5h13.4
	v-2.6h42.6v2.6h59.6v7.5h-1.1v26.6h37.7v-14.7h12v-2.6h31.8v2.6h3.8v-1.6h2.7v-6.4h4.7v-2.2h17.8v2.2h22.4v6.4h2v1.6h81.3v8.4h1.8
	v-2.6h11.9v2.6h34.3v12.4h8.3v2.3h4.8v7h3.5v-1.8h13v-9.6h22.8v-2h18.7v2h15.8v-1.7h9.9v-0.1h1.1v-3.7h7v-1.3h13.8v-1h8.8v-5h14.1
	v-1.7h28v1.7h10.1v5h1.6v10.4h4.7v1.5h15.7v7.3h9v1.4h2.4v-5.3h3.3v-1.8h5.7v-9.4h23.7v-1.9h8.2v1.9h1.2v-6.4h56.2v-1.2h1.4v-4.8
	h15.5v-1.6h12.3v1.6h3.3v4.8h1.9v1.2h2.6v-1.9h22v1.9h8.3v11.1h26.1v-20.1h-0.8v-5.7h41.2v-1.9h29.5v1.9h9.2v5.7h3.1v20.1h31.9v5.8
	h8v36.4L2427.6,1690.1 M1567.4,1396.6h-3.3v2.3h3.3V1396.6z M1567.4,1399.7h-3.3v1.5h3.3V1399.7z M1572.4,1363.4h-2.9v2.2h2.9
	V1363.4z M1572.4,1396.6h-3.8v2.3h3.8V1396.6z M1572.4,1399.7h-3.8v1.5h3.8V1399.7z M1575.2,1363.4h-1.4v2.2h1.4V1363.4z
	 M1575.2,1366.9h-1.4v3.7h1.4V1366.9z M1575.2,1371.6h-1.4v5.7h1.4V1371.6z M1575.2,1378.2h-1.4v5.7h1.4V1378.2z M1575.2,1384.8
	h-1.4v5.6h1.4V1384.8z M1575.2,1391.4h-1.4v3.8h1.4V1391.4z M1575.2,1396.6h-1.4v2.3h1.4V1396.6z M1575.2,1399.7h-1.4v1.5h1.4
	V1399.7z M1576.7,1365.5v-2.2h-0.8v2.2H1576.7z M1577.6,1396.6h-1.7v2.3h1.7V1396.6z M1577.6,1399.7h-1.7v1.5h1.7V1399.7z
	 M1582.1,1396.6h-3.3v2.3h3.3V1396.6z M1582.1,1399.7h-3.3v1.5h3.3V1399.7z M1776.1,1554.4l-0.4,0.3v1.3c0.3-0.6,0.7-1.1,1.2-1.6
	L1776.1,1554.4L1776.1,1554.4z M1777.2,1561.8h-1.7v19.4h1.7V1561.8z M1781.5,1561.8h-2.2v19.4h2.2V1561.8z M1799.3,1490.9h-0.5v8.4
	h0.5V1490.9z M1800.5,1493.3c0-0.6-0.1-1.1-0.3-1.1c-0.2,0-0.3,0.5-0.3,1.1v6h0.6L1800.5,1493.3L1800.5,1493.3z M1804,1492.7
	c0-0.7-0.5-1.2-1.2-1.2s-1.2,0.5-1.2,1.2v6.7h2.4L1804,1492.7L1804,1492.7z M1805.7,1493.3c0-0.6-0.1-1.1-0.3-1.1
	c-0.2,0-0.3,0.5-0.3,1.1v6h0.6L1805.7,1493.3L1805.7,1493.3z M1806.8,1490.9h-0.5v8.4h0.5V1490.9z M1826.3,1561.8h-2.2v19.4h2.2
	V1561.8z M1829.8,1554.7l-0.4-0.3v-0.1h-0.8c0.5,0.5,0.9,1,1.2,1.6L1829.8,1554.7L1829.8,1554.7z M1830,1561.8h-1.7v19.4h1.7V1561.8
	z M2149.5,1542h-0.5v1.8h0.5V1542z M2150.6,1542h-0.5v1.8h0.5V1542z M2151.2,1542v1.8h0.8v-1.8H2151.2z M2150.6,1508.4h-0.5v1.6h0.5
	V1508.4z M2151.7,1508.4h-0.5v1.6h0.5V1508.4z M2152.2,1508.4v1.6h0.6v-1.6H2152.2z M2152.2,1446.3h-0.5v1.6h0.5V1446.3z
	 M2153.3,1446.3h-0.5v1.6h0.5V1446.3z M2153.9,1446.3v1.6h0.5v-1.6H2153.9z M2164.4,1447.9h0.5v-1.6h-0.5V1447.9z M2163.3,1447.9
	h0.5v-1.6h-0.5V1447.9z M2162.7,1447.9v-1.6h-0.6v1.6H2162.7z M2166,1509.9h0.5v-1.6h-0.5V1509.9z M2164.9,1509.9h0.5v-1.6h-0.5
	V1509.9z M2164.4,1509.9v-1.6h-0.7v1.6H2164.4z M2167,1543.9h0.5v-1.8h-0.5V1543.9z M2165.9,1543.9h0.5v-1.8h-0.5V1543.9z
	 M2165.4,1543.9v-1.8h-0.9v1.8H2165.4z M1654.9,1569.7c-0.3,0-0.5-0.2-0.5-0.5s0.2-0.5,0.5-0.5s0.5,0.2,0.5,0.5
	S1655.1,1569.7,1654.9,1569.7z"/>
</svg>
