<svg xmlns="http://www.w3.org/2000/svg" width="800" height="800" viewBox="0 0 800 800"><style type="text/css">.st0{fill:#FFFFFF;}</style><path class="st0" d="M156.4 529.8c-4.7-11.7-5.9-73.7-5.9-104.9v-5.6c0-16-.1-24.7 3.7-70.5 3.8-45.7 3.7-46.7 3.2-51.9l-.5-8.7c-.2-10 1.7-16.5 5.8-19.8 5.6-4.5 14.9-3.5 27.9-.4 16.5 4 168 4.5 278.6 5 56.4.2 100.9.4 105 1 4.4.6 11.2 1 18.5 1.5 12.1.7 25.7 1.5 31.6 3.6 8.7 3.2 25.3 11.6 25.3 15.3 0 .6-.5 1-1.5 1.4-3.9 1.3-27.3-.7-49.9-2.7-21.5-1.9-43.6-3.8-52-3.2-35.3 2.5-370-8.4-373.4-8.5-.2.5 2 24.7-1.3 54.7l-2.7 19.3c-1.6 9.6-2.9 17.2-2.9 34.7v50.1c0 28.9 5 45.1 5 45.2 2.9.2 269.7 8.6 303.3 6.1 39.6-3 94.7-6 132.2-3.5l1.3.1c1.8.1 3.4-.6 4.7-2 8.9-9.2 5.4-47.7 5.2-49.3 0-.4 1.1-41.2 0-51.2-.8-7.3-1.2-16.4-1.5-25.2-.4-9.5-.7-18.5-1.6-23.8-1.5-9.1-2.2-23.7 1.2-27.7.6-.7 1.3-1 2-1 1.8 0 3.5-1.4 5.1-2.8 1.6-1.3 3-2.6 4.2-2.1 1.9.8 3 6.7 3.3 18.4.5 16.6.5 36.8.5 51.5l.6 25c.5 15 1 32 .5 42.4-.2 3.9.2 10.3.6 17.6 1.5 26 3.7 65.3-12 73.8-12.9 7-40.8 5-67.7 3-15.4-1.1-31.2-2.3-43.7-1.6-26.9 1.3-78.4 1.1-112.5.9l-21.9-.1-32 .8c-59.1 1.5-182.3 5.2-186.3-4.9m6.1-261.8c-4.3 3.4-6.2 10-6 20.2l.5 8.8c.5 5.1.6 6.2-3.2 51.8-3.8 45.8-3.8 54.6-3.7 70.5v5.6c0 .9.1 90.3 6 105 4.1 10.4 122.9 6.8 186.8 4.9l32-.8 21.9.1c34.1.2 85.6.4 112.5-.9 12.4-.6 28.3.5 43.7 1.6 27 2 55 4 68-3.1 15.9-8.6 13.7-48.1 12.2-74.2-.4-7.4-.8-13.7-.6-17.6.5-10.5 0-27.5-.5-42.5l-.6-25c0-14.7 0-34.9-.5-51.5-.4-12.2-1.4-17.8-3.5-18.7-1.4-.6-2.9.7-4.6 2.2-1.6 1.3-3.2 2.7-4.8 2.7-.9 0-1.7.4-2.3 1.2-3.6 4.3-2.7 19.4-1.3 28 .9 5.3 1.2 14.3 1.6 23.8.4 8.8.7 17.9 1.5 25.2 1.1 10 0 50.8 0 51.2 0 .4 3.7 39.9-5.1 49.1-1.3 1.3-2.8 1.9-4.4 1.8l-1.3-.1c-37.5-2.5-92.6.5-132.2 3.5-33.6 2.5-300.4-5.9-303.1-6 .1 0-4.8-16.1-4.8-45v-50.1c0-17.5 1.3-25 2.9-34.6l2.8-19.3c3.3-30 1.1-54.3 1.1-54.6 3.2.3 337.9 11.2 373.2 8.7 8.3-.6 30.5 1.4 51.9 3.2 23.7 2.1 46.1 4.1 50.1 2.7 1.1-.4 1.7-1 1.7-1.7.1-4.2-17.9-12.9-25.5-15.6-5.9-2.2-19.6-3-31.7-3.7-7.2-.4-14-.8-18.4-1.5-4.1-.6-48.7-.8-105.1-1-110.6-.4-262.1-1-278.5-5-13.6-2.9-22.9-3.9-28.7.7"/><path class="st0" d="M306 363.1c-6.6 2-12.1 19-18 16.4-6-2.6 3.9-20.3 9.2-27.6 5.3-7.3 5.7-41.6-8.2-51.5-13.9-9.9-39.2-12.1-52.5-.8-9.2 7.9-11.2 25.8-13.9 29.8-2.7 4-4.5-6.3-11.9-6.6-13.2-.7-17.6 24.8-20.5 43.6-4.6 30.4 6.6 35 8.6 66.1 2 31.1 7.6 36.5 13.9 40.3 6.3 3.8 37.7-2.6 50.9 1.3 13.2 4 26.5 1.3 44.3-24.7 17.9-26 18.4-40.8 19-61.9.8-21.2-14.3-26.4-20.9-24.4zm6.6 49.4c-1.9 3.5-3.9 8.2-6.1 13.2-6.2 14.3-13.2 30.5-23.5 34.8-8.4 3.5-13.5 2.2-19 .9-3.6-.9-7.3-1.8-12.7-1.7-4.9.1-8.6 1.2-11.9 2.2-5.9 1.8-11.5 3.4-18.7-3-4.8-4.3-5.9-11.1-7.4-20.4l-2-11.4c-1.3-6.4-3.7-12.5-6-18.4-3.3-8.4-6.4-16.3-6.4-24.6v-1.8c0-21.3.4-39.5 6-45 1.3-1.3 2.9-2 4.6-2 5.4 0 6.5 7.8 8.3 20.7.6 4.3 1.6 11 2.6 14.3 2-3.3 3-11.2 3.9-17.8 1-7.8 2.2-16.7 4.9-24.3 1-2.8 10-27.5 18.2-27.5.8 0 3.5.3 4.6 3.7.2.7.3 1.6.3 2.7 0 3.2-.9 8.4-2.8 17.8-1.5 7.8-4.3 22.1-4.3 29.5 0 1.8.2 3 .6 3.8 2.3-4.5 5.7-20.1 7.9-29.8 5-22.8 6.2-27.3 9.8-28.2 2.9-.7 6 .2 8.2 2.5 1.4 1.5 3.3 4.5 3.3 9.7 0 2.3-.4 5.1-1.4 8.5-3.8 13.1-6.3 25.6-6.3 31.3 0 .7 0 1.3.1 1.8 4.2-1.7 7.6-19.2 9.1-27.1 2.4-12.3 3.6-18.5 8.3-18.5 1.4 0 3.4.6 5 3.3 4.3 7.2 5.5 29.2-1.3 41.7-5.6 10.4-6.6 16.9-7.8 25.8l-1 6.5c-1.1 6.5-.1 9.9 1.2 11 .2.2.9.7 2.5.2 1.8-.8 7-6.9 15.3-18 3.1-4.1 8.7-7.7 13.3-6.4 2 .5 5.4 2.5 6.1 9l.2 1.7c1 9.6 1.6 15.8-5.7 29.3zM360.2 437.5l3.6 17.6 3.4-17.6h5.3v26.5h-4.6v-7.3c0-1.1 0-2.2.2-3.3l.8-7-3.9 17.6h-2.2l-4.5-17.8.9 6.4c.2 1.1.2 2.1.2 3.2v8.2h-4.5v-26.5h5.3zM388.1 437.5h4.5v26.5h-4.5zM413.8 464.2c-4.7 0-5.6-1-5.6-3.6v-19.6c0-2.6.9-3.6 5.6-3.6 4.9 0 5.6 1.1 5.6 3.6v4.4h-4.5v-4.8h-2.3v20.4h2.3v-7.5h4.5v7.2c0 2.6-1 3.5-5.6 3.5"/><path class="st0" d="M439.5 448.8h2.2v-11.3h4.5v26.5h-4.5v-11.9h-2.2v11.9h-4.5v-26.5h4.5zM461.8 437.5h4.5v26.5h-4.5zM488.6 445.4v-4.9h-2.3v20.4h2.3v-8.5h-1.2v-3.5h5.6v11.7c0 2.7-1.1 3.6-5.7 3.6s-5.5-1-5.5-3.6v-19.6c0-2.8.9-3.6 5.5-3.6s5.7.8 5.7 3.6v4.5h-4.4zM514.9 457.6l-1.1-14.8-1.1 14.8h2.2zm4.8 6.4h-4.2l-.3-3.2h-2.8l-.3 3.2h-4.2l3.1-26.5h5.9l2.8 26.5zM538.8 437.5l4.2 19.1-.9-7.2c-.1-.7-.2-1.5-.2-2.2v-9.8h4.5v26.6h-4.5l-4-18.6.7 6 .2 2v10.6h-4.5v-26.5h4.5zM362.8 322.1v-5h-2.4v21.1h2.4v-8.8h-1.2v-3.6h5.8v12.1c0 2.8-1.2 3.7-5.9 3.7s-5.7-1-5.7-3.7v-20.4c0-2.9.9-3.8 5.7-3.8 4.7 0 5.9.8 5.9 3.8v4.6h-4.6zM399.2 325.8h2.4v-8.7h-2.4v8.7zm4.6 1.5c2.6 1 2.3 2.3 2.3 4v10h-4.6v-12.4h-2.4v12.4h-4.6v-27.4h5.9c4.6 0 5.7.7 5.7 3.7v6.5c0 1.8-.1 2.2-2.3 3.2"/><path class="st0" d="M441.2 313.9v3.2h-3.3v8.8h3.5v3.2h-3.5v9h3.5v3.2h-8.1v-27.4zM474.7 334.7l-1.2-15.4-1.2 15.4h2.4zm5 6.6h-4.4l-.3-3.3h-3l-.4 3.3h-4.4l3.2-27.4h6.1l3.2 27.4zM512.3 317.1h-1.6v24.2h-4.6v-24.2h-2.1v-3.2h8.3zM546.3 313.9v3.2h-3.3v8.8h3.5v3.2h-3.5v9h3.5v3.2h-8.1v-27.4zM578 325.8h2.4v-8.7h-2.4v8.7zm4.7 1.5c2.6 1 2.3 2.3 2.3 4v10h-4.6v-12.4h-2.4v12.4h-4.6v-27.4h5.9c4.6 0 5.7.7 5.7 3.7v6.5c0 1.8-.2 2.2-2.3 3.2"/><path class="st0" d="M248.8 414.6c.8-2.5 1-5.2 1-7.7 0-.8-.4-1.8.4-2.2.7-.3 1.7-.8 2.1-.1 1.7 2.7 2.2 6 4.3 8.6 3.5-.8 7.3-2.1 10.8-.7.8.3.3 1.5-.4 1.8-2.7 1.5-5.5 2.8-7.8 4.7 3 3.4 6.1 6.2 9 9.8.1.3.1.5 0 .8-.8 1.5-2.5.9-3.8.9-3.4 0-6.1-2.1-9.4-2.9-2 2.3-3.3 5.1-5.1 7.7-.2.4-.4 1-.5 1.5-.4.5-1.2.5-1.7.7-.8.2-1.8-.8-1.5-1.5.1-.3.3-.8.4-1 .7-3.3.2-6.4.7-9.6-3.3-.3-6.8.2-9.6-1.2-.5-.2-.5-1.3 0-1.7.9-1 2.8-2.2 4.1-3l7-4.9zM367.4 417.7h6.8v10.9h-18.9v-79.7h12.1zM399 386.9h-6v31.2h6v-31.2zm-2.4-37.4c11.8 0 13.4 1.9 13.4 13v66.1h-11v-4.6c-2.2 3.5-4.2 4.6-7.2 4.6-6.6 0-9.6-1.6-9.6-9.3v-32.6c0-9.5.7-11.1 11-11.1h5.8v-15.5h-6v9h-10.9v-6.6c0-10.9 2.1-13 14.5-13"/><path class="st0" d="M431.2 349.5v7.4c2.5-4.7 2.7-7.4 9.6-7.4 7 0 7.3 2.6 7.3 10.5v68.6h-11v-68.5h-6v68.5h-10.9v-79.2h11zM475.3 375.3c9.2 0 11.1 3.7 11.1 13.5v26.2c0 12.6-2.9 13.7-14 13.7-11 0-13.8-1.1-13.8-13.8v-21.4h10.9v24.6h6v-31.6h-5.8c-9.2 0-11-3.7-11-13.5v-9.6c0-12.7 2.9-14 13.8-14 11.1 0 14 1.3 14 13.8v5.8h-11v-9h-6v15.2h5.8zM496.8 349.5h10.9v79.2h-10.9zM528.9 349.5v7.4c2.5-4.7 2.7-7.4 9.6-7.4 7 0 7.3 2.6 7.3 10.5v68.6h-11v-68.5h-6v68.5h-10.9v-79.2h11zM567.2 360.1h6v58h-6v-58zm16.9-10.6h-11v6.9s-3.1-6.9-6.1-6.9c-7.9 0-10.8 1-10.8 13.5v55c0 7.5 1.3 10.6 8.4 10.6 6.3 0 8.5-7.5 8.5-7.5v32.4h-5.9v-16.1h-10.9v12.9c0 12.7 2.9 13.8 13.8 13.8 11.1 0 14-1.1 14-13.7v-100.9zM590.1 515.5l2-.1c-.5-1.5-.8-2.6-1-3.3-.2-.7-.6-1.6-1-2.8l-.4 1.1-.9 2.2-.6 1.7-.5 1.3 1.3-.1h1.1zM560 510.8c.4-.4.8-.7.9-.9.2-.2.2-.5.2-.7 0-.4-.4-.9-1.2-1.3-.8-.4-1.6-.7-2.3-.8-.7-.1-1.2-.2-1.4-.2h-.8c0 .5 0 1.1-.1 1.9-.1.7-.1 1.4-.1 1.9v1.9c1.5-.4 2.6-.7 3.2-1 .7-.2 1.2-.5 1.6-.8zM521.9 519.5c1.3 0 2.3-.2 3.1-.7.8-.5 1.2-1 1.2-1.7s-.5-1.3-1.5-1.8-2.2-.8-3.5-.8h-1.5l-.1 4.8 1.1.2c.5-.1.9 0 1.2 0zM477.5 510.8l.9-.9c.2-.2.2-.5.2-.7 0-.4-.4-.9-1.2-1.3-.8-.4-1.6-.7-2.3-.8-.7-.1-1.2-.2-1.4-.2h-.8c0 .5 0 1.1-.1 1.9-.1.7-.1 1.4-.1 1.9v1.9c1.5-.4 2.6-.7 3.2-1 .6-.2 1.1-.5 1.6-.8zM306.7 519.8c1.4 0 2.6-.6 3.4-1.9.8-1.3 1.3-3.1 1.3-5.5v-.1c0-.8-.1-1.7-.4-2.5-.3-.9-.7-1.6-1.2-2.3-.5-.7-1.3-1-2.4-1-1.5 0-2.7.7-3.5 2-.9 1.3-1.3 3.1-1.3 5.4 0 1.8.4 3.3 1.1 4.3.7 1.1 1.7 1.6 3 1.6zM524.7 510.3c.7-.4 1-.9 1-1.5 0-.4-.3-.8-.9-1.1-.6-.3-1.2-.6-1.9-.7-.7-.2-1.4-.3-2-.3h-.8999999999999999l-.1 1.2v3.3c1.2 0 2.1-.1 2.8-.2.7-.1 1.3-.3 2-.7zM457.2 519.8c1.4 0 2.6-.6 3.4-1.9.8-1.3 1.3-3.1 1.3-5.5v-.1c0-.8-.1-1.7-.4-2.5-.3-.9-.7-1.6-1.2-2.3-.5-.7-1.3-1-2.4-1-1.5 0-2.7.7-3.5 2-.9 1.3-1.3 3.1-1.3 5.4 0 1.8.4 3.3 1.1 4.3.7 1.1 1.7 1.6 3 1.6zM194.1 519.8c1.4 0 2.6-.6 3.4-1.9.8-1.3 1.3-3.1 1.3-5.5v-.1c0-.8-.1-1.7-.4-2.5-.3-.9-.7-1.6-1.2-2.3-.5-.7-1.3-1-2.4-1-1.5 0-2.7.7-3.5 2-.9 1.3-1.3 3.1-1.3 5.4 0 1.8.4 3.3 1.1 4.3.6 1.1 1.7 1.6 3 1.6zM624.4 278.8c-9.4-3.4-38.2-3.4-50.1-5.1-11.9-1.7-358.5.1-383.6-6-21.3-5.1-34.6-5.2-34 20.4.4 18.5 2.3-.6-2.8 60.6-4.2 50.9-3.7 56.1-3.7 76.2 0 22.1.9 92.2 6 104.9 5.1 12.7 192.2 3.9 218.6 3.9 26.4 0 100.4.9 134.4-.8 34-1.7 91.1 9.7 111.5-1.4 20.4-11.1 10.6-74.6 11.5-91.6.8-17-1.1-50.6-1.1-67.4 0-14.7 0-34.8-.5-51.5-.9-31.5-6.8-13.6-12.8-13.6-6 0-5.1 18.7-3.4 28.9 1.7 10.2 1.5 33.7 3.2 49 1.1 10.1 0 51.2 0 51.2s4.9 51.9-9.7 51.1c-5.2-.3-41-3.6-133.5 3.4-34 2.6-303.1-6-303.1-6s-5-15.9-5-45.2v-50.1c0-27 3-30.3 5.6-54 3.4-30.3 1.1-54.5 1.1-54.5s337.7 11.1 373.4 8.5c17.3-1.2 94.3 8.5 101.9 6 7.6-2.4-14.5-13.5-23.9-16.9zm-24.6 230.7c.1-1.3.3-2.5.5-3.6l.2-1.2v-.3c.9 0 1.5 0 1.9.1.4.1.8.2 1.5.5l.3.1v.3c-.3 2-.5 3.5-.6 4.4-.1.9-.1 2.2-.1 3.8 0 2.1.3 3.6.8 4.6.6 1 1.5 1.5 2.8 1.5 1.6 0 2.5-.5 2.9-1.4.3-.9.6-2 .7-3.2.1-1.2.2-2.6.2-4l-.1-4.2v-2.9l.3-.1c.6-.1 1-.2 1.4-.3.3 0 .8-.1 1.4-.1h.3v.4l.1 1.5c.1 1.6.2 3.5.2 5.6 0 2.3-.1 4.2-.3 5.6-.2 1.4-.7 2.8-1.5 4.2-.8 1.4-2.6 2.1-5.3 2.1-1.5 0-2.9-.3-4-.8-1.2-.5-2-1.2-2.4-2.1-.5-.9-.8-1.8-1-2.8-.2-1-.3-2.2-.3-3.7 0-1.4 0-2.7.1-4zm-17.9 12.7l.2-.5c.1-.3.4-1.1.9-2.6s.8-2.4 1-2.9c.2-.5.4-1.1.6-1.8.2-.7.7-1.9 1.3-3.6l1.4-4.1-1.5-.1h-.3l-.1-1v-1.7l.3-.1c.4 0 .8-.1 1-.1h1.1c.9 0 1.4 0 1.8-.1.3 0 .7-.1 1.2-.3.5-.1.8-.2 1.1-.2.1 0 .2 0 .3.1.1.1.2.2.2.5l.1.3.2 1 2 7.2.8 2.7 1 3.1.6 1.9.2.6.1.3.1.3c0 .3-.2.4-.6.5l-.9.2-1 .3-.3.1c-.2 0-.4-.2-.5-.5l-.6-1.7-.4-1.1-.3-.8-2.8.1-3.2.2h-.6l-.6 1.7-.5 1.9c-.1.3-.2.5-.4.6-.2 0-.4.1-.7.1h-1.1c-.5 0-.8 0-.9-.1-.1-.1-.2-.2-.2-.4zm-13.6-1.6v-9.8c0-.7 0-1.7.1-3.2.1-1.5.1-2.6.1-3.3v-.3h.3l1.5-.1 3.5-.1 2.9-.1 1.5-.1h2.1v.2l.1 2v.7h-.3l-.9.1h-1.2l-2.5.2c-.3 0-1.5.2-3.5.4-.1.5-.1 1-.1 1.6v2.3h8.1v.3l.1.7.1.9v1h-1.2l-2.1.1-3 .2-1.6.1-.6.1v4.800000000000001l8.8.2.1.3.1 1.6v.8999999999999999h-.4l-2.4.1-3.3.2-3.1.2-2.3.1h-.9v-2.3zm-16.7-6.9v-3.2l.1-4.4.1-2v-.3l.3-.1c.8-.1 1.4-.1 1.9-.1s1.1 0 2 .1l2.6.2c.9.1 1.9.4 2.9.8s1.9 1 2.6 1.8c.7.8 1.1 1.6 1.1 2.5 0 1.2-.5 2.2-1.4 3.1-.9.9-2.3 1.7-4 2.2l3 3.5 2.8 3.1.3.4-.5.2-.4.1-1 .3-.8.2-.5.1c-.1 0-.2 0-.3-.1-.1-.1-.3-.2-.5-.5l-.4-.5-.9-.9-1.8-1.8-1.4-1.4c-.5-.4-.8-.8-1-1l-1.3-1.2-.1 1.9v5.6l-3.3.6v-.4l-.1-8.1v-.7zm-18.5-4.2c.1-1.3.3-2.5.5-3.6l.2-1.2v-.3c.9 0 1.5 0 1.9.1.4.1.9.2 1.5.5l.3.1v.3c-.3 2-.5 3.5-.6 4.4-.1.9-.1 2.2-.1 3.8 0 2.1.3 3.6.8 4.6.6 1 1.5 1.5 2.8 1.5 1.6 0 2.5-.5 2.9-1.4.3-.9.6-2 .7-3.2.1-1.2.2-2.6.2-4l-.1-4.2v-2.9l.3-.1c.6-.1 1-.2 1.4-.3.3 0 .8-.1 1.4-.1h.3v.4l.1 1.5c.1 1.6.2 3.5.2 5.6 0 2.3-.1 4.2-.3 5.6-.2 1.4-.7 2.8-1.5 4.2-.8 1.4-2.6 2.1-5.3 2.1-1.5 0-2.9-.3-4-.8-1.2-.5-2-1.2-2.4-2.1-.5-.9-.8-1.8-1-2.8-.2-1-.3-2.2-.3-3.7-.1-1.4 0-2.7.1-4zm-16.8 5.2v-9.6c0-.7 0-1.2.1-1.4.1-.2.3-.3.7-.3 4.7 0 7.6.4 8.9 1.1 1.3.7 2.1 1.4 2.6 2.2.5.7.7 1.5.7 2.2 0 .7-.2 1.4-.7 2.1-.5.7-1 1.2-1.7 1.6l-.2.1.5.3c.7.4 1.4 1 1.9 1.8s.8 1.6.8 2.4c0 1.6-.8 2.9-2.4 3.9-1.6 1-3.6 1.6-6 1.6-1.9 0-3.2-.1-4-.4-.8-.3-1.2-.8-1.2-1.5v-6.1zm-31.6 6c.2-.7.4-1.3.6-1.8.3-.5.5-.7.7-.7.1 0 .6.2 1.4.6.8.4 2 .6 3.5.6 1.1 0 1.9-.2 2.6-.5.6-.4.9-.9.9-1.5 0-.5-.2-.9-.7-1.3-.5-.4-1.5-.8-3.1-1.4l-2.1-.8c-.7-.3-1.3-.7-1.8-1.2s-.9-1.1-1.2-1.7c-.3-.6-.4-1.3-.4-2 0-1.6.6-3 1.9-4 1.2-1.1 2.8-1.6 4.7-1.6 1.8 0 3.2.5 4.3 1.4 1.1.9 1.6 2.2 1.6 3.8l-.1 1.2v.3h-.3l-.8.1-1.3.1c-.3 0-.6 0-.8-.1-.2-.1-.3-.5-.4-1.2-.1-.8-.3-1.3-.6-1.7-.3-.4-.8-.5-1.7-.5-.8 0-1.4.2-1.9.6-.4.4-.7.9-.7 1.6 0 .6.2 1 .7 1.4.5.4 1.3.8 2.5 1.2 1.2.4 2.1.8 2.8 1.1.6.3 1.3.8 2 1.5s1.1 1.7 1.1 3.2c0 1.7-.6 3.1-1.8 4.1-1.2 1-2.9 1.5-5 1.5-2.7 0-4.9-.7-6.7-2l.1-.3zm-15.7-7v-3.2l.1-4.4.1-2v-.3l.3-.1c.8-.1 1.4-.1 1.9-.1s1.1 0 2 .1l2.6.2c.9.1 1.9.4 2.9.8s1.9 1 2.6 1.8c.7.8 1 1.6 1 2.5 0 1.2-.5 2.2-1.4 3.1-.9.9-2.3 1.7-4 2.2l3 3.5 2.8 3.1.3.4-.5.2-.4.1-1 .3-.8.2-.5.1c-.1 0-.2 0-.3-.1-.1-.1-.3-.2-.5-.5l-.4-.5-.9-.9-1.8-1.8-1.4-1.4c-.5-.4-.8-.8-1-1l-1.3-1.2-.1 1.9v5.6l-3.3.6v-.4l-.1-8.1v-.7zm-17.3-7.4c1.6-2 3.7-3 6.3-3 2.3 0 4.2.8 5.6 2.4 1.4 1.6 2.1 3.8 2.1 6.5 0 3.3-.8 5.9-2.3 7.8-1.6 1.9-3.7 2.9-6.3 2.9-1.2 0-2.3-.2-3.2-.6-.9-.4-1.5-.9-2-1.5s-.8-1-1-1.3c-.2-.2-.5-.7-.9-1.4s-.6-2-.6-4c-.1-3.1.7-5.8 2.3-7.8zm-16.9-1v-1c0-.1.1-.2.3-.3h.1l1.3-.1 3.2-.1 3.8-.1h4.2v1.5c0 1.4-.2 2.1-.6 2.1h-.9l-2.3-.1h-.7c-.2 1.9-.3 3.3-.3 4.4-.1 1-.1 2.2-.1 3.5v7.6l-.3.1c-.5 0-.9.1-1.2.1-.3 0-.7.1-1.3.2l-.5.1v-.4c0-.9 0-2.1-.1-3.7-.1-1.5-.2-2.9-.2-3.9v-8.200000000000001h-1c-.3 0-.8 0-1.5.1-.6 0-1.1.1-1.5.1h-.4v-1.9zm-8.9 14.8l1.4-.1v-7.8l.2-3.4v-2h-1.3v-.3l-.1-1.3v-.8l6-.6.1.3.4 2.3v.4h-1.2l-.1.6-.2 2-.3 4.5-.1 4.4v1.6h1.2v1.6l.1.7v.3h-.3l-.9.1-1.9.2-1.7.2-.6.1h-.4v-.3l-.2-2.1v-.6zm-16.3.6c.2-.7.4-1.3.6-1.8.2-.5.5-.7.7-.7.1 0 .6.2 1.4.6.8.4 2 .6 3.5.6 1.1 0 1.9-.2 2.6-.5.6-.4.9-.9.9-1.5 0-.5-.2-.9-.8-1.3-.5-.4-1.5-.8-3.1-1.4l-2.1-.8c-.7-.3-1.3-.7-1.9-1.2-.5-.5-.9-1.1-1.2-1.7-.3-.6-.4-1.3-.4-2 0-1.6.6-3 1.9-4 1.2-1.1 2.8-1.6 4.7-1.6 1.8 0 3.2.5 4.3 1.4 1.1.9 1.6 2.2 1.6 3.8l-.1 1.2v.3h-.3l-.8.1-1.3.1c-.3 0-.6 0-.8-.1-.2-.1-.3-.5-.4-1.2-.1-.8-.3-1.3-.6-1.7-.3-.4-.8-.5-1.7-.5-.8 0-1.4.2-1.9.6-.5.4-.7.9-.7 1.6 0 .6.2 1 .7 1.4.5.4 1.3.8 2.5 1.2 1.2.4 2.1.8 2.8 1.1.6.3 1.3.8 2 1.5s1.1 1.7 1.1 3.2c0 1.7-.6 3.1-1.8 4.1-1.2 1-2.9 1.5-5 1.5-2.7 0-4.9-.7-6.7-2l.3-.3zm-9.3-.6l1.4-.1v-7.8l.2-3.4v-2h-1.3v-.3l-.1-1.3v-.8l6-.6.1.3.4 2.3v.4h-1.2l-.1.6-.2 2-.3 4.5-.1 4.4v1.6h1.2v1.6l.1.7v.3h-.3l-.9.1-1.9.2-1.7.2-.6.1h-.3v-.3l-.2-2.1v-.6zm-17.5-15.3l.8-.1c.3 0 .6-.1.8-.1.2 0 .5-.1.8-.2l.3-.1.1.3.6 1.6.9 2.8c.2.8.6 1.8 1.1 3.3.5 1.4.8 2.5 1.1 3.1l.6 1.6c1.7-3.8 3-6.8 3.8-9l1.1-2.9.5-1.4.2-.4.4.2 2.1 1.2.3.1-.1.3-.6 1.6-2 5.7-1.6 4.2-1.1 3.1-.9 2.3-.1.2h-.2l-1.8.5-1.9.5-.3.1-.1-.3-.3-.7c-.1-.2-.2-.4-.2-.5l-1.1-3.3-.9-2.7-1.6-5.6-1.1-4-.2-.8-.1-.4.7-.2zm-29.7 4.8c0-1.5.6-2.8 1.9-4 1.2-1.2 2.7-1.8 4.3-1.8.8 0 1.5.2 2.2.6.7.4 1.2.9 1.5 1.5.3.6.5 1.1.6 1.4 0 .3-.2.6-.7.9-.4.3-1 .6-1.8 1l-.3.1-.2-.3c-.4-.7-.7-1.2-1-1.5-.3-.3-.7-.4-1.1-.4-.5 0-.9.2-1.2.4-.3.3-.4.7-.4 1.3 0 .5.1.9.3 1.2l.3.5h.8c.5 0 .8.1.9.4v2.4000000000000004l-.3.1c-2.3.7-3.5 2-3.5 3.9 0 1.5.7 2.2 2.2 2.2 1 0 1.9-.3 2.5-1 .6-.7 1-1.5 1-2.6 0-.4 0-.8-.1-1.2-.1-.4-.3-1-.6-2l-.1-.4 6.1-.8-.1 3.4h-1.8l.1 1.1c0 1.8-.7 3.4-2 4.7-1.4 1.3-3 1.9-5 1.9-1.7 0-3-.5-4.1-1.5-1-1-1.6-2.2-1.6-3.8 0-1.8.9-3.6 2.7-5.3-1.1-.3-1.5-1.2-1.5-2.4zm-34.5 5.5v-4.8l.1-3v-1.6l.1-1v-.3h.3c1.5-.1 2.6-.2 3.5-.2h1.3l.1.2c.7 1.9 1.3 3.4 1.8 4.5.5 1.2 1.1 2.4 1.7 3.7l1.5 3.1.1-2.6.1-4.4v-1.9c0-.6.1-1.1.1-1.6l.2-1.3v-.3h.3c.9-.1 1.7-.1 2.5-.1h.8v.4l-.1 2.1c0 1.1-.1 2.8-.2 5.1s-.2 4.1-.2 5.4l-.1 5.5v.4l-4 .1-.1-.2c-.9-1.7-1.8-3.5-2.7-5.3-.9-1.8-1.6-3.2-2-4.1l-1.2-2.8-.2-.4c0 1.2-.1 2.7-.2 4.2-.1 1.6-.2 2.9-.2 3.9v5l-.3.1c-.8.1-1.4.1-1.6.1h-.5c-.4 0-.7-.1-.7-.3-.1-.2-.1-.5-.2-1v-6.6zm-17.4-8.8c1.6-2 3.7-3 6.3-3 2.3 0 4.2.8 5.6 2.4 1.4 1.6 2.1 3.8 2.1 6.5 0 3.3-.8 5.9-2.3 7.8-1.6 1.9-3.7 2.9-6.3 2.9-1.2 0-2.3-.2-3.2-.6-.9-.4-1.5-.9-2-1.5s-.8-1-1-1.3c-.2-.2-.5-.7-.9-1.4s-.6-2-.6-4c0-3.1.7-5.8 2.3-7.8zm-12 13.8l1.4-.1v-7.8l.2-3.4v-2h-1.3v-.3l-.1-1.3v-.8l6-.6.1.3.4 2.3v.4h-1.2l-.1.6-.2 2-.3 4.5-.1 4.4v1.6h1.2v1.6l.1.7v.3h-.3l-.9.1-1.9.2-1.7.2-.6.1h-.3v-.3l-.2-2.1v-.6zm-14.9-14.8v-1c0-.1.1-.2.3-.3h.1l1.2-.1 3.2-.1 3.8-.1h4.2v1.5c0 1.4-.2 2.1-.6 2.1h-.9l-2.3-.1h-.7c-.2 1.9-.3 3.3-.3 4.4-.1 1-.1 2.2-.1 3.5v7.6l-.3.1c-.5 0-.9.1-1.2.1-.3 0-.7.1-1.3.2l-.4.1v-.4c0-.9 0-2.1-.2-3.7-.1-1.5-.2-2.9-.2-3.9v-8.200000000000001h-1c-.4 0-.8 0-1.5.1-.6 0-1.2.1-1.5.1h-.4v-1.9zm-17.4 9.8v-4.8l.1-3v-1.6l.1-1v-.3h.3c1.5-.1 2.6-.2 3.5-.2h1.3l.1.2c.7 1.9 1.3 3.4 1.8 4.5.5 1.2 1.1 2.4 1.7 3.7l1.5 3.1.1-2.6.1-4.4v-1.9c0-.6.1-1.1.1-1.6l.2-1.3v-.3h.3c.9-.1 1.7-.1 2.5-.1h.8v.4l-.1 2.1c0 1.1-.1 2.8-.2 5.1s-.2 4.1-.2 5.4l-.1 5.5v.4l-4 .1-.1-.2c-.9-1.7-1.8-3.5-2.7-5.3-.9-1.8-1.6-3.2-2-4.1l-1.2-2.8-.2-.4c0 1.2-.1 2.7-.2 4.2-.1 1.6-.2 2.9-.2 3.9v5l-.3.1c-.8.1-1.4.1-1.6.1h-.5c-.4 0-.7-.1-.7-.3-.1-.2-.1-.5-.2-1v-6.6zm-15.4 5.5v-9.8c0-.7 0-1.7.1-3.2.1-1.5.1-2.6.1-3.3v-.3h.3l1.5-.1 3.5-.1 2.9-.1 1.5-.1h2.1v.2l.1 2v.7h-.3l-.9.1h-1.2l-2.5.2c-.3 0-1.5.2-3.5.4-.1.5-.1 1-.1 1.6v2.3h8.1v.3l.1.7.1.9v1h-1.2000000000000002l-2.1.1-3 .2-1.6.1-.6.1v4.800000000000001l8.8.2.1.3.1 1.6v.8999999999999999h-.4l-2.4.1-3.3.2-3.1.2-2.3.1h-.9v-2.3zm-17.8-15.8l.8-.1c.3 0 .6-.1.8-.1.2 0 .5-.1.8-.2l.3-.1.1.3.6 1.6.9 2.8c.2.8.6 1.8 1.1 3.3.5 1.4.8 2.5 1.1 3.1l.6 1.6c1.7-3.8 3-6.8 3.8-9l1.1-2.9.6-1.4.2-.4.4.2 2.1 1.2.3.1-.1.3-.6 1.6-2 5.7-1.6 4.2-1.1 3.1-.8 2.3-.1.2h-.2l-1.8.5-1.8.5-.3.1-.1-.3-.3-.7c-.1-.2-.2-.4-.2-.5l-1.1-3.3-.8-2.7-1.6-5.6-1.1-4-.2-.8-.1-.4.3-.2zm-17.8 10.3v-4.8l.1-3v-1.6l.1-1v-.3h.3c1.5-.1 2.6-.2 3.5-.2h1.3l.1.2c.7 1.9 1.3 3.4 1.8 4.5.5 1.2 1.1 2.4 1.7 3.7l1.5 3.1.1-2.6.1-4.4v-1.9c0-.6.1-1.1.1-1.6l.2-1.3v-.3h.3c.9-.1 1.7-.1 2.5-.1h.8v.4l-.1 2.1c0 1.1-.1 2.8-.2 5.1s-.2 4.1-.2 5.4l-.1 5.5v.4l-4 .1-.1-.2c-.9-1.7-1.8-3.5-2.7-5.3-.9-1.8-1.6-3.2-2-4.1l-1.2-2.8-.2-.4c0 1.2-.1 2.7-.2 4.2-.1 1.6-.2 2.9-.2 3.9v5l-.3.1c-.8.1-1.4.1-1.6.1h-.5c-.4 0-.7-.1-.7-.3-.1-.2-.1-.5-.2-1v-6.6zm-17.4-8.8c1.6-2 3.7-3 6.3-3 2.3 0 4.2.8 5.6 2.4s2.1 3.8 2.1 6.5c0 3.3-.8 5.9-2.3 7.8-1.6 1.9-3.7 2.9-6.3 2.9-1.2 0-2.3-.2-3.2-.6-.9-.4-1.5-.9-2-1.5s-.8-1-1-1.3c-.2-.2-.5-.7-.9-1.4s-.6-2-.6-4c0-3.1.8-5.8 2.3-7.8zm-16.8.4c1.8-2.2 3.9-3.4 6.6-3.4 1.7 0 3 .5 4 1.5s1.5 2.2 1.5 3.8c0 .9-.2 1.4-.5 1.7-.3.2-1.2.4-2.5.4h-.4v-.4c0-2.5-.7-3.8-2.2-3.8-1.5 0-2.8.9-3.9 2.6-1.1 1.7-1.6 3.7-1.6 6.1 0 1.5.3 2.5.8 3.2.5.7 1.4 1 2.6 1 .8 0 1.6-.1 2.4-.4.8-.2 1.5-.6 2.1-1.1l1-.8.3-.2.7.8c.6.7 1 1.2 1 1.6 0 .7-.8 1.5-2.4 2.4-1.6.9-3.2 1.3-5 1.3-2.2 0-3.9-.7-5.2-2.1-1.3-1.4-2-3.3-2-5.7.1-3.5 1-6.3 2.7-8.5z"/></svg>