<svg xmlns="http://www.w3.org/2000/svg" width="720.48" height="307.637" viewBox="0 0 720.4804077 307.637207" enable-background="new 0 0 720.4804077 307.637207"><path d="M438.775 0h73.016l-73.996 82.862 77.839 97.868h-76.859l-73.869-97.357 73.869-83.372zm-105.681 180.73h54.362v-180.73h-56.078v85.789l-56.569-85.789h-54.442v180.73h57.222v-80.071l55.504 80.071z" fill-rule="evenodd" clip-rule="evenodd" fill="#E53830"/><path d="M28.252 244.711h-.177l-16.722-27.169h-11.481v41.636h9.774l-.235-27.228h.177l16.781 27.228h11.422v-41.636h-9.774l.235 27.169zm24.988 14.467h10.127v-41.636h-10.127v41.636zm51.542-9.291c-1.492.785-3.238 1.176-5.24 1.176-1.728 0-3.317-.313-4.769-.941-1.453-.627-2.699-1.5-3.739-2.617-1.041-1.117-1.855-2.46-2.443-4.028-.589-1.568-.883-3.293-.883-5.175 0-1.842.294-3.538.883-5.087.589-1.548 1.413-2.891 2.473-4.028 1.06-1.136 2.326-2.029 3.798-2.676 1.472-.647 3.091-.97 4.858-.97 1.609 0 3.18.314 4.71.941 1.531.628 2.767 1.588 3.709 2.882l6.83-6.822c-1.766-1.999-4.073-3.518-6.918-4.557-2.846-1.038-5.741-1.558-8.685-1.558-3.179 0-6.144.51-8.891 1.529-2.748 1.02-5.143 2.48-7.183 4.381-2.042 1.902-3.641 4.205-4.799 6.91-1.158 2.705-1.737 5.725-1.737 9.056 0 3.255.569 6.234 1.708 8.939 1.138 2.705 2.708 5.028 4.71 6.969 2.002 1.941 4.366 3.44 7.095 4.499 2.728 1.058 5.701 1.588 8.92 1.588 3.533 0 6.653-.617 9.362-1.852s4.984-2.911 6.83-5.028l-7.007-6.586c-.903 1.255-2.1 2.274-3.592 3.058zm47.945-16.584h-16.25v-15.76h-10.068v41.636h10.068v-17.407h16.25v17.407h10.068v-41.636h-10.068v15.76zm62.47-10.997c-2.022-1.882-4.426-3.332-7.213-4.352-2.787-1.019-5.81-1.529-9.067-1.529-3.259 0-6.271.51-9.038 1.529-2.767 1.02-5.162 2.47-7.183 4.352-2.022 1.882-3.602 4.166-4.74 6.851-1.139 2.686-1.708 5.695-1.708 9.027 0 3.293.569 6.302 1.708 9.027 1.138 2.725 2.718 5.057 4.74 6.998 2.021 1.941 4.416 3.44 7.183 4.499 2.767 1.058 5.779 1.588 9.038 1.588 3.258 0 6.28-.529 9.067-1.588 2.787-1.059 5.191-2.558 7.213-4.499 2.021-1.941 3.601-4.273 4.74-6.998 1.138-2.725 1.708-5.734 1.708-9.027 0-3.332-.569-6.341-1.708-9.027-1.139-2.685-2.719-4.969-4.74-6.851zm-5.211 21.083c-.589 1.588-1.413 2.95-2.473 4.087-1.06 1.138-2.317 2.029-3.768 2.676-1.453.647-3.062.97-4.828.97s-3.376-.323-4.828-.97c-1.453-.647-2.699-1.538-3.739-2.676-1.041-1.137-1.855-2.499-2.443-4.087-.589-1.588-.883-3.323-.883-5.205 0-1.803.284-3.489.854-5.057.569-1.568 1.384-2.911 2.443-4.028 1.06-1.117 2.316-1.999 3.768-2.646 1.452-.647 3.062-.97 4.828-.97s3.385.323 4.858.97c1.472.647 2.728 1.529 3.768 2.646 1.039 1.117 1.854 2.461 2.443 4.028.589 1.568.883 3.255.883 5.057 0 1.882-.294 3.617-.883 5.205zm35.115-25.846h-10.127v41.636h26.26v-8.762h-16.133v-32.873zm42.48 0l-17.487 41.636h10.952l3.062-8.174h16.133l3.239 8.174h11.187l-17.31-41.636h-9.774zm-.589 25.405l5.299-14.29 5.181 14.29h-10.48zm49.993-17.319c.549-.333 1.167-.559 1.855-.676.686-.118 1.363-.176 2.031-.176 1.295 0 2.639.323 4.033.97 1.393.647 2.522 1.52 3.385 2.617l6.418-6.763c-1.845-1.685-3.995-2.96-6.447-3.823-2.454-.862-4.858-1.294-7.213-1.294-1.963 0-3.906.245-5.829.735-1.924.491-3.651 1.264-5.181 2.323-1.531 1.059-2.767 2.411-3.709 4.058-.942 1.647-1.413 3.627-1.413 5.94 0 1.882.304 3.48.913 4.793.608 1.314 1.413 2.431 2.414 3.352 1.001.922 2.139 1.676 3.415 2.264 1.275.588 2.581 1.098 3.916 1.529 1.373.432 2.6.833 3.68 1.206 1.079.373 1.982.785 2.708 1.235.726.451 1.285.951 1.678 1.5.392.549.589 1.216.589 2 0 .823-.157 1.529-.471 2.117-.315.588-.736 1.059-1.266 1.411-.53.353-1.148.608-1.855.765-.707.157-1.433.235-2.178.235-1.649 0-3.307-.421-4.975-1.264-1.669-.843-3.013-1.891-4.033-3.146l-6.594 6.704c1.845 1.921 4.16 3.402 6.948 4.44 2.787 1.038 5.672 1.558 8.655 1.558 2.041 0 4.023-.275 5.947-.823 1.923-.549 3.63-1.391 5.122-2.529 1.491-1.136 2.679-2.577 3.562-4.322.883-1.744 1.325-3.812 1.325-6.204 0-2.078-.412-3.812-1.236-5.204-.824-1.391-1.865-2.558-3.121-3.499-1.257-.941-2.65-1.695-4.18-2.264-1.531-.568-3.003-1.088-4.416-1.558-.982-.313-1.865-.618-2.65-.911-.786-.294-1.463-.617-2.031-.97-.569-.353-1.001-.765-1.295-1.235-.294-.47-.442-1.058-.442-1.764 0-.823.186-1.5.559-2.029.373-.529.833-.96 1.384-1.294zm91.026-8.086h-12.6l-14.896 16.937h-.177v-16.937h-9.833v41.636h9.833v-19.171h.118l15.485 19.171h13.13l-19.018-22.464 17.958-19.171zm21.344 24.405h17.31v-8.057h-17.31v-7.88h18.311v-8.468h-28.026v41.636h29.086v-8.586h-19.371v-8.645zm29.033-15.819h11.776v33.05h10.068v-33.05h11.776v-8.586h-33.62v8.586zm70.325 23.758c-1.492.785-3.238 1.176-5.24 1.176-1.728 0-3.318-.313-4.769-.941-1.453-.627-2.699-1.5-3.739-2.617-1.041-1.117-1.855-2.46-2.444-4.028-.589-1.568-.883-3.293-.883-5.175 0-1.842.294-3.538.883-5.087.589-1.548 1.413-2.891 2.473-4.028 1.06-1.136 2.326-2.029 3.798-2.676 1.472-.647 3.091-.97 4.857-.97 1.609 0 3.179.314 4.71.941 1.531.628 2.767 1.588 3.709 2.882l6.83-6.822c-1.766-1.999-4.073-3.518-6.918-4.557-2.847-1.038-5.741-1.558-8.685-1.558-3.179 0-6.144.51-8.891 1.529-2.748 1.02-5.143 2.48-7.183 4.381-2.042 1.902-3.641 4.205-4.799 6.91-1.158 2.705-1.737 5.725-1.737 9.056 0 3.255.569 6.234 1.707 8.939 1.138 2.705 2.708 5.028 4.71 6.969 2.002 1.941 4.366 3.44 7.095 4.499 2.728 1.058 5.701 1.588 8.92 1.588 3.533 0 6.653-.617 9.362-1.852 2.708-1.235 4.984-2.911 6.83-5.028l-7.007-6.586c-.903 1.255-2.1 2.274-3.592 3.058zm47.945-16.584h-16.25v-15.76h-10.068v41.636h10.068v-17.407h16.25v17.407h10.068v-41.636h-10.068v15.76zm50.936 9.35c0 1.137-.138 2.215-.412 3.234-.275 1.02-.727 1.931-1.354 2.734-.628.804-1.443 1.441-2.443 1.911-1.001.47-2.208.706-3.621.706-1.413 0-2.62-.235-3.621-.706-1.001-.47-1.806-1.107-2.414-1.911-.609-.803-1.06-1.715-1.354-2.734-.294-1.019-.442-2.097-.442-3.234v-25.111h-10.009v25.934c0 2.509.412 4.793 1.236 6.851.824 2.058 2.002 3.823 3.533 5.293 1.531 1.47 3.395 2.617 5.594 3.44 2.198.823 4.671 1.235 7.419 1.235 2.708 0 5.171-.412 7.389-1.235 2.217-.823 4.111-1.97 5.682-3.44 1.569-1.47 2.776-3.234 3.621-5.293.844-2.058 1.266-4.342 1.266-6.851v-25.934h-10.068v25.111zm58.324-25.111l-9.078 26.699h-.236l-9.491-26.699h-14.325v41.636h9.479l-.236-29.462h.177l10.539 29.462h7.066l10.834-29.462h.177l-.236 29.462h9.892v-41.636h-14.562z" fill="#fff"/><path d="M48.809 290.538c-.529-.394-1.163-.688-1.902-.881-.739-.193-1.562-.289-2.469-.289h-5.039v17.817h1.814v-8.279h3.175c.907 0 1.734-.101 2.482-.302.747-.201 1.386-.499 1.915-.893.529-.394.941-.889 1.235-1.485.294-.595.441-1.296.441-2.101 0-.805-.143-1.506-.428-2.101-.286-.595-.693-1.09-1.222-1.485zm-1.272 6.002c-.739.554-1.823.831-3.25.831h-3.074v-6.442h3.074c1.377 0 2.448.256 3.212.767.764.512 1.146 1.321 1.146 2.428 0 1.057-.37 1.862-1.109 2.416zm20.106 1.711c.554-.235 1.033-.549 1.436-.944.403-.394.722-.86.958-1.397.235-.537.353-1.132.353-1.787 0-.872-.151-1.61-.454-2.214-.302-.604-.727-1.095-1.272-1.472-.546-.377-1.193-.65-1.94-.818-.748-.167-1.558-.252-2.431-.252h-5.241v17.817h1.814v-8.33h3.023l4.938 8.33h2.217l-5.216-8.481c.655-.067 1.26-.218 1.814-.453zm-6.778-.956v-6.367h3.225c.672 0 1.285.059 1.839.176.554.118 1.024.302 1.411.554.386.252.688.579.907.981.218.403.328.898.328 1.485 0 1.057-.395 1.85-1.184 2.378-.79.528-1.915.793-3.376.793h-3.149zm33.296-5.725c-.832-.83-1.814-1.48-2.948-1.95-1.134-.469-2.364-.705-3.691-.705s-2.557.235-3.691.705-2.116 1.12-2.948 1.95c-.832.83-1.483 1.816-1.953 2.957-.471 1.141-.706 2.391-.706 3.75s.235 2.609.706 3.75c.47 1.141 1.121 2.126 1.953 2.957.831.83 1.814 1.481 2.948 1.95 1.134.469 2.364.705 3.691.705s2.557-.235 3.691-.705c1.134-.469 2.116-1.12 2.948-1.95.831-.83 1.482-1.816 1.953-2.957.47-1.141.705-2.391.705-3.75s-.235-2.609-.705-3.75-1.121-2.126-1.953-2.957zm.239 9.684c-.336.938-.823 1.759-1.461 2.462-.638.703-1.415 1.265-2.331 1.683-.916.419-1.944.628-3.086.628s-2.171-.209-3.086-.628c-.916-.419-1.692-.98-2.331-1.683-.639-.703-1.125-1.524-1.461-2.462-.336-.938-.504-1.926-.504-2.965 0-1.038.168-2.027.504-2.965.336-.938.823-1.763 1.461-2.475.638-.712 1.415-1.277 2.331-1.696.915-.419 1.944-.628 3.086-.628s2.171.21 3.086.628c.916.419 1.692.984 2.331 1.696.638.712 1.125 1.537 1.461 2.475.336.938.504 1.926.504 2.965s-.168 2.027-.504 2.965zm11.237 5.931h1.814v-8.43h8.315v-1.611h-8.315v-6.165h8.945v-1.611h-10.759v17.817zm21.013-8.481h8.642v-1.611h-8.642v-6.115h9.247v-1.611h-11.061v17.817h11.363v-1.611h-9.549v-6.87zm26.737.164c-.503-.377-1.068-.683-1.696-.918-.628-.235-1.252-.453-1.872-.654-.503-.167-.984-.335-1.445-.503-.461-.167-.871-.381-1.231-.642-.36-.26-.649-.574-.867-.944-.218-.369-.326-.839-.326-1.409 0-.57.113-1.065.34-1.485.227-.419.525-.768.894-1.044.369-.277.781-.482 1.235-.616.454-.134.898-.201 1.335-.201.857 0 1.587.164 2.192.491.605.327 1.1.759 1.486 1.296l1.436-1.158c-.437-.587-1.083-1.095-1.94-1.522-.857-.428-1.89-.642-3.099-.642-.655 0-1.319.092-1.99.277-.672.185-1.285.478-1.839.881s-1.004.915-1.348 1.535c-.344.621-.517 1.359-.517 2.214 0 .805.139 1.485.416 2.038.277.554.642 1.019 1.096 1.397.454.377.966.684 1.537.919s1.15.445 1.739.629c.571.185 1.117.369 1.638.554.521.185.983.415 1.386.692.403.277.726.621.97 1.032.243.411.365.927.365 1.548 0 .571-.122 1.069-.365 1.497-.244.428-.554.789-.932 1.082-.378.294-.802.512-1.272.654-.471.143-.932.214-1.386.214-.941 0-1.76-.214-2.456-.642-.697-.428-1.239-.96-1.625-1.598l-1.562 1.158c.319.436.689.822 1.109 1.157.42.336.873.613 1.361.831.487.218.999.381 1.537.491.537.109 1.075.164 1.613.164.706 0 1.407-.101 2.104-.302.697-.201 1.316-.512 1.859-.931.542-.419.983-.952 1.323-1.598.339-.646.509-1.413.509-2.303 0-.889-.159-1.623-.478-2.202-.318-.579-.729-1.057-1.231-1.434zm19.249 0c-.503-.377-1.068-.683-1.696-.918-.628-.235-1.252-.453-1.872-.654-.503-.167-.984-.335-1.445-.503-.461-.167-.871-.381-1.231-.642-.36-.26-.649-.574-.867-.944-.218-.369-.326-.839-.326-1.409 0-.57.113-1.065.34-1.485.227-.419.525-.768.895-1.044.369-.277.781-.482 1.234-.616.454-.134.898-.201 1.335-.201.857 0 1.587.164 2.192.491s1.1.759 1.487 1.296l1.436-1.158c-.437-.587-1.083-1.095-1.94-1.522-.857-.428-1.89-.642-3.099-.642-.655 0-1.319.092-1.99.277-.672.185-1.285.478-1.839.881s-1.004.915-1.348 1.535c-.344.621-.516 1.359-.516 2.214 0 .805.139 1.485.416 2.038s.642 1.019 1.096 1.397.966.684 1.537.919 1.15.445 1.738.629c.571.185 1.117.369 1.638.554.521.185.983.415 1.386.692.403.277.726.621.97 1.032.243.411.365.927.365 1.548 0 .571-.122 1.069-.365 1.497-.244.428-.554.789-.932 1.082-.378.294-.802.512-1.272.654-.471.143-.932.214-1.386.214-.941 0-1.76-.214-2.457-.642-.697-.428-1.239-.96-1.625-1.598l-1.562 1.158c.319.436.689.822 1.109 1.157.42.336.873.613 1.361.831.487.218.999.381 1.537.491.537.109 1.075.164 1.612.164.706 0 1.407-.101 2.104-.302s1.317-.512 1.859-.931c.542-.419.983-.952 1.323-1.598.339-.646.509-1.413.509-2.303 0-.889-.16-1.623-.477-2.202-.318-.579-.729-1.057-1.231-1.434zm10.653 8.317h1.814v-17.817h-1.814v17.817zm26.568-15.615c-.831-.83-1.814-1.48-2.948-1.95-1.134-.469-2.365-.705-3.691-.705-1.327 0-2.557.235-3.691.705s-2.116 1.12-2.948 1.95c-.831.83-1.483 1.816-1.953 2.957-.47 1.141-.705 2.391-.705 3.75s.235 2.609.705 3.75 1.121 2.126 1.953 2.957c.832.83 1.814 1.481 2.948 1.95 1.134.469 2.364.705 3.691.705s2.557-.235 3.691-.705c1.134-.469 2.116-1.12 2.948-1.95.832-.83 1.482-1.816 1.953-2.957.47-1.141.706-2.391.706-3.75s-.235-2.609-.706-3.75c-.47-1.141-1.121-2.126-1.953-2.957zm.239 9.684c-.336.938-.823 1.759-1.461 2.462-.639.703-1.415 1.265-2.331 1.683-.916.419-1.944.628-3.087.628-1.142 0-2.171-.209-3.086-.628-.916-.419-1.693-.98-2.331-1.683-.639-.703-1.126-1.524-1.461-2.462-.336-.938-.504-1.926-.504-2.965 0-1.038.168-2.027.504-2.965.336-.938.823-1.763 1.461-2.475.638-.712 1.415-1.277 2.331-1.696.915-.419 1.944-.628 3.086-.628s2.171.21 3.087.628c.915.419 1.692.984 2.331 1.696.638.712 1.125 1.537 1.461 2.475.336.938.504 1.926.504 2.965s-.168 2.027-.504 2.965zm23.936 3.289h-.051l-10.38-15.174h-2.268v17.817h1.814v-15.325h.05l10.381 15.325h2.268v-17.817h-1.814v15.174zm17.183-15.174l-7.71 17.817h1.99l1.94-4.681h9.222l1.965 4.681h2.016l-7.659-17.817h-1.764zm-3.099 11.475l3.931-9.462 3.931 9.462h-7.861zm21.996-11.475h-1.814v17.817h10.129v-1.611h-8.315v-16.206zm26.808 17.817h1.814v-8.43h8.315v-1.611h-8.315v-6.165h8.944v-1.611h-10.759v17.817zm30.638-6.845c0 .721-.084 1.422-.252 2.101-.168.68-.441 1.283-.819 1.812-.378.529-.878.956-1.499 1.283-.622.327-1.386.491-2.293.491-.907 0-1.672-.164-2.293-.491-.622-.327-1.121-.755-1.499-1.283-.378-.528-.651-1.132-.819-1.812-.168-.679-.252-1.38-.252-2.101v-10.972h-1.814v11.173c0 .738.096 1.522.29 2.353.193.83.542 1.598 1.046 2.303.504.705 1.184 1.288 2.041 1.749.857.461 1.957.692 3.301.692 1.327 0 2.423-.231 3.288-.692.865-.461 1.55-1.044 2.053-1.749s.852-1.472 1.046-2.303c.193-.83.29-1.615.29-2.353v-11.173h-1.814v10.972zm13.303-10.972h-1.814v17.817h10.129v-1.611h-8.315v-16.206zm17.889 0h-1.814v17.817h10.129v-1.611h-8.315v-16.206zm14.009 12.431h5.644v-1.434h-5.644v1.434zm22.555-2.932c-.503-.377-1.068-.683-1.696-.918-.628-.235-1.252-.453-1.871-.654-.503-.167-.984-.335-1.445-.503-.461-.167-.871-.381-1.231-.642-.36-.26-.649-.574-.867-.944-.218-.369-.326-.839-.326-1.409 0-.57.114-1.065.34-1.485.227-.419.525-.768.895-1.044.369-.277.781-.482 1.235-.616.454-.134.898-.201 1.335-.201.857 0 1.587.164 2.192.491s1.1.759 1.487 1.296l1.436-1.158c-.437-.587-1.083-1.095-1.94-1.522-.857-.428-1.89-.642-3.099-.642-.655 0-1.319.092-1.99.277-.672.185-1.285.478-1.839.881s-1.004.915-1.348 1.535c-.344.621-.516 1.359-.516 2.214 0 .805.139 1.485.416 2.038.277.554.642 1.019 1.096 1.397s.966.684 1.537.919 1.15.445 1.739.629c.571.185 1.117.369 1.638.554.521.185.983.415 1.386.692.403.277.726.621.97 1.032.243.411.365.927.365 1.548 0 .571-.122 1.069-.365 1.497-.244.428-.554.789-.932 1.082-.378.294-.802.512-1.272.654-.47.143-.932.214-1.386.214-.941 0-1.76-.214-2.457-.642-.697-.428-1.239-.96-1.625-1.598l-1.562 1.158c.319.436.688.822 1.109 1.157.42.336.873.613 1.361.831.487.218.999.381 1.537.491.537.109 1.075.164 1.613.164.706 0 1.407-.101 2.104-.302.697-.201 1.317-.512 1.859-.931.542-.419.983-.952 1.323-1.598.339-.646.509-1.413.509-2.303 0-.889-.159-1.623-.478-2.202-.318-.579-.729-1.057-1.231-1.434zm8.134-7.889h5.971v16.206h1.814v-16.206h5.971v-1.611h-13.757v1.611zm25.548-1.611l-7.71 17.817h1.99l1.94-4.681h9.222l1.965 4.681h2.016l-7.66-17.817h-1.764zm-3.099 11.475l3.93-9.462 3.93 9.462h-7.861zm31.016 4.555c-.924.419-1.898.629-2.923.629-1.142 0-2.171-.209-3.087-.627-.916-.418-1.692-.982-2.331-1.693-.638-.71-1.13-1.534-1.474-2.47-.344-.937-.517-1.923-.517-2.96 0-1.036.168-2.023.504-2.96.336-.937.823-1.76 1.461-2.471.638-.71 1.415-1.275 2.331-1.693.915-.418 1.953-.627 3.112-.627.571 0 1.104.067 1.6.201.495.135.953.311 1.373.528.42.218.785.47 1.096.755.311.285.558.571.743.856l1.512-1.107c-.302-.436-.68-.827-1.134-1.174-.454-.346-.958-.643-1.512-.89s-1.146-.439-1.776-.575c-.63-.136-1.272-.204-1.927-.204-1.327 0-2.557.235-3.691.705s-2.116 1.12-2.948 1.95c-.832.83-1.483 1.816-1.953 2.957-.47 1.141-.705 2.391-.705 3.75s.231 2.609.693 3.75c.462 1.141 1.104 2.126 1.927 2.957.823.83 1.805 1.481 2.948 1.95 1.142.469 2.385.705 3.729.705.806 0 1.55-.09 2.23-.268.68-.179 1.302-.422 1.865-.729s1.058-.662 1.486-1.066c.428-.403.794-.832 1.096-1.285l-1.411-.906c-.622.923-1.394 1.594-2.318 2.013zm24.817-16.03h-2.595l-8.491 8.002h-.025v-8.002h-1.814v17.817h1.814v-9.487h.025l8.919 9.487h2.671l-9.499-9.739 8.995-8.078zm31.255 2.227c-.899-.746-1.907-1.304-3.023-1.673-1.117-.369-2.23-.554-3.339-.554h-5.921v17.817h5.921c1.109 0 2.221-.184 3.339-.554 1.117-.369 2.125-.927 3.023-1.674.898-.746 1.625-1.673 2.179-2.781.554-1.107.831-2.407.831-3.901 0-1.476-.277-2.772-.831-3.888-.554-1.115-1.281-2.047-2.179-2.793zm.604 9.374c-.327.873-.819 1.648-1.474 2.328-.655.68-1.483 1.229-2.482 1.648-1 .42-2.171.629-3.515.629h-3.603v-14.596h3.603c1.344 0 2.515.21 3.515.629.999.42 1.827.969 2.482 1.648.655.679 1.146 1.456 1.474 2.328.328.872.491 1.77.491 2.693s-.164 1.82-.491 2.693zm13.039-2.265h8.642v-1.611h-8.642v-6.115h9.247v-1.611h-11.061v17.817h11.363v-1.611h-9.549v-6.87zm23.658 6.14h-.05l-5.795-15.476h-1.965l6.803 17.817h1.915l6.828-17.817h-1.94l-5.795 15.476zm17.032-6.14h8.642v-1.611h-8.642v-6.115h9.247v-1.611h-11.061v17.817h11.363v-1.611h-9.549v-6.87zm19.955-9.336h-1.814v17.817h10.129v-1.611h-8.315v-16.206zm30.297 2.202c-.831-.83-1.814-1.48-2.948-1.95-1.134-.469-2.365-.705-3.691-.705-1.327 0-2.557.235-3.691.705s-2.117 1.12-2.948 1.95c-.832.83-1.483 1.816-1.953 2.957-.47 1.141-.705 2.391-.705 3.75s.235 2.609.705 3.75 1.121 2.126 1.953 2.957c.831.83 1.814 1.481 2.948 1.95 1.134.469 2.364.705 3.691.705s2.557-.235 3.691-.705c1.134-.469 2.116-1.12 2.948-1.95s1.482-1.816 1.953-2.957c.47-1.141.705-2.391.705-3.75s-.235-2.609-.705-3.75-1.121-2.126-1.953-2.957zm.239 9.684c-.336.938-.823 1.759-1.461 2.462-.639.703-1.415 1.265-2.331 1.683-.916.419-1.944.628-3.087.628-1.142 0-2.171-.209-3.086-.628-.916-.419-1.692-.98-2.331-1.683-.639-.703-1.125-1.524-1.461-2.462-.336-.938-.504-1.926-.504-2.965 0-1.038.168-2.027.504-2.965.336-.938.823-1.763 1.461-2.475.638-.712 1.415-1.277 2.331-1.696.915-.419 1.944-.628 3.086-.628s2.171.21 3.087.628c.915.419 1.692.984 2.331 1.696.638.712 1.125 1.537 1.461 2.475.336.938.504 1.926.504 2.965s-.168 2.027-.504 2.965zm20.648-10.715c-.529-.394-1.163-.688-1.902-.881-.739-.193-1.562-.289-2.469-.289h-5.039v17.817h1.814v-8.279h3.175c.907 0 1.734-.101 2.482-.302.747-.201 1.386-.499 1.915-.893.529-.394.941-.889 1.234-1.485.294-.595.441-1.296.441-2.101 0-.805-.143-1.506-.428-2.101-.286-.595-.693-1.09-1.222-1.485zm-1.272 6.002c-.74.554-1.823.831-3.25.831h-3.074v-6.442h3.074c1.377 0 2.448.256 3.212.767.764.512 1.146 1.321 1.146 2.428 0 1.057-.37 1.862-1.109 2.416zm13.328 2.164h8.642v-1.611h-8.642v-6.115h9.247v-1.611h-11.061v17.817h11.363v-1.611h-9.549v-6.87zm24.918 0c.655-.067 1.26-.218 1.814-.453.554-.235 1.033-.549 1.436-.944.403-.394.722-.86.957-1.397s.353-1.132.353-1.787c0-.872-.151-1.61-.453-2.214-.302-.604-.727-1.095-1.272-1.472-.546-.377-1.193-.65-1.94-.818-.748-.167-1.558-.252-2.431-.252h-5.241v17.817h1.814v-8.33h3.023l4.938 8.33h2.217l-5.216-8.481zm-4.963-1.409v-6.367h3.225c.672 0 1.285.059 1.839.176.554.118 1.024.302 1.411.554.386.252.689.579.907.981.218.403.328.898.328 1.485 0 1.057-.395 1.85-1.184 2.378-.79.528-1.915.793-3.376.793h-3.149z" fill="#A0A0A0"/></svg>