<?xml version="1.0" encoding="utf-8"?>
<!-- Generator: Adobe Illustrator 19.0.0, SVG Export Plug-In . SVG Version: 6.00 Build 0)  -->
<svg version="1.1" id="Layer_1" xmlns="http://www.w3.org/2000/svg" xmlns:xlink="http://www.w3.org/1999/xlink" x="0px" y="0px"
	 viewBox="0 0 800 800" style="enable-background:new 0 0 800 800;" xml:space="preserve">
<style type="text/css">
	.st0{fill:#FFFFFF;}
</style>
<path class="st0" d="M208.975,507.879c-5.631-3.19-9.695-4.42-14.307-4.42c-11.415,0-20.077,8.762-20.077,20.309
	c0,11.25,8.179,19.548,19.323,19.548c5.228,0,10.111-1.456,15.061-4.573v4.017c-4.811,2.687-10.111,4.136-14.988,4.136
	c-13.625,0-23.313-9.589-23.313-23.207c0-13.374,10.515-23.823,24.068-23.823c4.606,0,9.152,1.231,14.234,3.937V507.879z"/>
<polygon class="st0" points="261.374,546.421 257.682,546.421 257.682,524.809 228.923,524.809 228.923,546.421 225.217,546.421 
	225.217,500.344 228.923,500.344 228.923,521.361 257.682,521.361 257.682,500.344 261.374,500.344 "/>
<path class="st0" d="M306.31,527.01h-17.682l8.867-20.448L306.31,527.01z M307.746,530.464l6.538,15.961h4.328l-20.084-46.077
	h-2.124l-20.024,46.077h4.195l6.459-15.961H307.746z"/>
<polygon class="st0" points="373.08,546.421 369.374,546.421 369.374,506.28 353.353,527.079 337.385,506.28 337.385,546.421 
	333.666,546.421 333.666,500.344 337.729,500.344 353.353,521.057 369.44,500.344 373.08,500.344 "/>
<path class="st0" d="M396.392,542.966v-18.158h5.843c4.824,0,6.677,0.205,8.53,1.105c3.368,1.443,5.433,4.612,5.433,8.345
	c0,5.459-3.302,8.219-10.244,8.576c-1.443,0.066-4.189,0.132-5.148,0.132H396.392z M392.692,546.42h12.163
	c3.706,0,6.399-0.41,8.384-1.237c4.07-1.734,6.882-6.234,6.882-11.13c0-5.936-3.845-10.211-10.515-11.547
	c4.672-2.488,6.743-5.499,6.743-9.939c0-3.865-1.661-7.319-4.487-9.595c-2.528-2.144-4.592-2.627-10.396-2.627h-8.775V546.42z
	 M396.392,521.36v-17.556h4.738c3.322,0,5.446,0.351,7.014,1.185c2.548,1.37,4.281,4.341,4.281,7.451
	c0,2.898-1.237,5.261-3.779,6.968c-1.998,1.456-4.341,1.952-9.225,1.952H396.392z"/>
<polygon class="st0" points="440.689,521.421 460.567,521.421 460.567,524.869 440.689,524.869 440.689,542.961 461.394,542.961 
	461.394,546.422 436.976,546.422 436.976,500.345 460.839,500.345 460.839,503.799 440.689,503.799 "/>
<path class="st0" d="M481.746,521.123v-17.318h7.16c3.858,0,5.704,0.351,7.273,1.323c2.137,1.376,3.52,3.984,3.52,6.962
	c0,2.687-1.237,5.188-3.58,6.975c-1.919,1.522-4.202,2.058-8.457,2.058H481.746z M478.033,546.421h3.712v-21.824h5.029
	c6.048,0,7.021,0.695,11.415,7.795l8.728,14.029h4.539c-0.49-0.754-0.827-1.383-0.946-1.588c-2.839-4.057-2.283-3.176-4.42-6.763
	c-0.622-0.973-1.502-2.508-2.812-4.427c-1.866-2.971-2.74-4.407-3.52-5.459c-2.124-3.236-2.998-4.136-4.467-4.897
	c5.453-1.866,8.331-5.737,8.331-11.064c0-3.58-1.582-7.028-4.268-9.33c-2.276-1.86-4.817-2.548-9.767-2.548h-11.554V546.421z"/>
<polygon class="st0" points="103.706,420.101 129.348,420.101 129.348,423.556 100,423.556 100,377.485 103.706,377.485 "/>
<path class="st0" d="M174.535,404.144h-17.682l8.867-20.435L174.535,404.144z M175.971,407.611l6.531,15.948h4.334l-20.077-46.077
	h-2.137l-20.018,46.077h4.195l6.472-15.948H175.971z"/>
<polygon class="st0" points="243.931,423.559 241.032,423.559 208.23,384.602 208.23,423.559 204.511,423.559 204.511,377.482 
	207.125,377.482 240.212,417.127 240.212,377.482 243.931,377.482 "/>
<path class="st0" d="M286.359,384.738c-3.375-2.898-6.326-4.149-9.906-4.149c-4.818,0-8.662,3.653-8.662,8.298
	c0,4.149,1.992,6.359,8.53,9.443c9.35,4.354,11.839,7.206,11.839,13.275c0,7.193-5.301,12.447-12.593,12.447
	c-3.931,0-7.776-1.39-11.084-3.951v-4.824c4.546,3.865,7.094,5.115,10.806,5.115c5.301,0,8.953-3.388,8.953-8.298
	c0-2.892-1.046-5.115-3.176-6.717c-1.588-1.158-2.197-1.502-6.67-3.573c-8.12-3.865-10.528-6.789-10.528-12.646
	c0-7.041,5.162-12.163,12.388-12.163c3.362,0,6.73,1.105,10.105,3.249V384.738z"/>
<rect x="307.548" y="377.481" class="st0" width="3.712" height="46.077"/>
<polygon class="st0" points="370.261,423.559 367.389,423.559 334.574,384.602 334.574,423.559 330.855,423.559 330.855,377.482 
	333.482,377.482 366.549,417.127 366.549,377.482 370.261,377.482 "/>
<path class="st0" d="M426.816,401.935v18.516c-6.055,2.574-10.535,3.606-15.346,3.606c-13.334,0-23.79-10.098-23.79-23.095
	c0-13.744,10.178-23.968,23.79-23.968c4.963,0,9.43,1.046,14.102,3.183v4.136c-5.565-2.693-9.423-3.726-13.963-3.726
	c-11.481,0-20.011,8.642-20.011,20.243c0,10.853,8.881,19.621,19.872,19.621c4.202,0,7.511-0.688,11.614-2.548v-12.52h-8.722v-3.448
	H426.816z"/>
<polygon class="st0" points="472.026,448.806 472.026,485.606 461.736,485.606 461.736,435.896 "/>
<polygon class="st0" points="560.052,439.836 583.815,468.437 583.815,447.539 594.132,458.59 594.132,485.603 584.841,485.603 
	560.853,456.784 560.853,485.603 550.556,485.603 550.556,439.836 "/>
<path class="st0" d="M321.256,459.074v-10.992h4.579c4.063,0,6.234,1.86,6.234,5.4c0,3.56-2.296,5.592-6.234,5.592H321.256z
	 M310.992,440.022v45.581h10.264v-18.661h1.026c3.752,0,6.399,2.19,8.709,7.107l5.367,11.554h12.103
	c-1.072-1.31-2.091-3.289-3.792-7.339c-3.481-8.113-5.453-11.25-8.92-13.923c5.234-2.799,7.206-5.803,7.206-10.945
	c0-8.186-6.121-13.374-15.769-13.374H310.992z"/>
<polygon class="st0" points="390.234,440.022 390.234,448.083 372.208,448.083 372.208,458.002 389.48,458.002 389.48,466.055 
	372.208,466.055 372.208,477.523 390.638,477.523 390.638,485.603 361.938,485.603 361.938,440.022 "/>
<path class="st0" d="M444.859,462.225v22.479c-2.786,0.9-8.775,1.582-13.797,1.582c-9.403,0-15.657-1.992-20.428-6.564
	c-4.341-4.176-6.876-10.396-6.876-16.815c0-13.863,10.614-23.637,25.722-23.637c5.102,0,9.939,1.012,14.221,3.077v9.079
	c-5.373-2.316-9.119-3.269-13.261-3.269c-9.331,0-15.776,5.87-15.776,14.406c0,9.172,6.445,14.909,16.649,14.909
	c1.039,0,1.84,0,3.269-0.066v-7.325h-4.619v-7.855H444.859z"/>
<path class="st0" d="M637.549,469.192h-14.208l6.598-18.31L637.549,469.192z M635.98,440.022h-11.488l-17.417,45.581h10.211
	l3.461-9.324h19.733l3.805,9.324h11.018L635.98,440.022z"/>
<polygon class="st0" points="678.91,440.022 678.91,477.523 700,477.523 700,485.603 668.64,485.603 668.64,440.022 "/>
<path class="st0" d="M536.475,462.062c0,13.321-10.8,24.14-24.12,24.14c-13.308,0-24.121-10.819-24.121-24.14
	c0-13.347,10.813-24.167,24.121-24.167C525.675,437.896,536.475,448.715,536.475,462.062 M512.355,447.722
	c-7.908,0-14.307,6.419-14.307,14.34c0,7.914,6.399,14.313,14.307,14.313c7.895,0,14.313-6.399,14.313-14.313
	C526.668,454.141,520.249,447.722,512.355,447.722"/>
<path class="st0" d="M381.711,253.105c2.733,0,5.168,0.238,7.345,1.257c1.959,0.94,3.58,2.382,5.175,3.911
	c4.301,4.136,9.006,10.045,5.042,15.968c-0.9,1.323-2.005,2.667-3.196,3.818c-3.243,3.13-7.782,5.843-9.82,9.82
	c-0.212,0.443-0.582,1.006-0.582,1.555c4.142,1.972,8.318,3.249,13.526,3.249c0.562-0.265,1.628-0.139,2.349-0.139
	c0.424-0.033,0.88-0.093,1.324-0.126c0.344-0.086,0.695-0.099,1.019-0.165c0.311-0.04,0.582-0.093,0.887-0.146
	c0.298-0.026,0.596-0.106,0.88-0.132c1.218-0.291,2.435-0.602,3.64-0.933c1.787-0.43,3.474-0.946,5.135-1.535
	c5.221-1.912,10.422-3.792,15.644-5.665c1.932-0.682,4.209-1.634,6.432-1.634c0.364-0.027,0.688-0.093,1.032-0.126
	c0.457-0.238,1.198-0.152,1.767-0.152c0.596-0.245,1.562-0.033,2.197,0c3.249,0.205,5.579,1.912,7.875,3.858
	c0.715,0.629,1.33,1.304,2.164,1.727c2.601,1.317,5.916,1.754,9.218,1.754c0.715-0.278,1.767-0.126,2.634-0.126
	c0.404-0.205,1.112-0.152,1.615-0.152c0.397-0.02,0.788-0.06,1.178-0.112c0.344-0.066,0.695-0.112,1.026-0.146
	c0.291-0.066,0.602-0.106,0.88-0.146c0.298-0.046,0.589-0.093,0.88-0.146c0.298-0.04,0.582-0.099,0.893-0.152
	c1.826-0.39,3.719-0.814,5.545-1.198c2.753-0.609,5.492-1.218,8.225-1.833c1.33-0.338,2.865-0.781,4.295-0.781
	c0.351-0.04,0.682-0.099,1.032-0.139c4.738-2.045,11.865,6.942,12.963,10.35c0.218,0.695,0.172,1.376,0.06,2.091
	c-0.477,2.806-2.68,5.062-4.447,7.259c-1.423,1.754-2.971,3.52-4.811,5.009c-1.668,1.31-3.64,2.164-5.181,3.745
	c-1.476,1.496-1.826,3.395-1.826,5.638c0,0.172-0.093,0.417,0.146,0.417c0.754,0.318,1.74,0.285,2.654,0.285
	c1.052-0.357,2.124-0.701,3.203-1.045c1.906-0.668,3.812-1.317,5.717-2.012c5.592-2.118,11.21-4.222,16.802-6.366
	c2.197-0.768,5.44-2.038,7.928-2.038c0.318-0.06,0.688-0.079,1.012-0.159c0.41-0.192,1.105-0.119,1.615-0.119
	c0.847-0.357,4.97-0.185,6.028-0.066c2.283,0.285,4.506,0.49,6.591,1.118c7.656,2.336,13.241,7.001,18.866,12.745
	c1.251,1.297,2.336,2.7,3.461,4.017c3.051,3.719,5.976,7.623,8.199,11.739c3.051,5.77,5.492,11.925,5.009,19.363
	c-0.463,7.14-4.407,12.692-7.848,18.416c-4.427,7.319-9.668,14.28-14.227,21.546c-3.348,5.353-7.266,11.263-7.266,18.158h0.139
	v-0.119c2.654-0.615,4.626-2.336,6.657-4.07c3.057-2.601,5.803-5.605,8.656-8.503c4.03-4.123,9.582-10.502,15.822-10.502
	c0.761-0.304,2.157-0.139,2.945-0.033c5.579,0.781,9.43,3.712,13.308,7.584c4.606,4.573,11.256,12.289,9.542,19.296
	c-0.682,2.726-2.012,5.142-3.018,7.663c-0.979,2.468-1.668,5.109-2.164,7.802c-0.384,2.045-0.715,4.639-0.265,6.736
	c0.265,1.125,1.105,1.959,1.105,3.123c-1.979-0.278-3.6-2.336-4.884-3.759c-1.522-1.628-2.912-3.434-3.825-5.4
	c-3.209-6.902-0.258-14.671,2.078-20.964c0.781-2.111,3.805-8.014,1.681-10.204c-0.682-0.695-1.8-0.986-2.673-1.284
	c-5.585-1.985-11.461,0.787-15.26,4.341c-3.395,3.143-6.512,6.512-9.761,9.82c-2.164,2.243-4.308,4.758-6.928,6.478
	c-3.104,2.012-6.995,3.15-10.634,1.257c-1.429-0.735-2.68-1.985-3.878-3.13c-1.416-1.383-2.773-2.773-3.865-4.321
	c-5.188-7.418-4.116-15.061-0.596-22.83c1.449-3.196,3.573-6.161,5.453-9.159c4.003-6.379,8.616-12.48,12.619-18.846
	c3.878-6.141,8.014-12.249,8.285-20.11c0.225-6.723-2.415-12.553-5.579-17.675c-2.654-4.288-7.12-7.16-11.878-8.669
	c-13.586-4.281-27.548,1.694-38.891,6.485c-2.012,0.735-4.03,1.469-6.042,2.23c-1.271,0.496-2.621,1.092-3.997,1.33
	c-1.992,0.337-3.891,0.053-5.565-0.563c-1.893-0.728-3.673-2.131-5.201-3.474c-3.487-3.07-6.776-6.545-8.967-10.403
	c-0.602-1.039-0.94-2.283-1.085-3.494c-0.285-2.422-0.212-5.241,1.085-7.16c0.516-0.794,1.363-1.641,2.144-2.243
	c0.814-0.596,6.287-4.136,6.287-4.884c0.199,0,0.139,0.053,0.139-0.139c-2.303,0.503-4.606,1.019-6.922,1.515
	c-5.089,1.052-11.104,1.82-16.431,0.701c-2.349-0.496-4.487-1.383-6.419-2.707c-1.277-0.893-2.303-2.23-3.64-3.097
	c-1.482-0.973-3.64-1.37-5.651-1.171c-4.89,0.437-9.271,2.118-13.553,3.693c-8.1,2.984-16.074,6.717-25.523,7.008
	c-3.845,0.112-7.55-0.159-10.866-1.31c-2.455-0.847-4.738-2.025-6.889-3.428c-3.779-2.455-7.332-5.817-10.105-9.35
	c-1.231-1.601-2.521-3.183-3.223-5.036c-0.477-1.297-0.642-2.892-0.304-4.341c0.728-3.302,4.758-6.346,7.378-8.556
	c2.131-1.8,5.367-4.645,6.465-7.014c0.04-0.146,0.013-0.132,0.199-0.132v-0.271c-11.283,0-19.978,9.258-24.974,17.808
	c-2.151,3.693-4.083,8.113-7.842,10.945c-4.414,3.289-10.475,3.044-16.107,3.918c-6.571,1.019-13.586,3.52-18.913,6.968
	c-3.653,2.396-6.842,6.028-5.837,10.687c0.172,0.761,0.278,1.82,0.96,2.256c0.814,0.503,1.946,0.682,2.925,0.887
	c2.885,0.582,5.982,0.688,9.251,0.688c0.735-0.324,1.939-0.152,2.806-0.152c0.556-0.245,1.509-0.146,2.19-0.146
	c0.45-0.04,0.887-0.099,1.337-0.132c0.331-0.053,0.675-0.099,1.026-0.152c0.291-0.046,0.589-0.086,0.874-0.152
	c1.218-0.271,2.435-0.582,3.653-0.893c2.568-0.701,5.102-1.403,7.65-2.085c1.118-0.291,2.276-0.695,3.547-0.695
	c0.285-0.02,0.582-0.079,0.88-0.132c0.377-0.053,0.788-0.079,1.171-0.132c0.377-0.053,0.781-0.093,1.165-0.152
	c0.377-0.185,1.019-0.132,1.469-0.132c0.549-0.192,1.271-0.152,1.919-0.152c0.708-0.298,1.939-0.132,2.793-0.132
	c0.437-0.192,1.079-0.139,1.615-0.139c1.807-0.026,3.593,0.099,5.281,0.252c4.639,0.41,8.9,1.416,12.772,3.295
	c8.02,3.937,15.591,12.619,18.741,20.521c1.443,3.6,1.959,7.696,2.826,11.574c0.318,1.357,0.437,2.958,1.052,4.156
	c0.192,0.384,0.576,0.496,1.046,0.496c0.483-0.159,0.973-0.291,1.462-0.443c0.86-0.291,1.674-0.735,2.462-1.178
	c3.944-2.316,6.684-7.18,7.954-11.117c0.84-2.634,1.396-5.387,1.886-8.186c1.112-6.697,1.661-13.572,8.133-17.265
	c1.562-0.88,3.395-1.681,5.433-1.681c0.43-0.192,1.079-0.152,1.608-0.152c1.151-0.49,5.082,0.172,6.34,0.384
	c8,1.383,15.366,4.943,21.235,10.403c1.324,1.264,2.468,2.693,3.626,4.03c2.177,2.521,4.063,5.294,4.791,8.537
	c1.006,4.553-0.847,9.919-2.534,13.685c-1.138,2.482-2.243,4.923-3.434,7.398c-1.773,3.712-3.858,7.266-5.552,11.045
	c-2.799,6.141-5.016,12.388-6.214,19.336c-1.555,9.159-0.688,19.356,2.376,27.403c0.814,2.151,1.754,4.268,2.905,6.26
	c0.701,1.237,2.912,3.858,2.912,5.234h-0.139v0.126c-0.999-0.232-1.727-0.933-2.488-1.568c-4.043-3.547-6.816-8.219-9.185-12.692
	c-4.202-7.875-6.273-17.113-5.949-27.178c0.198-5.976,1.436-11.468,2.984-16.795c1.807-6.194,4.87-11.964,7.815-17.596
	c1.423-2.773,10.489-20.779,7.524-23.141c-0.496-0.437-1.158-0.622-1.747-0.887c-2.462-1.026-4.851-1.932-7.458-2.72
	c-10.277-3.044-19.958-0.298-22.764,9.675c-0.682,2.488-0.688,5.228-1.112,7.901c-0.549,3.62-1.469,6.889-2.812,10.098
	c-2.455,5.698-7.703,12.758-15.644,11.084c-2.376-0.516-4.315-2.501-5.929-4.281c-1.853-2.025-3.527-4.076-4.877-6.306
	c-2.554-4.262-3.765-9.125-4.877-14.141c-0.629-2.753-0.979-5.625-1.787-8.318c-0.265-0.814-0.49-1.787-0.96-2.508
	c-0.304-0.443-0.854-0.695-1.304-0.953c-8.345-4.983-20.805-4.341-30.672-2.468c-4.546,0.86-8.709,2.534-13.361,3.335
	c-3.461,0.602-7.087,0.748-10.859,0.748c-3.951,0-7.822-0.423-10.985-1.879c-7.603-3.587-19.018-16.61-16.444-25.537
	c2.051-7.153,13.552-11.561,20.21-13.195c1.793-0.423,3.792-1.085,5.744-1.085c0.337-0.06,0.695-0.099,1.026-0.159
	c0.397-0.046,0.781-0.099,1.185-0.126c0.437-0.033,0.874-0.079,1.317-0.159c0.351-0.172,1.012-0.132,1.476-0.132
	c0.371-0.053,0.774-0.106,1.165-0.146c0.351-0.066,0.688-0.093,1.039-0.152c0.285-0.04,0.582-0.086,0.873-0.132
	c0.728-0.179,1.462-0.377,2.204-0.529c2.23-0.682,4.301-1.621,5.982-3.322c3.52-3.607,5.406-8.278,7.835-12.401
	c3.626-6.22,10.773-12.553,17.887-14.34c1.145-0.285,2.27-0.655,3.554-0.655C380.731,253.29,381.214,253.171,381.711,253.105
	 M315.47,314.177c0,0.165-0.066,0.132,0.132,0.132v0.146c0.119-0.112,0.165-0.146,0-0.146
	C315.57,314.27,315.51,314.23,315.47,314.177 M315.901,314.455c0,0.185-0.04,0.152,0.146,0.152v0.152
	c0.106-0.119,0.159-0.152,0-0.152C316,314.561,315.96,314.495,315.901,314.455"/>
</svg>
