<svg xmlns="http://www.w3.org/2000/svg" width="800" height="800" viewBox="0 0 800 800"><style type="text/css">.st0{fill-rule:evenodd;clip-rule:evenodd;fill:#FFFFFF;} .st1{fill:#FFFFFF;}</style><path id="XMLID_111_" class="st0" d="M43.572 401.816c-2.07-81.28 214.684-130.681 433.175-102.577 17.072 2.196 33.393 4.75 48.948 7.617-27.733-6.45-58.293-11.867-91.475-15.966-218.77-27.021-436.321 20.823-434.205 101.902 1.41 54.026 99.501 101.068 228.846 123.898-107.081-24.4-184.063-66.747-185.289-114.874z"/><path id="XMLID_104_" class="st1" d="M180.034 436.734l-.063-.316-.063-.189v-.126l-.189-.505v-.063l-.378-.82-.063-.19-.126-.189-.189-.442-.126-.378-.063-.063v-.063l-.126-.631-.063-.378v-.378h.063v-.378l.189-.442.378-.568.63-.694.126-.252.252-.316v-.063l.315-.568v-.063h.063v-.126l.126-.316v-.063l.126-.631v-.126l.063-.568-.063-.442-.189-.884v-.316l-.063-.505-.126-.568v-.315l-.063-.189-.063-.315v-.063l-.126-.316-.252-.442-.252-.505-.063-.063v-.063l-.126-.19v-.063l-.063-.063-.063-.379v-.252l.126-.252.189-.189.189-.189.315-.189.504-.442h.063v-.063l.315-.316.189-.252v-.063l.378-.631.315-.631.126-.252.063-.063.315-.442.189-.568.063-.189.126-.379.315-.316v-.063l.252-.505.126-.316.189-.316.63-1.01.063-.316v-.063l.315-1.136.063-.505v-.441l-.063-.379v-.378l.063-.063v-.442l.126-.126.126-.316v-.063l.126-.442.189-.821.063-.505-.063-.631v-.126l-.063-.126-.063-.126v-.126l-.063-.063-.126-.505-.126-.252-.063-.126v-.126l-.063-.252-.063-.126v-.063l.063-.316v-.253l.063-.126v-.063l.126-.126.315-.189v-.063l.63-.189.504-.126.252-.189h.756l.252-.063.378-.252v-.063l.063-.189.126-.252.126-.252v-.253l.063-.694.063-.442.063-.063v-.315l-.126-.821v-.568l.063-.253.063-.316.189-.126.378-.126.126.253.189.126.189.063h.378l.189-.126.189-.252.126-.379.063-.189.189-.126.189-.316v-.063l.126-.252v-.063l.126-.063h.252l.378.189.126.126.189.379.126.126h.063l.315.063.315-.063.441-.126.063-.063.063-.063.063-.063.504-.694v-.126l.063-.505.126-.379.189-.189.315-.757.063-.126.567-.252.315-.316.063-.126.063-.063.189-.252.063-.316.063-.316.378-.757.441-.631.252-.442h.126v.126l.126.063h.252l.126-.063.441-.316.063-.189.189-.253h.189l.252.568-.063.316-.126.126-.315.126-.189.252v.126h-.13v-.063h-.063l-.315.063-.189.126-.063.126-.189.253-.063.189.126.379.126.316.315.82.189.063.126.252v.442l-.063.063-.063-.063-.441.063-.063.442v.063l-.063.063v.063l-.063.063-.063.063-.252.252.189.189.126.189v-.063l.063.505v1.262h-.063l-.315.063-.126.063-.252.821-.126.189v.063l-.063.189-.063.316v.821l.126.379v.063l.063.126.063.442v.126l-.063.252v.189l.063.063.063.063.063.063h.063l.126.063h.441l.063-.063v-.189l.063-.126v-.126l.189-.631v-.063l.189-.316.252-.631.252-.505.126-.126.126-.126.063-.189v-.252l-.441-.063-.126.126-.063-.189.189-.253.063-.126.189-.252.126-.189.126-.316.189-.631v-.063l-.063-.126.063-.189.504-.442h.378l.063.252.063.442v.189h-.126l-.252.126-.063.442-.063.252v.505l.063.189-.189 1.01-.063.252-.126.189-.252.063-.126.126-.126.063v.063l-.126.063-.315.379v.063l-.063.189-.063.379v.189l-.126.379-.063.126-.063.189-.063.063.063.063.063.063v.063l.252.126h.063l.315.063h.189v-.063h.063l.315-.379v-.063l.063-.063v-.063l.063-.063h-.063v-.316l-.063-.063.189-.442.126-.063.252-.126.126-.126.189-.253.063-.252.189-.316.189-.379.063-.063.252-.505v-.189l.063-.189.063-.063.063-.063.063-.126.126-.189.189-.505.063-.253.063-.189.189-1.136.063-.252-.063-.505v-.063l.063-.694v-.063l.063-.189.189-.379v-1.326l-.063-.126-.063-.126v-.063l-.063-.379-.063-1.01-.126-.253v-1.199l.378-.947.252-.316.378-.316h.063l.189-.252.126-.126.189-.126.252-.126.126.063h.252l.063-.063h.063l.126-.063.126-.126v-.063l.063-.126.315-.189.315-.315.189-.189.252-.063h.252l.252-.126.504-.126.882.063.819.126.189.063h.189l.189-.126.441-.126h.063l.252-.063h.189l.252-.063h.063l.315-.189.441-.252h.063v-.07l.063-.189v-.252h-.063v-.189l-.126-.126-.945-.189h-.189l-.189.063v.063l.126.126h.126l-.315-.063v-.063l-.378-.126-.378-.189h-.126l-.063-.126-.189-.252-.252-.253h-.063l-.315-.505v-.063l-.126-.379-.189-.442-.063-.316v-.063l-.126-.442v-.253l-.063-.505v-.189l.126-.252.378-.442.252-.442.063-.126v-.063l.063-.126.252-.252.315-.126.504-.189h.063v-.063l.126-.063.126-.126.063-.252.378-.316.063-.063.063-.063.504-.631v-.063l.063-.252v-.189l-.189-.252-.126-.063-.189-.126-.252-.189-.126-.063h-.252l-.189-.126-.063-.063.126-.063.252.063h1.071l.252.126.252.189.819-.063h.126l.063.063.063.063.252.063h.63l.189-.063.126-.126h.063l.126-.252.063-.189-.063-.063-.126-.126-.063-.063v-.063l.189-.189h.063l.063-.063h.063l.378.189.189-.063.126-.063h.189v.126l.126.126.063.316.63.252v.126l.063.063.378.189.252.063.504.379.189.063.063.063.063.063h.063l.441.252.378.253v.063l.126.126.189.126.126.126.252.126.252.189.126.063.252.189.063.063.252.189h.063v.063h.063l.189-.063h.189l.126-.252.126-.126h.252l.252.126.063.063h.063l.063.063.189.063.063.063.567-.189.378-.063.441.189.252.126h.063l.126.063.189.126.819.189.252.126.189.189.189.126.252.442.063.063.252.315.126.189.378.316.063.063.126.252.063.126v.316l-.063.063.063.063.063.442.126.252v.063l.126.126v.063l.063.063.189.126.315.189h.126l.252.063h.063l.315-.126.063-.063.126-.063h.063l.126.063h.189l.189.126.315-.063h.819l.189.063.252.063.126.063.504.505.504.568.126.126.063.063.063.063h.063v.063l.126.063.189.126h.063l.126.126.126.063.378.063h.252l.252.126.126.063h.378l.252-.063.378.316.063.126h.063l.189.126.126.063.189.126.378.252.063.063h.063l.063.063.252.126.504.316.063.063.441.063.063.063.252-.063.126-.063.063-.063v-.126h.126l.378.252.126.063.315-.316.126.063.126.189.126.189.189.252.315.442.126.126.252.189.126.189.063.126v.063l.378.252h.063l.189.063.063.063.063.126-.126.379-.189.126-.252.126v.189l.126.253v.063l.189.253.063.126.063.063.063.126v.063h.063l.063.063.252.568v.252l.063.126.063.126h.252v.126l.189.253.441.189-.063.063v.252l.189.82.189.252.189.568v.126l.189.505h.063l.126.189.126.315-.126.063-.315-.063-.252-.189-.756-.189-.315-.252-.189-.316-.189-.063-.315-.126h-.126l-.252.126h-.126l-.126.126-.063.063h-.126l-.126.189-.063.189-.063.063-.063.189-.063.063.063.126.126.316.189.126.126.063-.063.126-.063.126h-.063l-.189.252v.189l.063.316v.189l.063.126v.189l.063.189.063.126.063.253h.063l.126.126.063.063h.063l.252.126.126.379.063.063.819.442.63.189v.694l.126.316.126.189.126.126v.189l.063.189.063.631v.9470000000000001l-.063.063v.063l.063.189.126.442v.063l.126.126v.063l.126.126.063.063v.189l-.063.316v.252l-.126.568-.063.19v.126h-.063l-.063.19-.252.442-.126.505v.63l.063.631.063.379v.379l-.126.568v.883l-.189 1.01v.442l.063.063v.315l.063.126v.126l-.126.442-.063.442-.063.378.063.379v.189l-.063.126-.126.063-.189-.063h-.252l-.126.126-.063.063-.504.694-.126.126-.126.063-.063.189-.063.19-.063.189-.063.063-.252.126-.063-.189h-.063l-.252-.126h-.063l-.315-.063-.126.063-.252.063h-.063l-.126.063-.315.316-.189.316v.063h-.063v.063l-.189.505-.063.442v.379l-.189.631-.063.252v.5680000000000001l-.063.442.063.189-.063.126-.063.379-.252.378v.063l-.063.189v.252l.126.316-.315.063-.378-.063-.567.126-.315.252-.252.189-.063.189h-.063v.063l-.063.126v.063l.189.694-.315.063h-.945l-.063.126h-.126l-.126.063h-.945l-.189-.063h-.189l-.378.189-.126.126-.063.127-.063.063-.189.252-.126.063-.189.316-.063.316v.316l-.315.126-.126.253-.063.252-.063 1.199v.189l-.063.631v.378l-.063.631-.063.253v.063l-.063.126-.189.189-.063.126h-.189v.252l.126.316.189.631.189.379.378.757.252.252.315.189.126.063.441.252h.063l.693.063.126.063.567.252.189.063v-.189l.189.126.126.063h.063l.063.063.441.189.441.568h.063l.567.189h.063l.252-.252.693-.82.441-.568.063-.063.126-.252.252-.252.189-.316v-.063h.189l.063-.252v-.189l.063-.063.126-.126.315-.252h.189v.063l.126.126.567-.126.189-.253.063-.126v-.126l.063-.063.063-.126.252-.379.126-.189v-.126l-.063-.126h-.063l.126-.442.252-.315.189-.063.126-.126v-.063l-.063-.252.063-.189.063-.189.063-.063.252-.126v-.189l.63-.316.504-.631v-.378l-.063-.126-.063-.063-.063-.126h-.126l-.063-.126.063-.063.126-.063h.063l.378-.063.189-.126h.063l.063-.063.189-.189.189-.189.189-.442.063-.063.126-.315v-.127l.252-.126h.126l.063-.063.189-.063h.441l.189-.063h.063l.252.063.504-.19h.126l.063-.063.126-.063h.063l.063-.063.126-.063.063-.063v-.063l.252-.063h.063l.504.063h.063l.189-.063.063-.063h.126l.189-.252.126-.253v-.063l.063-.126.063-.063.063-.19.126-.126h.189l.063-.063h.252l.126-.063.126-.126.063-.063.252-.253h.189l.063.063h.189l.252-.126v-.063h.063l.252-.063.189.189.063.063.252.316.315.126.441.126.378.063.063.063.189.063.063.063h.063l.378.189.126.252.126.126h.126l.126.063h.063l.378.252.126.126.063.063.189.442.063.126.063.063.189.442.063.063.126.252.063.126v.063l.126.316.189.631.063.063.063.252.378.316.063.126.126.126.063.063.063.126v.126l.063.126h-.063l-.063.063.063.126.063.063.063.063.063.063h.063v.189l.063.442.126.442v.189l.063.189.063.252v.569l.126.189.063.631v.252l.063.442.063.316v.7569999999999999l.063.379v.126l.063.694v.126l.063.316.063.252.063.378v.063l.126.568.315.758.126.316v.189l.063.316.126.316.063.252.126.252.126.442.063.189v.126l-.063.126.063.126v.631l.063.694v.505l.063.126.063.252.063.505v.126l-.063.127v.315l.063.379v.126l.063.379v.252l.126.757.063.252v.126l.063.063.126.316.126.757h.063v.189l.126.379.063.063v.316l.063.189v.19l.063.442.315.379.063.126.189.442.063.189.315.568.063.126.126.252.063.189.063.063.063.189.126.063v.063l-.126.063v.315l.063.063v.063l.063.063.126.126-.063.189v.126h-.063l-.189.379-.189.189-.063.126-.126.063v.063l-.126.253-.126.505-.063.189-.063.189v.441l.063.505-.063.189v.316l-.063.126-.063.252v.063l-.063.126v.505l.063.126.126.316.126.442v.189l-.063.189-.252.568v.504l-.063.063-.126.316-.063.126-.252.884v.316l.063.379-.063.126-.063.316v.063l-.063.126v.063l-.063.126-.504.442-.063.063-.063.189-.315.253-.126.189-.063.063-.063.316-.126.063-.315.063-.126-.063-.063-.063-.189-.063h-.189l-.126.063h-.063l-.126.126-.189.189h-.063v.063l-.063.126-.252.379-.126.126v-.316l.126-.189.189-.063.126-.189-.189-.189-.189-.126v-.505l-.126-.316-.252.063-.252-.126v-.189l.189-.252.378-.063v-.252l-.126-.19v-.063l.378-.252.315.063h.063l.063.063h.063l.252-.252v-.063l.126-.126v-.126l.063-.126v-.063l-.063-.189-.063-.126-.063-.063-.063-.063h-.126l-.315-.063h-.063l-.063-.063-.252-.189-.189-.063h-.315l-.126.189h-.378l-.189.126-.126.126-.252.126-.063.126-.063.063-.063.19-.063.063-.252.063-.126-.063h-.189l-.252.252-.063.126h-.063v.063l-.063.19v.379l.189.189.126.063.315.126v.5680000000000001l.126.252v.189l-.063.063-.063-.126-.189-.063h-.441l-.252.063-.063.063h-.063v.063l-.126.063v.063h-.063v.126l-.063.189-.126.189-.063.063-.126.189-.063.063v.126l-.063.063v.063l-.063.252-.063.126v1.0079999999999998l.063.126.126.189.063.189-.063.316-.189.631-.063.189v.252l-.126.253-.063.126h-.063l-.126.063-.126.126h-.075l-.063.126-.063.126v.063l-.126.189.126.189-.189.063-.126.063h-.126l-.063.063-.063.063-.126.126-.504.19h-.126l-.378.063h-.189l-.126.063-.315.126-.189.063-.252.126-.252.126v.063l-.063.063-.252.316-.126.189v.063l-.252.695-.063.126-.126.316-.126.189v.126l-.063.694v.126l-.063.757v.063l.126.631.126.378v.189l.063.063-.252 1.01-.504.126-.189.316h-.063l-.315.189-.063.126h.063l.063.252-.063.442v.126l.063.063.063.252-.126.316-.063.063h-.378v.253l-.126.252-.126-.063-.126.063-.315.316-.063.126-.126.189-.063.126v.252l-.063.126-.189.189-.126-.063-.189-.063h-.315l-.063.063-.063.063h-.063v.063l-.063.063h-.063l-.126.252h-.063v.063l-.126.379v.442l-.063.063-.063.252v.063l-.126.063-.063.063-.126.126-.063.063-.126.063-.063-.063-.063-.189-.126.063h-.063v.063l-.189.252-.063.126v.063h-.063l-.252.631-.126.126-.126.126-.189.063h-.063v.063l-.063.063v.063l-.063.126v.7559999999999998l.063.252.252.568.063.252-.189.063-.252.063h-.126v.063h-.567l-.189.063h-1.197l-.378.063h-.9450000000000001l-.189.063h-.882l-.378.063h-.756l-.441.063h-.756l-.567.063h-1.008l-.441.063h-.378l-1.134.063h-1.071l-1.701.126h-1.008l-1.197.063h-.567l-.882.063-1.763.063h-.756l-.819.063h-1.827l-.882.063-1.952.063h-1.638l-1.134.063v-1.7029999999999996h-3.7170000000000005l-.559-.02h-4.347l-.756-.063-.063.063-.378-.063h-4.725l-1.637-.063h-3.4019999999999997l-.315-.063h-2.142l-.882-.063h-1.2599999999999998l-.756-.063h-1.7599999999999998l-1.008-.063h-2.7719999999999994l-.504-.063h-2.331l-.945-.063h-1.638l-.756-.063h-.945l-.63-.063h-1.071l-.567-.063h-.882l.378-.252h.063v-.063l.504-.316.252-.189.315-.253.189-.063.126-.126.315-.253h.063l.252-.252.189-.126.315-.316.567-.568.126-.126.063-.063.441-.505h.063l.063-.126.063-.063.315-.505.189-.252.189-.378.063-.19.252-.757.063-.189.189-.379.189-.442.252-.505.252-.442.252-.442v-.126l.189-.316.252-.568.063-.189.063-.126.126-.19.126-.189.126-.063.063-.063.378-.568.63-.758.126-.126.063-.126.441-.568v-.063l.378-.631.126-.126.063-.126v-.063l.504-1.01.252-.442.189-.568.315-.757.126-.379.063-.252v-.063l.063-.189v-.252l.189-.316.063-.189.126-.316.126-.252v-.126l.189-.694.063-.19v-.063l.126-.631v-.316l.063-.126.063-.505v-.063l.126-.631.126-.442.063-.316v-.631l-.063-.505v-.063h.063v-.189l.063-.126.189-.379v-.063l.063-.189v-.189l.063-.316.063-.631v-4.543l-.063-.378v-.819l-.063-.379v-.568l-.063-.568v-.126l-.126-.757-.126-.442-.063-.316v-.126l-.126-.252v-.252l-.063-.126v-.316l-.063-.063v-.063l-.189-.568-.063-.252-.189-.505-.189-.505-.126-.252-.315-.821-.126-.189-.378-.884-.441-1.01-.315-.694-.252-.568-.252-.568v-.126l-.063-.063-.252-.82v-.126l-.126-.442-.063-.063-.063-.316-.063-.189v-.126l-.063-.252v-.063l-.126-.442-.063-.316-.062-.323zm-71.362-87.281l.441-.253.567-.379.315-.189h.063l.378-.189.063.063.315.126.756-.379.252-.063h.063l.252-.063 1.386-.505 1.197-.126 1.071-.316.315-.126.63-.442.189-.252v-.063l.252-.126.063-.063.252-.126.378-.252.252-.189.126-.126.126-.126.126-.126.063-.063.189-.252.126-.063.504-.505.252-.252.063-.063.252-.189.567-.189.189-.126h.063l.315-.063h.252l.756-.189h.8819999999999999l.189.063.378.189.063.126.063.063h.252l.378-.126.189-.063.378-.063h.063l.441-.063h.126l.189-.063.189-.063.063-.063.252.063.126.063.378.063h.6929999999999998l.378-.126.819-.316.504-.189.189-.126.189-.063.126-.063.189-.126.315-.126.063-.063h.063l.189-.063.504-.252.378-.189v-.063h.063l.504-.442.063-.126.252-.316.315-.442.504-.505.315-.189h.063l.126-.063v.126l.063.063.126.063.252.063h.126l.126-.063h.315v-.063h.063l.189-.126.189-.126h.189l.126.189h.441l.189-.063.252-.126.315-.126.252-.316h.063l.189-.316.126-.252h.063l.189-.442.063-.126.063-.316.126-.252.063-.126.189-.253.315-.189.315-.189h.189l.441-.442.189-.253.441-.189h.252l.189-.126h.063l.252-.315.441-.442.567-.505.504-.379.315-.126h.315l.063-.063h.063l.063-.063h.063l.063-.063.252-.126.441-.063h.063l.189-.126.378-.316.504-.442.252-.252h.063l.189-.189.315-.315.126-.189.126-.316.063-.063v-.063l.126-.189.063-.063.504-.568.315-.253.378-.252.126-.063.189-.063h.063l.315-.126.693-.252.378-.252.063-.063.252-.189.252-.063.63-.126h.063l.189-.126.126-.126.063-.126v-.063l.126-.063.504-.189h.567l.252-.063 1.008-.126h.6299999999999999v-.126l.189-.063h1.575l.441.063h.189l.315.063.063.063 1.512.126h.252l.819.379.441.316.252.252.063.883v.189h-.189l-.378-.189h-.189l-.126.063-.126.126-.63.126-.315.189h-.189l-.126-.126-.252-.126-.126-.063h-.504l-1.071.126-.315.063-.126.316-.063.126.063.189.126.189h.126l.189.252v.126l-.126.189h-.252l-.189.063-.378.253-.567.379-.693.189-.126.063-.189.253-.504.694h-.189l-.189.126-.315.379-.567.631-.567.189-.189-.063h-.189l-.252.252h-.063v.063l-.126.252-.126.316v.126l-.063.379.063.189.063.063h.063v.063l-.126.189-.126.063h-.063v-.126l-.126-.063-.126-.063-.126.063-.189.126-.189.189v.126h.063v.126l-.063.189-.189.442-.819.442h-.126l-.063.063-.063.189v.316l-.063.316-.063.189-.189.568-.126.126v.063h-.063l-.189.189-.378.505-.126.189h-.126l-.252.063-.189.063-.126.631-.063.189v.063l-.063.189-.063.189-.378.884-.063.126v.505l-.063.379v.189l-.126.316v.189l.126.568.063.189.126.379h.441l.126-.189.378-.442.63-.694v-.252l.063-.063v-.126l.063-.063.063-.063.063.063h.315l.063-.063.315-.315.441-.442.252-.189.315-.252.189-.126.189-.126.063-.063.252-.253.189-.126.756-.379.315-.126.189-.126.252-.126.252-.063v.063l.189.063-.063.063-.252.379-.063.063-.693.631.063.126.126.252h.252l.63-.063.504-.189.378-.063.315.063.378.189.189.063.504.126h.567l.315-.063.819.063h.252l.252.252.189.189.504.316.126-.063.252-.126h.189l.063.063.378.189.189.063.063.063.063.126-.063.063v.126l.189.126.189.063.063-.063.126-.063h.126l.063.379v.379l.063.126v.063l.063.063.252.063h.378l.126-.189v-.189l.126-.063.126.189v.442l.189.126.189.063v.063l.189-.063.126.063.126.189.252.379.126.063.189.189v.126l.063.252v.442l.126.568v.063l.189.252.252.253.126.126.063.126.252.189.126.126.063.063v.063l-.063.189v.063l.126.189.189.442.063.189.189.126.378.189h.063l.063.126-.063.126.063.316.252.252.126.126.567.063.126.126h.063l.315.063.063.379-.252.189v.063l.189.379v.063l.063.126.063.063-.063.063-.189.063-.063.063v.189h-.063l.063.189.063.063.063.126.063.063.252.252v.063h.063l.189.126h.063l.693.316 1.008.126 1.008-.063.567-.126.567.063.315.063.189-.063h.126l.189-.189.441-.316.567-.126.315-.126.252-.189h.126l.63.189.189.316v.189l.189.442.126.189v.189l-.063.063.063.126.315.189h.441l.315.189.063.189v.315l.126.063.126.063.378.063h.252l.378-.063.126-.316v-.316l.126-.189.315-.252.378-.063.315.063.252.063.126.126v.063l.315.694.126.126h.126l.252-.442-.063-.189.063-.252.063-.694-.252-.126-.063-.252-.126-.884.252-.316.315-.126.063.126h.063l.315-.063.063-.063.441.757-.063.442-.063.252-.063.126-.126.063-.063.252v.189l.189.189h.126l.126-.126.063-.189.126-.063h.063v.631l.189.063.189.126.567-.631.63-.505.567-.505.189-.316.063-.189.252-.189h.189l.252.063h.126l.882-.379.504-.189.252-.189 3.086-1.956.504-.442.441-.063.315.442.126.063h.252l.504-.063.693-.252.756-.126.756-.063.567-.252.882-.126h.252l.441.063.819.253.63.063h.189l.126.063h.567l.818-.063h.819l.567.126h.126l.882.063.567-.063.504-.126 2.141-.82 1.449-.82.063-.063.567-.189.378-.063 1.197-.189 2.015.189.504-.063.504-.252.378-.063.441-.063.189.063.063.063-.693.631-.378.442-.189.442-.126.442-.063.316v.252l-.126 1.388-.063.631.063.505.063.379v.379h.063l.063.189-.063.126-.315.126-.189.126-.063.189.063.316.063.252.315.442.126.126.189.126.504.063h.378l.252-.063.189-.189.189-.063v.252l.252.253.063.063h.063l.189.063h.567l.252-.126.189.315.126.316.252.126.567-.063.567-.189.882-.442.63-.379.189-.126.441.126.441-.063.252.379.063.189.126.189.252.316.189.189.189.315.378.253h.063l.882-.568.189-.063.063.063.189.189.126-.063.189-.189.126-.316v-.252l-.126-.126.315-.568.504-.379.315.063h.189l.063-.063.252-.189.567.063.126.063.126.063.126.063.315.126.252.063h.315l.189-.063h.063l.189-.126.504-.947.567-.126.315.316.252.063.252-.063.063-.063.189-.063.189.063.063.253.126.063.126.379-.252.947-.378 1.388.126 1.262.378.947.252.379-.252.189.063 1.262.315.316-.189.442-.189.189h-.126l-.189.063-.189.189h-.126v-.126l-.126-.126h-.315v-.063h-.252l-.567.126-.252.189-.315.505.063.379v.316l-.063.126.252.126.126.126.189.063h.063l.378-.063.126-.126.252-.379.063.063h.063l.378.063h.504l.126.126.063.189.126.252.126.189.063.126h.693l.63.442-.126.189-.126-.063-.252.189-.189.126-.126.252-.063.252v.063l.126.189.252.189.189.189.252.442.441.316.315.316.504.126.189-.063.126-.063.126.063.063.253.063.063.126.063.315.126.189.316.378.126.126.063.063-.063.441-.82.252.063.252.568h.063l.315.126h.063l.378-.189.063-.189.126-.189v-.379l-.189-.568-.441-.126-.252-.442-.252-.82.126-.126h.126l.315.189.252.189.189.126.252-.063h.567l.063-.063.063-.189.315-.063.819.063.441-.063h.189l.189.189.315.126.315.063.126.126.063.252v.126l.126.189.252.126.126.252.063.316.063.442.126.252.756.316h.126l.126.063.126.252v.063l-.126.379-.126.063-.441 1.073-.126.189-.126.126-.693.126-.378-.063-.945-.442-.504-.316-.567.252h-.189l-.378.063-.252-.126h-.189l-.441.063-.063.126-.315-.063-.315-.126v-.126l-.126-.063-.252.063-.126.063h-.126l-.126-.316h-.063l-.378-.189-.252-.189-.063-.063-.063.063-.441.063-.252.189-.063-.063-.504-.126-.63-.063-.189.126-.378.063-1.134-.252h-.063l-.189.063-.315-.126v-.126l-.063-.063h-.063l-.504.126-.567.189-.063.063-.063-.126-.504.063h-.63l-.315.316h-1.449l-.189.189-.063.063-.189.126-.063.063-.378.189-.567-.442-.378-.252-.126-.379h-.063v-.063l-.063-.063-.378.189-.189-.126-.189-.063v-.252l-.063-.063h-.063l-.378-.063-.126.126v.379l-.189.126-.126-.063-.063-.063v-.189l.063-.316v-.379l-.189-.379-.063-.126-.315-.252-.378.063-.063.126h-.441l-.063-.063-.315-.316-.315-.252-.189-.063v-.063l-.189.063-.189.126v.063l-.189.252-.126.189v.379l.063.568.063.379v.189h-.315l-.378.126-.126.189-.189.379v.126l.126.189v.063l.252.126.126.189v.126l-.252.126-.126.126.063.252v.063l.126.442v.126l.126.189.126.189.126.189v.063l-.063.063h-.315v.063l-.063.126v.126h-.378l-.126-.063h-.063l-.063-.126-.189-.063-.126-.126-.315-.252-.504-.252-.252-.063v-.063l-.126-.253v-.315l-.063-.126h-.189l-.126-.126-.189-.126-.063-.063-.063-.063-.063-.063-.441-.252-.252-.189h-.063l-.315-.631v-.063l-.693-.82-.315-.316-.252-.189-.189-.126-.504-.252-.252-.126-.504-.063-.126-.063-.252-.126-.189-.126-.063-.063-.252-.189-.252-.063-.189-.063-.693.126-.126.063-.252-.252-.126-.063v-.063l-.126-.063-.252-.063-.252-.063h-.063l-.252-.063-.252-.063-.126-.063-.063-.063-.126-.063-.378-.316-.315-.126h-.441l-.063.063-.126.063-.252.126-.189-.253-.063-.126-.315-.126-.315-.063-.252.189v.126l-.126.126v.063l-.126-.126-.441-.189h-.063l-.315-.063h-.063l-.189.063-.126.063-.063.063-.126.063-.063.063-.063.063-.126.126-.315.379-.126.126-.567.568-.189.189-.063.126-.126.316-.063.189-.567.631-.126.252-.189.189-.504.126-.126.063-.504-.126h-.378l-.252-.126-.252-.063-.378-.189-.378-.063h-.126l-.126.063-.126.253-.189.063-.315-.063h-.126l-.315-.063-.252.063-.252.189-.315.316-.063.252v.189l.189.126.126.126-.063.063h-.126v-.063l-.315-.189-.315-.189-.693-.379h-.063l-.063-.063h-.063l-.945-.316-.315-.063h-.063l-.378-.063h-.441l-.126.063-.252.063-.189.126h-.063v.063h-.189l-.126-.063-.189-.063-.378-.126h-.252l-.189.063-.063.063-.126.252-.063.063h-.315l-.126-.063-.315.126h-.126l-.693.694-.063.063-.126.189v.189l-.063.189v.315l-.063.568-.063.189v.063l-.126.189-.189.189v.063l-.126.757v.063l.063.126-.189.126-.063.126h-.63v-.063l-.063-.126-.315.063-.126.063-.063.126v.063h-.063v.063l.063.063v.063l-.126.252-.126.189-.252.063h-.126l-.126-.063-.252.063-.126.253-.189-.063-.126-.126-.252.063-.063.126-.063.252-.063.442-.189.252-.063.063h-.063l-.567-.189-.189.063-.063.189v.631l-.063.442h-.126l-.378-.126-.126.063-.126.126-.063.126.189 1.01v.379l-.126-.189-.189-.126-.252.063-.378-.189-.378-.315v-.189l-.126-.189-.252-.063-.189-.505v-.252l.063-.189.252-.189.252.126.252-.126.252-.252v-.189l-.063-.063-.063-.253.189-.252.252-.063.315-.379v-.442l.063-.505h.252l.126.063.252.126.252-.063.126-.253-.063-.126v-.063l.063-.189.126-.063h.126l.126-.126.063-.126-.063-.252.063-.252.126-.063.063-.063.126-.063.189-.379.063-.063-.063-.505-.063-.189-.126-.253-.252-.126-.252-.126h-.252l-.063.063-.189.316-.189.252h-.189l-.252.189-.126.252v.442l-.252.252-1.386-.379-.126-.063-.252-.442-.189-.126h-.126l-.252.126-.189.063-.063.189v.631l.126.063v.189l.063.253-.252.442-.315.379-.378.252-.063.126.063.126-.063.126-.315.379v.189l-.063.189.063.189-.63.316-.126-.063h-.315l-.189.063-.315.252-.441.063-.378.631-.063-.063v-.252l-.063-.189-.189-.126-.063-.316.063-.379.063-.189.063-.694-.063-.316v-.694l-.126-.505-.189-.442-.063-.189h-.063l-.252-.189-.189.063-.126.063h-.063l-.063.126-.189.189-.063.252v.063h-.063v.883l-.126.316v.315l.126.063.063.063v.126l-.063.189-.126.126-.189.379.126.126.063.126v.063h-.126l-.252.063-.252.063-.063.063h-.063v.126l-.189.253h-.063l-.315.063-.315.253h-.063l-.252.189-.189.063-.063.126-.189.252-.063.063v.063l-.063.063-.126.126-.189.379-.189.315-.126.253v.063h-.063l-.126.253h-.063l-.315.505-.252.442v.063l-.378.884-.126.442h-.063l-.315.694-.252.252-.315.505v.252l.063.126.063.063v.126l-.189.252-.252.189h-.063l-.126.252-.126.252-.126.126-.252.252-.126.126h-.063v.189l-.126.379-.252.252-.252.442-.126.126-.126.315-.063.316-.504.505-.693.884-.252.442-.378.442-.126.063-.252.316v.063l-.252.189-.063.063h-.063l-.063.063-.126.189-.126.063v.063h-.063v.063l-.189.316-.063.126-.063.063v.063l-.126.189v.063l-.063.253v.252l.063.063.063.063.063.189.189.189h.063l.063-.063v.063h-.189l-.378-.126-.126-.063-.126-.063h-.063v-.063h-.315l-.126-.063h-.126v-.126h-.063v-.063l-.063-.063v-.063h-.063l-.063-.063-.063-.253.063-.063v-.063l-.126-.252h-.063l-.063-.063-.063-.063-.063-.063h-.126v-.063l-.126-.063-.063-.126-.126-.063-.063-.063-.063-.063v-.063l-.063-.063h-.126v-.189l-.063-.505v-.063l.063-.063.063-.063.126-.126h.063v-.252l.063-.126.063-.126h-.063v-.063h-.063v-.063h.063l.126-.189h.126v-.252l.063-.126v-.189l.126-.189.063-.063v-.315l.126-.126.063-.063v-.063l.063-.126v-.063l.189-.189.063-.063.126-.189.063-.063h.063v-.252l.063-.063h.063v-.063l.189-.189v-.315l-.063-.063h-.063l-.063-.126.063-.063v-.189l-.063-.063-.252-.189-.063-.063v-.126l-.126-.063-.063-.126h-.252v.063l-.126.063-.063.063-.189.126-.315.316-.063.126v.063l-.252.063v.063l-.063.063-.189.063-.126-.126h-.063l-.189.063-.063-.063-.063-.063h-.189l-.189.063h-.063l-.189-.063v.063h-.063l-.063-.063h-.063l-.063.063v.126h-.063l-.189.126h-.063v-.056l.063-.063v-.063l-.063-.063h-.126v-.063l-.063-.063h-.063v-.189h-.063v.126h-.063v.063l-.126.063h-.126v-.063l-.063-.063h.063v-.063l.063-.126.126-.126.126-.126-.063-.126v-.126h.063l.126-.063.126-.126.063-.126-.063-.063v-.063l.189-.063v-.252l-.063-.063-.063-.063v-.063l-.063-.189v-.252l.126-.189.126-.063.063-.126.189-.063v-.063h.063v-.063l.126-.063.126-.063.126-.063v-.063l.063-.063.063-.126v-.189l.189-.126v-.189l.063-.063.063-.126v-.189h-.133l-.063-.252v-.6299999999999999l-.063-.126-.126-.189-.063-.063-.126-.126-.126-.063v-.252h.063l.315.063.126.063.189.063h.063l.063-.063v-.063l.063-.189v-.252h.063l.063-.063.063-.063v-.189l.063-.063-.063-.189v-.252l-.252-.063-.063-.063v-.126l-.126-.189-.126-.252-.126-.126-.063-.063-.063-.063v-.126l.063-.126-.063-.063v-.063l.063-.063.315-.063h.063l.063-.063.063-.063h.252l.063-.063v-.189l-.063-.063-.063-.126-.252-.189h-.063l-.063-.126.063-.126v-.063l-.126-.126-.378-.126h-.063l-.063-.063-.063-.063-.126-.063-.063-.126h-.063l-.126-.316v-.252l-.063-.063h-.063l-.063-.063v-.063l-.126-.063-.189.063h-.189v-.126l-.063-.063h-.063l-.126.063h-.126l-.063-.063h-.063v-.063l-.126.063h-.567v-.063l-.063-.126-.063-.063h-.063l-.189-.063-.063-.063v-.063l.063-.063h.126l-.063-.189-.063-.189v-.126h-.126v-.063h-.063v.063h-.063l-.126.063h-.126l-.063-.063v.063h-.126l-.063.063h-.063l-.063-.063h-.126v.126l-.063.063h-.126v.063h-.441l-.063-.063-.063-.063h-.189l-.063-.063-.126-.126h-.063l-.063-.189h.063v-.063l-.063-.063v-.063h-.189l-.189-.126v-.063h-.063l-.063-.252v-.063h.063l.126-.126.063-.063v-.063h.063l.126-.126.063-.063.063-.063.189-.189.189-.189.063-.126.063-.063v-.063l.063.063h.063v-.063l.063-.126v-.126l-.189-.126h-.252l-.063-.063-.063-.063v-.315l-.063-.063v-.063l.063-.126v-.063l.063-.063.063-.063.063-.063v-.063l-.126-.126h-.441v-.126l-.252-.126-.126-.126-.063-.063-.126-.063h-.126l-.126-.063h-.063v-.126l-.063-.063-.189-.126-.063-.063h-.126l-.063.126v.126h-.189l-.063-.063-.126-.063h-.252l-.063-.063h-.063l-.063-.063v-.315h-.189l-.063.126h-.189l-.252.063-.189.126h-.063v-.063l-.126-.126-.126-.063-.126-.063h-.063v.063l-.126.063v.063l-.063-.063v-.252l-.063-.063-.378-.316-.189-.126-.126-.126-.063-.063-.063-.063-.126.063v.063l-.063.126-.126.063h-.063l-.063-.063-.189.063-.063.063-.063.063-.063-.063-.063-.063.063-.063h-.063v-.063l-.189-.063v-.063l-.063-.063h-.189l-.126-.126.063-.063v-.063h-.126l-.126-.063h-.063l-.063.063-.063.063h.063l-.063.063h-.063v.063h-.126l-.126-.063-.063-.063v-.063h-.063.063v-.063h-.063v-.063l-.063-.063v-.378h-.063v-.063h-.252l-.063-.063h-.189v.063l-.063.126h-.252l-.063-.063h-.252l-.063.063v.063l-.189.063-.126.063h-.063v-.252h-.063l-.063-.063h-.126l-.063.126-.063.252v.126l-.063.189v.063h-.378l-.063.063-.189-.063-.126-.063h-.189v-.126l-.063-.063-.063-.126v-.126l-.063-.189-.063-.063h-.063l-.189-.063-.126-.063h-.189l-.063.126h-.126l-.063-.189.063-.063-.063-.063-.126-.063-.189-.063-.126.063-.126.063-.063.063h-.063l-.063-.063h-.063l-.063.063-.126.126h-.063l-.063-.063v-.189l.126-.126v-.063l-.126-.063h-.252l-.063.063.063.126v.063h-.063l-.189.063-.126-.063h.063l-.063-.063-.063-.063-.189-.063-.063-.063h-.126l-.063-.063-.063-.126v-.063l-1.512-1.01-.189-.126-.126-.063-.756-.505-.63-.442-1.197-.757-.63-.189-.63-.252-.126-.063-.252-.063-.252-.063-.126-.063h-.063v-.063l-.252-.063-1.071-.379-1.827-.631-.882-.316-.378-.126-.819-.252-.126-.063-.693-.252-.378-.126-.819-.252-.693-.253-.252-.063-.126-.063-.189-.063-1.26-.442h-.063v-.063h-.063l-.378-.126-.756-.252-.63-.252-.567-.189-.189-.063-.504-.189-.189-.063-.189-.063-1.134-.379-2.393-.884.063-.063v-.252h.063v-.252h-.063v-.063h-.063v-.189l-.126-.063-.063-.063v-.063l.063-.189h-.063l-.063-.126-.063-.126-.063-.189v-.063l-.063-.063-.063-.189-.063-.126v-.063l.063-.126v-.063l-.063-.126v-.189l-.063-.126v-.063h-.189v-.378l-.063-.063-.126-.063-.063-.063v-.126l.063-.063v-.063l-.063-.063-.126-.126-.063-.063-.126-.316-.063-.253v-.063l-.063-.063h-.063l-.126.063v-.252l-.126.063-.126.063h-.378v-.063l-.063-.063h-.063v-.126l-.063-.063.063-.126v-.063l-.063-.063h-.063v.063l-.063.063h-.063l-.126-.063v.063h-.378v.063l-.063-.063v-.126l.063-.063v-.063l.063-.063v-.359l-.126-.126h-.126v-.126l-.063-.126h-.189l-.063.063-.063.126-.063.189v.063h-.063v-.063l-.063-.063h-.315l-.252.126-.126.063-.063-.063v-.252h-.063l-.063-.126-.063-.126-.126-.126v-.254zm90.951 26.57l.189.189.063.568v.189l-.189.189-.063.252.063.316.063.189.189.316.063.82-.126.316-.315.379-.189.063-.126.063-.126.063-.063.252-.126.126-.378.063-1.071-.316-.063-.063-.126-.379.189-.694.189-.189.063-.189v-.252l-.063-.252.126-.631.063-.189.189-.252.126-.063.252-.316.126-.505v-.379l-.063-.189v-.189l.063-.063.315.126.063.126.189.063h.189l.378-.126h.063l.063.189-.126.126h-.126l.063-.063v-.126h-.126l-.126.126v.189l.189.063.063.064zm17.321-2.146h-.063l-.063-.126-.252-.316-.252-.316-.063-.126-.189-.063-.252-.189v-.063l.126-.631h.063l.252.063.126.126.252.442.126.316.252.694.063.063.126.063.756.315.441-.063.441.189 1.134.442h.063l.126-.126v-.378h.063l.126.252.126.379.945.316-.063.063-.252.379v.252l-.441.316v.189l-.189.126h-.252l-.252-.126h-.378l-.315-.126h-.315l-.315-.126-.126-.252v-.252l-.315-.253-.504-.694-.189-.189-.378-.126-.126-.126-.063-.189v-.129zm-27.525 17.481l.504.126.252.063.063.063.189.316v.505l-.063.189-.063.694v.189l.126.189v.316l-.441.126-.252-.189-.126-.189-.315-.442-.315-.252-.126-.126v-.126l-.063-.947.126-.316.126-.189h.378zm-1.26 4.039l-.441.252-.315.063-.441-.189v-.378l.315-.631.063-.063.378-.126.441.189.252.316-.252-.063-.063.063-.063.126-.063.063.063.126.126.252z"/><path id="XMLID_102_" class="st1" d="M309.971 347.359l-10.565 18.368-1.722 2.951c-.136.277-.409.769-.817 1.475l-.817 1.475h-.117l-.817-1.475-.846-1.475-1.693-2.971-10.624-18.347h-7.793v28.362h4.495v-24.248l-.029-.79-.029-.769h.117c.136.277.253.492.35.644l.35.665.788 1.309 13.601 23.188h4.495l13.571-23.458.759-1.33.35-.644.35-.665h.117l-.029.852-.029.852v24.394000000000002h4.495v-28.362h-7.911z"/><path id="XMLID_100_" class="st1" d="M323.33 347.359v28.362h4.495v-28.362h-4.495z"/><path id="XMLID_98_" class="st1" d="M360.09 367.93c0 2.397-.657 3.893-1.97 4.488-1.313.596-4.616.893-9.909.893-5.565 0-8.824-.686-9.777-2.057-.954-1.371-1.43-6.039-1.43-14.004 0-3.463.71-5.575 2.131-6.337 1.42-.762 5.341-1.143 11.762-1.143 3.658 0 6.007.326 7.048.977 1.041.651 1.561 2.119 1.561 4.405l.029.873h4.465l-.029-.769c0-3.213-.881-5.382-2.641-6.504-1.761-1.122-5.18-1.683-10.259-1.683-7.491 0-12.365.582-14.622 1.745-1.926.997-3.094 2.13-3.502 3.397s-.613 4.36-.613 9.277c0 6.289.905 10.282 2.714 11.979 1.81 1.697 6.051 2.545 12.725 2.545 7.452 0 12.102-.481 13.951-1.444 1.848-.963 2.773-3.376 2.773-7.241v-1.08h-4.465l.058 1.683z"/><path id="XMLID_96_" class="st1" d="M395.943 347.359v12.508h-23.29v-12.508h-4.495v28.362h4.495v-13.152h23.29v13.152h4.495v-28.362h-4.495z"/><path id="XMLID_94_" class="st1" d="M405.899 347.359v28.362h4.495v-28.362h-4.495z"/><path id="XMLID_92_" class="st1" d="M430.723 364.314h12.667c.156.901.233 1.482.233 1.745 0 3.283-.569 5.312-1.707 6.088-1.138.776-4.111 1.164-8.916 1.164-6.285 0-10.152-.408-11.601-1.226-1.45-.817-2.174-3.013-2.174-6.587l-.029-4.052.058-3.761c0-3.518.652-5.717 1.955-6.597 1.303-.879 4.553-1.319 9.748-1.319 5.623 0 9.101.274 10.434.821 1.332.547 1.999 1.978 1.999 4.291v.706h4.407v-1.08c0-3.144-.983-5.17-2.948-6.078-1.965-.907-6.333-1.361-13.104-1.361-6.752 0-11.242.693-13.469 2.078-2.228 1.385-3.342 4.176-3.342 8.374l-.029 2.514.029 4.176c0 5.001 1.002 8.218 3.006 9.651 2.004 1.434 6.518 2.151 13.542 2.151 7.432 0 12.029-.606 13.79-1.818 1.761-1.212 2.641-4.374 2.641-9.485 0-1.33-.039-2.362-.117-3.096h-17.074v2.701z"/><path id="XMLID_89_" class="st1" d="M479.944 375.721h4.699l-14.885-28.362h-6.304l-14.593 28.362h4.757l3.064-6.005h20.167l3.095 6.005zm-21.977-8.415l8.727-17.329 8.843 17.329h-17.57z"/><path id="XMLID_87_" class="st1" d="M517.35 347.359v23.645l.029 1.08.029 1.06h-.117l-1.868-2.223-1.897-2.202-3.794-4.446-14.564-16.913h-7.355v28.362h4.495v-23.5l-.029-1.08-.029-1.06h.117l1.343 1.579 1.343 1.579 2.714 3.179 16.694 19.303h7.384v-28.362h-4.495z"/><path id="XMLID_85_" class="st1" d="M317.47 422.661c-.01 3.811-1.563 4.514-2.075 4.757-1.213.576-4.341 1.245-12.351 1.245-10.529 0-12.908-1.412-13.442-2.016-.563-.636-1.871-3.421-1.871-15.489 0-8.69 1.366-10.764 1.953-11.251.622-.517 3.235-1.719 14.039-1.719 7.823 0 10.42.723 11.27 1.154 1.16.588 1.75 2.165 1.75 4.687v3.009h16.945l-.129-2.825c-.007-6.716-1.989-11.366-5.89-13.744-3.713-2.263-10.659-3.382-21.233-3.382-14.389 0-23.662 1.305-28.349 4.009-4.901 2.827-7.385 8.615-7.385 17.213 0 21.118 4.019 25.01 5.34 26.289 1.32 1.279 5.337 5.17 27.106 5.17 12.795 0 20.914-1.042 24.821-3.182 4.16-2.279 6.269-7.168 6.269-14.529v-3.14h-16.952l.184 3.744z"/><path id="XMLID_82_" class="st1" d="M400.851 391.823c-4.065-3.202-12.583-4.758-26.041-4.758-15.078 0-24.384 1.576-28.449 4.818-4.165 3.321-6.189 10.871-6.189 23.082 0 10.36 2.07 16.957 6.328 20.17 4.128 3.116 12.671 4.63 26.118 4.63 14.894 0 24.117-1.536 28.197-4.697 4.194-3.25 6.233-10.548 6.233-22.313 0-10.799-2.027-17.646-6.197-20.932zm-12.846 34.88c-.608.584-3.183 1.942-13.925 1.942-11.341 0-14.126-1.242-14.797-1.776-.626-.498-2.082-2.602-2.082-11.37 0-12.537 1.417-14.984 1.851-15.435.424-.441 2.738-1.879 14.715-1.879 11.58 0 13.936 1.359 14.383 1.777.439.412 1.87 2.586 1.87 13.292-.001 10.393-1.41 12.867-2.015 13.449z"/><path id="XMLID_80_" class="st1" d="M465.615 417.129l.122 6.271.07 1.229-2.623-3.828c-2.158-3.112-4.082-5.822-5.723-8.016l-19.022-25.335h-25.31v52.012h16.835v-29.654l-.158-6.378-.081-1.105 1.692 2.592c2.199 3.39 3.768 5.768 4.814 7.146l20.845 27.398h25.374v-52.012h-16.835v29.68z"/><path id="XMLID_78_" class="st1" d="M535.628 422.661c-.01 3.811-1.563 4.514-2.075 4.757-1.213.576-4.34 1.245-12.351 1.245-10.529 0-12.908-1.413-13.442-2.016-.562-.636-1.871-3.421-1.871-15.489 0-8.69 1.365-10.764 1.953-11.251.622-.516 3.235-1.719 14.039-1.719 7.823 0 10.436.723 11.287 1.154 1.16.588 1.767 2.165 1.767 4.687v3.009h16.912l-.129-2.825c-.007-6.716-1.989-11.366-5.89-13.744-3.713-2.263-10.658-3.382-21.233-3.382-14.389 0-23.662 1.305-28.349 4.009-4.901 2.827-7.385 8.615-7.385 17.213 0 21.118 4.019 25.01 5.34 26.289 1.32 1.279 5.337 5.17 27.107 5.17 12.795 0 20.931-1.042 24.837-3.182 4.16-2.279 6.286-7.168 6.286-14.529v-3.14h-16.985l.182 3.744z"/><path id="XMLID_75_" class="st1" d="M618.292 414.572c1.949-2.129 2.897-5.777 2.897-11.151 0-5.972-1.923-10.223-5.717-12.595-3.612-2.257-9.811-3.375-18.952-3.375h-36.828v52.012h16.835v-16.374h17.853c9.206 0 9.215 4.154 9.215 5.772v10.603h16.835v-12.455c0-3.549-1.296-7.659-6.499-9.732 1.927-.718 3.364-1.616 4.361-2.705zm-15.756-4.035c-.682.508-2.655 1.315-8.208 1.315h-17.801v-13.485h18.741c5.463 0 7.106.867 7.559 1.217.401.311 1.335 1.49 1.335 5.486-.002 2.815-.563 4.675-1.626 5.467z"/><path id="XMLID_73_" class="st1" d="M645.186 417.952h33.339v-10.274h-33.339v-9.311h35.32v-10.916h-52.155v52.012h52.485v-11.237h-35.65v-10.274z"/><path id="XMLID_71_" class="st1" d="M684.467 399.009h20.796v40.454h16.835v-40.454h21.126v-11.558h-58.757v11.558z"/><path id="XMLID_69_" class="st1" d="M764.35 428.226v-10.274h33.339v-10.274h-33.339v-9.311h35.32v-10.916h-52.155v52.012h52.485v-11.237h-35.65z"/><path id="XMLID_66_" class="st1" d="M302.336 480.468h4.788l-15.167-28.362h-6.424l-14.87 28.362h4.848l3.123-6.005h20.55l3.152 6.005zm-22.394-8.415l8.892-17.329 9.011 17.329h-17.903z"/><path id="XMLID_64_" class="st1" d="M336.583 453.322c-1.844-1.004-5.799-1.506-11.866-1.506-5.988 0-9.983.54-11.985 1.621-2.003 1.08-3.004 3.235-3.004 6.462 0 4.654 3.44 7.148 10.32 7.48l4.52.166 4.758.166c2.617.111 4.337.454 5.16 1.029.822.575 1.234 1.728 1.234 3.46 0 2.674-.605 4.319-1.814 4.935-1.21.616-4.441.925-9.695.925-4.58 0-7.425-.308-8.535-.925-1.111-.616-1.665-2.192-1.665-4.727v-.708h-4.55l.03 1.267c0 3.131.967 5.212 2.9 6.244 1.933 1.032 5.824 1.548 11.673 1.548 6.741 0 11.098-.512 13.071-1.538 1.973-1.025 2.959-3.283 2.959-6.774 0-3.227-.858-5.305-2.572-6.233-1.715-.928-5.735-1.489-12.059-1.683-5.393-.18-8.635-.519-9.725-1.018-1.091-.499-1.636-1.891-1.636-4.176 0-2.036.694-3.349 2.082-3.937 1.388-.589 4.48-.883 9.279-.883 4.045 0 6.612.308 7.703.925 1.09.617 1.636 2.067 1.636 4.353h4.55c-.003-3.311-.925-5.469-2.769-6.473z"/><path id="XMLID_62_" class="st1" d="M371.317 453.322c-1.844-1.004-5.799-1.506-11.866-1.506-5.988 0-9.983.54-11.985 1.621-2.003 1.08-3.004 3.235-3.004 6.462 0 4.654 3.44 7.148 10.32 7.48l4.52.166 4.758.166c2.617.111 4.337.454 5.16 1.029.822.575 1.234 1.728 1.234 3.46 0 2.674-.605 4.319-1.814 4.935-1.21.616-4.441.925-9.695.925-4.58 0-7.425-.308-8.535-.925-1.111-.616-1.665-2.192-1.665-4.727v-.708h-4.55l.03 1.267c0 3.131.967 5.212 2.9 6.244 1.933 1.032 5.824 1.548 11.673 1.548 6.741 0 11.097-.512 13.07-1.538 1.973-1.025 2.959-3.283 2.959-6.774 0-3.227-.858-5.305-2.572-6.233-1.715-.928-5.735-1.489-12.059-1.683-5.393-.18-8.635-.519-9.725-1.018-1.091-.499-1.636-1.891-1.636-4.176 0-2.036.694-3.349 2.082-3.937 1.388-.589 4.48-.883 9.279-.883 4.045 0 6.612.308 7.703.925 1.09.617 1.636 2.067 1.636 4.353h4.55c-.003-3.311-.925-5.469-2.768-6.473z"/><path id="XMLID_59_" class="st1" d="M382.341 453.883c-2.429 1.379-3.643 3.951-3.643 7.719l-.059 2.68v1.995c0 6.524.937 10.569 2.81 12.134 1.874 1.565 6.706 2.348 14.498 2.348 7.831 0 12.669-.79 14.513-2.369s2.766-5.742 2.766-12.488c0-6.261-.962-10.174-2.885-11.74-1.923-1.565-6.721-2.348-14.394-2.348-6.642.001-11.177.691-13.606 2.069zm24.223 1.901c1.507.845 2.26 2.833 2.26 5.963l.03 2.68v1.849c0 5.859-.546 9.288-1.636 10.285-1.091.997-4.858 1.496-11.301 1.496-6.424 0-10.181-.499-11.271-1.496-1.091-.997-1.636-4.426-1.636-10.285 0-5.845.545-9.267 1.636-10.264 1.09-.997 4.848-1.496 11.271-1.496 5.591 0 9.14.423 10.647 1.268z"/><path id="XMLID_57_" class="st1" d="M445.672 472.676c0 2.397-.669 3.893-2.007 4.488-1.338.596-4.704.893-10.097.893-5.671 0-8.992-.686-9.963-2.057-.972-1.371-1.457-6.039-1.457-14.004 0-3.463.724-5.575 2.171-6.337 1.447-.762 5.442-1.143 11.985-1.143 3.727 0 6.121.326 7.182.977 1.06.651 1.591 2.119 1.591 4.405l.03.873h4.55l-.03-.769c0-3.213-.897-5.382-2.691-6.503-1.795-1.122-5.279-1.683-10.453-1.683-7.633 0-12.6.582-14.899 1.745-1.963.997-3.152 2.13-3.569 3.397-.416 1.267-.625 4.36-.625 9.277 0 6.289.922 10.282 2.766 11.979 1.844 1.697 6.166 2.545 12.966 2.545 7.593 0 12.332-.481 14.215-1.444 1.883-.963 2.825-3.376 2.825-7.241v-1.08h-4.55l.06 1.682z"/><path id="XMLID_55_" class="st1" d="M455.112 452.106v28.362h4.58v-28.362h-4.58z"/><path id="XMLID_52_" class="st1" d="M495.861 480.468h4.788l-15.167-28.362h-6.424l-14.87 28.362h4.848l3.123-6.005h20.55l3.152 6.005zm-22.394-8.415l8.892-17.329 9.011 17.329h-17.903z"/><path id="XMLID_50_" class="st1" d="M527.479 455.077v-2.971h-30.929v2.971h13.234v25.391h4.58v-25.391h13.115z"/><path id="XMLID_48_" class="st1" d="M531.889 452.106v28.362h4.58v-28.362h-4.58z"/><path id="XMLID_45_" class="st1" d="M545.536 453.883c-2.429 1.379-3.643 3.951-3.643 7.719l-.059 2.68v1.995c0 6.524.937 10.569 2.81 12.134 1.874 1.565 6.706 2.348 14.498 2.348 7.831 0 12.669-.79 14.513-2.369 1.844-1.579 2.766-5.742 2.766-12.488 0-6.261-.962-10.174-2.885-11.74-1.923-1.565-6.721-2.348-14.394-2.348-6.642.001-11.177.691-13.606 2.069zm24.223 1.901c1.507.845 2.26 2.833 2.26 5.963l.03 2.68v1.849c0 5.859-.546 9.288-1.636 10.285-1.091.997-4.858 1.496-11.301 1.496-6.424 0-10.181-.499-11.271-1.496-1.091-.997-1.636-4.426-1.636-10.285 0-5.845.545-9.267 1.636-10.264 1.09-.997 4.848-1.496 11.271-1.496 5.591 0 9.14.423 10.647 1.268z"/><path id="XMLID_43_" class="st1" d="M611.776 452.106v23.645l.03 1.08.03 1.06h-.119l-1.903-2.223-1.933-2.202-3.866-4.446-14.84-16.913h-7.494v28.362h4.58v-23.5l-.03-1.08-.03-1.06h.119l1.368 1.579 1.368 1.579 2.766 3.179 17.011 19.303h7.524v-28.362h-4.581z"/></svg>