<?xml version="1.0" encoding="utf-8"?>
<!-- Generator: Adobe Illustrator 19.0.0, SVG Export Plug-In . SVG Version: 6.00 Build 0)  -->
<svg version="1.1" id="Layer_1" xmlns="http://www.w3.org/2000/svg" xmlns:xlink="http://www.w3.org/1999/xlink" x="0px" y="0px"
	 viewBox="0 0 800 800" style="enable-background:new 0 0 800 800;" xml:space="preserve">
<style type="text/css">
	.st0{fill:#FFFFFF;}
</style>
<rect x="150.018" y="227.438" class="st0" width="78.296" height="345.122"/>
<path class="st0" d="M150.018,228.892v-0.004C149.992,228.853,149.997,228.861,150.018,228.892z M150.018,228.892V572.4
	c0,0,75.334,0.095,75.396,0C221.177,333.687,151.169,230.629,150.018,228.892z"/>
<path class="st0" d="M249.173,498.815c1.783,0.262,4.719,0.524,8.652,0.524c7.027,0,11.327-1.152,13.897-3.198
	c2.202-1.782,3.671-4.3,3.671-7.551c0-4.51-2.989-7.603-7.027-8.652v-0.105c3.986-1.521,5.821-4.405,5.821-7.499
	c0-3.251-1.73-5.664-4.196-6.975c-2.622-1.521-5.611-1.992-10.487-1.992c-4.038,0-8.233,0.367-10.331,0.733L249.173,498.815
	L249.173,498.815z M257.092,469.396c0.628-0.105,1.626-0.209,3.408-0.209c3.618,0,5.663,1.416,5.663,4.089
	c0,2.622-2.203,4.352-6.45,4.352h-2.622V469.396z M257.092,483.344h2.727c3.986,0,7.184,1.416,7.184,4.93
	c0,3.723-3.198,5.138-6.817,5.138c-1.363,0-2.307,0-3.094-0.105V483.344z"/>
<path class="st0" d="M279.8,463.627v19.717c0,11.222,5.193,16.206,14.107,16.206c9.23,0,14.736-5.193,14.736-16.101v-19.822h-7.971
	v20.295c0,6.293-2.307,9.229-6.503,9.229c-4.038,0-6.397-3.094-6.397-9.229v-20.295L279.8,463.627L279.8,463.627z"/>
<path class="st0" d="M313.154,497.294c1.992,1.102,5.978,2.203,10.016,2.203c9.702,0,14.212-5.035,14.212-10.961
	c0-4.982-2.884-8.233-9.125-10.54c-4.614-1.73-6.555-2.727-6.555-4.982c0-1.783,1.678-3.408,5.139-3.408
	c3.409,0,5.978,0.997,7.342,1.678l1.783-6.397c-2.098-0.997-4.982-1.784-9.019-1.784c-8.286,0-13.372,4.563-13.372,10.594
	c0,5.138,3.88,8.391,9.753,10.487c4.247,1.468,5.927,2.728,5.927,4.929c0,2.308-1.941,3.829-5.612,3.829
	c-3.409,0-6.765-1.102-8.862-2.203L313.154,497.294z"/>
<rect x="341.841" y="463.627" class="st0" width="7.971" height="35.345"/>
<path class="st0" d="M363.027,498.972v-10.645c0-5.768-0.105-10.751-0.367-15.471h0.21c1.677,4.143,4.037,8.705,6.135,12.482
	l7.552,13.634h8.39v-35.345h-7.342v10.278c0,5.349,0.158,10.121,0.629,14.788h-0.105c-1.626-3.986-3.671-8.391-5.768-12.113
	l-7.342-12.953h-9.335v35.345H363.027z"/>
<polygon class="st0" points="411.85,477.523 398.845,477.523 398.845,470.182 412.638,470.182 412.638,463.627 390.874,463.627 
	390.874,498.972 413.371,498.972 413.371,492.417 398.845,492.417 398.845,484.027 411.85,484.027 "/>
<path class="st0" d="M416.414,497.294c1.992,1.102,5.978,2.203,10.017,2.203c9.701,0,14.212-5.035,14.212-10.961
	c0-4.982-2.884-8.233-9.124-10.54c-4.616-1.73-6.556-2.727-6.556-4.982c0-1.783,1.677-3.408,5.14-3.408
	c3.408,0,5.978,0.997,7.34,1.678l1.784-6.397c-2.098-0.997-4.982-1.784-9.019-1.784c-8.286,0-13.372,4.563-13.372,10.594
	c0,5.138,3.88,8.391,9.753,10.487c4.247,1.468,5.926,2.728,5.926,4.929c0,2.308-1.94,3.829-5.612,3.829
	c-3.408,0-6.765-1.102-8.863-2.203L416.414,497.294z"/>
<path class="st0" d="M443.683,497.294c1.993,1.102,5.979,2.203,10.017,2.203c9.702,0,14.213-5.035,14.213-10.961
	c0-4.982-2.886-8.233-9.126-10.54c-4.614-1.73-6.554-2.727-6.554-4.982c0-1.783,1.677-3.408,5.138-3.408
	c3.408,0,5.978,0.997,7.342,1.678l1.784-6.397c-2.098-0.997-4.983-1.784-9.021-1.784c-8.285,0-13.372,4.563-13.372,10.594
	c0,5.138,3.881,8.391,9.754,10.487c4.247,1.468,5.926,2.728,5.926,4.929c0,2.308-1.942,3.829-5.612,3.829
	c-3.41,0-6.765-1.102-8.863-2.203L443.683,497.294z"/>
<polygon class="st0" points="486.688,498.972 494.658,498.972 494.658,470.339 504.308,470.339 504.308,463.627 477.143,463.627 
	477.143,470.339 486.688,470.339 "/>
<path class="st0" d="M507.508,498.972h7.918v-13.896h2.36c3.303,0.052,4.824,1.205,5.821,5.663c0.997,4.353,1.888,7.184,2.412,8.233
	h8.18c-0.681-1.363-1.73-5.978-2.832-10.017c-0.891-3.251-2.256-5.559-4.719-6.554v-0.158c3.042-1.102,6.24-4.195,6.24-8.652
	c0-3.253-1.154-5.768-3.303-7.447c-2.518-1.993-6.188-2.779-11.432-2.779c-4.3,0-8.077,0.314-10.645,0.733L507.508,498.972
	L507.508,498.972z M515.427,469.606c0.577-0.158,1.679-0.262,3.619-0.262c3.67,0,5.873,1.677,5.873,4.877
	c0,3.094-2.36,5.088-6.346,5.088h-3.146L515.427,469.606L515.427,469.606z"/>
<path class="st0" d="M556.383,489.9l2.727,9.072h8.652l-11.012-35.345h-10.487l-10.75,35.345h8.232l2.518-9.072H556.383z
	 M547.415,483.922l2.098-7.499c0.578-2.046,1.102-4.721,1.626-6.818h0.105c0.524,2.097,1.154,4.719,1.784,6.818l2.202,7.499H547.415
	z"/>
<path class="st0" d="M581.766,498.972l11.903-35.345h-8.494l-4.511,15.103c-1.205,4.038-2.307,8.233-3.198,12.482h-0.158
	c-0.838-4.405-1.94-8.391-3.147-12.638l-4.3-14.945h-8.758l11.328,35.345L581.766,498.972L581.766,498.972z"/>
<polygon class="st0" points="617.427,477.523 604.422,477.523 604.422,470.182 618.213,470.182 618.213,463.627 596.451,463.627 
	596.451,498.972 618.948,498.972 618.948,492.417 604.422,492.417 604.422,484.027 617.427,484.027 "/>
<polygon class="st0" points="623.407,498.972 645.432,498.972 645.432,492.261 631.378,492.261 631.378,463.627 623.407,463.627 "/>
<path class="st0" d="M291.445,559.141c-2.635,1.104-6.886,1.869-10.881,1.869c-11.476,0-18.277-7.226-18.277-18.7
	c0-12.751,7.991-18.957,18.192-18.957c4.676,0,8.331,1.021,10.881,2.125l2.72-10.201c-2.295-1.276-7.396-2.55-14.111-2.55
	c-17.341,0-31.283,10.795-31.283,30.347c0,16.322,10.201,28.732,30.008,28.732c6.885,0,12.326-1.361,14.62-2.465L291.445,559.141z"
	/>
<path class="st0" d="M322.473,512.558c-16.832,0-27.881,12.836-27.881,30.007c0,16.405,10.031,29.242,26.946,29.242
	c16.832,0,28.137-11.306,28.137-30.177C349.675,525.733,340.069,512.558,322.473,512.558z M322.218,522.843
	c8.925,0,13.771,8.84,13.771,19.212c0,11.135-5.015,19.467-13.771,19.467c-8.671,0-13.941-7.907-13.941-19.212
	C308.278,531.173,313.378,522.843,322.218,522.843z"/>
<path class="st0" d="M384.446,556.165l4.421,14.706h14.026l-17.851-57.293h-17.001l-17.426,57.293h13.346l4.08-14.706H384.446z
	 M369.909,546.474l3.4-12.155c0.935-3.316,1.786-7.652,2.635-11.052h0.17c0.85,3.4,1.871,7.65,2.891,11.052l3.57,12.155H369.909z"/>
<polygon class="st0" points="408.419,570.871 444.121,570.871 444.121,559.991 421.34,559.991 421.34,513.577 408.419,513.577 "/>
<rect x="449.732" y="513.577" class="st0" width="12.922" height="57.293"/>
<polygon class="st0" points="482.885,570.871 495.806,570.871 495.806,524.459 511.447,524.459 511.447,513.577 467.415,513.577 
	467.415,524.459 482.885,524.459 "/>
<rect x="516.292" y="513.577" class="st0" width="12.922" height="57.293"/>
<path class="st0" d="M563.557,512.558c-16.832,0-27.882,12.836-27.882,30.007c0,16.405,10.031,29.242,26.947,29.242
	c16.832,0,28.138-11.306,28.138-30.177C590.758,525.733,581.152,512.558,563.557,512.558z M563.302,522.843
	c8.925,0,13.77,8.84,13.77,19.212c0,11.135-5.015,19.467-13.77,19.467c-8.672,0-13.942-7.907-13.942-19.212
	C549.361,531.173,554.461,522.843,563.302,522.843z"/>
<path class="st0" d="M609.037,570.871v-17.256c0-9.349-0.17-17.426-0.595-25.077h0.34c2.72,6.716,6.544,14.112,9.946,20.231
	l12.241,22.102h13.6v-57.293h-11.899v16.662c0,8.67,0.255,16.405,1.019,23.972h-0.17c-2.635-6.461-5.951-13.602-9.351-19.637
	l-11.901-20.997h-15.131v57.293H609.037z"/>
<path class="st0" d="M283.058,270.937h4.488l-2.192-35.176h-5.793l-6.262,17.014c-1.566,4.436-2.818,8.299-3.758,11.847h-0.104
	c-0.939-3.653-2.088-7.516-3.549-11.847l-6.003-17.014h-5.793l-2.452,35.176h4.332l0.939-15.082
	c0.313-5.324,0.574-11.169,0.679-15.552h0.104c0.992,4.174,2.348,8.662,4.018,13.674l5.741,16.753h3.445l6.21-17.067
	c1.775-4.854,3.183-9.29,4.436-13.361h0.105c0,4.332,0.312,10.281,0.574,15.188L283.058,270.937z"/>
<rect x="300.756" y="235.76" class="st0" width="4.593" height="35.176"/>
<path class="st0" d="M319.547,270.832c2.297,0.262,4.958,0.418,8.247,0.418c6.837,0,12.265-1.774,15.605-5.062
	c3.236-3.235,5.062-7.933,5.062-13.673c0-5.689-1.827-9.76-5.01-12.63c-3.08-2.819-7.725-4.385-14.248-4.385
	c-3.601,0-6.888,0.314-9.655,0.783L319.547,270.832L319.547,270.832z M324.087,239.571c1.201-0.262,2.975-0.47,5.323-0.47
	c9.603,0,14.3,5.272,14.248,13.569c0,9.499-5.219,14.927-14.979,14.927c-1.774,0-3.444-0.053-4.592-0.208V239.571z"/>
<rect x="358.172" y="251.261" class="st0" width="12.892" height="3.34"/>
<path class="st0" d="M413.34,270.937h4.488l-2.192-35.176h-5.794l-6.262,17.014c-1.565,4.436-2.818,8.299-3.758,11.847h-0.104
	c-0.939-3.653-2.088-7.516-3.549-11.847l-6.002-17.014h-5.793l-2.453,35.176h4.332l0.94-15.082
	c0.312-5.324,0.573-11.169,0.678-15.552h0.104c0.992,4.174,2.349,8.662,4.019,13.674l5.741,16.753h3.444l6.211-17.067
	c1.774-4.854,3.183-9.29,4.437-13.361h0.103c0,4.332,0.312,10.281,0.573,15.188L413.34,270.937z"/>
<rect x="431.039" y="235.76" class="st0" width="4.592" height="35.176"/>
<path class="st0" d="M473.472,266.187c-1.827,0.887-4.646,1.461-7.463,1.461c-8.508,0-13.466-5.48-13.466-14.143
	c0-9.238,5.48-14.509,13.726-14.509c2.923,0,5.377,0.626,7.046,1.461l1.148-3.705c-1.201-0.626-4.018-1.566-8.351-1.566
	c-10.907,0-18.371,7.411-18.371,18.477c0,11.585,7.411,17.848,17.327,17.848c4.281,0,7.673-0.834,9.29-1.669L473.472,266.187z"/>
<polygon class="st0" points="486.314,235.76 486.314,270.937 490.907,270.937 490.907,254.443 507.922,254.443 507.922,270.937 
	512.513,270.937 512.513,235.76 507.922,235.76 507.922,250.477 490.907,250.477 490.907,235.76 "/>
<rect x="526.609" y="235.76" class="st0" width="4.593" height="35.176"/>
<path class="st0" d="M572.227,252.461H560.64v3.653h7.098v10.491c-1.043,0.521-3.08,0.939-6.053,0.939
	c-8.247,0-13.571-5.272-13.571-14.196c0-8.82,5.584-14.143,14.144-14.143c3.55,0,5.898,0.626,7.777,1.512l1.148-3.706
	c-1.513-0.731-4.749-1.617-8.82-1.617c-11.796,0-19.05,7.672-19.05,18.163c0,5.48,1.879,10.177,4.907,13.1
	c3.443,3.288,7.828,4.644,13.151,4.644c4.749,0,8.822-1.148,10.856-1.932L572.227,252.461L572.227,252.461z"/>
<path class="st0" d="M603.546,259.872l3.757,11.064h4.854l-12.004-35.176h-5.427l-12.004,35.176h4.698l3.653-11.064L603.546,259.872
	L603.546,259.872z M592.012,256.322l3.445-10.177c0.731-2.139,1.253-4.333,1.774-6.368h0.105c0.522,2.035,1.043,4.123,1.827,6.42
	l3.497,10.124L592.012,256.322L592.012,256.322z"/>
<path class="st0" d="M627.872,270.937v-15.032c0-5.845-0.052-10.072-0.312-14.507l0.158-0.053c1.722,3.809,4.071,7.829,6.523,11.743
	l11.169,17.849H650v-35.176h-4.279v14.717c0,5.48,0.105,9.76,0.522,14.457l-0.157,0.052c-1.618-3.601-3.706-7.307-6.263-11.429
	l-11.222-17.797h-5.01v35.176L627.872,270.937L627.872,270.937z"/>
<path class="st0" d="M312.602,409.07c0,0-88.069,1.515-113.656-6.072c0,0-6.023-6.077,41.407-5.323
	c47.4,0.76,92.567-1.522,121.16-9.871l-9.033-24.313l-61.696,1.521c0,0-3.782-3.04,10.521-5.323
	c14.304-2.277,46.649-6.067,60.209-12.918c0,0,6.769-3.776,10.534,14.454l1.513-6.097l33.855,6.097c0,0,7.543,3.8-6.003,4.553
	c-13.577,0.738-26.36,0-26.36,0l9.024,25.067c0,0-83.54,15.953-124.914,11.379C259.163,402.222,315.606,405.282,312.602,409.07"/>
<path class="st0" d="M356.983,420.472c0,0,12.045,22.022,37.624,22.022c25.612,0,33.891-17.462,33.891-17.462
	s-19.561,9.112-35.368,9.112C377.307,434.145,356.983,420.472,356.983,420.472"/>
<path class="st0" d="M480.436,393.137c0,0,85.818,4.539,100.101,7.581c0,0-30.866,3.801-33.872,5.323c0,0,39.125,6.083,92.568-4.568
	c0,0-27.864-6.838-89.562-9.118C487.96,390.082,484.189,390.843,480.436,393.137"/>
<path class="st0" d="M527.042,354.96c0,0,5.282,6.493-1.147,10.022h9.343c0,0,7.046-14.168-5.819-15.936
	c0,0,3.493,1.156,2.904,4.121C532.324,353.167,527.66,353.764,527.042,354.96"/>
<path class="st0" d="M535.239,346.08c0,0,16.408-12.412,16.408-20.115c0-7.675-14.631-23.022-23.406-25.993
	c-8.802-2.953-19.344-1.769-28.704,3.55c-9.373,5.33-75.536,52.598-98.362,82.735c0,0,88.99-72.114,97.777-75.642
	c0,0-2.331,4.732,1.758,3.527c4.095-1.164,35.738-11.804,42.161,1.205c0,0-10.549-1.205-11.708,0.579l0.602,2.964
	c0,0,12.267-2.361,12.864,0C544.63,318.892,549.907,327.757,535.239,346.08"/>
<path class="st0" d="M527.66,316.53c0,0-28.707,5.916-81.415,51.419C446.245,367.949,512.409,320.066,527.66,316.53"/>
</svg>
