<svg xmlns="http://www.w3.org/2000/svg" width="499.8" height="404.2" viewBox="-1189 681.7 499.8 404.2" enable-background="new -1189 681.7 499.8 404.2"><style type="text/css">.st0{enable-background:new ;} .st1{fill:#DA7777;} .st2{fill:#EF8A8A;} .st3{fill:#BB5959;} .st4{fill:#D77777;} .st5{fill:#FFFFFF;} .st6{fill:#502020;} .st7{fill:#FF9999;} .st8{fill:#2D1919;}</style><path class="st1" d="M-839.6 776.2l-18.9-40.8-40.4-27.3-84.1 21.7-39 24.4-19.3 43.8-10.7 42 32.7 71.6.4 3.7.9 4.4 1.5 7 6.8 30.7 5.3 25.7 40.8 60.9 32.3 7.9 28.1-4.4 25.6-74.8 3.3-5.3 6-8.6 5.5-9.6 4.5-11.1 4-11.9 1.5-10.4s.7-2.8 1.6-6c1.2-4.6 2.7-10.3 2.7-10.3l6.4-18.4 9.9-32.7-7.4-72.2z" id="Shape_1"/><path class="st2" d="M-1019.7 904.7l-1.9-12.9-3-12.3-1.1-4.9-3.3-3-3-3.3-2-4.1-2.4-4.2-2.8-3.5-2.4-2.2-1.4-3-1.4-3.6-1.6-3-1.1-4.9-.8-3-3.3 1.6-2.8 3.8-1.3 5-.6 7.6.3 9.1 1.4 8.7 2.2 7.4 1.9 4.7 2.4 5.2 4.4 7.7 3.3 4.9 3.8 3.3 3.3 1.6 4.4 1.1 6.3 1.7 2.8 1.1z" id="Shape_25"/><path class="st1" d="M-1021.6 906.6l-2.5-4.9-3.3-4.7-2.2-4.1-1.9-4.1-.8-2.5-1.9-1.6h-2.5l-1.9-.3-1.7-2.4-1.3-3.3 1.1-1.1 2.4 2.2 2.5 1.6 3.3.6.3-4.1.8-5.5-.8-1.7-2.2-1.9-2-4.1-1.9-3.8-2.4-1.9-3-3.6-.6 3.6-1.4 2.4-1.1 2.8-.8 3.2.6 7.4-2-4.1-1.6-3.3v-3.8l1.1-2.7v-6.9l-.5-3.5-1.7-1.1-2.2-.9-1.1 3.1-.3 5.2.9 9.3 3.3 13.7 3.2 7.9 5.5 10.2 3.9 3.8 5.2 3.3 6.3 2.7 5.7 1.7z" id="Shape_26"/><path class="st3" d="M-1045.9 850.7l-3-5.1-1.7 3.6-.6 5.5-.2 5 2.8 12.1 1.4.5-.3-3.2.2-3.6.9-5.1 1.2-3.6.6-2.9z" id="Shape_28"/><path class="st3" d="M-1036 872l2.3-1.3-1.5-1.5-2.3-1.4-3.2-.3-1.1 2.7-.8 5.2.9 3.7 3.1 3.6h2.1l-.8-2.1-1-4.1.3-2.7z" id="Shape_29"/><path class="st3" d="M-1027.6 893.2l-1.8-3.8-1-5.1-.3-5.4-.5-3.4-.8 4.7.2 4.6.3 5.1 2.6 3.9 3.6 2.3z" id="Shape_30"/><path class="st2" d="M-826 855.1l-1.9-4.4-2.2-2.4-1.7-.6-1.6.8-1.4 2.2-1.6 4.4-1.4 5.8-3.3 6.8-3.8 8-3.3 4.9-1.4 3.8-.2 3.9-1.4 4.4-1.1 7.9-.3 7.4.3 6.6 1.9-.9 2.5-2.7 2.4-3.3 3.1-4.1 2.7-3.8 1.6-4.4 2.8-4.9 3.5-7.4 3.1-7.2 2.4-7.1 1.1-5.2.6-4.1z" id="Shape_24"/><path class="st1" d="M-829.3 858.6l-.9-4.9-1.6-2.6-.8.5.3 1.1 1 1.3 1 4v3.3l-.5 5.7-1.2 7.4 1.8-4.6 1.3-4.6z" id="Shape_31"/><path class="st3" d="M-846.3 893.8l-1.6-1.8-1.7-.5 1 2 .2 2.3v1.8l-.5 1.6-.7 1.2 3.8-2.3.2-2.2z" id="Shape_32"/><path class="st3" d="M-832.9 862.8l-1.2 1-1.4 1.1-2.2 1.2-.8 1.3-.1 1.1v2.5l.1 1.5.8 1.1.9-1.5 1.1-1.9 1.3-2.3 1.1-2.4 1.1-1.9.2-.8z" id="Shape_33"/><path class="st2" d="M-855.9 1008.1l-9.6-5-7.9-3.8-2.5-2.9-1.6-10.3-.4-11.5-1.9 2.9-3.1 4.5-8.2 9.9-7.6 7.6-8.4 5.3-8.4 2.9-8.5.8-12.3-.2-7.8-.6-8.4-2.9-8-4.1-4.3-2.6-22.9-21.2-8.2-8.8-4.5-4.1-4.3-7-3.9-8-2.7-6.4-2.5-8.2-1.8-6.6-3.1-12.1 2.9 19.1 1 14.2 1.3 17.6-.3 19.8-2.2 3.2-5.7 6.2-1 6.9 3.6 7.6 3.1 3.1 4.7 3.6 4.5 4.8 7.1 5 12.5 8.5 7.6 4.8 10.9 5.6 8.8 9.1 10.5-1.6 11.9 4.4 13 1.7 5.7-2.5 7.6-.2 7.9 2.2 9.8-8.3 9-6.8 8.4-5.4 9.3-9.6 7.2-7 9-11.7z" id="Shape_23"/><path class="st2" d="M-853.7 869.9l-1.3-8.5-.9-8.2-.5-7.9v-12.7l-.6-6.5-1.1-6.1.9-4.9v-4.6l-1.7-6.6-2.4-1.4-2.5-3.3-3-6.8-4.1-11.8-6.1-13.4-19.7-17.8-4.4 2.1-3 1.4-3-.3-3.3-.2h-2.7l-4.7 2.2-4.6 1.3-4.7.6-4.4-1.7-2.7-2.4-3.9-2.8-2.2-1.3h-2.1l-3.1.2-2.2.3-2.4 1.1-2.2 2.2-2.2 1.1h-2.5l-1.3.3-1.1 1.6-2.2 1.7-2.2 1.6-2.5 1.1-1.6.8h-1.9l-1.7-1.4-1.4-.8-1.3 1.1-.3 2.8-.8 1.9-2.5 2.2-2.7 3.3-2.8 2.4-1.3.8-.6-2.1-2.5 1.9-.2 2.7-1.9 4.1-1.1 5.5-1.4 3.3-1.4 3.5-1.1 3.3-1.1 5-.2 4.1-.9 2.4-2.2 2.2-3.3 2h-3.2l-2.2 1.9-1.4 2.2-1.1 4.1-1.6 3.3-.3 2.7v2.5l.5 2.7.6 3-1.1 2.5-.8 3.5-2 3.6-1.9 8.2-.2 13.2v14l1.6 8.7 2.5 4.7 2.4 2.2 1.1 4.4.3 2.7-.5 7.7-.9 12.8 1.4 8.5 2.7 11.5 4.1 10.5 5.3 8.7 7.6 10.7 8.5 9.3 9.9 9.6 9.6 6.6 12.3 6.3 14.5 3.3 13.7.8 10.4-2.2 9.4-5.2 6.8-6.6 12.6-19.4 4.7-6.1 5.2-7.3 6.5-9.9 5.2-9.9 2.8-9 .5-7.7.9-4.9 2.1-12.4v-9.3l2.2-8.2.6-4.6v-7.2z" id="Shape_22"/><path class="st4" d="M-894.3 929.2l-9.4 1.7-9 .7-8 .5-5.1-.2-5.8-1.3-6.8-1.4-8.9-1.5-10-1.4h-5.8l-6.8-.3 1.7 4.4 7.1 4.6 6.5 2.9 61-.7 4.4-2.9 3.4-5.1z" id="Gums"/><path class="st5" d="M-896.4 933.9h-5.6l-4.2.6-5.3.2-3.8.4-5.6.1-2.2-.1-2.2-.3-2.7.1-4.7-.1-4.1.1-9.1-1.3-8.2-1-5.3-.3h-5.7l12.9 6.8 10.4 3.4 11.7 2.4 8.2.8 8.2-1 7-1.9 8.3-3.2 5.8-4.1 3.1-2z" id="Shape_35"/><path class="st6" d="M-943.6 825.8l-2.4-1.7-3.2-1.4h-7.8l-3.6-.4-9.1-.8-4.3-1.1-3.5-.8-2.2.2-3.7 1.1-3.8 1.1-5.4 1.8-2.7 1.6-2.4 2.3-1.2 2.1.4 2.4 1 1.9 1.7-2.4 2.6-1.6 4-1.9 4.6-1.1 4.7.6 4 .7 7.3 1.6 6.2.4 6.1-.7h5.1l4.4 1.2 2.9.5 1.7-.6v-2.1z" id="Shape_18"/><path class="st6" d="M-852 832.9l-2.1-2.5-2.7-2.1-4.9-3h-1.6l-2.9 1.2h-5.1l-6-.4-4.9.4-6.2 1.6-3.5 1.3-1.8 1.6-1.7 2.7.6.8 1.1.8 1.6.2h5.5l5.6-.6 5.5-.2h8.5l7.4.8 2.8 1.5 1.9 2 2 2.9.3-1.2.8-2.5.2-2.9z" id="Shape_19"/><path class="st3" d="M-954.2 847.2l-5.4-1.1-2.2-.8-7.3.6-4.9.5-3.7.9-2.2 1.7-3.2 2.5-2.7 2-.5.9-.3 1.1.7.3 1.3-1 3.7-1.6 2.7-1.2 1.9-1 2.2-1.4.6.4.7 1.4 1.2 1.7 1.8 1.4 2.2.5 5.6.3 1.6-.6.8-1.5.4-1.7 1.2-1.2 1.2-.7 3.1.2.5-1.3z" id="Shape_15"/><path class="st5" d="M-971.3 853.1l-.8-.9-.8-1.3-.7-.9h-1l-.6.1-.5.4-.1.6.1.8.6 1 .8.7 1.7.7 2.2-.1z" id="Shape_39"/><path class="st3" d="M-866.6 856l-2.1-2.3-4.4-2.2-2.9-1.5-2.6-.2-5.3-.5-5.1.4-4 1.4-2.3 1.6-1.3 1 .8.6 1.4-.1 1.8-.1 1 2 1.5 1.1 3.8.4 2.7.2h2.3l2.1-.2 1.4-.7.9-1.5.8-1.1h.9l1.4 1 3 1.7 2.4 1.1 2 1.2 1.2.4.6-1.2z" id="Shape_17"/><path class="st6" d="M-962.2 847.2l-2.4-.2-2.2.1-2.4.7-.9.3.2.6.7 2.2 1.8 1.4 1.7.6 1.9-.5 1.6-1.3 1.4-2v-1z" id="Shape_20"/><path class="st6" d="M-882.2 851l-2.2-.5-1.8-.1-1.8.4-1.5.6-.2 1.2 1.5 2.2 2 1.2h1.9l1.9-.8 1-1.7.2-1.1v-.8z" id="Shape_21"/><path class="st7" d="M-869.5 807.8l-2.5-5.8-.8-8-2-8.2-2.9-6.4-6.8-9-2.5-4.1-6.1-5.4-5.2-4.3-3.5-2-1.2-.2-2.9.6-1.8-2.1-2.9-.8-5.8 2.5-2.6 1.8-7.4 1.2-4.3 1.5-5.3-1.1v-1.5l-2.5-1.4h-3.8l-1.5.4-.3 1.9-1-.5-2-1-1.6.6-.8 2.7v2.4l-.5 2.5-.5-1.3-1.2-2.3-.8-2.3-1.1-1.3-2 .1-1.3.8-2.8 2.4-1.8 1.9-2.6 1.3-3.2 2-2.4 1.7-2.8 1.9-1.2 1.3-1 3.7-1.4 3.2-.7-1.6-.8-1.5h-1l-1.8.8-2.2 2.8-1.4 3.7-1.7 3.1-1 3.6-.1 11.5.6 9.7 1.7 8.6 1.6 1h1.6l1.7-.8 1-1.5 1.8-.8 3.5.2 5 2.1 7.8 1.4 11.1 1 6.7 1.9 4.2 2.6 2.8 3.1 2.1 3.1v3.3l-.2 4.5.6 3.5 2.1 2.5 1.8 3.1 1.4 2.4 1.5 3.7.6 2.1v2.9l-.4 3.9v5.1l.8 2.9 1 2.9 1.7 2.2-.4 3.5v3.1l-1.5 2.2-1.4 2.1-.8 2.9.4 4.9 1.6 3.1 1.3 2 2.6 2.5 3.5 2.1h2.9l3.3-2.7 1.6-3.3.4-3.3-.6-4.3-1.6-4.1-1.3-3.1-.6-4.3v-3.7l.2-4.9v-3.9l-.4-3.5-.8-4.8.6-4.7 1-4.5 1.7-3.3 1.4-2 2.9-.9 2.1-1.6 1.6-2.9 1-4.9 1.7-2.5 3.9-3.7 5.9-3.1 6-1.4h5.8l7.1 1.6-.2-3.5.7-2.8 2.2-3.1.2-3.7z" id="Shape_3"/><path class="st7" d="M-955 832h-6.199999999999999l-4.7-.3-4.2-.1-4.5-.6-2.6-.5h-5.8l-3.2 1.1-2.4 1.8-2 2.3-1.4 2.2-.8 3.9.1 1.3.8.4 1-.4 1.7-1.1 1.8-1.3 2.4-1.2 2.4-1 6.1-.7 4.3-.3 6.9-.6 5.1-1.2 4-2 1.7-.6.4-.8z" id="Shape_4"/><path class="st7" d="M-869 837.9l-2.5-.6-4.6.8-5.8 2.8-3.3 1.6h4.7l7.9-.8 4.1-1.7z" id="Shape_36"/><path class="st5" d="M-953.1 850.7l-2.4-1.1-1.6.3-.9.5-.7 1.1-.3 1.5.3 1.1 1.3.1h1.8l2-.7 1.2-1.2v-1z" id="Shape_5"/><path class="st7" d="M-940.4 854.2l-1-1.2-2.8-2.7-.6.7.9 1.5.4 1.7-.6 2.1-.1 1.7 1 .9 1.9-2.1 1-1.5z" id="Shape_6"/><path class="st7" d="M-903 978.4l-.3-2.5-1.6-1.6-4.4-2.2h-3.3l-6.6-.8-4.7-3-1.4-1.1v-1.6l1.6-2.5 1.9-.3 1.6-.8 3.3-.5 4.1-1.4h-2.7l-4.1-.5-11.4-3-10-1.3-6.5-3.5-6-3.9-7.4-6.6-5.9-5.8-2.7-4.6-1.7-1.5-.7.3-.3 1.7-1.8-1-.4-1.7-.3-1.7-.1-2.1v-2.5l.6-2.2 1.4-1.1 2.1-.3 2.2 1 1.5 1.3 1.5 1 7.4.4h11.7l10.7.1 5.9 1 6.2 1.4 4.5-.1 3.9-1 5.1-2.1 2.2-1 1-1.3-.8-1.4-2.2-1.1h-2.7l-3.2-.1-3.4-.1-2.8-.4-3.6-1.1-2.7-.4-4.4.1-3.3-.1-2.9-.8-3.8-2-3.2-3-2.7-5.6-.8-3.8.1-3.4.6-3.8 1.5-3.1 1.8-2.5 1.4-2 .6-2-.3-2.1v-4.4l.8-4.1 2.1-3.1 1.5-1.8v-1.8l-1-1-2.1.8-2.5.6-2-.3-1.1-.8-.8-1s-2.1-.8-2.8-.8l-3.1.7-3.9.1-2.5.1-1.4-1.7-.4-2.1 1.4-1.1 1.1-1.1-.7-1.3-2.2-.1-3.7 1-2.7 1.5-3.7 1.4-6.9-.7-3.5-.3-8.9-2.8-4.5-.6-1.4.5-1.3 1.3-1.5 1.8-.5 2 .5 2 .8 2.3 1.2 3.1.8 5.6 1.2 2.2 1.5 1 1.6.3 2 .8 1.8 1.7 1.5 3.8 1 4.1 1.5 3.5 1.3 3.5-.1 5-2 2.8-.8 5.9-.3 4.1-1.3 2.3-1.2.3-1.3.7-1.5 1.2-1 3.8.2 6.4 1 6.9 2.3 8.7 2.3 7.6 4.4 7.9 3.6 5.4 3.1 2.3 4.3 2.5 3.8 2.1 2 2.6 2.3 5.6 2 4.3 7.9 7.2 9.5 6.4 9.2 2.1 11.2 1 4.8-.8 4.6-1.8 2.8-.5 2.8-1.5 2.5-2.6 1.8-2.8 2.7-5.8-.5-2.2.5-2.5.6-1.8z" id="Shape_7"/><path class="st2" d="M-979.9 943.3l-1.7-3.6-2.1-5.1-3.1-9.5-.9-1.2h-1.3l-.8 1.2-.2 2.2 1.3 3.7 2.5 4.3 4.4 8.6 5.7 6.7z" id="Shape_37"/><path class="st7" d="M-869.7 874.7h-3l-.5-1.3v-1.1l1.1-1.3s-.6 0-1.5.1c-1.8.1-4.4.2-4.4.2l-1.9-.2-4-2.2-1.1.3-.2 1.3-1 .8h-2.7l-1.6-1.1-1-1.3-1.1-.3-1 .8-.3 1 .3.8 1 1.8-1 .3h-1.6l-1.6.8.2 1.6.8 1.6.5 1.8.6 2.1-1 5.4.3 5.9 1 3.5 2.4 3.2 1.3 2.1 1.3 1 1.9 1 2.9 1.8 2.9 1.9 3.8-.3 3.2-1.1 1.1-1.1 1-1.3v-4.2l.3-2.2v-3.2l.2-2.2.3-1.9.5-2.4.2-2.2.6-2.9 1.1-3 .8-2.4v-1.3l-1.1-.6z" id="Shape_8"/><path class="st7" d="M-874.8 921l-.9-1.6-1.2-1.6-1.4-.6-1-.7-1.1-.5-.8-1.4-.2-1.8-.4-.9-1-.3h-1.3l-1.7.8.6 2.2 1.4 2.9 1.5 2.1 1.6 1.6 1.3 3.3.4 5.5-.6 3.5-2.7 3.2-1.5 3.5-1.6 3.1-.6 3.7-1 3.7-.6 2.5-1.4 2.3 1.1.3h1.4l1.1.8 1.2-1 1.6-2.5 1.1-2.1.9-2.3.7-2 .6-2.5 1.2-1.9 1.6-3 .9-3.5.3-3.2 1.5-5.5v-4.300000000000001z" id="Shape_9"/><path class="st7" d="M-865.5 922.1l-1.4-.3-2.3.2-.8 1.3-1.3 6.2-2.7 9.1-3.7 8.2-.1.8.9.8 1.2 1.3.4 1.6 1-1.1 2.6-3.9 1.6-4 2.4-5.3 1.9-6.2.8-3.5.5-4.8z" id="Shape_10"/><path class="st5" d="M-874.7 855.2l-1.3-.3h-.7l-.2.5-.9 1.3.5.3 2.9.2.6-1.5z" id="Shape_11"/><path class="st5" d="M-891.4 856.2l-.7-.8-.5-1-.5-.3-.4-.1h-.7l-1.6.6-2 1.1.1.6.8.5.8.3 2.1-.1 2.9-.1z" id="Shape_12"/><path class="st5" d="M-886.3 850.5l-.7.7.5 1.9 1.5-.1.4-.6.2-1.6z" id="Shape_13"/><path class="st5" d="M-965.3 847.5h-.9l.3 1.8.8.6 1.3-.6v-1.8z" id="Shape_14"/><path class="st8" d="M-828.5 821.1l-.8-7.6.6-9.3.5-5.5v-4.4l-.3-5.2-1.6-4.7-.8-4.1v-8.5l-1.4-7.1-1.4-4.9.3-3.9-1.4-5.2-2.4-5.2-3.6-8.2-4.4-3.8-3.8-5.8-6-6.6-3.6-5.7-4.4-3.6-4.9-3.5-9.1-2.8-5.7-2.4-6.6-3.6-5.2-3.3-3.8-1.4-5.8-.5-8.5-3.6-10.1-3.5-9.1-4.1-5.2.5-3.8-1.6-4.9-.3h-7.2l-6 3-6.8.3-6.6 1.3-6.9 4.4-9 5.5-5.5 1.6-6 2.8-4.4 3.3-3.8 3-4.7 2.5-6.3 4.9-8.2 8.2-6.3 8-4.9 7.3-1.4 3.1-1.9 4.6-2.5 5.2-5.5 10.2-2.7 9.3-1.7 14.2-.2 13.7.5 14.3 1.4 13.9 2.2 11 2.4-.5.6 2.1.8 4.7 1.4 2.7 1.6 5.3 2.2 3.5 2.2 2.2 1.9 2.2 1.4 1.9 2.5 4.9 3.5 5.3 4.7 3.2 1.4-2.2v-6l-.3-3-.3-3.6-.3-5.7v-9.6l1.1-5.2 1.4-5.2-1.4-4.9 1.4-5 .3-3.3 3.3-4.6 3-2.8 2.7-3.8 6.6-6 3.5-.8 5-4.4 1.9-5 .8-4.9-.3-3.6.9-1.3 1.6.3v-3.6l2.2-7.4 6.6-8.2 3.5-2.2 2.8-.3 4.1-5.5 2.5-2.7 4.6-.3h3.6l4.9-3.3 4.7-3 3.8-2.7 3.3-1.7 5.2-1.1 2.7 2h5.8l4.1-.6 3-1.4-1.4 3-5.2 3.3 6.3.3 5.2-.5 4.2-2 3-2.1 2.4-1.4 7.7 2.7 4.9 3 4.4 3.6 8 6.6 4.4 4.6 6 7.4 6.6 12.1 3.5 7.9 2.5 6.9 1.1 2.2h1.6l.6-1.9.8-2.5 2.2 2.7.5 3.6 1.7 4.9 4.9 7.1 3 5.5 2.2 5.8-.5 7.9-.3 6-.8 7.7-.6 10.4-.5 11-1.1 11.5 1.3-.8 2-3.9 4.1-8.2 3-5.7 1.6-6.6 2.8-7.1 1.6-4.7 1.7-5.2 1.3-6.3.9-5.5z" id="Shape_2"/><path class="st8" d="M-1014 987.7l.7-3.4-7.5 4.6-3.8 5.7-7.2 7.6-11.9 8.9-30.9 10.1s-12.1 4.3-43 13.4c-7.2 2.1-38.7 18.7-38.7 18.7l-11 12.6-12 21.9-7.1 19.3-2.8 12.3h499.6l-3.7-14.5-5.5-10.4-6.3-11.2-5.5-9.3-5.8-7.1-12.6-11.2-11.5-5.8-18.9-8.5-31.2-9.3-32.5-12.8-8.2-4-5.8-2.7-19.4-11.7-7.3-1.6-6.4-.7-5.4-.3s3.2 2.8 6.8 4.8c3.9 2.1 8.7 3.3 8.7 3.3l-2.7 5.9-5.2 7.7-6.1 8.1-6.7 7-9.6 7-9.4 4.7-8.5 3-11.4 2.6-7.2-.2-8.6-.6-10.7-2.7-10.9-3.6-11.6-5-13.5-7.1-11.9-7.8-9.6-5.6-7.6-6.6-4.2-4.7-3.3-4.7-1.9-7.4 3.7-4.5 3-4.2z" id="Shape_40"/></svg>