<svg xmlns="http://www.w3.org/2000/svg" width="800" height="800" viewBox="0 0 800 800"><style type="text/css">.st0{fill:#FFFFFF;} .st1{fill:#FFFFFF;stroke:#FFFFFF;stroke-width:1.198;}</style><path class="st0" d="M105.936 370.361c7.621 18.6 4.033 42.357-8.966 56.475-13.216 15.91-36.974 22.859-57.815 16.36-18.38-5.155-32.72-20.843-37.652-38.545-5.155-22.637 3.14-44.599 21.962-57.372 13.896-10.083 35.409-12.552 51.767-6.276 14.346 6.049 23.757 15.913 30.704 29.358zm-49.302-27.565c-16.36 1.344-30.478 10.978-37.423 25.997-6.503 16.582-4.038 38.771 8.962 50.871 4.708 4.034 8.739 8.294 13.894 9.635-10.311-10.756-17.929-24.425-17.701-40.562 1.116-17.93 12.101-35.635 28.457-42.581 1.348-.222 2.019.45 1.571 1.569-11.877 8.292-19.271 20.844-21.961 35.411-2.466 18.823 5.827 35.853 20.168 46.612-9.41-12.996-13.67-34.733-4.261-49.302 6.054-10.761 16.809-19.946 28.69-21.29v1.791c-10.983 6.954-19.721 15.239-23.982 27.792-5.152 14.118-1.568 32.045 8.518 43.028-4.705-12.325-3.588-28.012 4.256-38.545 4.483-5.6 10.307-13.447 17.706-13.892v1.562c-5.156 4.037-9.412 10.087-12.997 15.688-5.38 11.434-6.052 28.909 1.795 39.224 3.135 1.568 5.823-1.122 8.516-2.466 1.114-4.036-2.247-7.618-1.345-12.323 4.706-7.402 6.719-16.814 4.48-25.775l.896-.896c2.017.674 3.135 2.466 4.259 3.807 3.134 4.707 4.705 12.104 1.569 17.256-1.569 4.261-7.4 8.744-4.036 13.449 6.946-4.483 11.651-11.654 14.794-18.826 6.277-13.895 4.031-33.166-4.258-45.043-9.862-13.448-23.535-21.967-40.567-22.191zM175.402 436.511h-17.402v-68.393c0-2.56-.687-4.485-2.06-5.784-1.371-1.299-3.531-1.945-6.478-1.945h-3.141v76.123h-17.401v-86.455h13.809l1.901 3.844c1.572-1.334 3.497-2.306 5.771-2.918 2.272-.617 4.759-.926 7.46-.926 5.505 0 9.805 1.538 12.9 4.613 3.093 3.072 4.64 7.323 4.64 12.751v69.09zM204.67 378.576v-9.371c0-3.63.494-6.178 1.481-7.639.991-1.46 2.83-2.191 5.525-2.191 2.457 0 4.203.75 5.245 2.245 1.039 1.493 1.558 4.02 1.558 7.585v9.371h-13.809zm31.214-5.812c0-8.156-1.929-14.13-5.784-17.922-3.857-3.789-10.029-5.682-18.525-5.682-7.917 0-13.945 2.02-18.091 6.068-4.146 4.045-6.217 9.89-6.217 17.536v63.747h17.403v-46.483h13.809v46.483h17.404v-63.747zM320.768 436.511h-17.4v-71.512c0-1.536-.422-2.782-1.269-3.738-.843-.956-2.023-1.436-3.542-1.436h-5.52v76.686h-17.177v-71.512c0-1.536-.422-2.782-1.268-3.738-.842-.956-2.022-1.436-3.544-1.436h-5.521v76.686h-17.399v-86.455h13.92l1.789 3.844c1.086-1.128 3.014-2.05 5.78-2.766 2.768-.718 5.423-1.078 7.972-1.078 3.057 0 5.642.385 7.767 1.155 2.122.769 3.744 1.853 4.863 3.254 1.637-1.401 3.616-2.485 5.936-3.254 2.319-.769 4.69-1.155 7.113-1.155 5.356 0 9.609 1.463 12.768 4.383 3.155 2.919 4.731 7.059 4.731 12.417v69.655zM351.389 436.511h-17.405v-86.455h17.405v86.455zM10.808 467.159l-6.314-11.127h-3.457v15.986h3.07v-11.334l6.475 11.334h3.295v-15.986h-3.069zM26.333 471.206c-.101-.146-.162-.425-.183-.835-.015-.536-.022-.992-.022-1.369v-5.435c0-1.427-.502-2.391-1.505-2.891s-2.15-.75-3.442-.75c-1.984 0-3.384.512-4.199 1.536-.512.654-.801 1.491-.866 2.507h2.995c.072-.45.216-.808.433-1.074.304-.357.821-.536 1.551-.536.65 0 1.144.094 1.48.279.336.185.504.521.504 1.007 0 .399-.221.694-.662.882-.246.109-.655.2-1.227.273l-1.053.131c-1.195.152-2.099.407-2.713.763-1.122.653-1.682 1.71-1.682 3.169 0 1.127.348 1.996 1.044 2.61.696.613 1.578.919 2.646.919.836 0 1.587-.192 2.251-.576.556-.325 1.046-.721 1.472-1.184.022.267.05.505.086.714.036.211.101.433.195.671h3.35v-.449c-.201-.094-.352-.215-.453-.362zm-3.264-3.809c-.022 1.045-.315 1.764-.88 2.157-.565.395-1.184.592-1.855.592-.423 0-.783-.118-1.079-.356-.295-.238-.443-.622-.443-1.156 0-.599.246-1.04.74-1.324.291-.169.763-.311 1.414-.428l.694-.131c.347-.066.619-.137.818-.213.199-.077.395-.178.591-.302v1.161zM32.048 457.006h-3.07v3.332h-1.647v2.171h1.647v7.265c0 .737.173 1.282.521 1.635.535.557 1.533.808 2.994.758l1.465-.037v-2.321l-.308.028-.296.009c-.626 0-1-.06-1.122-.179-.122-.119-.183-.421-.183-.907v-6.252h1.909v-2.171h-1.909v-3.331zM35.658 455.958h3.07v2.845h-3.07zM35.658 460.188h3.07v11.83h-3.07zM46.806 459.888c-2.027 0-3.538.62-4.534 1.86-.996 1.24-1.493 2.705-1.493 4.396 0 1.721.498 3.191 1.493 4.414.995 1.223 2.507 1.833 4.534 1.833 2.027 0 3.538-.611 4.534-1.833.996-1.223 1.493-2.693 1.493-4.414 0-1.692-.498-3.156-1.493-4.396-.996-1.24-2.507-1.86-4.534-1.86zm2.078 8.965c-.487.638-1.183.956-2.091.956-.908 0-1.606-.318-2.096-.956-.49-.638-.735-1.543-.735-2.718s.245-2.079.735-2.713c.49-.634 1.189-.951 2.096-.951.908 0 1.605.317 2.091.951.487.634.73 1.538.73 2.713s-.244 2.081-.73 2.718zM61.264 459.926c-.972 0-1.774.24-2.407.718-.353.269-.727.709-1.122 1.318v-1.737h-2.957v11.792h3.07v-6.383c0-.728.099-1.327.299-1.795.385-.887 1.093-1.331 2.126-1.331.84 0 1.41.303 1.709.908.164.332.246.809.246 1.43v7.171h3.182v-7.946c0-1.479-.387-2.54-1.161-3.182-.774-.641-1.769-.963-2.985-.963zM77.831 471.206c-.101-.146-.162-.425-.183-.835-.015-.536-.022-.992-.022-1.369v-5.435c0-1.427-.502-2.391-1.505-2.891s-2.15-.75-3.442-.75c-1.984 0-3.384.512-4.199 1.536-.512.654-.801 1.491-.866 2.507h2.995c.072-.45.216-.808.433-1.074.304-.357.821-.536 1.551-.536.651 0 1.144.094 1.48.279.336.185.504.521.504 1.007 0 .399-.221.694-.662.882-.246.109-.655.2-1.227.273l-1.053.131c-1.195.152-2.099.407-2.714.763-1.122.653-1.682 1.71-1.682 3.169 0 1.127.348 1.996 1.044 2.61.696.613 1.578.919 2.646.919.837 0 1.587-.192 2.251-.576.556-.325 1.046-.721 1.472-1.184.022.267.05.505.087.714.036.211.101.433.195.671h3.35v-.449c-.201-.094-.353-.215-.453-.362zm-3.264-3.809c-.022 1.045-.315 1.764-.88 2.157-.566.395-1.184.592-1.855.592-.423 0-.783-.118-1.079-.356-.295-.238-.443-.622-.443-1.156 0-.599.246-1.04.74-1.324.291-.169.763-.311 1.414-.428l.694-.131c.347-.066.62-.137.818-.213.199-.077.395-.178.591-.302v1.161zM80.064 456.07h3.07v15.948h-3.07zM95.774 456.032l-5.682 15.985h3.466l1.069-3.257h5.871l1.037 3.257h3.611l-5.627-15.985h-3.745zm-.236 9.958l2.07-6.303 2.009 6.303h-4.079zM106.708 456.07h3.07v15.948h-3.07zM112.577 456.07h3.07v15.948h-3.07zM118.446 460.188h3.07v11.83h-3.07zM118.446 455.958h3.07v2.845h-3.07zM134.119 471.206c-.101-.146-.162-.425-.183-.835-.015-.536-.022-.992-.022-1.369v-5.435c0-1.427-.502-2.391-1.505-2.891s-2.15-.75-3.442-.75c-1.984 0-3.384.512-4.199 1.536-.512.654-.801 1.491-.866 2.507h2.995c.072-.45.216-.808.433-1.074.304-.357.821-.536 1.551-.536.651 0 1.144.094 1.48.279.336.185.504.521.504 1.007 0 .399-.221.694-.662.882-.246.109-.655.2-1.227.273l-1.053.131c-1.195.152-2.099.407-2.714.763-1.122.653-1.682 1.71-1.682 3.169 0 1.127.348 1.996 1.044 2.61.696.613 1.578.919 2.646.919.837 0 1.587-.192 2.251-.576.556-.325 1.046-.721 1.472-1.184.022.267.05.505.087.714.036.211.101.433.195.671h3.35v-.449c-.2-.094-.352-.215-.453-.362zm-3.264-3.809c-.022 1.045-.315 1.764-.88 2.157-.566.395-1.184.592-1.855.592-.423 0-.783-.118-1.079-.356-.295-.238-.443-.622-.443-1.156 0-.599.246-1.04.74-1.324.291-.169.763-.311 1.414-.428l.694-.131c.347-.066.619-.137.818-.213.199-.077.395-.178.591-.302v1.161zM142.84 459.926c-.972 0-1.774.24-2.407.718-.353.269-.727.709-1.122 1.318v-1.737h-2.957v11.792h3.07v-6.383c0-.728.099-1.327.299-1.795.385-.887 1.093-1.331 2.126-1.331.84 0 1.41.303 1.709.908.164.332.246.809.246 1.43v7.171h3.182v-7.946c0-1.479-.387-2.54-1.161-3.182-.774-.641-1.769-.963-2.985-.963zM154.546 462.509c.729 0 1.266.234 1.613.702.238.347.386.737.444 1.17h3.182c-.173-1.659-.729-2.817-1.669-3.472-.94-.655-2.148-.983-3.624-.983-1.736 0-3.097.557-4.083 1.669-.987 1.112-1.48 2.689-1.48 4.727 0 1.809.446 3.271 1.339 4.391s2.285 1.679 4.179 1.679c1.893 0 3.321-.668 4.286-2.005.604-.828.942-1.708 1.015-2.637h-3.182c-.065.608-.249 1.104-.55 1.486-.302.382-.812.573-1.531.573-1.014 0-1.704-.481-2.071-1.444-.201-.533-.302-1.24-.302-2.119 0-.922.101-1.66.303-2.217.381-1.012 1.092-1.52 2.131-1.52zM171.323 462.186c-.534-.795-1.211-1.376-2.031-1.745-.82-.367-1.742-.552-2.765-.552-1.723 0-3.124.545-4.204 1.636-1.08 1.089-1.619 2.656-1.619 4.698 0 2.178.598 3.753 1.793 4.719 1.196.967 2.575 1.451 4.139 1.451 1.895 0 3.369-.573 4.422-1.722.676-.722 1.056-1.433 1.139-2.134h-3.104c-.185.345-.398.615-.639.808-.442.359-1.017.539-1.724.539-.668 0-1.239-.147-1.713-.442-.78-.473-1.194-1.3-1.242-2.478h8.588c.015-1.018-.019-1.799-.101-2.34-.145-.924-.458-1.738-.939-2.438zm-7.512 2.719c.113-.748.391-1.339.834-1.777.442-.437 1.065-.656 1.868-.656.738 0 1.357.206 1.856.619.498.413.776 1.018.834 1.814h-5.392zM184.825 459.888c-2.027 0-3.538.62-4.534 1.86-.996 1.24-1.493 2.705-1.493 4.396 0 1.721.498 3.191 1.493 4.414.996 1.223 2.506 1.833 4.534 1.833 2.027 0 3.538-.611 4.534-1.833.996-1.223 1.493-2.693 1.493-4.414 0-1.692-.498-3.156-1.493-4.396-.996-1.24-2.507-1.86-4.534-1.86zm2.078 8.965c-.487.638-1.183.956-2.091.956-.908 0-1.606-.318-2.096-.956-.49-.638-.735-1.543-.735-2.718s.245-2.079.735-2.713c.49-.634 1.189-.951 2.096-.951.908 0 1.605.317 2.091.951.487.634.73 1.538.73 2.713s-.244 2.081-.73 2.718zM199.283 459.926c-.972 0-1.774.24-2.407.718-.353.269-.727.709-1.123 1.318v-1.737h-2.957v11.792h3.07v-6.383c0-.728.099-1.327.299-1.795.385-.887 1.093-1.331 2.126-1.331.84 0 1.41.303 1.709.908.164.332.246.809.246 1.43v7.171h3.182v-7.946c0-1.479-.387-2.54-1.161-3.182-.773-.641-1.768-.963-2.984-.963zM219.87 468.602l-2.912-12.569h-4.819v15.985h3.07v-10.812l-.011-1.307-.011-1.296 3.01 13.415h3.249l3.031-13.415-.011 1.296-.011 1.307v10.812h3.07v-15.985h-4.765l-2.89 12.569zM239.771 462.186c-.535-.795-1.211-1.376-2.031-1.745-.82-.367-1.742-.552-2.765-.552-1.723 0-3.124.545-4.204 1.636-1.08 1.089-1.619 2.656-1.619 4.698 0 2.178.598 3.753 1.793 4.719 1.196.967 2.575 1.451 4.139 1.451 1.894 0 3.368-.573 4.421-1.722.676-.722 1.056-1.433 1.139-2.134h-3.105c-.185.345-.398.615-.639.808-.442.359-1.018.539-1.724.539-.668 0-1.239-.147-1.713-.442-.78-.473-1.194-1.3-1.242-2.478h8.587c.015-1.018-.019-1.799-.101-2.34-.143-.924-.455-1.738-.936-2.438zm-7.512 2.719c.113-.748.391-1.339.834-1.777.442-.437 1.065-.656 1.868-.656.738 0 1.357.206 1.855.619.498.413.777 1.018.834 1.814h-5.391zM248.612 459.926c-.971 0-1.773.24-2.406.718-.353.269-.728.709-1.123 1.318v-1.737h-2.957v11.792h3.07v-6.383c0-.728.099-1.327.299-1.795.385-.887 1.093-1.331 2.126-1.331.84 0 1.41.303 1.709.908.164.332.246.809.246 1.43v7.171h3.182v-7.946c0-1.479-.387-2.54-1.161-3.182-.774-.641-1.768-.963-2.985-.963zM258.857 457.006h-3.07v3.332h-1.647v2.171h1.647v7.265c0 .737.173 1.282.521 1.635.535.557 1.533.808 2.994.758l1.465-.037v-2.321l-.308.028-.297.009c-.626 0-.999-.06-1.122-.179-.122-.119-.182-.421-.182-.907v-6.252h1.909v-2.171h-1.909v-3.331zM272.27 471.206c-.101-.146-.161-.425-.183-.835-.014-.536-.021-.992-.021-1.369v-5.435c0-1.427-.503-2.391-1.504-2.891-1.004-.5-2.15-.75-3.442-.75-1.984 0-3.384.512-4.2 1.536-.512.654-.8 1.491-.866 2.507h2.995c.073-.45.217-.808.433-1.074.304-.357.821-.536 1.551-.536.65 0 1.144.094 1.48.279.336.185.504.521.504 1.007 0 .399-.221.694-.662.882-.246.109-.655.2-1.226.273l-1.053.131c-1.196.152-2.099.407-2.714.763-1.122.653-1.682 1.71-1.682 3.169 0 1.127.349 1.996 1.044 2.61.697.613 1.578.919 2.646.919.836 0 1.586-.192 2.251-.576.556-.325 1.046-.721 1.472-1.184.021.267.05.505.087.714.036.211.101.433.194.671h3.351v-.449c-.202-.094-.354-.215-.455-.362zm-3.264-3.809c-.021 1.045-.315 1.764-.88 2.157-.566.395-1.184.592-1.855.592-.424 0-.783-.118-1.079-.356-.295-.238-.442-.622-.442-1.156 0-.599.246-1.04.739-1.324.293-.169.763-.311 1.414-.428l.694-.131c.346-.066.62-.137.819-.213.199-.077.395-.178.59-.302v1.161zM274.504 456.07h3.07v15.948h-3.07zM286.167 456.032h3.294v15.985h-3.294zM292.112 456.07h3.07v15.948h-3.07zM297.981 456.07h3.07v15.948h-3.07zM310.337 459.926c-.971 0-1.773.24-2.406.718-.353.269-.728.709-1.123 1.318v-1.737h-2.957v11.792h3.07v-6.383c0-.728.099-1.327.299-1.795.385-.887 1.093-1.331 2.126-1.331.84 0 1.41.303 1.709.908.164.332.246.809.246 1.43v7.171h3.182v-7.946c0-1.479-.387-2.54-1.161-3.182-.774-.641-1.768-.963-2.985-.963zM326.783 462.186c-.535-.795-1.211-1.376-2.031-1.745-.82-.367-1.742-.552-2.766-.552-1.723 0-3.124.545-4.203 1.636-1.08 1.089-1.619 2.656-1.619 4.698 0 2.178.598 3.753 1.793 4.719 1.196.967 2.575 1.451 4.139 1.451 1.894 0 3.368-.573 4.421-1.722.676-.722 1.056-1.433 1.139-2.134h-3.105c-.185.345-.398.615-.639.808-.442.359-1.018.539-1.724.539-.668 0-1.239-.147-1.713-.442-.78-.473-1.195-1.3-1.242-2.478h8.587c.015-1.018-.019-1.799-.101-2.34-.143-.924-.455-1.738-.936-2.438zm-7.512 2.719c.114-.748.391-1.339.833-1.777.442-.437 1.065-.656 1.868-.656.738 0 1.357.206 1.855.619.498.413.777 1.018.834 1.814h-5.39zM335.489 464.91c-1.851-.4-2.929-.681-3.235-.847-.306-.159-.46-.414-.46-.767 0-.281.144-.527.432-.735.288-.208.771-.313 1.448-.313.824 0 1.407.211 1.75.629.181.232.295.545.338.943h3.07c-.137-1.444-.67-2.459-1.599-3.049-.929-.587-2.132-.882-3.607-.882-1.555 0-2.76.39-3.616 1.168-.858.779-1.286 1.71-1.286 2.794 0 .92.267 1.624.8 2.11.533.496 1.478.908 2.833 1.235 1.884.434 2.971.742 3.265.922.293.182.439.446.439.793 0 .363-.184.634-.55.814-.366.181-.861.271-1.482.271-1.059 0-1.784-.206-2.177-.62-.222-.233-.366-.625-.433-1.177h-3.07c0 1.22.442 2.224 1.328 3.011.884.788 2.256 1.182 4.112 1.182 1.82 0 3.166-.37 4.036-1.107.87-.739 1.306-1.692 1.306-2.859 0-.886-.297-1.624-.89-2.216-.6-.582-1.517-1.016-2.752-1.3zM350.279 466.21c-.601-.583-1.518-1.017-2.751-1.301-1.851-.4-2.929-.681-3.236-.847-.307-.159-.459-.414-.459-.767 0-.281.144-.527.432-.735.288-.208.77-.313 1.448-.313.824 0 1.406.211 1.749.629.182.232.295.545.339.943h3.07c-.138-1.444-.672-2.459-1.6-3.049-.929-.587-2.13-.882-3.605-.882-1.555 0-2.761.39-3.617 1.168-.856.779-1.284 1.71-1.284 2.794 0 .92.267 1.624.8 2.11.534.496 1.478.908 2.834 1.235 1.882.434 2.97.742 3.264.922.292.182.44.446.44.793 0 .363-.184.634-.55.814-.367.181-.861.271-1.482.271-1.059 0-1.785-.206-2.177-.62-.222-.233-.366-.625-.433-1.177h-3.07c0 1.22.442 2.224 1.327 3.011.886.788 2.256 1.182 4.112 1.182 1.82 0 3.167-.37 4.037-1.107.87-.739 1.306-1.692 1.306-2.859-.002-.885-.3-1.623-.894-2.215zM488.765 436.278h-29.341v-3.322c1.06-.03 2.425-.14 4.095-.328 1.668-.187 2.815-.452 3.439-.796.966-.592 1.676-1.27 2.129-2.036.452-.764.679-1.723.679-2.878v-48.293h-.702l-22.649 56.575h-2.34l-21.573-57.745h-.608v39.635c0 3.837.241 6.755.725 8.751.483 1.997 1.224 3.432 2.223 4.305.686.655 2.106 1.28 4.258 1.872 2.153.593 3.556.905 4.212.936v3.322h-26.812v-3.322c1.404-.124 2.878-.358 4.422-.702 1.544-.343 2.738-.858 3.58-1.544 1.091-.873 1.84-2.215 2.246-4.024.405-1.809.608-4.835.608-9.078v-33.973c0-1.965-.234-3.572-.702-4.82-.468-1.247-1.139-2.261-2.012-3.042-.967-.842-2.153-1.466-3.556-1.872-1.404-.405-2.793-.639-4.165-.702v-3.322h22.641l19.021 49.842 16.238-41.694c.592-1.53 1.099-3.129 1.52-4.799.421-1.67.647-2.786.679-3.348h21.653v3.322c-.874.032-1.989.172-3.346.421-1.357.25-2.348.484-2.971.702-1.061.374-1.778.999-2.153 1.872-.374.874-.562 1.825-.562 2.854v47.871c0 1.093.187 2.012.562 2.761.374.749 1.091 1.404 2.153 1.965.562.312 1.559.601 2.995.866 1.434.266 2.574.414 3.416.445v3.323zM518.855 436.278h-22.275v-3.089l2.223-.187c.764-.062 1.427-.187 1.989-.374.873-.28 1.521-.77 1.942-1.472.421-.701.632-1.613.632-2.735v-28.464c0-.998-.227-1.909-.679-2.735-.453-.825-1.084-1.519-1.895-2.079-.593-.374-1.451-.694-2.574-.958-1.123-.264-2.153-.428-3.089-.491v-3.089l16.285-1.029.655.655v37.623c0 1.093.209 1.997.627 2.714.419.718 1.076 1.248 1.975 1.591.682.281 1.348.508 1.998.679.652.172 1.379.289 2.185.351v3.089zm-5.85-64.905c0 1.778-.585 3.331-1.755 4.656-1.17 1.327-2.614 1.989-4.329 1.989-1.591 0-2.971-.632-4.141-1.895s-1.755-2.706-1.755-4.329c0-1.715.585-3.212 1.755-4.492 1.17-1.279 2.55-1.919 4.141-1.919 1.778 0 3.236.601 4.375 1.802 1.14 1.201 1.709 2.597 1.709 4.188zM545.902 437.495c-6.676 0-11.902-2.215-15.676-6.645-3.775-4.429-5.662-10.372-5.662-17.829 0-3.244.507-6.278 1.521-9.102 1.013-2.823 2.487-5.388 4.422-7.698 1.84-2.215 4.148-4.001 6.926-5.358 2.776-1.357 5.803-2.036 9.078-2.036 4.523 0 8.204 1.084 11.044 3.252 2.838 2.169 4.258 5.124 4.258 8.868 0 1.561-.374 2.941-1.123 4.141-.749 1.201-1.982 1.802-3.697 1.802-1.841 0-3.269-.467-4.282-1.399-1.014-.934-1.521-1.975-1.521-3.125 0-1.4.187-2.838.562-4.315.374-1.477.592-2.558.655-3.242-.56-.963-1.393-1.609-2.498-1.935s-2.295-.49-3.57-.49c-1.494 0-2.918.321-4.271.959-1.354.64-2.669 1.818-3.944 3.533-1.151 1.561-2.085 3.666-2.799 6.317-.716 2.652-1.074 5.819-1.074 9.499 0 5.803 1.285 10.537 3.855 14.202 2.569 3.666 5.942 5.498 10.115 5.498 3.022 0 5.553-.737 7.592-2.211 2.04-1.474 3.932-3.685 5.677-6.633l2.99 1.965c-2.059 3.682-4.773 6.598-8.142 8.751-3.37 2.154-6.849 3.231-10.436 3.231zM618.294 436.278h-22.696v-3.089c.717-.062 1.513-.124 2.387-.187.873-.062 1.591-.187 2.153-.374.873-.281 1.521-.772 1.942-1.474s.632-1.614.632-2.738v-23.725c0-3.276-.774-5.803-2.322-7.581-1.548-1.778-3.432-2.667-5.652-2.667-1.626 0-3.135.257-4.526.772-1.392.515-2.636 1.146-3.728 1.895-1.063.78-1.876 1.561-2.44 2.34-.563.78-.999 1.435-1.313 1.965v26.533c0 1.061.211 1.935.632 2.621.421.687 1.068 1.217 1.942 1.591.686.312 1.396.546 2.129.702.732.157 1.536.266 2.41.328v3.089h-22.602v-3.089c.712-.062 1.455-.132 2.231-.211.774-.077 1.425-.195 1.953-.352.867-.281 1.516-.772 1.951-1.475.433-.702.65-1.616.65-2.74v-53.759c0-1.062-.242-2.123-.725-3.184-.484-1.062-1.116-1.858-1.895-2.389-.562-.405-1.552-.694-2.971-.866-1.42-.171-2.567-.288-3.439-.352v-2.995l17.08-1.029.655.702v32.195h.187c1.031-1.029 1.968-1.942 2.812-2.737.843-.796 1.953-1.63 3.328-2.504 1.187-.749 2.585-1.372 4.194-1.872 1.61-.498 3.414-.749 5.414-.749 4.125 0 7.297 1.303 9.515 3.907 2.218 2.605 3.328 6.357 3.328 11.254v24.006c0 1.093.197 1.974.588 2.644.393.672 1.045 1.193 1.956 1.568.722.281 1.373.491 1.955.632.581.14 1.343.242 2.286.304v3.09zM646.231 436.278h-22.275v-3.089l2.223-.187c.764-.062 1.427-.187 1.989-.374.873-.28 1.521-.77 1.942-1.472s.632-1.613.632-2.735v-28.464c0-.998-.227-1.909-.679-2.735-.453-.825-1.085-1.519-1.895-2.079-.593-.374-1.451-.694-2.574-.958-1.123-.264-2.153-.428-3.089-.491v-3.089l16.285-1.029.655.655v37.623c0 1.093.209 1.997.627 2.714.419.718 1.076 1.248 1.975 1.591.682.281 1.348.508 1.998.679.652.172 1.379.289 2.185.351v3.089zm-5.849-64.905c0 1.778-.585 3.331-1.755 4.656-1.17 1.327-2.614 1.989-4.329 1.989-1.591 0-2.971-.632-4.141-1.895s-1.755-2.706-1.755-4.329c0-1.715.585-3.212 1.755-4.492 1.17-1.279 2.55-1.919 4.141-1.919 1.778 0 3.236.601 4.375 1.802 1.139 1.201 1.709 2.597 1.709 4.188zM691.482 431.505c1.247 1.186 2.23 2.527 2.948 4.024.717 1.497 1.076 3.353 1.076 5.569 0 2.215-.484 4.297-1.451 6.247-.968 1.949-2.433 3.642-4.399 5.077-2.091 1.466-4.586 2.604-7.487 3.416-2.901.811-6.489 1.217-10.763 1.217-6.989 0-12.214-1.022-15.676-3.065-3.463-2.044-5.194-5.03-5.194-8.961 0-3.182 1.247-5.694 3.744-7.534 2.495-1.84 5.677-2.838 9.546-2.995v-.655c-.936-.281-1.903-.632-2.901-1.053-.999-.421-1.857-.913-2.574-1.474-.812-.655-1.467-1.427-1.965-2.316-.5-.889-.749-1.989-.749-3.299 0-1.653.585-3.174 1.755-4.563 1.17-1.387 2.94-2.581 5.311-3.58v-.702c-2.995-1.404-5.319-3.205-6.972-5.405-1.654-2.199-2.48-4.75-2.48-7.651 0-4.367 1.63-7.955 4.89-10.763 3.259-2.808 7.432-4.212 12.518-4.212 1.404 0 2.799.14 4.188.421 1.387.281 2.799.64 4.235 1.076h16.098v4.492h-10.856v.281c1.154 1.342 2.012 2.824 2.574 4.446.562 1.623.842 3.214.842 4.773 0 4.056-1.646 7.487-4.937 10.295-3.292 2.808-7.121 4.212-11.488 4.212h-5.662c-.718.25-1.467.702-2.246 1.357-.78.655-1.17 1.544-1.17 2.667 0 1.155.328 2.036.983 2.644.655.608 1.451 1.022 2.387 1.24.904.25 1.957.406 3.159.468 1.2.063 2.44.11 3.72.14 1.372.032 3.252.125 5.639.281 2.387.157 4.078.25 5.077.281 1.434.063 2.878.406 4.329 1.029 1.448.626 2.765 1.483 3.951 2.575zm-3.65 11.324c0-1.748-.406-3.182-1.217-4.305-.812-1.123-2.044-1.888-3.697-2.293-.874-.124-2.667-.264-5.381-.421-2.714-.156-5.866-.234-9.453-.234-3.369.655-5.764 1.755-7.183 3.299-1.42 1.544-2.129 3.533-2.129 5.966 0 1.091.234 2.136.702 3.135.468.998 1.279 1.919 2.433 2.761 1.091.811 2.557 1.474 4.399 1.989 1.84.515 4.086.772 6.739.772 4.586 0 8.196-.882 10.833-2.644 2.636-1.762 3.954-4.438 3.954-8.025zm-8.985-38.699c0-3.65-.742-6.558-2.223-8.727-1.482-2.168-3.565-3.252-6.247-3.252-1.467 0-2.722.304-3.767.913-1.046.608-1.895 1.474-2.55 2.597-.625 1.029-1.069 2.27-1.334 3.72-.266 1.451-.398 2.941-.398 4.469 0 3.463.756 6.287 2.27 8.47 1.513 2.184 3.47 3.276 5.873 3.276 2.683 0 4.75-1.083 6.2-3.252 1.451-2.17 2.176-4.907 2.176-8.214zM744.454 435.436c-1.467.531-2.754.959-3.861 1.287-1.108.328-2.363.491-3.767.491-2.433 0-4.375-.57-5.826-1.708-1.451-1.138-2.38-2.8-2.784-4.984h-.281c-2.029 2.246-4.205 3.962-6.528 5.147-2.325 1.185-5.124 1.778-8.4 1.778-3.463 0-6.31-1.061-8.54-3.182-2.231-2.121-3.346-4.897-3.346-8.33 0-1.778.249-3.369.749-4.773.498-1.404 1.247-2.667 2.246-3.79.779-.936 1.809-1.77 3.089-2.504 1.279-.732 2.48-1.317 3.603-1.755 1.404-.53 4.25-1.513 8.54-2.948 4.289-1.434 7.183-2.557 8.68-3.369v-4.633c0-.405-.087-1.185-.257-2.34-.172-1.154-.538-2.246-1.1-3.276-.625-1.154-1.506-2.16-2.644-3.018-1.139-.858-2.754-1.287-4.843-1.287-1.435 0-2.769.242-4.001.725-1.233.484-2.099.991-2.597 1.521 0 .625.147 1.544.445 2.761.296 1.217.445 2.34.445 3.369 0 1.093-.491 2.091-1.474 2.995-.983.905-2.348 1.357-4.095 1.357-1.561 0-2.707-.553-3.439-1.661-.734-1.107-1.1-2.347-1.1-3.72 0-1.434.507-2.808 1.521-4.118 1.013-1.31 2.332-2.48 3.954-3.51 1.404-.873 3.104-1.614 5.101-2.223 1.996-.608 3.946-.913 5.849-.913 2.621 0 4.905.18 6.856.538 1.949.359 3.72 1.131 5.311 2.316 1.591 1.155 2.799 2.722 3.627 4.703.826 1.982 1.24 4.532 1.24 7.651 0 4.462-.047 8.416-.14 11.863-.094 3.448-.14 7.215-.14 11.301 0 1.217.211 2.184.632 2.901.421.718 1.068 1.327 1.942 1.825.468.281 1.208.438 2.223.468 1.013.032 2.051.047 3.112.047v2.998zm-16.331-24.708c-2.652.781-4.977 1.548-6.972 2.298-1.997.75-3.854 1.688-5.569 2.814-1.561 1.063-2.792 2.322-3.697 3.776-.905 1.454-1.357 3.181-1.357 5.181 0 2.595.679 4.502 2.036 5.722 1.357 1.22 3.08 1.828 5.171 1.828 2.215 0 4.165-.539 5.849-1.618 1.685-1.079 3.104-2.353 4.258-3.822l.281-16.179zM800 436.278h-22.555v-3.089c.717-.062 1.504-.124 2.363-.187.858-.062 1.568-.187 2.129-.374.873-.281 1.521-.772 1.942-1.474.421-.702.632-1.614.632-2.738v-23.725c0-3.276-.774-5.803-2.322-7.581-1.548-1.778-3.432-2.667-5.652-2.667-1.658 0-3.174.257-4.551.772-1.376.515-2.595 1.146-3.657 1.895-1.033.718-1.853 1.49-2.464 2.316-.61.827-1.055 1.49-1.336 1.989v26.533c0 1.061.218 1.935.655 2.621.436.687 1.091 1.217 1.965 1.591.655.312 1.364.546 2.129.702.764.157 1.551.266 2.363.328v3.089h-22.601v-3.089l2.223-.187c.764-.062 1.427-.187 1.989-.374.873-.28 1.521-.77 1.942-1.472.421-.701.632-1.613.632-2.735v-28.464c0-1.06-.227-2.034-.679-2.921-.453-.888-1.084-1.612-1.895-2.174-.593-.374-1.295-.647-2.106-.818-.812-.171-1.685-.288-2.621-.351v-3.089l15.349-1.029.655.655v6.505h.234c.749-.749 1.685-1.645 2.808-2.691 1.123-1.045 2.183-1.895 3.182-2.55 1.154-.749 2.527-1.372 4.118-1.872 1.591-.498 3.384-.749 5.381-.749 4.429 0 7.713 1.38 9.85 4.141 2.136 2.761 3.205 6.434 3.205 11.02v24.006c0 1.093.187 1.974.562 2.644.374.672 1.013 1.193 1.919 1.568.749.312 1.396.531 1.942.655.545.125 1.302.219 2.27.281v3.089z"/><path class="st1" d="M380.291 322.133v155.734"/></svg>