<?xml version="1.0" encoding="utf-8"?>
<!-- Generator: Adobe Illustrator 19.0.0, SVG Export Plug-In . SVG Version: 6.00 Build 0)  -->
<svg version="1.1" id="Layer_1" xmlns="http://www.w3.org/2000/svg" xmlns:xlink="http://www.w3.org/1999/xlink" x="0px" y="0px"
	 width="800px" height="800px" viewBox="0 0 800 800" style="enable-background:new 0 0 800 800;" xml:space="preserve">
<style type="text/css">
	.st0{fill:#FFFFFF;}
</style>
<g id="XMLID_49_">
	<path id="XMLID_24_" class="st0" d="M251.181,379.854c1.181,2.756,0.394,5.906-0.787,8.268l-10.63,23.622l0,0l-3.937-24.016
		c-0.394-2.362,1.969-3.15,3.543-4.331c0-0.394-0.394-0.394-0.787-0.394h-3.543l0,0c0-3.15,1.575-5.512,4.331-7.087
		c2.756-1.575,6.693-1.181,9.055,0.787C249.606,377.492,250.394,378.673,251.181,379.854L251.181,379.854z"/>
	<path id="XMLID_23_" class="st0" d="M231.89,379.067c0.787,1.575,1.181,3.543,1.181,5.512l-4.724,26.772l0,0l-1.181-2.362
		l-10.63-23.228c-1.181-3.15,0-6.299,1.968-8.661c2.362-2.362,5.906-2.756,9.055-1.575
		C229.528,376.311,230.709,377.492,231.89,379.067L231.89,379.067z"/>
	<path id="XMLID_22_" class="st0" d="M266.535,390.484c1.575,2.362,1.181,6.299-0.394,8.268c-1.181,1.575-2.756,2.362-3.937,3.543
		l-22.047,15.354l0,0l0.394-0.787l11.811-26.378c1.575-3.15,5.118-4.724,8.661-4.331
		C262.992,386.547,265.354,388.122,266.535,390.484L266.535,390.484z"/>
	<path id="XMLID_21_" class="st0" d="M216.142,390.09l12.205,27.165l0,0l-24.409-16.929c-2.362-1.969-3.543-5.118-2.756-8.268
		c0.787-2.362,2.756-4.724,5.118-5.512C209.843,384.972,214.173,386.547,216.142,390.09L216.142,390.09z"/>
	<path id="XMLID_20_" class="st0" d="M272.835,409.382c1.181,2.756,0.787,6.299-1.181,8.268c-1.575,1.969-3.937,3.15-6.693,3.15
		h-26.378l22.047-15.354c1.969-1.575,5.512-1.575,7.874-0.394C270.473,405.838,272.047,407.807,272.835,409.382L272.835,409.382z"/>
	<path id="XMLID_19_" class="st0" d="M195.276,409.382c-1.181,2.756-0.787,6.299,1.181,8.268c1.575,1.969,3.937,3.15,6.693,3.15
		h26.378l-22.047-15.354c-1.969-1.575-5.512-1.575-7.874-0.394C197.638,405.838,196.063,407.807,195.276,409.382L195.276,409.382z"
		/>
</g>
<g id="XMLID_28_">
	<path id="XMLID_18_" class="st0" d="M2.362,381.429c0-0.787,0-1.575-2.362-1.575v-1.181h20.866v1.181
		c-1.969,0-2.362,0.787-2.362,1.181c0,0.787,14.961,16.929,20.866,23.622v-23.228c0-1.181-0.787-1.575-1.969-1.575v-1.181H53.15
		v1.181c-1.969,0-1.969,0.787-1.969,1.575v40.551c0,0.787,0.394,1.575,2.362,1.575v1.181H37.008v-1.575
		c1.575,0,1.969-0.394,1.969-0.787c0-1.181-1.969-2.362-25.197-27.953v27.165c0,0.787,0.394,1.575,2.362,1.575v1.181H0v-1.181
		c2.362,0,2.362-0.787,2.362-1.575L2.362,381.429L2.362,381.429z"/>
	<path id="XMLID_44_" class="st0" d="M64.961,381.429c0-0.787-0.394-1.575-2.362-1.575v-1.181h33.071
		c9.449,0,16.142,3.543,16.142,12.205c0,5.118-3.543,8.268-8.268,9.449l0,0c5.906,1.575,10.236,4.724,10.236,11.024
		c0,7.087-5.118,12.992-17.323,12.992H62.992v-1.181c1.969,0,2.362-0.787,2.362-1.575v-40.158H64.961z M77.953,395.996h11.811
		c7.48,0,9.449-0.394,9.449-3.937s-1.969-3.937-9.449-3.937H77.953V395.996z M77.953,415.287H92.52c5.906,0,8.661-1.575,8.661-5.118
		c0-3.937-2.362-5.118-8.661-5.118H77.953V415.287z"/>
	<path id="XMLID_14_" class="st0" d="M163.78,395.602l-0.787-0.787c0-0.394,0-0.787,0-1.181c0-1.575-6.693-3.937-14.173-3.937
		c-7.087,0-16.142,3.15-16.142,11.811s9.055,11.811,16.142,11.811c3.15,0,14.567-2.362,14.567-4.724
		c0-0.394-0.394-0.787-0.394-1.181l0.787-0.787l9.055,13.78l-1.181,0.787c-0.394-0.787-0.787-0.787-1.181-0.787
		c-1.575,0-9.843,4.724-22.835,4.724c-13.78,0-28.74-7.874-28.74-23.228c0-15.354,14.567-23.228,28.74-23.228
		c7.087,0,11.811,0.787,15.354,1.969c3.543,0.787,5.118,1.575,5.906,1.575c0.394,0,0.787-0.394,1.181-0.787l0.787,0.394
		L163.78,395.602z"/>
	<path id="XMLID_13_" class="st0" d="M322.835,381.429c0-0.787-0.394-1.575-2.362-1.575v-1.181h17.717v1.181
		c-1.969,0-2.362,0.787-2.362,1.575v23.228c0,15.354-10.63,20.079-24.016,20.079c-13.386,0-24.016-5.118-24.016-20.079v-23.228
		c0-0.787-0.394-1.575-2.362-1.575v-1.181h17.717v1.181c-1.969,0-2.362,0.787-2.362,1.575v23.228c0,6.693,3.937,9.449,11.024,9.449
		c7.087,0,11.024-2.756,11.024-9.449C322.835,404.657,322.835,381.429,322.835,381.429z"/>
	<path id="XMLID_12_" class="st0" d="M355.118,381.429c0-0.787-0.394-1.575-2.362-1.575v-1.181h20.866v1.181
		c-1.969,0-2.362,0.787-2.362,1.181c0,0.787,14.961,16.929,20.866,23.622v-23.228c0-1.181-0.787-1.575-1.969-1.575v-1.181h15.748
		v1.181c-1.969,0-2.362,0.787-2.362,1.575v40.551c0,0.787,0.394,1.575,2.362,1.575v1.181h-16.142v-1.575
		c1.575,0,1.969-0.394,1.969-0.787c0-1.181-1.969-2.362-25.197-27.953v27.165c0,0.787,0.394,1.575,2.362,1.575v1.181h-16.535v-1.181
		c2.362,0,2.362-0.787,2.362-1.575L355.118,381.429L355.118,381.429z"/>
	<path id="XMLID_11_" class="st0" d="M420.866,424.342v-1.181c1.968,0,2.362-0.787,2.362-1.575v-40.158
		c0-0.787-0.394-1.575-2.362-1.575v-1.181h17.717v1.181c-1.969,0-2.362,0.787-2.362,1.575v40.551c0,0.787,0.394,1.575,2.362,1.575
		v1.181h-17.717V424.342z"/>
	<path id="XMLID_10_" class="st0" d="M468.504,424.342v-1.181c1.181,0,1.181-0.394,1.181-0.787c0-0.787-15.354-35.827-17.323-40.158
		c-0.787-1.969-1.181-2.362-1.969-2.362v-1.181h17.717v1.181c-1.575,0-1.575,0.394-1.575,1.181c0,0.787,1.181,2.756,12.205,26.378
		c10.236-22.835,11.811-25.197,11.811-26.378c0-0.787-0.394-0.787-1.181-0.787v-1.181h14.961v0.787
		c-0.787,0-1.181,0.394-1.181,1.181c-0.787,2.756-17.323,40.158-17.323,41.339c0,0.394,0.394,0.787,1.181,0.787v1.181
		L468.504,424.342L468.504,424.342z"/>
	<path id="XMLID_9_" class="st0" d="M548.425,407.807h-1.181c-0.394-1.181-0.787-1.969-2.756-1.969h-16.142v7.874h27.953
		c0.787,0,1.181-0.394,1.575-2.756h1.181v14.961h-1.181c-0.394-1.575-0.787-1.969-1.575-1.969h-43.307v-0.787
		c1.969,0,2.362-0.787,2.362-1.575v-40.158c0-0.787-0.394-1.575-2.362-1.575v-1.181h43.307c0.787,0,1.181-0.394,1.575-2.362h1.181
		v14.961h-1.181c-0.394-1.969-0.787-2.362-1.575-2.362h-27.953v7.087h16.142c1.575,0,2.362-0.787,2.756-1.969h1.181V407.807z"/>
	<path id="XMLID_35_" class="st0" d="M588.189,421.586c0,0.787,0.394,1.575,2.362,1.575v1.181h-17.717v-1.181
		c1.969,0,2.362-0.787,2.362-1.575v-40.158c0-0.787-0.394-1.575-2.362-1.575v-1.181h31.89c12.992,0,18.11,4.331,18.11,14.567
		c0,7.874-5.118,12.205-12.205,14.173l10.236,14.567c0.787,1.181,1.575,1.575,2.362,1.575v1.181h-18.11v-1.575
		c1.181,0,1.969-0.394,1.969-1.575c0-0.787-9.055-12.598-10.236-14.567h-8.661L588.189,421.586L588.189,421.586z M588.189,397.964
		h14.567c5.118,0,6.693-2.362,6.693-4.724c0-2.362-1.575-4.724-6.693-4.724h-14.567V397.964z"/>
	<path id="XMLID_6_" class="st0" d="M638.189,406.232l0.787,0.394c0,0.394,0,1.181,0,1.969c0,2.362,9.449,6.299,18.11,6.299
		s12.598-1.969,12.598-5.906c0-6.299-35.827,0.787-35.827-16.142c0-8.661,8.268-14.567,20.866-14.567
		c11.811,0,20.472,3.543,22.835,3.543c1.181,0,1.575-0.787,2.362-1.181l0.787,0.394l-5.906,12.205l-1.181-0.394v-1.181
		c0-2.362-9.843-4.724-18.11-4.724c-7.48,0-10.236,1.969-10.236,3.937c0,7.874,35.827-1.575,35.827,18.11
		c0,7.48-5.512,15.748-24.409,15.748c-14.567,0-20.866-3.937-22.835-3.937c-0.787,0-1.181,0.787-1.575,1.181l-1.181-0.394
		L638.189,406.232z"/>
	<path id="XMLID_31_" class="st0" d="M702.362,414.5c-2.362,6.299-2.756,7.48-2.756,7.874c0,0.394,0.394,0.787,1.575,0.787v1.181
		h-15.354v-1.181c1.181-0.394,1.575-0.787,2.362-1.969c0.787-1.969,15.354-40.158,15.354-40.551c0-0.787-0.787-0.787-1.575-0.787
		v-1.181h22.441v1.181c-0.787,0-1.575,0.394-1.575,1.181c0,0.787,10.63,26.772,16.142,39.764c0.787,1.969,1.575,2.756,2.362,2.756
		v1.181h-16.929v-1.575c1.181,0,1.575-0.394,1.575-1.181c0-0.394-2.756-6.693-2.756-7.874L702.362,414.5L702.362,414.5z
		 M704.724,407.413h16.142l-8.268-20.473L704.724,407.413z"/>
	<path id="XMLID_3_" class="st0" d="M767.323,413.712h29.921c0.787,0,1.181-0.394,1.575-2.362H800v15.354h-1.181
		c-0.394-1.968-0.787-2.362-1.575-2.362h-45.276v-1.181c1.969,0,2.362-0.787,2.362-1.575v-40.158c0-0.787-0.394-1.575-2.362-1.575
		v-1.181h17.716v1.181c-1.968,0-2.362,0.787-2.362,1.575V413.712z"/>
</g>
<path id="XMLID_2_" class="st0" d="M253.15,357.807c20.866-57.874,77.953-99.213,144.882-99.213s124.016,41.339,144.882,98.819
	c1.181,3.543,2.362,4.331,1.181,0c-17.323-62.598-76.772-111.417-146.457-111.417c-70.472,0-129.528,47.638-146.063,111.811
	C250.394,362.531,251.181,362.531,253.15,357.807z"/>
<path id="XMLID_1_" class="st0" d="M253.15,445.208c20.866,57.874,77.953,99.213,144.882,99.213s124.016-41.339,144.882-98.819
	c1.181-3.543,2.362-4.331,1.181,0c-17.323,62.598-76.772,111.417-146.457,111.417c-70.472,0-129.528-47.638-146.063-111.811
	C250.394,440.484,251.181,440.09,253.15,445.208z"/>
</svg>
