<svg xmlns="http://www.w3.org/2000/svg" width="800" height="800" viewBox="0 0 800 800"><style type="text/css">.st0{fill:#FFFFFF;stroke:#FFFFFF;stroke-width:1.962;stroke-miterlimit:10;} .st1{fill:#FFFFFF;} .st2{fill:#FFFFFF;stroke:#FFFFFF;stroke-width:0.3154;}</style><path class="st0" d="M456.911 404.694c-4.382-12.24-9.023-23.354-13.709-33.379-17.52 7.761-34.645 12.188-49.119 14.649 4.049 13.432 8.524 25.865 12.548 36.179 13.891-3.092 32.072-8.419 50.28-17.449zm-70.841-95.96c-1.577.378-3.054.7-4.482.999-.308 10.249.56 21.1 2.232 32.071 11.996-3.349 24.439-8.146 35.68-13.292-9.174-13.947-16.261-22.116-18.495-24.58-4.531 1.84-9.52 3.485-14.935 4.802zm55.793 59.717c-7.076-14.862-14.153-27.162-20.426-36.955-11.735 4.949-24.475 9.171-37.337 12.169 2.228 13.843 5.683 27.809 9.572 40.879 19.063-3.738 34.991-9.53 48.191-16.093zm53.077 10.168c-3.782-11.247-8.586-21.215-14.002-29.928-10.793 8.543-22.096 15.288-33.3 20.607 5.507 11.847 9.752 23.126 13.046 33.436 11.934-6.261 23.739-14.18 34.256-24.115zm-90.951-75.985c7.099 7.994 13.433 16.103 19.126 24.215 7.453-3.565 14.259-7.246 19.852-10.743 2.064-1.291 3.84-2.564 5.497-3.825-13.297-10.61-24.988-16.207-29.558-18.169-4.072 2.979-9.071 5.915-14.917 8.522zm109.912 42.827c.104-5.928-.975-13.25-4.367-22.02-2.669-4.051-5.539-7.951-8.731-11.581.81 3.735.419 7.524-.523 11.071 6.148 7.537 10.496 15.262 13.621 22.53zm-11.148 71.645c-1.012-12.327-3.198-23.526-6.252-33.712-9.887 7.906-21.959 15.43-35.011 21.893 4.106 13.269 6.595 24.784 8.099 33.504 14.815-7.315 25.286-14.665 33.164-21.685zm-22.03-76.403c3.715-3.881 6.647-7.469 8.649-10.425 1.991-2.944 3.002-6.234 3.409-9.555-7.844-8.011-16.405-14.287-24.76-19.16-1.433 1.785-3.261 3.729-5.637 5.806-2.406 2.107-5.102 4.208-8.017 6.276 10.901 8.669 19.524 17.814 26.356 27.058zm-34.534 25.571c13.663-7.281 23.99-15.312 31.495-22.538-8.049-11.814-17.062-21.184-25.644-28.496-7.698 5.198-16.823 10.169-26.82 14.617 8.417 12.35 15.313 24.625 20.969 36.417zm-80.701-56.773c22.338 1.165 46.6-14.36 53.208-22.123 4.547-5.355-.207-8.585-3.606-10.078-23.308 1.943-44.409 11.638-60.695 26.54 1.007 5.515 11.093 5.661 11.093 5.661zm-2.259 1.603c-6.923 10.657-10.363 23.56-11.959 35.485 8.545.45 18.976-1.194 29.913-4.07-2.334-17.3-2.104-28.931-1.954-32.337-7.084 1.287-12.243 1.433-16 .922zm-14.567 35.274c2.643-19.499 10.656-32.764 12.518-35.633-5.276-1.226-7.124-3.931-7.704-6.027-9.224 8.658-16.835 19.017-22.368 30.551 2.499 6.781 8.9 10.156 17.554 11.109zm170.065-5.535c.847 4.801.81 10.108-.843 15.665 4.188 14.312 3.742 24.839 3.742 24.839-1.021-7.805-2.715-14.987-4.932-21.598-1.849 4.521-4.763 9.169-9.27 13.832-2.136 2.215-4.543 4.417-7.068 6.599 3.773 12.991 4.974 24.917 5.039 34.481 3.317-3.161 6.16-6.261 8.63-9.236 8.222-9.888 11.245-19.4 12.358-24.738.012-.36.033-.712.033-1.073 0-13.742-2.772-26.803-7.689-38.771zm-1.198 64.774c-3.987 4.184-8.059 8.012-12.144 11.516-.159 12.393-2.079 20.239-2.079 20.239.153-6.319-.021-12.347-.431-18.169-11.312 9.339-22.697 16.338-32.984 21.463 1.623 9.936 1.904 15.832 1.904 15.832-1.138-5.146-2.351-10.109-3.618-14.995-21.404 10.371-37.636 12.847-37.636 12.847 14.763-4.805 26.939-9.729 37.174-14.671-3.05-11.601-6.417-22.461-9.969-32.58-16.384 7.758-33.998 13.83-50.381 16.907 6.421 16.284 11.529 26.847 11.529 26.847-5.185-9.02-9.672-17.861-13.608-26.466-8.202 1.422-16.081 2.098-23.289 1.811 0 0 8.952-.709 22.467-3.591-5.708-12.701-10.122-24.825-13.565-36.113-21.631 3.37-36.572 2.424-36.572 2.424 13.129-.397 25.089-1.801 36.15-3.8-4.629-15.503-7.411-29.345-9.044-40.857-5.466 1.196-10.929 2.201-16.333 2.912-5.482.733-10.086.926-14.002.774-2.331 18.804-.17 34.753-.17 34.753-3.413-12.865-3.69-24.686-2.458-34.904-13.105-1.152-17.123-6.819-18.34-10.467-5.852 12.891-9.121 27.203-9.121 42.286 0 56.723 45.979 102.707 102.699 102.707 53.23 0 97.002-40.495 102.192-92.365-3.54 11.722-8.371 15.66-8.371 15.66zm-57.148-108.211c-14.859-7.437-27.816-10.584-32.641-11.571-1.69 2.174-3.983 4.479-6.879 6.782 11.293 5.624 21.093 11.712 29.629 18.09 5.739-4.802 8.655-9.305 9.891-13.301zm32.522 17.459c-.395-5.693-2.085-10.908-3.29-13.968-5.303-4.448-11.051-8.371-17.206-11.684.421 2.087.165 5.103-2.073 8.96 8.998 5.04 16.455 10.706 22.569 16.692zm-8.557 31.018c6.533 9.821 11.153 19.65 14.347 29.046 3.042-3.119 5.989-6.383 8.731-9.896 0 0 4.393-4.51 5.943-13.82-3.974-9.109-8.963-17.01-14.577-23.828-2.834 6.92-7.095 12.019-7.095 12.019-2.411 2.275-4.87 4.407-7.349 6.479zm-23.241-52.394c.293-4.759-1.654-8.493-3.229-10.693-8.484-2.991-17.478-4.929-26.816-5.587.339 1.645-.23 3.71-1.535 5.988 12.023 2.626 22.485 6.142 31.58 10.292z"/><path class="st1" d="M436.482 386.589c-98.301 6.114-178.698-22.116-179.58-63.046-.653-30.283 42.395-59.027 104.636-74.407-92.644 8.336-165.242 45.386-164.389 85.107.893 41.398 81.255 70.019 179.495 63.906 29.493-1.833 57.243-6.59 81.618-13.463-7.136.805-14.403 1.447-21.78 1.903zm1.113 1.82c-1.258.081-.787.37-.972.445 2.095-.255.909-.525.972-.445zm20.601-2.55l-.352.166.556-.11-.474-2.421-2.314.912 2.337-.827.442 2.249-.195.031zm-18.743 2.353c.95.069 2.65-.343 4.532-.844 1.875-.533 3.939-1.133 5.623-1.468l.584-.019 1.385-.825c-4.006 1.148-9.221 2.657-12.124 3.156zm-10.288.908l2.355-.403-.437.031-1.918.372zm1.918-.372c1.981-.414-1.334.081 0 0zm-9.164 1.84l2.592-.653c-.565-.02-2.913.348-2.06.108-2.67.571-2.098.601-.532.545zm-2.423.834l1.35-.317c-.247-.012-.61.032-1.35.317zm4.213-.99l-2.863.673c.399.022.471.194 1.32-.293-.212.206.334-.05 1.543-.38zm1.647-.216c1.489-.154 3.408-.436.808.248 5.01-1.018 4.188-1.264-.808-.248zm13.262-1.228l1.995-.28 1.65-.571c-.824.286-3.804.719-3.645.851zm-33.154 3.822c-.149.141.929.197 1.147.322l1.936-.397c-1.015.054-2.927.233-3.083.075zm1.146.322l-2.897.593c2.617-.326 3.08-.484 2.897-.593zm12.523-1.016l4.702-1.251-2.811.708-2.816.696.925-.153zm-24.843 2l1.631-.452-2.914.732 1.283-.28zm-7.424.762c1.207-.327-1.715-.248-.428-.494-2.011.2-3.702.549-5.257.833 1.656-.214 3.396-.345 5.685-.339zm-8.295.775c.828-.111 1.682-.268 2.609-.436-.877.112-1.74.248-2.609.436zm20.149-1.384c-.234-.042-.692-.18-2.346-.084l1.19.21 1.156-.126zm-1.114.131l-.042-.006-2.495.248 2.537-.242zm1.406-.165l-.291.034c.112.019.182.022.291-.034zm12.422-1.229c-1.687.447-5.247 1.142-1.739.936 1.202-.408-.804-.279 1.739-.936zm-10.943 1.473l3.124-.299c-.076-.08-.649-.137.187-.339l-3.311.638zm-1.516.289l1.516-.289-1.159.111-.357.178zm-15.015.805c-1.332.261-2.813.381-4.49.515 1.804-.049 3.656-.157 5.403-.306.242-.125.996-.376-.913-.209zm6.631-.487l-.299.047c.19.011.337.006.299-.047zm-27.573 1.803l.267.054.063-.061-.33.007zm22.159-1.069c1.35-.049 2.141-.185 2.898-.365-1.002.131-2.06.228-3.202.327-.106.056-.124.089.304.038zm-11.171.26c.703.035 1.498.053 2.339.065-.694-.071-2.1-.164-2.339-.065zm15.828-.997l.198-.034c-.445-.029-.384 0-.198.034zm0 0c-.688.113-1.223.247-1.759.371.816-.104 1.566-.21 2.218-.322-.164-.007-.338-.029-.459-.049zm-31.759 4.102c.233-.302 3.777-.708 6.86-.464 3.012-.324.994-1.286-1.65-1.777-.086.138-.081.262-3.179.54 1.089.137 6.895.189 4.287.55-4.108.283-3.373-.009-5.374-.112 1.711.373-5.225.629-4.323 1.182l3.611-.231c.066.087-1.24.239-.232.312zm11.109-2.426l1.275-.105c-1.458.01-2.499-.024-4.424-.223-2.108.216-2.544.343-2.687.451l3.135-.073c.784-.011 1.567-.049 2.155-.076l.979-.044-.433.07zm6.99-.4c-.974.389-4.029.69-2.131.959 3.74-.213 2.593-.426 4.823-.718-6.013.493 1.701-.299-2.644-.205 1.159-.126 2.243-.226 3.248-.307-1.086.032-2.156.058-3.125.056l.139.014.028-.003-.007.004c.238.028.348.046.043.043l-.113.013c-.038.049-.145.096-.261.141-1.752.02-.282-.075.261-.141l.07-.056-.021-.001-6.025.496c1.278-.019 2.88-.111 5.715-.295zm30.417-1.258c-.191-.005-.186-.03-.205-.052-.383.092-.526.14.205.052zm-2.502.127c.432-.104.778-.288 2.204-.442 1.244-.064.013.161.092.263.848-.203 2.967-.641.262-.445l-.422.102c-2.434.223-5.597.163-5.181.068.745.215 1.395.362 3.045.454zm-14.128.893l-2.505.318-2.506.287 2.59.083-.15-.165c2.867-.196 2.23-.356 2.571-.523zm-27.521.619l.656-.378-2.89.592 2.234-.214zm-6.539.185l.239-.312-1.721.201 1.482.111zm-5.484-148.5l1.475-.267c-.699.112-1.144.195-1.475.267zm-10.716 1.369l-.239.189c.48-.154.679-.245.239-.189zm-133.021 104.367l-1.365-2.618c-.362-.714-.56-1.182-.657-.977l.03.723c.855 1.162 1.506 2.056 1.992 2.872zm48.461-79.505l-.618.169-1.194.904 1.812-1.073zm.838-1.908l2.731-.914c-.629.182-1.505.472-2.731.914zm61.119-6.586l-1.437.995c2.465-1.061 1.311-.755 1.437-.995zm-27.862 125.882c-1.8-.457-3.244-.773-4.52-1.018 2.165.586 3.891 1.194 4.52 1.018zm57.416-139.524c.893-.171 1.264-.286 1.231-.357-.919.17-1.432.298-1.231.357zm-67.176 137.428l.941.276c1.339.217 2.681.454 4.299.803-1.587-.469-3.415-.946-5.24-1.079zm77.36-8.183l.468.112c.052-.04-.157-.073-.468-.112zm61.645 7.06c-.611.034-1.615.039-2.559.054.459.018 1.235.013 2.559-.054zm-88.87 7.442c1.389.057.221-.026 0 0zm6.686 1.64c-.294.028-.521.069-.561.146.118-.078.315-.123.561-.146zm-70.757-9.145l-.114-.032c.381.171.317.141.114.032zm66.15 7.779c-.518-.071-1.116-.141-1.765-.202.283.042.817.105 1.765.202zm-.277-.177c.479.042.851.076 1.208.094.182-.056.029-.077-1.208-.094zm-3.726-.19c.787.04 1.525.099 2.238.165-.275-.039-.387-.065-.314-.072l-1.924-.093zm-67.85-62.812l.059.281c.564 1.242.356.686-.059-.281zm-61.788-12.694l-.042.161.085-.195-.043.034zm1.888-4.857c-.3 1.095-.593 1.91-.916 2.639-.344.718-.572 1.421-.929 2.183l1.511-1.227s.004-.225.038-.554l.113-1.225.183-1.816zm127.639-64.054c-.774-.086-2.739.528-3.729.791 1.734-.193 2.656-.153 3.729-.791zm-76.793 24.178c-1.269.404-2.342.894-2.971 1.338 1.123-.451 2.106-.923 2.971-1.338zm63.547 119.538l.111-.007c-1.554-.234-2.342-.373-.111.007zm2.444.288c1.19.122 2.246.2 2.577.13.194.069.222.124-.252.138-1.406-.027-2.001-.143-2.325-.268zm-51.959-49.172l.548.775c.474.373.942.757-.548-.775zm-8.964-73.61c.294-.055.394-.021.487.018.346-.216.324-.285-.487-.018zm61.515-7.002l-.147.059-.121.127.268-.186zm-70.256 118.451c-.895-.395-1.38-.651-1.693-.846-.088.066.301.296 1.693.846zm96.841 12.159l-3.006.059c1.456.001 1.974.09 2.705.159-.067-.088-.638-.224.301-.218zm26.171 1.931l1.37-.123-.132-.169c-1.876.108-3.18.318-1.238.292zm-23.402-.637c.237.308 2.131.269 4.24.176l-.372.003c.62-.443-1.629-.279-3.868-.179zm4.729.162c.648-.02 1.317-.034 1.954-.025.243-.181-.796-.031-1.954.025zm-26.399-1.776c.994.139.651-.37 1.206-.209.568-.17-1.099-.143-2.227-.061-1.126.054-1.715.212 1.021.27zm23.373 2.685l-.754-.402-1.188.302 1.942.1zm-16.684-.713s.842.07 1.685.123l1.686.114c-.05-.068.385-.092.908-.103-2.077-.087-4.355-.238-4.279-.134zm4.28.134c1.085.046 2.114.073 2.721.03-.589-.016-1.846-.047-2.721-.03zm7.783.638l-.996-.094-1.196-.03c-.598-.011-1.195-.038-1.195-.038l3.387.162zm-48.17-4.4l-3.659-.446c-.393.076.587.31 1.952.464.888.04 2.245.195 1.707-.018zm10.918 2.576c-.986-.208-1.04-.304-1.581-.503l-.173.469 1.754.034zm-10.705-1.34c-.384.079-5.368-.428-.723.251.391-.075 4.07.374.723-.251zm-53.578-14.762l.871.359.174-.793-1.045.434zm-40.88-27.283c1.261 1.906 1.524 2.055 1.744 2.159.111.052.212.094.424.339.224.235.503.722 1.145 1.515.429.333-.109-.303-.575-.994-.455-.702-.906-1.396-.521-1.004l-1.88-2.285c-.33-.436-.443-.421-.337.27zm2.217 2.014l.912 1.048c-.503-.605-.751-.884-.912-1.048zm225.241 33.092l2.817.021-1.826-.174-.991.153zm5.358-.871l.688.476 1.663-.548c-.632.055-1.862.163-2.351.072zm-118.261-134.997l-.189.164c.458.041 1.105-.083 2.41-.332l-2.221.168zm37.959-5.513l-.66.056 1.275.335-.615-.391zm-15.061 11.193c1.229-.405 2.655-.945 3.896-1.318-2.666.912-4.406.883-3.896 1.318z"/><path class="st0" d="M354.054 231.773s-39.041.672-50.382-2.689c0 0-2.674-2.693 18.354-2.36 21.012.338 41.036-.675 53.708-4.38l-4.004-10.776-27.349.675s-1.676-1.349 4.664-2.359c6.341-1.007 20.678-2.688 26.689-5.727 0 0 3.004-1.677 4.67 6.406l.67-2.7 15.012 2.7s3.341 1.686-2.663 2.019c-6.018.329-11.683 0-11.683 0l4.001 11.11s-37.034 7.076-55.375 5.047c-.001 0 25.021 1.355 23.688 3.034m19.674 5.057s5.34 9.759 16.681 9.759c11.352 0 15.025-7.737 15.025-7.737s-8.674 4.037-15.683 4.037c-7.014 0-16.023-6.059-16.023-6.059m54.723-12.12s38.042 2.014 44.369 3.361c0 0-13.678 1.686-15.008 2.361 0 0 17.346 2.693 41.031-2.027 0 0-12.345-3.03-39.701-4.041-27.358-1.007-29.023-.672-30.691.346m20.662-16.923s2.343 2.879-.508 4.445h4.144s3.119-6.284-2.585-7.069c0 0 1.552.517 1.291 1.831.001 0-2.068.264-2.342.793m3.636-3.937s7.269-5.504 7.269-8.915c0-3.402-6.484-10.206-10.373-11.523-3.901-1.312-8.576-.784-12.728 1.572-4.154 2.361-33.482 23.32-43.6 36.678 0 0 39.446-31.97 43.343-33.533 0 0-1.033 2.096.782 1.563 1.816-.515 15.838-5.232 18.689.533 0 0-4.675-.533-5.196.259l.27 1.313s5.437-1.046 5.702 0c0 0 2.338 3.931-4.158 12.053m-3.362-13.099s-12.726 2.622-36.09 22.796c0 0 29.332-21.226 36.09-22.796"/><path class="st2" d="M163.324 489.859c4.607-.922 10.941-1.497 17.046-1.497 9.789 0 17.276 1.152 22.803 6.104 4.953 4.261 7.025 10.94 7.025 17.391 0 8.983-2.879 15.432-7.371 19.924-5.067 4.838-13.128 6.911-19.118 6.911h-2.649v27.64h-17.737v-76.473h.001zm17.737 34.435c.691.115 1.382.115 2.073.115 7.141 0 9.444-5.298 9.444-10.94 0-6.22-2.534-10.826-8.293-10.826-1.151 0-2.418.23-3.225.576v21.075h.001zm76.133 13.475c0 24.301-14.281 29.483-22.803 29.483-14.973 0-23.034-11.287-23.034-29.023 0-20.156 11.286-29.484 23.149-29.484 14.741.002 22.688 11.979 22.688 29.024zm-28.217.115c0 9.79 1.497 16.008 5.758 16.008 3.685 0 4.837-7.947 4.837-16.008 0-7.486-1.151-15.778-5.067-15.778-4.491 0-5.528 8.293-5.528 15.778zm35.018-10.134c0-5.99-.23-12.324-.461-18.082h15.318l.922 8.062h.461c2.764-6.334 7.256-8.983 10.941-8.983 1.842 0 2.764.115 3.8.345v17.507c-1.152-.231-2.303-.231-3.915-.231-2.073 0-6.45.922-8.407 6.449-.461 1.152-.807 3.34-.807 5.874v27.64h-17.851l-.001-38.581zm57.589-33.4v15.318h11.171v12.439h-11.171v22.573c0 6.218 2.764 7.717 5.644 7.717 1.496 0 2.649-.115 4.145-.347v13.937c-2.303.575-5.989 1.037-10.365 1.037-4.722 0-8.868-1.037-11.863-3.686-3.455-3.11-5.413-7.716-5.413-17.045v-24.186h-6.565v-12.439h6.565v-10.135l17.852-5.183zm35.707-5.643h17.851v62.537h19.003v15.087h-36.854v-77.624zm85.461 64.611c0 4.606.23 9.097.922 13.013h-15.894l-.922-5.413h-.23c-3.34 4.376-7.948 6.334-13.013 6.334-8.984 0-15.548-7.486-15.548-17.621 0-15.203 13.82-21.191 26.604-21.306v-1.036c0-3.11-2.88-5.529-7.486-5.529-4.953 0-8.752 1.267-12.439 3.456l-3.11-11.863c3.454-1.842 10.596-4.606 19.465-4.606 19.693 0 21.651 14.05 21.651 24.991v19.58zm-17.505-13.821c-5.183.115-10.481 2.188-10.481 8.177 0 4.837 2.878 6.68 4.836 6.68 1.843 0 4.261-.807 5.298-3.341.23-.575.347-1.381.347-2.302v-9.214zm26.148-11.747c0-5.99-.232-12.324-.462-18.082h15.318l.922 6.45h.23c3.11-4.492 8.178-7.371 14.05-7.371 11.979 0 15.663 9.789 15.663 21.997v35.588h-17.851v-35.012c0-3.916-1.036-7.602-4.606-7.602-1.958 0-3.457 1.151-4.493 3.339-.46 1.037-.92 2.995-.92 5.298v33.976h-17.852v-38.581h.001zm54.251 23.148c2.303 1.383 6.794 2.995 10.711 2.995 3.339 0 5.183-1.152 5.183-3.685 0-2.418-1.728-3.686-6.334-6.219-10.021-5.414-11.517-11.748-11.517-16.355 0-10.596 7.486-18.887 19.924-18.887 4.836 0 8.752 1.036 12.092 2.533l-2.763 12.9c-2.19-1.151-4.953-2.188-8.063-2.188-3.454 0-4.953 1.727-4.953 3.8 0 1.958 1.266 3.11 6.449 5.989 9.099 4.953 11.287 11.172 11.287 16.931 0 11.746-8.523 18.312-21.306 18.312-4.953 0-10.942-1.268-13.59-3.225l2.88-12.901zm52.52-56.317c.115 5.413-3.915 9.213-8.982 9.213-4.723 0-8.639-3.8-8.522-9.213-.117-5.759 4.029-9.329 8.752-9.329 4.838 0 8.752 3.57 8.752 9.329zm-17.505 71.75v-56.664h17.851v56.664h-17.851zm26.376-38.581c0-5.99-.232-12.324-.462-18.082h15.318l.922 6.45h.23c3.11-4.492 8.178-7.371 14.05-7.371 11.979 0 15.663 9.789 15.663 21.997v35.588h-17.852v-35.012c0-3.916-1.036-7.602-4.606-7.602-1.958 0-3.457 1.151-4.493 3.339-.46 1.037-.92 2.995-.92 5.298v33.976h-17.852v-38.581h.002zm95.712 32.592c0 11.057-2.42 18.081-7.371 22.689-4.493 4.031-10.711 6.334-19.81 6.334-5.413 0-10.366-.807-14.857-2.65l3.11-13.59c3.11 1.383 6.564 2.305 10.94 2.305 7.833 0 10.251-5.298 10.251-12.209v-2.418h-.23c-1.958 3.225-5.874 5.068-9.906 5.068-13.82 0-18.081-14.974-18.081-27.18 0-17.967 8.177-29.944 19.58-29.944 3.799 0 7.946 1.727 10.366 6.449h.23l.922-5.528h15.431c-.345 5.758-.575 12.093-.575 18.082v32.592zm-17.736-29.483c0-1.497-.345-3.11-.692-4.146-.575-1.843-1.958-2.995-3.455-2.995-4.953 0-6.564 6.795-6.564 14.627 0 8.868 2.303 13.704 6.219 13.704 1.611 0 2.878-.92 3.685-2.418.577-1.036.807-2.649.807-4.146v-14.626z"/><path class="st0" d="M176.561 627.962c-.766.402-1.972.657-3.506.657-4.821 0-8.254-3.87-8.254-12.236 0-9.714 4.822-12.82 8.693-12.82 1.497 0 2.557.293 3.067.623l-.621 2.374c-.584-.257-1.205-.511-2.483-.511-2.63 0-5.698 2.556-5.698 10.08s2.776 10.007 5.771 10.007c1.059 0 2.009-.255 2.593-.548l.438 2.374zm6.974-6.94l-1.644 7.379h-2.702l5.624-24.617h3.105l5.478 24.617h-2.775l-1.644-7.379h-5.442zm5.077-2.265l-1.278-6.244c-.366-1.753-.695-3.799-.987-5.625h-.146c-.292 1.862-.657 3.981-.987 5.625l-1.278 6.244h4.676zm8.763-14.608c1.131-.293 2.483-.475 4.091-.475 2.264 0 4.163.548 5.441 1.826 1.205 1.169 1.826 2.958 1.826 5.076 0 2.265-.548 3.799-1.497 5.041-1.351 1.826-3.616 2.74-5.807 2.74-.474 0-.84 0-1.242-.036v10.08h-2.812v-24.252zm2.812 11.797c.329.073.621.109 1.096.109 2.775 0 4.639-1.826 4.639-5.296 0-2.521-1.06-4.784-4.165-4.784-.657 0-1.205.073-1.57.182v9.789zm15.483-12.162v24.616h-2.812v-24.617l2.812.001zm8.254 2.519h-4.492v-2.52h11.797v2.52h-4.492v22.097h-2.813v-22.097zm12.27 14.719l-1.644 7.379h-2.703l5.624-24.617h3.105l5.478 24.617h-2.775l-1.644-7.379h-5.441zm5.076-2.265l-1.278-6.244c-.366-1.753-.695-3.799-.987-5.625h-.146c-.292 1.862-.658 3.981-.987 5.625l-1.278 6.244h4.676zm8.763-14.973h2.813v22.243h6.94v2.374h-9.752v-24.617h-.001zm20.122.365c1.206-.33 2.667-.475 4.054-.475 2.448 0 4.274.512 5.551 1.753 1.206 1.242 1.717 2.886 1.717 4.821 0 3.14-1.461 5.187-3.944 6.319v.073c1.826.548 2.775 2.301 3.323 5.514.548 3.397 1.06 5.48 1.388 6.246h-2.849c-.365-.73-.84-3.068-1.314-6.099-.548-3.361-1.608-4.639-4.018-4.639h-1.096v10.738h-2.813v-24.251h.001zm2.813 11.359h1.169c2.703 0 4.493-1.972 4.493-4.932 0-2.847-1.169-4.6-4.201-4.637-.548 0-1.096.036-1.461.146v9.423zm22.021 1.205h-6.172v9.241h7.013v2.447h-9.825v-24.617h9.387v2.447h-6.575v8.108h6.172v2.374zm16.982 11.067c-1.059.439-2.813.839-4.383.839-2.154 0-4.163-.584-5.807-2.41-1.79-1.899-2.995-5.296-2.958-9.789.036-9.568 4.931-12.856 9.277-12.856 1.534 0 2.739.293 3.506.696l-.621 2.41c-.658-.33-1.535-.584-2.849-.584-3.068 0-6.392 2.447-6.392 10.08 0 7.597 2.885 10.044 5.844 10.044.949 0 1.497-.182 1.717-.291v-8.036h-3.178v-2.338h5.844v12.235zm7.521-23.996v24.616h-2.813v-24.617l2.813.001zm18.297 12.126c0 9.239-3.178 12.784-7.123 12.784-4.091 0-6.829-4.347-6.829-12.638 0-8.145 2.922-12.565 7.232-12.565 4.199-.001 6.72 4.565 6.72 12.419zm-11.031.182c0 5.077.986 10.117 4.091 10.117 3.178 0 4.018-5.369 4.018-10.189 0-4.602-.84-10.044-4.054-10.044-3.069-.001-4.055 5.111-4.055 10.116zm15.303 12.308v-24.617h2.666l4.529 11.542c1.023 2.629 2.301 5.917 3.141 8.582h.073c-.219-3.87-.328-7.049-.328-11.322v-8.802h2.52v24.617h-2.666l-4.675-11.833c-.987-2.485-2.046-5.296-2.922-8.365h-.074c.219 3.288.292 6.428.292 11.688v8.511l-2.556-.001zm27.352-24.616v24.616h-2.812v-24.617l2.812.001zm5.367 24.616v-24.617h2.667l4.528 11.542c1.023 2.629 2.301 5.917 3.141 8.582h.073c-.219-3.87-.329-7.049-.329-11.322v-8.802h2.521v24.617h-2.667l-4.675-11.833c-.986-2.485-2.044-5.296-2.922-8.365h-.073c.219 3.288.292 6.428.292 11.688v8.511l-2.556-.001zm20.779-22.097h-4.492v-2.52h11.797v2.52h-4.492v22.097h-2.813v-22.097zm19.941 10.41h-6.171v9.241h7.013v2.447h-9.825v-24.617h9.387v2.447h-6.574v8.108h6.171l-.001 2.374zm4.857-12.564c1.205-.33 2.665-.475 4.054-.475 2.447 0 4.273.512 5.551 1.753 1.205 1.242 1.717 2.886 1.717 4.821 0 3.14-1.46 5.187-3.945 6.319v.073c1.828.548 2.776 2.301 3.324 5.514.548 3.397 1.059 5.48 1.387 6.246h-2.847c-.366-.73-.841-3.068-1.316-6.099-.548-3.361-1.606-4.639-4.018-4.639h-1.094v10.738h-2.813v-24.251zm2.813 11.359h1.169c2.701 0 4.491-1.972 4.491-4.932 0-2.847-1.169-4.6-4.2-4.637-.548 0-1.096.036-1.46.146v9.423zm13.036 12.892v-24.617h2.665l4.529 11.542c1.023 2.629 2.301 5.917 3.14 8.582h.075c-.22-3.87-.33-7.049-.33-11.322v-8.802h2.52v24.617h-2.665l-4.675-11.833c-.987-2.485-2.046-5.296-2.922-8.365h-.073c.218 3.288.291 6.428.291 11.688v8.511l-2.555-.001zm20.853-7.378l-1.644 7.379h-2.704l5.625-24.617h3.104l5.48 24.617h-2.776l-1.644-7.379h-5.441zm5.075-2.265l-1.278-6.244c-.364-1.753-.694-3.799-.985-5.625h-.147c-.291 1.862-.657 3.981-.985 5.625l-1.28 6.244h4.675zm9.459-12.454h-4.493v-2.52h11.797v2.52h-4.493v22.097h-2.811v-22.097zm13.767-2.519v24.616h-2.813v-24.617l2.813.001zm18.298 12.126c0 9.239-3.179 12.784-7.122 12.784-4.091 0-6.83-4.347-6.83-12.638 0-8.145 2.922-12.565 7.231-12.565 4.201-.001 6.721 4.565 6.721 12.419zm-11.031.182c0 5.077.987 10.117 4.091 10.117 3.177 0 4.018-5.369 4.018-10.189 0-4.602-.841-10.044-4.054-10.044-3.068-.001-4.055 5.111-4.055 10.116zm15.301 12.308v-24.617h2.665l4.529 11.542c1.023 2.629 2.301 5.917 3.14 8.582h.075c-.221-3.87-.33-7.049-.33-11.322v-8.802h2.52v24.617h-2.665l-4.675-11.833c-.987-2.485-2.046-5.296-2.922-8.365h-.073c.218 3.288.291 6.428.291 11.688v8.511l-2.555-.001zm20.852-7.378l-1.644 7.379h-2.703l5.625-24.617h3.104l5.48 24.617h-2.776l-1.644-7.379h-5.442zm5.078-2.265l-1.28-6.244c-.364-1.753-.694-3.799-.985-5.625h-.148c-.291 1.862-.657 3.981-.985 5.625l-1.278 6.244h4.676zm8.763-14.973h2.813v22.243h6.938v2.374h-9.751v-24.617zm23.081 17.238l-1.644 7.379h-2.703l5.625-24.617h3.104l5.48 24.617h-2.776l-1.644-7.379h-5.442zm5.077-2.265l-1.28-6.244c-.364-1.753-.694-3.799-.985-5.625h-.148c-.291 1.862-.657 3.981-.985 5.625l-1.278 6.244h4.676zm11.575-14.973v24.616h-2.813v-24.617l2.813.001zm5.366.365c1.205-.33 2.665-.475 4.054-.475 2.447 0 4.273.512 5.551 1.753 1.205 1.242 1.717 2.886 1.717 4.821 0 3.14-1.46 5.187-3.945 6.319v.073c1.828.548 2.776 2.301 3.324 5.514.548 3.397 1.06 5.48 1.387 6.246h-2.847c-.366-.73-.841-3.068-1.316-6.099-.548-3.361-1.606-4.639-4.018-4.639h-1.094v10.738h-2.813v-24.251zm2.813 11.359h1.169c2.702 0 4.491-1.972 4.491-4.932 0-2.847-1.169-4.6-4.2-4.637-.548 0-1.096.036-1.46.146v9.423zm13.037-11.359c1.132-.293 2.483-.475 4.091-.475 2.265 0 4.164.548 5.442 1.826 1.205 1.169 1.826 2.958 1.826 5.076 0 2.265-.548 3.799-1.496 5.041-1.353 1.826-3.617 2.74-5.807 2.74-.475 0-.841 0-1.242-.036v10.08h-2.813v-24.252h-.001zm2.812 11.797c.327.073.621.109 1.094.109 2.776 0 4.639-1.826 4.639-5.296 0-2.521-1.058-4.784-4.163-4.784-.657 0-1.205.073-1.569.182l-.001 9.789zm25.6-.036c0 9.239-3.179 12.784-7.122 12.784-4.091 0-6.83-4.347-6.83-12.638 0-8.145 2.922-12.565 7.231-12.565 4.202-.001 6.721 4.565 6.721 12.419zm-11.03.182c0 5.077.987 10.117 4.091 10.117 3.177 0 4.018-5.369 4.018-10.189 0-4.602-.841-10.044-4.054-10.044-3.069-.001-4.055 5.111-4.055 10.116zm15.303-11.943c1.205-.33 2.665-.475 4.054-.475 2.447 0 4.273.512 5.551 1.753 1.205 1.242 1.717 2.886 1.717 4.821 0 3.14-1.46 5.187-3.945 6.319v.073c1.826.548 2.776 2.301 3.324 5.514.548 3.397 1.06 5.48 1.387 6.246h-2.847c-.366-.73-.841-3.068-1.316-6.099-.548-3.361-1.606-4.639-4.018-4.639h-1.094v10.738h-2.813v-24.251zm2.812 11.359h1.169c2.702 0 4.491-1.972 4.491-4.932 0-2.847-1.169-4.6-4.2-4.637-.548 0-1.096.036-1.46.146v9.423zm15.52-9.205h-4.493v-2.52h11.797v2.52h-4.493v22.097h-2.811v-22.097z"/></svg>