<?xml version="1.0" encoding="utf-8"?>
<!-- Generator: Adobe Illustrator 19.0.0, SVG Export Plug-In . SVG Version: 6.00 Build 0)  -->
<svg version="1.1" id="Layer_1" xmlns="http://www.w3.org/2000/svg" xmlns:xlink="http://www.w3.org/1999/xlink" x="0px" y="0px"
	 width="800px" height="800px" viewBox="0 0 800 800" style="enable-background:new 0 0 800 800;" xml:space="preserve">
<style type="text/css">
	.st0{fill:#FFFFFF;}
</style>
<path class="st0" d="M407.966,423.839h7.175v-52.901h-7.175V423.839L407.966,423.839z M486.492,377.817
	c-4.255-5.604-11.578-8.219-18.526-8.219c-16.289,0-27.571,11.804-27.571,28.241c0,13.3,10.385,27.344,27.197,27.344
	c12.104,0,18.452-7.096,20.022-9.263l-6.051-4.559c-3.137,4.411-7.771,7.099-13.823,7.099c-12.33,0-19.726-9.489-19.726-20.622
	c0-12.03,7.845-21.519,19.726-21.519c4.856,0,9.789,2.167,12.778,6.052L486.492,377.817L486.492,377.817z M510.478,423.839h7.174
	v-24.208h27.419v24.208h7.174v-52.897h-7.174v21.966h-27.419v-21.966h-7.174V423.839L510.478,423.839z M580.785,423.839h7.174
	v-52.901h-7.174V423.839L580.785,423.839z M641.903,394.254v6.722h11.73v14.718c-3.211,1.793-7.997,2.766-13,2.766
	c-11.656,0-20.548-9.114-20.548-21.07c0-11.582,7.845-21.071,19.952-21.071c5.304,0,10.308,1.418,14.641,5.604l5.081-5.456
	c-4.108-4.255-10.011-6.87-19.723-6.87c-16.141,0-27.57,12.104-27.57,27.793c0,15.018,10.384,27.792,28.314,27.792
	c6.426,0,14.87-1.719,20.026-4.856v-26.074H641.903L641.903,394.254z M680.608,423.839h8.366l5.229-13.074h25.181l5.304,13.074
	h8.366l-22.636-52.897h-6.501L680.608,423.839L680.608,423.839z M696.744,404.487l10.012-24.281h0.151l9.859,24.281H696.744
	L696.744,404.487z M754.126,423.839h7.174v-43.486h0.148l29.437,43.486H800v-52.897h-7.171v43.481h-0.151l-29.137-43.481h-9.415
	V423.839L754.126,423.839z"/>
<path class="st0" d="M166.337,492.013l5.826-2.915c3.589-7.618,5.382-11.207,8.519-16.363
	c9.415-15.467,73.074-105.125,114.766-138.97c7.619-6.052,11.878-9.193,18.604-13.004c-0.226,14.349-3.363,22.193-21.518,70.834
	l-4.037,10.311c-10.085,26.897-17.708,50.434-17.708,54.693c0,1.566,1.122,2.466,2.915,2.466c5.155,0,17.933-5.381,21.966-9.863
	c5.382-6.051,25.552-35.641,29.811-41.692c15.244-20.848,30.711-41.915,47.074-62.089c-0.674,3.811-1.122,6.052-2.693,12.552
	c-6.052,29.14-8.514,45.278-8.514,58.951c0,17.481,5.156,32.278,13.896,40.123c4.259,3.585,7.623,5.377,14.123,6.722l21.741-9.411
	c-19.5-6.949-28.24-22.416-28.24-49.316c0-14.344,2.689-33.622,7.17-51.103c2.019-8.07,3.137-14.57,3.137-19.055
	c0-1.793-0.67-2.911-1.792-2.911c-1.119,0-10.085,2.689-17.481,6.274c-6.053,2.914-8.07,4.259-12.778,10.085l-8.293,9.862
	c-5.382,6.501-6.725,8.07-18.381,23.315c-8.967,11.656-17.93,23.533-26.897,35.189l-12.33,16.141
	c0.897-6.051,5.382-18.155,11.881-31.83c13.67-28.914,28.019-72.177,28.019-85.177c0-5.379-1.571-7.845-4.933-7.845
	c-2.463,0-4.708,0.448-8.519,2.018c-17.259,6.722-23.533,10.533-35.637,21.515c-30.712,28.245-93.919,105.352-124.404,157.355
	L166.337,492.013L166.337,492.013z"/>
<path class="st0" d="M0,423.854h7.174v-23.311h11.43c13.525,0,16.963-8.141,16.963-14.793c0-6.648-3.437-14.793-16.963-14.793H0
	V423.854L0,423.854z M7.174,377.231h9.415c5.678,0,11.355,1.348,11.355,8.519c0,7.174-5.678,8.519-11.355,8.519H7.174V377.231
	L7.174,377.231z M58.278,370.957v33.549c0,12.252,8.892,20.696,20.473,20.696c11.582,0,20.47-8.444,20.47-20.696v-33.549h-7.171
	v32.426c0,6.574-3.288,15.092-13.3,15.092c-10.01,0-13.3-8.518-13.3-15.092v-32.426H58.278L58.278,370.957z M126.793,423.854h7.174
	v-23.311h7.993l13.449,23.311h8.966l-15.018-24.133c7.997-0.897,13.004-7.245,13.004-13.971c0-6.648-3.437-14.793-16.963-14.793
	h-18.604V423.854L126.793,423.854z M133.966,377.231h9.415c5.678,0,11.355,1.348,11.355,8.519c0,7.174-5.678,8.519-11.355,8.519
	h-9.415V377.231L133.966,377.231z M187.389,423.854h35.489v-6.722H194.56v-16.96h25.103v-6.726H194.56v-15.767h26.974v-6.722
	h-34.145V423.854L187.389,423.854z"/>
</svg>
