<?xml version="1.0" encoding="utf-8"?>
<!-- Generator: Adobe Illustrator 19.0.0, SVG Export Plug-In . SVG Version: 6.00 Build 0)  -->
<svg version="1.1" id="Layer_1" xmlns="http://www.w3.org/2000/svg" xmlns:xlink="http://www.w3.org/1999/xlink" x="0px" y="0px"
	 viewBox="0 0 263.693 32.07" style="enable-background:new 0 0 263.693 32.07;" xml:space="preserve">
<style type="text/css">
	.st0{fill:#FFFFFF;}
</style>
<path id="XMLID_29_" class="st0" d="M14.277,0.977h1.133c1.146,0,1.719,0.762,1.719,2.285c0,2.097-0.762,4.193-2.285,6.289v0.566
	c2.76-1.432,4.856-2.148,6.289-2.148c1.731,0.737,2.682,1.493,2.852,2.269c0,1.81-3.62,7.291-10.859,16.442v0.566l1.152,0.586h1.133
	l5.801-1.367v0.586c0,0.755-1.361,1.394-4.082,1.914h-4.004c-0.586,0-1.341-0.762-2.266-2.285c0-1.081,3.424-6.217,10.273-15.41
	v-1.152c-4.427,0-10.521,5.521-18.281,16.562l-1.055,0.684L0,27.246v-1.133c6.562-8.086,11.51-14.941,14.844-20.566V3.125h-1.133
	c-2.07,0-3.594,1.007-4.57,3.022v2.251c1.146,0,1.719,0.384,1.719,1.152l-1.152,0.566c-0.599,0-1.361-0.716-2.285-2.148
	C7.656,3.308,9.941,0.977,14.277,0.977z"/>
<path id="XMLID_31_" class="st0" d="M27.617,17.363h0.918c0.625,0,0.938,0.469,0.938,1.406c-1.94,1.341-3.718,4.004-5.332,7.988
	l0.938,0.469c2.526-2.266,5.045-4.524,7.559-6.777v2.148c-3.294,4.245-6.205,6.367-8.73,6.367h-0.469
	c-1.237-0.638-1.855-1.413-1.855-2.324C21.582,24.271,23.594,21.179,27.617,17.363z M29.141,11.719l1.523-1.055l0.43,0.605
	c0.286,0.404,0.228,0.749-0.176,1.035l-0.605,0.43c-0.3,0.195-0.82,0.104-1.562-0.273L29.141,11.719z"/>
<path id="XMLID_34_" class="st0" d="M38.828,26.265l4.102-4.273v1.705l-4.023,4.074c-1.25,0.652-3.19,1.311-5.82,1.976h-1.094
	c-1.458-0.582-2.188-1.849-2.188-3.801v-0.543c2.422-8.016,6.067-12.023,10.938-12.023h1.094c0.729,0.104,1.094,0.462,1.094,1.074
	V15c0,0.534-0.547,1.081-1.641,1.641l-2.734-0.547c-1.38,0-3.568,3.103-6.562,9.309c0.364,0.64,0.547,1.372,0.547,2.195h1.641
	C36.133,26.983,37.682,26.539,38.828,26.265z"/>
<path id="XMLID_36_" class="st0" d="M58.496,25.727l-3.027,3.238l-3.281,0.078c-1.576-0.394-2.363-0.857-2.363-1.391v-0.915
	c0-0.571,0.631-2.114,1.895-4.629H51.25c-2.331,1.498-6.283,4.818-11.855,9.961h-0.469c-0.638,0-0.957-0.319-0.957-0.957
	c1.628-2.37,4.316-8.24,8.066-17.611c4.036-8.285,7.513-12.428,10.43-12.428c0.638,0.092,0.957,0.407,0.957,0.945V3.93
	c0,3.085-3.796,7.55-11.387,13.393c-1.901,5.646-2.852,8.679-2.852,9.099c6.458-5.738,10.41-8.607,11.855-8.607l0.469,0.945v1.438
	c0,0.735-1.107,2.967-3.32,6.696h2.383l3.926-4.038C64.928,16.949,64.928,17.905,58.496,25.727z M48.887,11.591v0.946
	c4.414-3.637,6.621-6.821,6.621-9.553C54.18,3.365,51.973,6.234,48.887,11.591z"/>
<path id="XMLID_39_" class="st0" d="M72.07,13.359c0.859,0.13,1.289,0.566,1.289,1.309l-0.625,3.887
	c0.755,0.443,1.614,0.664,2.578,0.664v1.289h-4.531c-2.865,5.638-5.898,8.457-9.102,8.457c-1.302-0.43-1.953-1.731-1.953-3.906
	c2.344-6.927,4.727-10.391,7.148-10.391l3.242,0.645C70.117,14.688,70.768,14.037,72.07,13.359z M62.969,25.723h0.664
	c0.547,0,2.487-1.953,5.82-5.859v-1.309c0-0.859-0.43-1.289-1.289-1.289C64.7,20.156,62.969,22.976,62.969,25.723z"/>
<path id="XMLID_42_" class="st0" d="M88.281,21.238c-3.698,4.323-8.203,7.159-13.516,8.508c-2.344-0.401-3.516-1.23-3.516-2.487
	c7.344-17.04,12.852-25.56,16.523-25.56l0.508,0.999v2.017c-0.391,3.054-3.906,8.406-10.547,16.055
	c-2.656,1.891-3.984,3.718-3.984,5.479v1.496l2.5,0.505c0.989-0.352,2.07-0.794,3.242-1.328l8.789-6.934V21.238z M85.781,3.848
	c-4.115,6.619-6.458,10.771-7.031,12.454c5.338-5.401,8.008-9.553,8.008-12.454H85.781z"/>
<path id="XMLID_45_" class="st0" d="M95.059,28.75H92.09l-1.777-1.191l-4.16,2.969c-2.044,0-3.229-0.593-3.555-1.777v-2.969
	c2.903-5.143,6.862-9.297,11.875-12.461c0.794,0.117,1.191,0.508,1.191,1.172C88.542,20.677,84.98,25.033,84.98,27.559h1.777
	c2.396-1.354,5.957-5.508,10.684-12.461l1.191-0.605h0.586v0.605c0,1.406-2.175,5.163-6.523,11.27l1.328,0.527l7.188-7.07
	l-0.156,3.047C99.167,24.707,97.168,26.667,95.059,28.75z"/>
<path id="XMLID_47_" class="st0" d="M111.035,13.047h1.191c0.794,0.13,1.191,0.527,1.191,1.191l-4.199,8.711l3.984-3.965
	c1.914-1.185,1.855-0.54-0.176,1.934c-2.761,3.32-4.609,5.645-5.547,6.973l-1.777,1.074h-1.777c-3.177,0-4.961-1.94-5.352-5.82
	l1.191-0.586c0.117,0.781,0.514,1.172,1.191,1.172v-0.586c-0.404-0.69-0.605-1.484-0.605-2.383
	C102.734,20.762,106.295,18.19,111.035,13.047z M102.129,25.039v0.605c0.13,0.781,0.527,1.172,1.191,1.172h1.191
	c0-0.56-0.593-1.152-1.777-1.777H102.129z M104.512,21.25l-1.191,1.777h2.383v-0.586C105.703,21.647,105.306,21.25,104.512,21.25z"
	/>
<path id="XMLID_51_" class="st0" d="M145.808,1.367l0.703,1.348c-5.365,4.766-12.37,13.581-21.016,26.445h-1.367
	c-2.708-1.146-4.062-3.2-4.062-6.164c0.859-0.409,1.537-0.613,2.031-0.613c1.797,0.44,2.695,1.314,2.695,2.621
	c1.067-0.323,4.909-5.722,11.523-16.195C140.951,4.369,144.115,1.888,145.808,1.367z M159.402,0h1.328
	c0,2.826-5.651,8.027-16.953,15.605c0,1.534-1.12,4.667-3.359,9.398v2.008c1.016,0,1.914,0.241,2.695,0.723
	c0.885-0.482,1.562-0.723,2.031-0.723v0.723c0,0.95-0.456,1.425-1.367,1.425h-2.695c-2.683,0-4.492-1.385-5.43-4.156
	c0-2.11,1.588-4.569,4.766-7.375v-0.676c-1.823,0-2.734-0.449-2.734-1.348v-0.684l1.367-2.031l3.398,0.664
	C147.944,10.3,153.594,5.781,159.402,0z"/>
<path id="XMLID_54_" class="st0" d="M151.199,15.879l2.363-2.422h2.871c1.432,0,2.148,0.957,2.148,2.871
	c-1.862,4.141-4.492,7.722-7.891,10.742c0.481,0,0.723,0.241,0.723,0.723c2.708-0.312,5.052-0.696,7.031-1.152l5.859-5.84v2.695
	l-5.215,5.41c-1.107,0.234-2.949,0.579-5.527,1.035h-1.445c-1.198,0-2.773-0.801-4.727-2.402c-0.612-0.898-0.593-2.363,0.059-4.395
	C148.048,21.335,149.298,18.913,151.199,15.879z M154.285,16.328l-4.668,6.758h0.723c1.159,0,2.949-2.018,5.371-6.055
	L154.285,16.328z"/>
<path id="XMLID_57_" class="st0" d="M171.492,8.496H172c0.469,0,0.95,0.488,1.445,1.465l-2.93,4.863h0.508
	c3.542-0.325,6.627-0.488,9.258-0.488h0.469l0.977-0.488l0.508,0.977v0.488l-0.508,0.968l-1.953-0.479
	c-8.125,0-12.188,1.28-12.188,3.838c-2.266,2.124-3.398,4.356-3.398,6.698v0.479c0.338,0,0.833,0.179,1.484,0.537l7.773-7.772v1.67
	c-5.026,5.143-7.787,7.714-8.281,7.714h-1.953c-0.963-0.325-1.445-1.302-1.445-2.93v-0.488
	C162.312,22.396,165.554,16.712,171.492,8.496z"/>
<path id="XMLID_59_" class="st0" d="M180.75,26.265l4.102-4.273v1.705l-4.023,4.074c-1.25,0.652-3.19,1.311-5.82,1.976h-1.094
	c-1.458-0.582-2.188-1.849-2.188-3.801v-0.543c2.422-8.016,6.067-12.023,10.938-12.023h1.094c0.729,0.104,1.094,0.462,1.094,1.074
	V15c0,0.534-0.547,1.081-1.641,1.641l-2.734-0.547c-1.38,0-3.568,3.103-6.562,9.309c0.364,0.64,0.547,1.372,0.547,2.195h1.641
	C178.054,26.983,179.604,26.539,180.75,26.265z"/>
<path id="XMLID_61_" class="st0" d="M200.417,25.727l-3.027,3.238l-3.281,0.078c-1.574-0.394-2.363-0.857-2.363-1.391v-0.915
	c0-0.571,0.633-2.114,1.895-4.629h-0.469c-2.33,1.498-6.282,4.818-11.855,9.961h-0.469c-0.638,0-0.957-0.319-0.957-0.957
	c1.628-2.37,4.316-8.24,8.066-17.611c4.037-8.285,7.513-12.428,10.429-12.428c0.639,0.092,0.957,0.407,0.957,0.945V3.93
	c0,3.085-3.795,7.55-11.386,13.393c-1.901,5.646-2.852,8.679-2.852,9.099c6.458-5.738,10.41-8.607,11.855-8.607l0.469,0.945v1.438
	c0,0.735-1.105,2.967-3.32,6.696h2.383l3.926-4.038C206.851,16.949,206.851,17.905,200.417,25.727z M190.808,11.591v0.946
	c4.414-3.637,6.621-6.821,6.621-9.553C196.101,3.365,193.894,6.234,190.808,11.591z"/>
<path id="XMLID_64_" class="st0" d="M227.273,22.402l-3.477,3.457c-1.328,0.586-2.93,1.205-4.805,1.855
	c-1.667,0-2.5-1.035-2.5-3.105h-0.625c-2.786,2.904-5.69,4.355-8.711,4.355h-0.625c-0.833,0-1.25-0.417-1.25-1.25v-1.25
	c2.891-6.028,4.336-9.141,4.336-9.336l-1.211-0.625c-0.573,0.651-2.005,2.129-4.297,4.434l-0.938-1.934
	c1.406-1.289,2.317-2.122,2.734-2.5c1.953-1.901,3.606-2.942,4.961-3.125l1.875,2.5v0.625c-2.891,6.602-4.336,10.13-4.336,10.586
	c2.058-0.677,6.628-4.831,13.711-12.461h1.25c0.833,0.13,1.25,0.547,1.25,1.25c-1.536,3.347-2.995,5.84-4.375,7.48
	c0,0.833,0.625,1.25,1.875,1.25c3.438-3.463,5.156-5.215,5.156-5.254V22.402z"/>
<path id="XMLID_66_" class="st0" d="M263.015,22.246c-2.995,3.529-4.896,5.391-5.703,5.586l-2.773,0.684
	c-0.481,0.117-1.035-0.436-1.66-1.66v-3.301l1.66-2.754l-1.113-0.566l-10.488,8.828h-1.094c-0.742,0-1.113-0.364-1.113-1.094
	c2.214-5.26,3.32-8.203,3.32-8.828l-1.113-0.547h-1.094c-0.833,0-5.065,4.043-12.695,12.129l-0.547-1.094
	c0-0.924,2.024-4.603,6.074-11.035V17.48c-0.144-0.286-0.28-0.579-0.41-0.879l-0.684-0.117l-6.699,6.309
	c-1.341-0.078-1.706-0.449-1.094-1.113c1.927-2.07,4.7-4.759,8.32-8.066c2.461-1.302,3.75,0.723,3.867,6.074l4.414-3.301h3.32
	c0.521,0,1.067,0.547,1.641,1.641c0,1.797-0.547,3.64-1.641,5.527h0.547c4.505-4.414,7.812-6.621,9.922-6.621l1.66,2.207v2.207
	c-1.836,1.901-2.754,3.555-2.754,4.961v0.547c2.005-0.755,4.258-2.877,6.758-6.367C263.822,17.715,264.213,18.301,263.015,22.246z"
	/>
</svg>
