<?xml version="1.0" encoding="utf-8"?>
<!-- Generator: Adobe Illustrator 19.0.0, SVG Export Plug-In . SVG Version: 6.00 Build 0)  -->
<svg version="1.1" id="Layer_1" xmlns="http://www.w3.org/2000/svg" xmlns:xlink="http://www.w3.org/1999/xlink" x="0px" y="0px"
	 width="800px" height="800px" viewBox="0 0 800 800" style="enable-background:new 0 0 800 800;" xml:space="preserve">
<style type="text/css">
	.st0{fill:#FFFFFF;}
</style>
<g>
	<g>
		<path class="st0" d="M349.228,487.514c18.435-5.389,35.755-14.721,50.413-27.215c14.88,12.953,32.591,22.61,51.473,28.13
			l-4.116-149.215l70.726-0.973l-0.172-93.753c-13.265-0.573-25.901,0-37.336,0c-31.256,0-58.522,8.767-79.45,24.766
			c-21.079-16.584-48.791-25.682-80.642-25.682c-11.435,0-24.071-0.515-37.336,0l-0.172,93.753l70.726,0.973L349.228,487.514z
			 M200,522.371h12.178v33.598h9.834v-33.598h12.178v-8.814H200V522.371z M253.745,538.512h14.751v-8.528h-14.751v-7.784h20.411
			v-8.585h-30.189v42.355H274.5v-8.585h-20.755V538.512z M296.169,513.557h-9.948v42.412h29.102v-8.872h-19.154V513.557z
			 M334.077,538.512h14.751v-8.528h-14.751v-7.784h20.412v-8.585h-30.189v42.355h30.475v-8.585h-20.698V538.512z M444.826,539.714
			c0,5.037-2.973,7.956-7.49,7.956c-4.574,0-7.604-2.919-7.604-7.956v-26.1h-10.006v26.157c0,11.848,7.89,16.885,17.495,16.885
			c9.548,0,17.667-5.037,17.667-16.885v-26.1h-10.063V539.714z M492.967,538.397c-0.572-1.202-17.324-24.841-17.324-24.841h-8.462
			v42.412h9.491l-0.057-25.642c0.686,1.202,17.781,25.642,17.781,25.642h8.005v-42.412h-9.491L492.967,538.397z M530.017,513.614
			h-14.923v42.355h14.237c14.637,0,22.184-7.212,22.184-21.349C551.458,520.482,543.51,513.614,530.017,513.614z M529.731,547.269
			h-4.746v-24.898h4.974c8.176,0,11.435,4.693,11.435,12.42C541.452,542.862,537.907,547.269,529.731,547.269z M594.625,519.28
			c-3.659-4.121-8.862-6.41-14.98-6.41c-6.06,0-11.321,2.29-14.98,6.41c-3.373,3.778-5.374,9.101-5.374,15.511
			s2.001,11.733,5.374,15.511c3.602,4.121,8.862,6.353,14.923,6.353c6.118,0,11.378-2.289,15.037-6.41
			c3.316-3.778,5.375-9.101,5.375-15.511C599.943,528.324,597.942,523.058,594.625,519.28z M587.364,543.548
			c-1.83,2.747-4.46,4.236-7.719,4.236c-3.259,0-5.889-1.545-7.719-4.236c-1.487-2.232-2.459-5.208-2.459-8.814
			c0-3.549,0.915-6.525,2.401-8.757c1.829-2.69,4.46-4.236,7.661-4.236c3.259,0,5.946,1.545,7.776,4.293
			c1.486,2.232,2.401,5.208,2.401,8.757C589.765,538.397,588.851,541.316,587.364,543.548z M386.907,536.165
			c-0.4-1.545-11.664-22.608-11.664-22.608h-8.805v42.412h9.262v-24.211c0.629,1.545,7.662,14.424,9.434,18.316h3.316
			c1.773-3.892,8.805-16.77,9.434-18.316v24.211h9.377v-42.412h-8.691C398.571,513.557,387.364,534.562,386.907,536.165z"/>
	</g>
</g>
</svg>
