<?xml version="1.0" encoding="utf-8"?>
<!-- Generator: Adobe Illustrator 19.0.0, SVG Export Plug-In . SVG Version: 6.00 Build 0)  -->
<svg version="1.1" id="Layer_1" xmlns="http://www.w3.org/2000/svg" xmlns:xlink="http://www.w3.org/1999/xlink" x="0px" y="0px"
	 width="800px" height="800px" viewBox="0 0 800 800" style="enable-background:new 0 0 800 800;" xml:space="preserve">
<style type="text/css">
	.st0{fill:#FFFFFF;}
</style>
<path id="XMLID_89_" class="st0" d="M743,304.6c0,0-31.8-1.1-56.9,12.5v67.5c0,13.7,4.9,25.5,15.2,34c9.9,8.1,41.7,21.8,41.7,21.8
	s31.9-13.7,41.7-21.8c10.3-8.4,15.2-20.3,15.2-34v-67.5C774.8,303.6,743,304.6,743,304.6L743,304.6z M795.4,384.6
	c0,12.7-4.7,23.2-13.6,30.5c-7.9,6.5-32.1,17.4-38.8,20.4c-6.7-3-30.9-13.8-38.8-20.4c-8.9-7.3-13.6-17.9-13.6-30.5v-38.9
	c31.5-28.9,71.3-30.8,104.9-27.7L795.4,384.6L795.4,384.6z"/>
<path id="XMLID_24_" class="st0" d="M775.2,375.3c4.4,2.6,6.2,4.3,6.3,7.4c0.1,3.5-2.3,5.6-6,5.6c-3.2,0-7-1.8-9.6-4.1v9.3
	c3.2,1.9,7.1,3.1,11.1,3.1c9.9,0,14.4-7,14.5-13.4c0.2-5.8-1.5-10.3-9.8-15.2c-3.8-2.2-6.7-3.6-6.6-7.3c0.1-3.6,3.1-4.8,5.9-4.8
	c3.5,0.1,6.9,2,9,4.1v-8.8c-1.8-1.4-5.5-3.4-11-3.3c-6.6,0.2-13.5,5-13.5,13.1C765.4,366.4,766.9,370.4,775.2,375.3"/>
<path id="XMLID_59_" class="st0" d="M741,395.9c1,0.3,2.5,0.6,4.5,0.6c11.2,0,17.6-10.1,17.6-24.7c0-14.6-6.6-23.7-18.6-23.7
	c-5.5,0-9.9,1.2-13.5,3.6V417h10.1L741,395.9L741,395.9z M741,356.8c0.8-0.4,2.2-0.7,3.6-0.7c5.8,0,8.2,4.7,8.2,15.9
	c0,11-2.8,16.3-8.5,16.3c-1.4,0-2.6-0.4-3.3-0.6V356.8L741,356.8z M710.7,396.6c6.1,0,11.3-1.4,15.1-4V349h-10v37.9
	c-1.1,0.8-2.7,1.2-4.8,1.2c-4.6,0-5.3-4.2-5.3-7.1v-32h-10.1v31.6C695.7,391.2,700.7,396.6,710.7,396.6"/>
<path id="XMLID_54_" class="st0" d="M778.1,435.5v6.5h1.2v-2.8h0.2c0.1,0.2,1.8,2.7,1.8,2.7h1.4c0,0-1.8-2.6-2-2.9
	c0.9-0.2,1.5-0.9,1.5-1.8c0-0.9-0.6-1.9-2.2-1.9L778.1,435.5L778.1,435.5z M779.9,436.5c1,0,1.2,0.5,1.2,0.9c0,0.6-0.3,1-1.5,1h-0.2
	v-2L779.9,436.5L779.9,436.5z M784.5,438.8c0,2.4-2,4.4-4.4,4.4c-2.5,0-4.4-2-4.4-4.4c0-2.5,2-4.4,4.4-4.4
	C782.5,434.4,784.5,436.4,784.5,438.8 M780,433.4c-3,0-5.4,2.4-5.4,5.4s2.4,5.4,5.4,5.4s5.4-2.4,5.4-5.4S783,433.4,780,433.4"/>
<path id="XMLID_9_" class="st0" d="M16.1,370.2H0v-13.9h50.1v13.9H33.8v63.3H16.1C16.1,433.5,16.1,370.2,16.1,370.2z"/>
<path id="XMLID_11_" class="st0" d="M56.9,354.3h17.8v29.1h0.3c1.5-2,3.5-3.6,5.7-4.8c2.6-1.3,5.7-2,9-2c12.2,0,16.9,8.7,16.9,22.9
	v34H88.7v-34c0-5.5-1.2-10.3-6.5-10.3c-3,0-5.5,1.5-6.9,5.3c-0.3,0.9-0.7,3-0.7,4.2v34.8H56.9L56.9,354.3L56.9,354.3z"/>
<path id="XMLID_13_" class="st0" d="M128.2,410.8c0.3,8.7,6.2,11.9,14.1,11.9c5,0,9.5-0.9,12.6-1.8l2.4,10.8
	c-4.6,1.5-11.5,2.5-18.3,2.5c-18,0-27.9-10.1-27.9-27.6c0-18.8,11.5-30,26.6-30c14.2,0,22.5,9.5,22.5,26.5c0,4-0.2,6.2-0.6,7.8
	H128.2z M144.1,400.3c0-7.2-2.2-12.8-7.4-12.8c-5.8,0-8.1,7.2-8.2,12.8H144.1L144.1,400.3z"/>
<path id="XMLID_16_" class="st0" d="M212.9,356.3v50.2c0,11.3,4.1,14.8,8.7,14.8c5.1,0,8.8-3.1,8.8-14.8v-50.2h17.8v47.5
	c0,19.8-8.8,30.6-26.4,30.6c-19.1,0-26.6-11.1-26.6-30.5v-47.6H212.9L212.9,356.3z"/>
<path id="XMLID_18_" class="st0" d="M258.3,357.5c5-0.9,11.8-1.5,18.6-1.5c10.6,0,18.8,1.3,24.8,5.9c5.4,4,7.8,10.4,7.8,16.9
	c0,8.3-3,14.2-7.7,18.6c-5.7,5-14.9,7.3-22.2,7.3H276v28.8h-17.8L258.3,357.5L258.3,357.5z M276,392.5c0.8,0.3,1.8,0.3,2.9,0.3
	c9,0,13-5.4,13-12.6c0-6.7-3.3-12-11.5-12c-1.6,0-3.3,0.3-4.3,0.6L276,392.5L276,392.5z"/>
<path id="XMLID_21_" class="st0" d="M315.7,418.2c3.7,1.7,9.9,3,15,3c8.4,0,12.5-3.7,12.5-8.7c0-5.6-4.1-8.3-11.8-12.6
	c-12.5-6.4-17.2-14.5-17.2-21.5c0-12.4,9.8-22.7,28.9-22.7c6,0,11.7,1.4,14.4,2.8l-2.9,12.9c-2.6-1.4-6.5-2.6-11.7-2.6
	c-7.6,0-11.3,3.9-11.3,8c0,4.6,2.7,7,12.6,12c12.1,6.2,16.5,14,16.5,22.1c0,14.1-12.3,23.4-30.2,23.4c-7.3,0-14.5-1.6-17.5-3.1
	L315.7,418.2L315.7,418.2z"/>
<path id="XMLID_23_" class="st0" d="M401,418.2c3.7,1.7,9.9,3,15,3c8.4,0,12.5-3.7,12.5-8.7c0-5.6-4.1-8.3-11.8-12.6
	c-12.5-6.4-17.2-14.5-17.2-21.5c0-12.4,9.8-22.7,28.9-22.7c6,0,11.7,1.4,14.4,2.8l-2.9,12.9c-2.6-1.4-6.5-2.6-11.7-2.6
	c-7.6,0-11.3,3.9-11.3,8c0,4.6,2.7,7,12.6,12c12.1,6.2,16.5,14,16.5,22.1c0,14.1-12.3,23.4-30.2,23.4c-7.3,0-14.5-1.6-17.5-3.1
	L401,418.2L401,418.2z"/>
<path id="XMLID_25_" class="st0" d="M476.1,362.4v15.1h13v10.7h-13v25.5c0,6.5,3.3,8.1,6.8,8.1c1.8,0,3.1-0.1,4.6-0.4l0.2,11.7
	c-2.4,0.6-6.1,1-10.8,1c-5.1,0-9.6-1-12.7-3.6c-3.7-3-5.7-7.2-5.7-16v-26.5h-7.8v-10.7h7.8v-11.6L476.1,362.4z"/>
<path id="XMLID_42_" class="st0" d="M544.5,405.4c0,23.4-15.3,29.1-25.3,29.1c-15.8,0-25.3-10.6-25.3-28.8
	c0-20.2,12.5-29.1,25.6-29.1C535,376.6,544.5,387.7,544.5,405.4z M511.5,405.4c0,9.6,1.8,17.7,8.1,17.7c5.7,0,7.2-9.4,7.2-17.7
	c0-7.7-1.5-17.4-7.4-17.4C512.8,388,511.5,397.7,511.5,405.4z"/>
<path id="XMLID_45_" class="st0" d="M552,394.4c0-5.6-0.3-11.7-0.6-16.8h15.4l1,8.1h0.4c3-5.9,8.2-9.1,13.1-9.1c1.8,0,2.7,0,3.8,0.3
	v14.9c-1.1-0.3-2.3-0.3-3.8-0.3c-3.8,0-8.8,2.2-10.8,8c-0.4,1.3-0.7,3.2-0.7,5.6v28.4H552V394.4L552,394.4z"/>
<path id="XMLID_47_" class="st0" d="M605.8,410.8c0.3,8.7,6.2,11.9,14.1,11.9c5,0,9.5-0.9,12.6-1.8l2.4,10.8
	c-4.6,1.5-11.5,2.5-18.3,2.5c-18,0-27.9-10.1-27.9-27.6c0-18.8,11.5-30,26.6-30c14.2,0,22.5,9.5,22.5,26.5c0,4-0.2,6.2-0.6,7.8
	H605.8z M621.6,400.3c0-7.2-2.2-12.8-7.4-12.8c-5.8,0-8.1,7.2-8.2,12.8H621.6L621.6,400.3z"/>
<path id="XMLID_1_" class="st0" d="M640.1,382.7v-2.1h7.2v2.1h-2.2v7.3h-2.9v-7.3H640.1z"/>
<path id="XMLID_27_" class="st0" d="M651.6,380.6l1.2,5.5h0.1l1.2-5.5h4.1v9.4h-2.7V383h-0.1l-1.5,6.9h-2.1l-1.5-6.9h-0.1v6.9h-2.7
	v-9.4H651.6z"/>
</svg>
